<?xml version="1.0" encoding="utf-8" standalone="no"?>
<!DOCTYPE svg PUBLIC "-//W3C//DTD SVG 1.1//EN"
  "http://www.w3.org/Graphics/SVG/1.1/DTD/svg11.dtd">
<!-- Created with matplotlib (http://matplotlib.org/) -->
<svg height="633pt" version="1.1" viewBox="0 0 971 633" width="971pt" xmlns="http://www.w3.org/2000/svg" xmlns:xlink="http://www.w3.org/1999/xlink">
 <defs>
  <style type="text/css">
*{stroke-linecap:butt;stroke-linejoin:round;}
  </style>
 </defs>
 <g id="figure_1">
  <g id="patch_1">
   <path d="M 0 633.59575 
L 971.091124 633.59575 
L 971.091124 0 
L 0 0 
z
" style="fill:#ffffff;"/>
  </g>
  <g id="axes_1">
   <g id="patch_2">
    <path d="M 119.482813 585.206687 
L 956.482813 585.206687 
L 956.482813 41.606687 
L 119.482813 41.606687 
z
" style="fill:#eaeaf2;"/>
   </g>
   <g id="matplotlib.axis_1">
    <g id="xtick_1">
     <g id="line2d_1">
      <path clip-path="url(#p534c82e3da)" d="M 119.482813 585.206687 
L 119.482813 41.606687 
" style="fill:none;stroke:#ffffff;stroke-linecap:round;stroke-width:0.8;"/>
     </g>
     <g id="text_1">
      <!-- 0 -->
      <defs>
       <path d="M 27.90625 67.90625 
Q 39 67.90625 44.640625 59.046875 
Q 50.296875 50.203125 50.296875 33.40625 
Q 50.296875 16.59375 44.640625 7.6875 
Q 39 -1.203125 27.90625 -1.203125 
Q 16.796875 -1.203125 11.140625 7.6875 
Q 5.5 16.59375 5.5 33.40625 
Q 5.5 50.203125 11.140625 59.046875 
Q 16.796875 67.90625 27.90625 67.90625 
z
M 27.90625 60.59375 
Q 21.40625 60.59375 18.25 54.1875 
Q 15.09375 47.796875 15.09375 33.40625 
Q 15.09375 19 18.25 12.546875 
Q 21.40625 6.09375 27.90625 6.09375 
Q 34.296875 6.09375 37.5 12.546875 
Q 40.703125 19 40.703125 33.40625 
Q 40.703125 47.703125 37.5 54.140625 
Q 34.296875 60.59375 27.90625 60.59375 
z
" id="FiraSans-Regular-30"/>
      </defs>
      <g style="fill:#262626;" transform="translate(115.577031 604.006687)scale(0.14 -0.14)">
       <use xlink:href="#FiraSans-Regular-30"/>
      </g>
     </g>
    </g>
    <g id="xtick_2">
     <g id="line2d_2">
      <path clip-path="url(#p534c82e3da)" d="M 302.146162 585.206687 
L 302.146162 41.606687 
" style="fill:none;stroke:#ffffff;stroke-linecap:round;stroke-width:0.8;"/>
     </g>
     <g id="text_2">
      <!-- 5 -->
      <defs>
       <path d="M 42 59.703125 
L 15.90625 59.703125 
L 15.90625 40 
Q 21 42.59375 26.59375 42.59375 
Q 35.203125 42.59375 40.390625 36.9375 
Q 45.59375 31.296875 45.59375 21.40625 
Q 45.59375 14.796875 42.6875 9.640625 
Q 39.796875 4.5 34.546875 1.640625 
Q 29.296875 -1.203125 22.40625 -1.203125 
Q 16.296875 -1.203125 11.5 0.9375 
Q 6.703125 3.09375 2.59375 7.296875 
L 8 12.59375 
Q 11.203125 9.40625 14.59375 7.84375 
Q 18 6.296875 22.296875 6.296875 
Q 28.703125 6.296875 32.34375 10.296875 
Q 36 14.296875 36 21.59375 
Q 36 28.90625 32.703125 32.203125 
Q 29.40625 35.5 23.796875 35.5 
Q 21.203125 35.5 19 34.953125 
Q 16.796875 34.40625 14.296875 33.203125 
L 7.09375 33.203125 
L 7.09375 66.90625 
L 43.296875 66.90625 
z
" id="FiraSans-Regular-35"/>
      </defs>
      <g style="fill:#262626;" transform="translate(298.639599 604.006687)scale(0.14 -0.14)">
       <use xlink:href="#FiraSans-Regular-35"/>
      </g>
     </g>
    </g>
    <g id="xtick_3">
     <g id="line2d_3">
      <path clip-path="url(#p534c82e3da)" d="M 484.809511 585.206687 
L 484.809511 41.606687 
" style="fill:none;stroke:#ffffff;stroke-linecap:round;stroke-width:0.8;"/>
     </g>
     <g id="text_3">
      <!-- 10 -->
      <defs>
       <path d="M 32.296875 66.90625 
L 32.296875 0 
L 23.09375 0 
L 23.09375 57.09375 
L 7.5 47.59375 
L 3.5 54.09375 
L 24.203125 66.90625 
z
" id="FiraSans-Regular-31"/>
      </defs>
      <g style="fill:#262626;" transform="translate(477.872949 604.006687)scale(0.14 -0.14)">
       <use xlink:href="#FiraSans-Regular-31"/>
       <use x="43.299988" xlink:href="#FiraSans-Regular-30"/>
      </g>
     </g>
    </g>
    <g id="xtick_4">
     <g id="line2d_4">
      <path clip-path="url(#p534c82e3da)" d="M 667.472861 585.206687 
L 667.472861 41.606687 
" style="fill:none;stroke:#ffffff;stroke-linecap:round;stroke-width:0.8;"/>
     </g>
     <g id="text_4">
      <!-- 15 -->
      <g style="fill:#262626;" transform="translate(660.935517 604.006687)scale(0.14 -0.14)">
       <use xlink:href="#FiraSans-Regular-31"/>
       <use x="43.299988" xlink:href="#FiraSans-Regular-35"/>
      </g>
     </g>
    </g>
    <g id="xtick_5">
     <g id="line2d_5">
      <path clip-path="url(#p534c82e3da)" d="M 850.13621 585.206687 
L 850.13621 41.606687 
" style="fill:none;stroke:#ffffff;stroke-linecap:round;stroke-width:0.8;"/>
     </g>
     <g id="text_5">
      <!-- 20 -->
      <defs>
       <path d="M 22.796875 67.90625 
Q 28.796875 67.90625 33.34375 65.5 
Q 37.90625 63.09375 40.40625 58.9375 
Q 42.90625 54.796875 42.90625 49.59375 
Q 42.90625 43.5 40.15625 37.890625 
Q 37.40625 32.296875 31.703125 25.796875 
Q 26 19.296875 14.40625 7.703125 
L 44.5 7.703125 
L 43.40625 0 
L 3.90625 0 
L 3.90625 7.296875 
Q 17.296875 21.203125 22.890625 27.640625 
Q 28.5 34.09375 30.890625 38.890625 
Q 33.296875 43.703125 33.296875 49.203125 
Q 33.296875 54.40625 30.296875 57.34375 
Q 27.296875 60.296875 22.296875 60.296875 
Q 18.203125 60.296875 15.09375 58.59375 
Q 12 56.90625 8.5 53 
L 2.5 57.796875 
Q 6.59375 62.90625 11.59375 65.40625 
Q 16.59375 67.90625 22.796875 67.90625 
z
" id="FiraSans-Regular-32"/>
      </defs>
      <g style="fill:#262626;" transform="translate(842.765429 604.006687)scale(0.14 -0.14)">
       <use xlink:href="#FiraSans-Regular-32"/>
       <use x="49.499985" xlink:href="#FiraSans-Regular-30"/>
      </g>
     </g>
    </g>
    <g id="text_6">
     <!-- Count -->
     <defs>
      <path d="M 34.09375 70.09375 
Q 40.296875 70.09375 44.546875 68.5 
Q 48.796875 66.90625 53.203125 63.296875 
L 48 57.203125 
Q 41.703125 62.296875 34.703125 62.296875 
Q 26.09375 62.296875 20.84375 55.6875 
Q 15.59375 49.09375 15.59375 34.5 
Q 15.59375 20.296875 20.796875 13.546875 
Q 26 6.796875 34.59375 6.796875 
Q 39 6.796875 42.296875 8.296875 
Q 45.59375 9.796875 49.296875 12.5 
L 54 6.5 
Q 50.796875 3.203125 45.796875 1 
Q 40.796875 -1.203125 34.296875 -1.203125 
Q 25.90625 -1.203125 19.34375 2.9375 
Q 12.796875 7.09375 9.140625 15.140625 
Q 5.5 23.203125 5.5 34.5 
Q 5.5 45.796875 9.296875 53.84375 
Q 13.09375 61.90625 19.59375 66 
Q 26.09375 70.09375 34.09375 70.09375 
z
" id="FiraSans-Regular-43"/>
      <path d="M 29.296875 53.90625 
Q 40.40625 53.90625 46.546875 46.5 
Q 52.703125 39.09375 52.703125 26.40625 
Q 52.703125 18.203125 49.890625 11.953125 
Q 47.09375 5.703125 41.796875 2.25 
Q 36.5 -1.203125 29.203125 -1.203125 
Q 18.09375 -1.203125 11.890625 6.1875 
Q 5.703125 13.59375 5.703125 26.296875 
Q 5.703125 34.5 8.5 40.75 
Q 11.296875 47 16.59375 50.453125 
Q 21.90625 53.90625 29.296875 53.90625 
z
M 29.296875 46.5 
Q 15.59375 46.5 15.59375 26.296875 
Q 15.59375 6.203125 29.203125 6.203125 
Q 42.796875 6.203125 42.796875 26.40625 
Q 42.796875 46.5 29.296875 46.5 
z
" id="FiraSans-Regular-6f"/>
      <path d="M 48.703125 0 
L 40.796875 0 
L 40.09375 8.203125 
Q 37.09375 3.296875 33.1875 1.046875 
Q 29.296875 -1.203125 23.703125 -1.203125 
Q 16.796875 -1.203125 12.890625 3 
Q 9 7.203125 9 14.90625 
L 9 52.703125 
L 18.203125 52.703125 
L 18.203125 15.90625 
Q 18.203125 10.5 20.09375 8.25 
Q 22 6 26.296875 6 
Q 34 6 39.5 15.09375 
L 39.5 52.703125 
L 48.703125 52.703125 
z
" id="FiraSans-Regular-75"/>
      <path d="M 34.296875 53.90625 
Q 41.5 53.90625 45.546875 49.59375 
Q 49.59375 45.296875 49.59375 37.796875 
L 49.59375 0 
L 40.40625 0 
L 40.40625 36.5 
Q 40.40625 42.09375 38.296875 44.390625 
Q 36.203125 46.703125 32.09375 46.703125 
Q 27.90625 46.703125 24.703125 44.296875 
Q 21.5 41.90625 18.703125 37.40625 
L 18.703125 0 
L 9.5 0 
L 9.5 52.703125 
L 17.40625 52.703125 
L 18.203125 44.90625 
Q 21 49.09375 25.140625 51.5 
Q 29.296875 53.90625 34.296875 53.90625 
z
" id="FiraSans-Regular-6e"/>
      <path d="M 36.09375 2.40625 
Q 30.90625 -1.203125 24.296875 -1.203125 
Q 17.59375 -1.203125 13.84375 2.640625 
Q 10.09375 6.5 10.09375 13.796875 
L 10.09375 45.59375 
L 0.90625 45.59375 
L 0.90625 52.703125 
L 10.09375 52.703125 
L 10.09375 64.59375 
L 19.296875 65.703125 
L 19.296875 52.703125 
L 31.796875 52.703125 
L 30.796875 45.59375 
L 19.296875 45.59375 
L 19.296875 14.203125 
Q 19.296875 10.09375 20.75 8.25 
Q 22.203125 6.40625 25.59375 6.40625 
Q 28.703125 6.40625 32.59375 8.5 
z
" id="FiraSans-Regular-74"/>
     </defs>
     <g style="fill:#262626;" transform="translate(516.599063 622.98825)scale(0.16 -0.16)">
      <use xlink:href="#FiraSans-Regular-43"/>
      <use x="55.999985" xlink:href="#FiraSans-Regular-6f"/>
      <use x="114.399979" xlink:href="#FiraSans-Regular-75"/>
      <use x="172.599976" xlink:href="#FiraSans-Regular-6e"/>
      <use x="231.199966" xlink:href="#FiraSans-Regular-74"/>
     </g>
    </g>
   </g>
   <g id="matplotlib.axis_2">
    <g id="ytick_1">
     <g id="line2d_6">
      <path clip-path="url(#p534c82e3da)" d="M 119.482813 560.497597 
L 956.482813 560.497597 
" style="fill:none;stroke:#ffffff;stroke-linecap:round;stroke-width:0.8;"/>
     </g>
     <g id="text_7">
      <!-- Text -->
      <defs>
       <path d="M 50.703125 68.90625 
L 49.703125 60.796875 
L 30.59375 60.796875 
L 30.59375 0 
L 21.09375 0 
L 21.09375 60.796875 
L 1.5 60.796875 
L 1.5 68.90625 
z
" id="FiraSans-Regular-54"/>
       <path d="M 49.296875 27.90625 
Q 49.296875 25.59375 49.09375 23.203125 
L 15.5 23.203125 
Q 16.09375 14.5 19.890625 10.390625 
Q 23.703125 6.296875 29.703125 6.296875 
Q 33.5 6.296875 36.703125 7.390625 
Q 39.90625 8.5 43.40625 10.90625 
L 47.40625 5.40625 
Q 39 -1.203125 29 -1.203125 
Q 18 -1.203125 11.84375 6 
Q 5.703125 13.203125 5.703125 25.796875 
Q 5.703125 34 8.34375 40.34375 
Q 11 46.703125 15.953125 50.296875 
Q 20.90625 53.90625 27.59375 53.90625 
Q 38.09375 53.90625 43.6875 47 
Q 49.296875 40.09375 49.296875 27.90625 
z
M 40.203125 30.59375 
Q 40.203125 38.40625 37.09375 42.5 
Q 34 46.59375 27.796875 46.59375 
Q 16.5 46.59375 15.5 30 
L 40.203125 30 
z
" id="FiraSans-Regular-65"/>
       <path d="M 29.703125 28.203125 
L 48 0 
L 36.90625 0 
L 24 22.296875 
L 10.90625 0 
L 0.5 0 
L 18.90625 27.796875 
L 2.59375 52.703125 
L 13.40625 52.703125 
L 24.40625 33.40625 
L 35.5 52.703125 
L 45.90625 52.703125 
z
" id="FiraSans-Regular-78"/>
      </defs>
      <g style="fill:#262626;" transform="translate(84.47125 565.747597)scale(0.14 -0.14)">
       <use xlink:href="#FiraSans-Regular-54"/>
       <use x="51.699997" xlink:href="#FiraSans-Regular-65"/>
       <use x="106.199982" xlink:href="#FiraSans-Regular-78"/>
       <use x="154.699966" xlink:href="#FiraSans-Regular-74"/>
      </g>
     </g>
    </g>
    <g id="ytick_2">
     <g id="line2d_7">
      <path clip-path="url(#p534c82e3da)" d="M 119.482813 511.079415 
L 956.482813 511.079415 
" style="fill:none;stroke:#ffffff;stroke-linecap:round;stroke-width:0.8;"/>
     </g>
     <g id="text_8">
      <!-- Gear -->
      <defs>
       <path d="M 35.40625 70.09375 
Q 41.90625 70.09375 46.65625 68.25 
Q 51.40625 66.40625 56.09375 62.5 
L 50.5 56.703125 
Q 46.796875 59.703125 43.390625 61 
Q 40 62.296875 35.40625 62.296875 
Q 30.09375 62.296875 25.640625 59.4375 
Q 21.203125 56.59375 18.390625 50.34375 
Q 15.59375 44.09375 15.59375 34.5 
Q 15.59375 20 20.34375 13.296875 
Q 25.09375 6.59375 34.40625 6.59375 
Q 42 6.59375 47.5 9.703125 
L 47.5 30.5 
L 35.296875 30.5 
L 34.203125 38.203125 
L 56.90625 38.203125 
L 56.90625 4.90625 
Q 46.203125 -1.203125 34.40625 -1.203125 
Q 20.796875 -1.203125 13.140625 7.890625 
Q 5.5 17 5.5 34.5 
Q 5.5 45.703125 9.546875 53.75 
Q 13.59375 61.796875 20.4375 65.9375 
Q 27.296875 70.09375 35.40625 70.09375 
z
" id="FiraSans-Regular-47"/>
       <path d="M 45 12.296875 
Q 45 9.09375 46.09375 7.546875 
Q 47.203125 6 49.40625 5.203125 
L 47.296875 -1.203125 
Q 43.203125 -0.703125 40.703125 1.09375 
Q 38.203125 2.90625 37 6.703125 
Q 31.703125 -1.203125 21.296875 -1.203125 
Q 13.5 -1.203125 9 3.1875 
Q 4.5 7.59375 4.5 14.703125 
Q 4.5 23.09375 10.546875 27.59375 
Q 16.59375 32.09375 27.703125 32.09375 
L 35.796875 32.09375 
L 35.796875 36 
Q 35.796875 41.59375 33.09375 44 
Q 30.40625 46.40625 24.796875 46.40625 
Q 19 46.40625 10.59375 43.59375 
L 8.296875 50.296875 
Q 18.09375 53.90625 26.5 53.90625 
Q 35.796875 53.90625 40.390625 49.34375 
Q 45 44.796875 45 36.40625 
L 45 12.296875 
z
M 23.40625 5.703125 
Q 31.296875 5.703125 35.796875 13.90625 
L 35.796875 26 
L 28.90625 26 
Q 14.296875 26 14.296875 15.203125 
Q 14.296875 10.5 16.59375 8.09375 
Q 18.90625 5.703125 23.40625 5.703125 
z
" id="FiraSans-Regular-61"/>
       <path d="M 32.40625 53.90625 
Q 35.203125 53.90625 37.59375 53.296875 
L 35.90625 44.296875 
Q 33.5 44.90625 31.296875 44.90625 
Q 26.40625 44.90625 23.40625 41.296875 
Q 20.40625 37.703125 18.703125 30.09375 
L 18.703125 0 
L 9.5 0 
L 9.5 52.703125 
L 17.40625 52.703125 
L 18.296875 42 
Q 20.40625 47.90625 24 50.90625 
Q 27.59375 53.90625 32.40625 53.90625 
z
" id="FiraSans-Regular-72"/>
      </defs>
      <g style="fill:#262626;" transform="translate(81.699688 516.329415)scale(0.14 -0.14)">
       <use xlink:href="#FiraSans-Regular-47"/>
       <use x="63.099991" xlink:href="#FiraSans-Regular-65"/>
       <use x="117.599976" xlink:href="#FiraSans-Regular-61"/>
       <use x="171.999969" xlink:href="#FiraSans-Regular-72"/>
      </g>
     </g>
    </g>
    <g id="ytick_3">
     <g id="line2d_8">
      <path clip-path="url(#p534c82e3da)" d="M 119.482813 461.661233 
L 956.482813 461.661233 
" style="fill:none;stroke:#ffffff;stroke-linecap:round;stroke-width:0.8;"/>
     </g>
     <g id="text_9">
      <!-- Bug -->
      <defs>
       <path d="M 40.40625 36.40625 
Q 47.5 35.203125 51.890625 31.390625 
Q 56.296875 27.59375 56.296875 19.59375 
Q 56.296875 0 29 0 
L 10 0 
L 10 68.90625 
L 26.296875 68.90625 
Q 39.40625 68.90625 46.34375 64.59375 
Q 53.296875 60.296875 53.296875 51.5 
Q 53.296875 45.5 49.546875 41.5 
Q 45.796875 37.5 40.40625 36.40625 
z
M 19.5 61.40625 
L 19.5 39.703125 
L 29.90625 39.703125 
Q 35.90625 39.703125 39.75 42.59375 
Q 43.59375 45.5 43.59375 50.796875 
Q 43.59375 56.796875 39.546875 59.09375 
Q 35.5 61.40625 27.296875 61.40625 
z
M 29 7.59375 
Q 37.40625 7.59375 41.84375 10.09375 
Q 46.296875 12.59375 46.296875 19.59375 
Q 46.296875 26.40625 42 29.40625 
Q 37.703125 32.40625 30.796875 32.40625 
L 19.5 32.40625 
L 19.5 7.59375 
L 29 7.59375 
z
" id="FiraSans-Regular-42"/>
       <path d="M 52 50.296875 
Q 49 49.296875 45.390625 49 
Q 41.796875 48.703125 36.59375 48.703125 
Q 45.90625 44.5 45.90625 35.40625 
Q 45.90625 27.5 40.5 22.5 
Q 35.09375 17.5 25.796875 17.5 
Q 22.203125 17.5 19.09375 18.5 
Q 17.90625 17.703125 17.203125 16.34375 
Q 16.5 15 16.5 13.59375 
Q 16.5 9.296875 23.40625 9.296875 
L 31.796875 9.296875 
Q 37.09375 9.296875 41.1875 7.390625 
Q 45.296875 5.5 47.546875 2.203125 
Q 49.796875 -1.09375 49.796875 -5.296875 
Q 49.796875 -13 43.5 -17.140625 
Q 37.203125 -21.296875 25.09375 -21.296875 
Q 16.59375 -21.296875 11.640625 -19.546875 
Q 6.703125 -17.796875 4.59375 -14.296875 
Q 2.5 -10.796875 2.5 -5.296875 
L 10.796875 -5.296875 
Q 10.796875 -8.5 12 -10.34375 
Q 13.203125 -12.203125 16.296875 -13.140625 
Q 19.40625 -14.09375 25.09375 -14.09375 
Q 33.40625 -14.09375 36.953125 -12.046875 
Q 40.5 -10 40.5 -5.90625 
Q 40.5 -2.203125 37.703125 -0.296875 
Q 34.90625 1.59375 29.90625 1.59375 
L 21.59375 1.59375 
Q 14.90625 1.59375 11.453125 4.4375 
Q 8 7.296875 8 11.59375 
Q 8 14.203125 9.5 16.59375 
Q 11 19 13.796875 20.90625 
Q 9.203125 23.296875 7.046875 26.84375 
Q 4.90625 30.40625 4.90625 35.5 
Q 4.90625 40.796875 7.546875 45 
Q 10.203125 49.203125 14.84375 51.546875 
Q 19.5 53.90625 25.203125 53.90625 
Q 31.40625 53.796875 35.59375 54.34375 
Q 39.796875 54.90625 42.546875 55.84375 
Q 45.296875 56.796875 49.296875 58.59375 
z
M 25.203125 47.296875 
Q 20 47.296875 17.140625 44.046875 
Q 14.296875 40.796875 14.296875 35.5 
Q 14.296875 30.09375 17.1875 26.84375 
Q 20.09375 23.59375 25.40625 23.59375 
Q 30.796875 23.59375 33.640625 26.75 
Q 36.5 29.90625 36.5 35.59375 
Q 36.5 47.296875 25.203125 47.296875 
z
" id="FiraSans-Regular-67"/>
      </defs>
      <g style="fill:#262626;" transform="translate(87.242813 466.911233)scale(0.14 -0.14)">
       <use xlink:href="#FiraSans-Regular-42"/>
       <use x="60.799988" xlink:href="#FiraSans-Regular-75"/>
       <use x="118.999985" xlink:href="#FiraSans-Regular-67"/>
      </g>
     </g>
    </g>
    <g id="ytick_4">
     <g id="line2d_9">
      <path clip-path="url(#p534c82e3da)" d="M 119.482813 412.243051 
L 956.482813 412.243051 
" style="fill:none;stroke:#ffffff;stroke-linecap:round;stroke-width:0.8;"/>
     </g>
     <g id="text_10">
      <!-- Roles -->
      <defs>
       <path d="M 30.203125 29.203125 
L 19.5 29.203125 
L 19.5 0 
L 10 0 
L 10 68.90625 
L 28.09375 68.90625 
Q 41 68.90625 47.640625 64 
Q 54.296875 59.09375 54.296875 49.40625 
Q 54.296875 42.203125 50.59375 37.703125 
Q 46.90625 33.203125 39.40625 30.90625 
L 58 0 
L 46.703125 0 
z
M 29.09375 36.5 
Q 36.59375 36.5 40.390625 39.546875 
Q 44.203125 42.59375 44.203125 49.40625 
Q 44.203125 55.796875 40.34375 58.640625 
Q 36.5 61.5 28 61.5 
L 19.5 61.5 
L 19.5 36.5 
z
" id="FiraSans-Regular-52"/>
       <path d="M 20 -1.203125 
Q 14.90625 -1.203125 11.953125 1.84375 
Q 9 4.90625 9 10.40625 
L 9 73.90625 
L 18.203125 75 
L 18.203125 10.59375 
Q 18.203125 8.40625 18.953125 7.40625 
Q 19.703125 6.40625 21.5 6.40625 
Q 23.40625 6.40625 24.90625 7 
L 27.296875 0.59375 
Q 24 -1.203125 20 -1.203125 
z
" id="FiraSans-Regular-6c"/>
       <path d="M 23.796875 53.90625 
Q 29.203125 53.90625 33.5 52.40625 
Q 37.796875 50.90625 41.703125 47.90625 
L 37.796875 42.09375 
Q 34.203125 44.40625 30.953125 45.5 
Q 27.703125 46.59375 24.09375 46.59375 
Q 19.59375 46.59375 17 44.75 
Q 14.40625 42.90625 14.40625 39.703125 
Q 14.40625 36.5 16.84375 34.703125 
Q 19.296875 32.90625 25.703125 31.203125 
Q 34.5 29 38.84375 25.203125 
Q 43.203125 21.40625 43.203125 14.796875 
Q 43.203125 7 37.140625 2.890625 
Q 31.09375 -1.203125 22.40625 -1.203125 
Q 10.40625 -1.203125 2.5 5.703125 
L 7.40625 11.296875 
Q 14.09375 6.203125 22.203125 6.203125 
Q 27.40625 6.203125 30.453125 8.34375 
Q 33.5 10.5 33.5 14.203125 
Q 33.5 16.90625 32.390625 18.546875 
Q 31.296875 20.203125 28.59375 21.453125 
Q 25.90625 22.703125 20.703125 24.09375 
Q 12.296875 26.296875 8.546875 30 
Q 4.796875 33.703125 4.796875 39.40625 
Q 4.796875 43.5 7.25 46.84375 
Q 9.703125 50.203125 14.046875 52.046875 
Q 18.40625 53.90625 23.796875 53.90625 
z
" id="FiraSans-Regular-73"/>
      </defs>
      <g style="fill:#262626;" transform="translate(76.265938 417.493051)scale(0.14 -0.14)">
       <use xlink:href="#FiraSans-Regular-52"/>
       <use x="60.499985" xlink:href="#FiraSans-Regular-6f"/>
       <use x="118.899979" xlink:href="#FiraSans-Regular-6c"/>
       <use x="148.199966" xlink:href="#FiraSans-Regular-65"/>
       <use x="202.699951" xlink:href="#FiraSans-Regular-73"/>
      </g>
     </g>
    </g>
    <g id="ytick_5">
     <g id="line2d_10">
      <path clip-path="url(#p534c82e3da)" d="M 119.482813 362.824869 
L 956.482813 362.824869 
" style="fill:none;stroke:#ffffff;stroke-linecap:round;stroke-width:0.8;"/>
     </g>
     <g id="text_11">
      <!-- Branches -->
      <defs>
       <path d="M 28.703125 53.90625 
Q 33.40625 53.90625 37.296875 52.546875 
Q 41.203125 51.203125 44.796875 48.203125 
L 40.40625 42.40625 
Q 37.59375 44.40625 34.9375 45.34375 
Q 32.296875 46.296875 29.09375 46.296875 
Q 22.703125 46.296875 19.140625 41.1875 
Q 15.59375 36.09375 15.59375 26.09375 
Q 15.59375 16.09375 19.09375 11.34375 
Q 22.59375 6.59375 29.09375 6.59375 
Q 32.203125 6.59375 34.796875 7.546875 
Q 37.40625 8.5 40.59375 10.59375 
L 44.796875 4.59375 
Q 37.59375 -1.203125 28.703125 -1.203125 
Q 18 -1.203125 11.84375 6 
Q 5.703125 13.203125 5.703125 25.90625 
Q 5.703125 34.296875 8.5 40.59375 
Q 11.296875 46.90625 16.4375 50.40625 
Q 21.59375 53.90625 28.703125 53.90625 
z
" id="FiraSans-Regular-63"/>
       <path d="M 34.296875 53.90625 
Q 41.5 53.90625 45.546875 49.59375 
Q 49.59375 45.296875 49.59375 37.796875 
L 49.59375 0 
L 40.40625 0 
L 40.40625 36.5 
Q 40.40625 42.09375 38.25 44.390625 
Q 36.09375 46.703125 32 46.703125 
Q 27.90625 46.703125 24.703125 44.296875 
Q 21.5 41.90625 18.703125 37.5 
L 18.703125 0 
L 9.5 0 
L 9.5 73.796875 
L 18.703125 74.796875 
L 18.703125 45.40625 
Q 24.90625 53.90625 34.296875 53.90625 
z
" id="FiraSans-Regular-68"/>
      </defs>
      <g style="fill:#262626;" transform="translate(52.385 368.074869)scale(0.14 -0.14)">
       <use xlink:href="#FiraSans-Regular-42"/>
       <use x="60.799988" xlink:href="#FiraSans-Regular-72"/>
       <use x="99.399979" xlink:href="#FiraSans-Regular-61"/>
       <use x="153.799973" xlink:href="#FiraSans-Regular-6e"/>
       <use x="212.399963" xlink:href="#FiraSans-Regular-63"/>
       <use x="260.199951" xlink:href="#FiraSans-Regular-68"/>
       <use x="318.799942" xlink:href="#FiraSans-Regular-65"/>
       <use x="373.299927" xlink:href="#FiraSans-Regular-73"/>
      </g>
     </g>
    </g>
    <g id="ytick_6">
     <g id="line2d_11">
      <path clip-path="url(#p534c82e3da)" d="M 119.482813 313.406687 
L 956.482813 313.406687 
" style="fill:none;stroke:#ffffff;stroke-linecap:round;stroke-width:0.8;"/>
     </g>
     <g id="text_12">
      <!-- Complexity -->
      <defs>
       <path d="M 62.40625 53.90625 
Q 68.90625 53.90625 72.796875 49.546875 
Q 76.703125 45.203125 76.703125 37.796875 
L 76.703125 0 
L 67.5 0 
L 67.5 36.5 
Q 67.5 46.703125 60.09375 46.703125 
Q 56.203125 46.703125 53.5 44.453125 
Q 50.796875 42.203125 47.703125 37.40625 
L 47.703125 0 
L 38.5 0 
L 38.5 36.5 
Q 38.5 46.703125 31.09375 46.703125 
Q 27.09375 46.703125 24.390625 44.390625 
Q 21.703125 42.09375 18.703125 37.40625 
L 18.703125 0 
L 9.5 0 
L 9.5 52.703125 
L 17.40625 52.703125 
L 18.203125 45 
Q 24.09375 53.90625 33.40625 53.90625 
Q 38.296875 53.90625 41.75 51.40625 
Q 45.203125 48.90625 46.703125 44.40625 
Q 49.796875 49 53.546875 51.453125 
Q 57.296875 53.90625 62.40625 53.90625 
z
" id="FiraSans-Regular-6d"/>
       <path d="M 33.703125 53.90625 
Q 43.796875 53.90625 48.5 46.703125 
Q 53.203125 39.5 53.203125 26.40625 
Q 53.203125 14 47.796875 6.390625 
Q 42.40625 -1.203125 32.5 -1.203125 
Q 23.703125 -1.203125 18.703125 4.796875 
L 18.703125 -20.203125 
L 9.5 -21.296875 
L 9.5 52.703125 
L 17.40625 52.703125 
L 18.09375 45.59375 
Q 21 49.59375 25.09375 51.75 
Q 29.203125 53.90625 33.703125 53.90625 
z
M 30.296875 6.296875 
Q 43.296875 6.296875 43.296875 26.40625 
Q 43.296875 46.59375 31.40625 46.59375 
Q 27.5 46.59375 24.296875 44.296875 
Q 21.09375 42 18.703125 38.40625 
L 18.703125 12.703125 
Q 20.703125 9.59375 23.703125 7.9375 
Q 26.703125 6.296875 30.296875 6.296875 
z
" id="FiraSans-Regular-70"/>
       <path d="M 18.703125 52.703125 
L 18.703125 0 
L 9.5 0 
L 9.5 52.703125 
z
M 14 78 
Q 16.90625 78 18.703125 76.203125 
Q 20.5 74.40625 20.5 71.703125 
Q 20.5 69 18.703125 67.25 
Q 16.90625 65.5 14 65.5 
Q 11.203125 65.5 9.390625 67.25 
Q 7.59375 69 7.59375 71.703125 
Q 7.59375 74.40625 9.390625 76.203125 
Q 11.203125 78 14 78 
z
" id="FiraSans-Regular-69"/>
       <path d="M 30.59375 -0.296875 
Q 27.5 -9.5 21.953125 -14.84375 
Q 16.40625 -20.203125 6.09375 -21.296875 
L 5.09375 -14.09375 
Q 10.296875 -13.203125 13.390625 -11.5 
Q 16.5 -9.796875 18.34375 -7.140625 
Q 20.203125 -4.5 21.796875 0 
L 18.703125 0 
L 1 52.703125 
L 10.796875 52.703125 
L 24.90625 6.703125 
L 38.703125 52.703125 
L 48.203125 52.703125 
z
" id="FiraSans-Regular-79"/>
      </defs>
      <g style="fill:#262626;" transform="translate(40.439063 318.866687)scale(0.14 -0.14)">
       <use xlink:href="#FiraSans-Regular-43"/>
       <use x="55.999985" xlink:href="#FiraSans-Regular-6f"/>
       <use x="114.399979" xlink:href="#FiraSans-Regular-6d"/>
       <use x="200.09996" xlink:href="#FiraSans-Regular-70"/>
       <use x="259.499954" xlink:href="#FiraSans-Regular-6c"/>
       <use x="288.799942" xlink:href="#FiraSans-Regular-65"/>
       <use x="343.299927" xlink:href="#FiraSans-Regular-78"/>
       <use x="391.799911" xlink:href="#FiraSans-Regular-69"/>
       <use x="419.999908" xlink:href="#FiraSans-Regular-74"/>
       <use x="456.099899" xlink:href="#FiraSans-Regular-79"/>
      </g>
     </g>
    </g>
    <g id="ytick_7">
     <g id="line2d_12">
      <path clip-path="url(#p534c82e3da)" d="M 119.482813 263.988506 
L 956.482813 263.988506 
" style="fill:none;stroke:#ffffff;stroke-linecap:round;stroke-width:0.8;"/>
     </g>
     <g id="text_13">
      <!-- No clear idea -->
      <defs>
       <path d="M 58.296875 0 
L 45.59375 0 
L 17.59375 58.5 
Q 18.203125 51.59375 18.546875 45.75 
Q 18.90625 39.90625 18.90625 31.59375 
L 18.90625 0 
L 10 0 
L 10 68.90625 
L 22.40625 68.90625 
L 50.703125 10.296875 
Q 50.40625 12.90625 49.90625 19.40625 
Q 49.40625 25.90625 49.40625 31.296875 
L 49.40625 68.90625 
L 58.296875 68.90625 
z
" id="FiraSans-Regular-4e"/>
       <path id="FiraSans-Regular-20"/>
       <path d="M 50.296875 73.90625 
L 50.296875 0 
L 42.203125 0 
L 41.296875 7.296875 
Q 38.703125 3.296875 34.796875 1.046875 
Q 30.90625 -1.203125 26.09375 -1.203125 
Q 16.703125 -1.203125 11.453125 6.1875 
Q 6.203125 13.59375 6.203125 26.09375 
Q 6.203125 34.203125 8.703125 40.5 
Q 11.203125 46.796875 15.890625 50.34375 
Q 20.59375 53.90625 26.90625 53.90625 
Q 35 53.90625 41.09375 47.40625 
L 41.09375 75 
z
M 28.09375 6.09375 
Q 32.296875 6.09375 35.296875 8.046875 
Q 38.296875 10 41.09375 13.90625 
L 41.09375 39.703125 
Q 38.5 43.09375 35.546875 44.84375 
Q 32.59375 46.59375 28.90625 46.59375 
Q 22.796875 46.59375 19.4375 41.5 
Q 16.09375 36.40625 16.09375 26.296875 
Q 16.09375 16.09375 19.1875 11.09375 
Q 22.296875 6.09375 28.09375 6.09375 
z
" id="FiraSans-Regular-64"/>
      </defs>
      <g style="fill:#262626;" transform="translate(27.014375 269.238506)scale(0.14 -0.14)">
       <use xlink:href="#FiraSans-Regular-4e"/>
       <use x="68.299988" xlink:href="#FiraSans-Regular-6f"/>
       <use x="126.699982" xlink:href="#FiraSans-Regular-20"/>
       <use x="153.199966" xlink:href="#FiraSans-Regular-63"/>
       <use x="200.999954" xlink:href="#FiraSans-Regular-6c"/>
       <use x="230.299942" xlink:href="#FiraSans-Regular-65"/>
       <use x="284.799927" xlink:href="#FiraSans-Regular-61"/>
       <use x="339.199921" xlink:href="#FiraSans-Regular-72"/>
       <use x="377.799911" xlink:href="#FiraSans-Regular-20"/>
       <use x="404.299896" xlink:href="#FiraSans-Regular-69"/>
       <use x="432.499893" xlink:href="#FiraSans-Regular-64"/>
       <use x="492.299881" xlink:href="#FiraSans-Regular-65"/>
       <use x="546.799866" xlink:href="#FiraSans-Regular-61"/>
      </g>
     </g>
    </g>
    <g id="ytick_8">
     <g id="line2d_13">
      <path clip-path="url(#p534c82e3da)" d="M 119.482813 214.570324 
L 956.482813 214.570324 
" style="fill:none;stroke:#ffffff;stroke-linecap:round;stroke-width:0.8;"/>
     </g>
     <g id="text_14">
      <!-- Small Groups -->
      <defs>
       <path d="M 27 70.09375 
Q 33.90625 70.09375 38.796875 68.140625 
Q 43.703125 66.203125 48.296875 62.09375 
L 43.09375 56.296875 
Q 39.203125 59.40625 35.453125 60.84375 
Q 31.703125 62.296875 27.40625 62.296875 
Q 22 62.296875 18.5 59.796875 
Q 15 57.296875 15 52.5 
Q 15 49.5 16.203125 47.453125 
Q 17.40625 45.40625 20.65625 43.703125 
Q 23.90625 42 30.09375 40.09375 
Q 36.59375 38.09375 40.890625 35.796875 
Q 45.203125 33.5 47.84375 29.453125 
Q 50.5 25.40625 50.5 19.203125 
Q 50.5 13.203125 47.546875 8.59375 
Q 44.59375 4 39.046875 1.390625 
Q 33.5 -1.203125 25.90625 -1.203125 
Q 11.59375 -1.203125 2.5 7.703125 
L 7.703125 13.5 
Q 11.90625 10.09375 16.203125 8.34375 
Q 20.5 6.59375 25.796875 6.59375 
Q 32.203125 6.59375 36.390625 9.75 
Q 40.59375 12.90625 40.59375 18.90625 
Q 40.59375 22.296875 39.296875 24.546875 
Q 38 26.796875 34.84375 28.59375 
Q 31.703125 30.40625 25.703125 32.203125 
Q 15.09375 35.40625 10.1875 39.90625 
Q 5.296875 44.40625 5.296875 52.09375 
Q 5.296875 57.296875 8.046875 61.390625 
Q 10.796875 65.5 15.75 67.796875 
Q 20.703125 70.09375 27 70.09375 
z
" id="FiraSans-Regular-53"/>
      </defs>
      <g style="fill:#262626;" transform="translate(26.6075 219.820324)scale(0.14 -0.14)">
       <use xlink:href="#FiraSans-Regular-53"/>
       <use x="54.499985" xlink:href="#FiraSans-Regular-6d"/>
       <use x="140.199966" xlink:href="#FiraSans-Regular-61"/>
       <use x="194.59996" xlink:href="#FiraSans-Regular-6c"/>
       <use x="223.899948" xlink:href="#FiraSans-Regular-6c"/>
       <use x="253.199936" xlink:href="#FiraSans-Regular-20"/>
       <use x="279.699921" xlink:href="#FiraSans-Regular-47"/>
       <use x="342.799911" xlink:href="#FiraSans-Regular-72"/>
       <use x="381.399902" xlink:href="#FiraSans-Regular-6f"/>
       <use x="439.799896" xlink:href="#FiraSans-Regular-75"/>
       <use x="497.999893" xlink:href="#FiraSans-Regular-70"/>
       <use x="557.399887" xlink:href="#FiraSans-Regular-73"/>
      </g>
     </g>
    </g>
    <g id="ytick_9">
     <g id="line2d_14">
      <path clip-path="url(#p534c82e3da)" d="M 119.482813 165.152142 
L 956.482813 165.152142 
" style="fill:none;stroke:#ffffff;stroke-linecap:round;stroke-width:0.8;"/>
     </g>
     <g id="text_15">
      <!-- Tasks -->
      <defs>
       <path d="M 18.703125 75 
L 18.703125 0 
L 9.5 0 
L 9.5 73.90625 
z
M 49 52.703125 
L 29.59375 29.40625 
L 51.203125 0 
L 40.203125 0 
L 19.296875 28.796875 
L 38.703125 52.703125 
z
" id="FiraSans-Regular-6b"/>
      </defs>
      <g style="fill:#262626;" transform="translate(76.082188 170.402142)scale(0.14 -0.14)">
       <use xlink:href="#FiraSans-Regular-54"/>
       <use x="51.699997" xlink:href="#FiraSans-Regular-61"/>
       <use x="106.099991" xlink:href="#FiraSans-Regular-73"/>
       <use x="152.799988" xlink:href="#FiraSans-Regular-6b"/>
       <use x="203.999985" xlink:href="#FiraSans-Regular-73"/>
      </g>
     </g>
    </g>
    <g id="ytick_10">
     <g id="line2d_15">
      <path clip-path="url(#p534c82e3da)" d="M 119.482813 115.73396 
L 956.482813 115.73396 
" style="fill:none;stroke:#ffffff;stroke-linecap:round;stroke-width:0.8;"/>
     </g>
     <g id="text_16">
      <!-- Chat -->
      <g style="fill:#262626;" transform="translate(82.469688 120.98396)scale(0.14 -0.14)">
       <use xlink:href="#FiraSans-Regular-43"/>
       <use x="55.999985" xlink:href="#FiraSans-Regular-68"/>
       <use x="114.599976" xlink:href="#FiraSans-Regular-61"/>
       <use x="168.999969" xlink:href="#FiraSans-Regular-74"/>
      </g>
     </g>
    </g>
    <g id="ytick_11">
     <g id="line2d_16">
      <path clip-path="url(#p534c82e3da)" d="M 119.482813 66.315778 
L 956.482813 66.315778 
" style="fill:none;stroke:#ffffff;stroke-linecap:round;stroke-width:0.8;"/>
     </g>
     <g id="text_17">
      <!-- UI -->
      <defs>
       <path d="M 57.203125 22.09375 
Q 57.203125 15.203125 54.34375 9.953125 
Q 51.5 4.703125 46.046875 1.75 
Q 40.59375 -1.203125 33 -1.203125 
Q 21.5 -1.203125 15.25 5.140625 
Q 9 11.5 9 22.09375 
L 9 68.90625 
L 18.5 68.90625 
L 18.5 22.796875 
Q 18.5 14.796875 22.09375 10.796875 
Q 25.703125 6.796875 33 6.796875 
Q 40.40625 6.796875 44 10.75 
Q 47.59375 14.703125 47.59375 22.796875 
L 47.59375 68.90625 
L 57.203125 68.90625 
z
" id="FiraSans-Regular-55"/>
       <path d="M 19.5 68.90625 
L 19.5 0 
L 10 0 
L 10 68.90625 
z
" id="FiraSans-Regular-49"/>
      </defs>
      <g style="fill:#262626;" transform="translate(97.784375 71.565778)scale(0.14 -0.14)">
       <use xlink:href="#FiraSans-Regular-55"/>
       <use x="66.199997" xlink:href="#FiraSans-Regular-49"/>
      </g>
     </g>
    </g>
    <g id="text_18">
     <!-- Code -->
     <g style="fill:#262626;" transform="translate(19.2 331.702937)rotate(-90)scale(0.16 -0.16)">
      <use xlink:href="#FiraSans-Regular-43"/>
      <use x="55.999985" xlink:href="#FiraSans-Regular-6f"/>
      <use x="114.399979" xlink:href="#FiraSans-Regular-64"/>
      <use x="174.199966" xlink:href="#FiraSans-Regular-65"/>
     </g>
    </g>
   </g>
   <g id="patch_3">
    <path clip-path="url(#p534c82e3da)" d="M 119.482813 572.852142 
L 252.461731 572.852142 
L 252.461731 548.143051 
L 119.482813 548.143051 
z
" style="fill:#f77189;opacity:0.75;stroke:#ffffff;stroke-linejoin:miter;stroke-width:0.8;"/>
   </g>
   <g id="patch_4">
    <path clip-path="url(#p534c82e3da)" d="M 119.482813 523.43396 
L 252.461731 523.43396 
L 252.461731 498.724869 
L 119.482813 498.724869 
z
" style="fill:#e18632;opacity:0.75;stroke:#ffffff;stroke-linejoin:miter;stroke-width:0.8;"/>
   </g>
   <g id="patch_5">
    <path clip-path="url(#p534c82e3da)" d="M 119.482813 474.015778 
L 318.585863 474.015778 
L 318.585863 449.306687 
L 119.482813 449.306687 
z
" style="fill:#b59a32;opacity:0.75;stroke:#ffffff;stroke-linejoin:miter;stroke-width:0.8;"/>
   </g>
   <g id="patch_6">
    <path clip-path="url(#p534c82e3da)" d="M 119.482813 424.597597 
L 318.585863 424.597597 
L 318.585863 399.888506 
L 119.482813 399.888506 
z
" style="fill:#8ba731;opacity:0.75;stroke:#ffffff;stroke-linejoin:miter;stroke-width:0.8;"/>
   </g>
   <g id="patch_7">
    <path clip-path="url(#p534c82e3da)" d="M 119.482813 375.179415 
L 318.585863 375.179415 
L 318.585863 350.470324 
L 119.482813 350.470324 
z
" style="fill:#32b258;opacity:0.75;stroke:#ffffff;stroke-linejoin:miter;stroke-width:0.8;"/>
   </g>
   <g id="patch_8">
    <path clip-path="url(#p534c82e3da)" d="M 119.482813 325.761233 
L 385.075323 325.761233 
L 385.075323 301.052142 
L 119.482813 301.052142 
z
" style="fill:#35ae95;opacity:0.75;stroke:#ffffff;stroke-linejoin:miter;stroke-width:0.8;"/>
   </g>
   <g id="patch_9">
    <path clip-path="url(#p534c82e3da)" d="M 119.482813 276.343051 
L 451.564782 276.343051 
L 451.564782 251.63396 
L 119.482813 251.63396 
z
" style="fill:#37abb2;opacity:0.75;stroke:#ffffff;stroke-linejoin:miter;stroke-width:0.8;"/>
   </g>
   <g id="patch_10">
    <path clip-path="url(#p534c82e3da)" d="M 119.482813 226.924869 
L 518.054241 226.924869 
L 518.054241 202.215778 
L 119.482813 202.215778 
z
" style="fill:#39a7d6;opacity:0.75;stroke:#ffffff;stroke-linejoin:miter;stroke-width:0.8;"/>
   </g>
   <g id="patch_11">
    <path clip-path="url(#p534c82e3da)" d="M 119.482813 177.506687 
L 584.5437 177.506687 
L 584.5437 152.797597 
L 119.482813 152.797597 
z
" style="fill:#8f93f4;opacity:0.75;stroke:#ffffff;stroke-linejoin:miter;stroke-width:0.8;"/>
   </g>
   <g id="patch_12">
    <path clip-path="url(#p534c82e3da)" d="M 119.482813 128.088506 
L 651.033159 128.088506 
L 651.033159 103.379415 
L 119.482813 103.379415 
z
" style="fill:#db70f4;opacity:0.75;stroke:#ffffff;stroke-linejoin:miter;stroke-width:0.8;"/>
   </g>
   <g id="patch_13">
    <path clip-path="url(#p534c82e3da)" d="M 119.482813 78.670324 
L 916.62567 78.670324 
L 916.62567 53.961233 
L 119.482813 53.961233 
z
" style="fill:#f667c6;opacity:0.75;stroke:#ffffff;stroke-linejoin:miter;stroke-width:0.8;"/>
   </g>
   <g id="patch_14">
    <path d="M 119.482813 585.206688 
L 119.482813 41.606688 
" style="fill:none;stroke:#ffffff;stroke-linecap:square;stroke-linejoin:miter;"/>
   </g>
   <g id="patch_15">
    <path d="M 956.482813 585.206688 
L 956.482813 41.606688 
" style="fill:none;stroke:#ffffff;stroke-linecap:square;stroke-linejoin:miter;"/>
   </g>
   <g id="patch_16">
    <path d="M 119.482813 585.206687 
L 956.482813 585.206687 
" style="fill:none;stroke:#ffffff;stroke-linecap:square;stroke-linejoin:miter;"/>
   </g>
   <g id="patch_17">
    <path d="M 119.482813 41.606687 
L 956.482813 41.606687 
" style="fill:none;stroke:#ffffff;stroke-linecap:square;stroke-linejoin:miter;"/>
   </g>
   <g id="text_19">
    <!-- 3.64% -->
    <defs>
     <path d="M 23.203125 68.5 
Q 29.90625 68.5 34.75 66.203125 
Q 39.59375 63.90625 42.046875 60 
Q 44.5 56.09375 44.5 51.40625 
Q 44.5 45.296875 41 41.25 
Q 37.5 37.203125 31.40625 35.59375 
Q 38.09375 35 42.390625 30.796875 
Q 46.703125 26.59375 46.703125 19.203125 
Q 46.703125 13.40625 43.75 8.703125 
Q 40.796875 4 35.296875 1.25 
Q 29.796875 -1.5 22.296875 -1.5 
Q 8.5 -1.5 0.5 8.203125 
L 7.59375 15 
Q 11 11.59375 14.296875 10.046875 
Q 17.59375 8.5 21.59375 8.5 
Q 27 8.5 30.25 11.546875 
Q 33.5 14.59375 33.5 19.796875 
Q 33.5 25.59375 30.453125 28.09375 
Q 27.40625 30.59375 21.40625 30.59375 
L 16.09375 30.59375 
L 17.59375 39.703125 
L 21.203125 39.703125 
Q 26.09375 39.703125 29.046875 42.390625 
Q 32 45.09375 32 49.90625 
Q 32 54 29.296875 56.34375 
Q 26.59375 58.703125 22.09375 58.703125 
Q 18.203125 58.703125 15 57.25 
Q 11.796875 55.796875 8.59375 52.796875 
L 2.09375 59.90625 
Q 11.203125 68.5 23.203125 68.5 
z
" id="FiraSans-Medium-33"/>
     <path d="M 11.90625 14.703125 
Q 15.296875 14.703125 17.6875 12.34375 
Q 20.09375 10 20.09375 6.59375 
Q 20.09375 3.296875 17.6875 0.890625 
Q 15.296875 -1.5 11.90625 -1.5 
Q 8.59375 -1.5 6.25 0.890625 
Q 3.90625 3.296875 3.90625 6.59375 
Q 3.90625 10 6.203125 12.34375 
Q 8.5 14.703125 11.90625 14.703125 
z
" id="FiraSans-Medium-2e"/>
     <path d="M 32.796875 44.796875 
Q 38.09375 44.796875 42.4375 42.25 
Q 46.796875 39.703125 49.296875 34.75 
Q 51.796875 29.796875 51.796875 22.90625 
Q 51.796875 15.90625 48.890625 10.34375 
Q 46 4.796875 40.75 1.640625 
Q 35.5 -1.5 28.796875 -1.5 
Q 16.40625 -1.5 10.453125 7.203125 
Q 4.5 15.90625 4.5 31.09375 
Q 4.5 42.296875 7.84375 50.75 
Q 11.203125 59.203125 17.453125 63.84375 
Q 23.703125 68.5 32.09375 68.5 
Q 40.40625 68.5 46.796875 64.203125 
L 42 56.296875 
Q 37.40625 59 32.296875 59 
Q 25.90625 59 22.046875 53.25 
Q 18.203125 47.5 17.703125 37.40625 
Q 23.796875 44.796875 32.796875 44.796875 
z
M 28.796875 8 
Q 33.796875 8 36.34375 11.953125 
Q 38.90625 15.90625 38.90625 22.703125 
Q 38.90625 29.59375 36.546875 32.546875 
Q 34.203125 35.5 29.703125 35.5 
Q 26.296875 35.5 23.25 33.640625 
Q 20.203125 31.796875 17.796875 28.59375 
Q 18 17.703125 20.546875 12.84375 
Q 23.09375 8 28.796875 8 
z
" id="FiraSans-Medium-36"/>
     <path d="M 52.5 25.203125 
L 52.5 15.40625 
L 44.40625 15.40625 
L 44.40625 0 
L 31.90625 0 
L 31.90625 15.40625 
L 3.296875 15.40625 
L 3.296875 24.203125 
L 22.90625 68.59375 
L 33.796875 64.5 
L 16.59375 25.203125 
L 32 25.203125 
L 33.296875 42.09375 
L 44.40625 42.09375 
L 44.40625 25.203125 
z
" id="FiraSans-Medium-34"/>
     <path d="M 61.296875 71.59375 
L 69.59375 66.296875 
L 23.203125 -3.59375 
L 15 1.703125 
z
M 20.703125 68.5 
Q 25.5 68.5 29.390625 66.34375 
Q 33.296875 64.203125 35.546875 60.203125 
Q 37.796875 56.203125 37.796875 51 
Q 37.796875 45.796875 35.546875 41.796875 
Q 33.296875 37.796875 29.390625 35.640625 
Q 25.5 33.5 20.703125 33.5 
Q 15.90625 33.5 12.046875 35.640625 
Q 8.203125 37.796875 5.953125 41.796875 
Q 3.703125 45.796875 3.703125 51 
Q 3.703125 56.203125 5.953125 60.203125 
Q 8.203125 64.203125 12.046875 66.34375 
Q 15.90625 68.5 20.703125 68.5 
z
M 20.703125 60.5 
Q 16.796875 60.5 15.140625 57.84375 
Q 13.5 55.203125 13.5 51 
Q 13.5 46.90625 15.140625 44.203125 
Q 16.796875 41.5 20.703125 41.5 
Q 27.90625 41.5 27.90625 51 
Q 27.90625 60.5 20.703125 60.5 
z
M 63.703125 33.5 
Q 68.5 33.5 72.390625 31.34375 
Q 76.296875 29.203125 78.5 25.203125 
Q 80.703125 21.203125 80.703125 16 
Q 80.703125 10.796875 78.5 6.796875 
Q 76.296875 2.796875 72.390625 0.640625 
Q 68.5 -1.5 63.703125 -1.5 
Q 58.90625 -1.5 55 0.640625 
Q 51.09375 2.796875 48.84375 6.796875 
Q 46.59375 10.796875 46.59375 16 
Q 46.59375 21.203125 48.84375 25.203125 
Q 51.09375 29.203125 55 31.34375 
Q 58.90625 33.5 63.703125 33.5 
z
M 63.703125 25.5 
Q 59.796875 25.5 58.140625 22.84375 
Q 56.5 20.203125 56.5 16 
Q 56.5 11.90625 58.140625 9.203125 
Q 59.796875 6.5 63.703125 6.5 
Q 70.90625 6.5 70.90625 16 
Q 70.90625 25.5 63.703125 25.5 
z
" id="FiraSans-Medium-25"/>
    </defs>
    <g style="fill:#262626;" transform="translate(256.114998 560.497597)scale(0.14 -0.14)">
     <use xlink:href="#FiraSans-Medium-33"/>
     <use x="50.999985" xlink:href="#FiraSans-Medium-2e"/>
     <use x="74.999969" xlink:href="#FiraSans-Medium-36"/>
     <use x="129.999954" xlink:href="#FiraSans-Medium-34"/>
     <use x="184.999939" xlink:href="#FiraSans-Medium-25"/>
    </g>
   </g>
   <g id="text_20">
    <!-- 3.64% -->
    <g style="fill:#262626;" transform="translate(256.114998 511.079415)scale(0.14 -0.14)">
     <use xlink:href="#FiraSans-Medium-33"/>
     <use x="50.999985" xlink:href="#FiraSans-Medium-2e"/>
     <use x="74.999969" xlink:href="#FiraSans-Medium-36"/>
     <use x="129.999954" xlink:href="#FiraSans-Medium-34"/>
     <use x="184.999939" xlink:href="#FiraSans-Medium-25"/>
    </g>
   </g>
   <g id="text_21">
    <!-- 5.45% -->
    <defs>
     <path d="M 43.90625 57.796875 
L 18.703125 57.796875 
L 18.703125 41.09375 
Q 23.703125 43.59375 28.90625 43.59375 
Q 34.5 43.59375 38.890625 41 
Q 43.296875 38.40625 45.75 33.5 
Q 48.203125 28.59375 48.203125 21.90625 
Q 48.203125 15 45.09375 9.703125 
Q 42 4.40625 36.296875 1.453125 
Q 30.59375 -1.5 23.09375 -1.5 
Q 16.40625 -1.5 11.25 0.953125 
Q 6.09375 3.40625 1.90625 8 
L 9.203125 14.796875 
Q 15 8.40625 22.796875 8.40625 
Q 28.5 8.40625 31.75 11.90625 
Q 35 15.40625 35 21.90625 
Q 35 34.40625 24.203125 34.40625 
Q 21.90625 34.40625 19.90625 33.84375 
Q 17.90625 33.296875 15.5 32.09375 
L 6.40625 32.09375 
L 6.40625 67.296875 
L 45.40625 67.296875 
z
" id="FiraSans-Medium-35"/>
    </defs>
    <g style="fill:#262626;" transform="translate(322.23913 461.661233)scale(0.14 -0.14)">
     <use xlink:href="#FiraSans-Medium-35"/>
     <use x="51.999985" xlink:href="#FiraSans-Medium-2e"/>
     <use x="75.999969" xlink:href="#FiraSans-Medium-34"/>
     <use x="130.999954" xlink:href="#FiraSans-Medium-35"/>
     <use x="182.999939" xlink:href="#FiraSans-Medium-25"/>
    </g>
   </g>
   <g id="text_22">
    <!-- 5.45% -->
    <g style="fill:#262626;" transform="translate(322.23913 412.243051)scale(0.14 -0.14)">
     <use xlink:href="#FiraSans-Medium-35"/>
     <use x="51.999985" xlink:href="#FiraSans-Medium-2e"/>
     <use x="75.999969" xlink:href="#FiraSans-Medium-34"/>
     <use x="130.999954" xlink:href="#FiraSans-Medium-35"/>
     <use x="182.999939" xlink:href="#FiraSans-Medium-25"/>
    </g>
   </g>
   <g id="text_23">
    <!-- 5.45% -->
    <g style="fill:#262626;" transform="translate(322.23913 362.824869)scale(0.14 -0.14)">
     <use xlink:href="#FiraSans-Medium-35"/>
     <use x="51.999985" xlink:href="#FiraSans-Medium-2e"/>
     <use x="75.999969" xlink:href="#FiraSans-Medium-34"/>
     <use x="130.999954" xlink:href="#FiraSans-Medium-35"/>
     <use x="182.999939" xlink:href="#FiraSans-Medium-25"/>
    </g>
   </g>
   <g id="text_24">
    <!-- 7.27% -->
    <defs>
     <path d="M 43.40625 67.296875 
L 43.40625 58.296875 
L 18.5 -1.296875 
L 6.796875 2.5 
L 30.203125 57.40625 
L 1.796875 57.40625 
L 1.796875 67.296875 
z
" id="FiraSans-Medium-37"/>
     <path d="M 23.296875 68.5 
Q 30.09375 68.5 35.046875 66 
Q 40 63.5 42.59375 59.203125 
Q 45.203125 54.90625 45.203125 49.59375 
Q 45.203125 43.90625 42.75 38.65625 
Q 40.296875 33.40625 34.59375 27 
Q 28.90625 20.59375 17.90625 10.09375 
L 46.703125 10.09375 
L 45.296875 0 
L 3.40625 0 
L 3.40625 9.40625 
Q 16.203125 22.40625 21.75 28.65625 
Q 27.296875 34.90625 29.640625 39.34375 
Q 32 43.796875 32 48.59375 
Q 32 53.203125 29.34375 55.796875 
Q 26.703125 58.40625 22.296875 58.40625 
Q 18.40625 58.40625 15.453125 56.75 
Q 12.5 55.09375 9.296875 51.296875 
L 1.5 57.5 
Q 10 68.5 23.296875 68.5 
z
" id="FiraSans-Medium-32"/>
    </defs>
    <g style="fill:#262626;" transform="translate(388.72859 313.406687)scale(0.14 -0.14)">
     <use xlink:href="#FiraSans-Medium-37"/>
     <use x="45.699997" xlink:href="#FiraSans-Medium-2e"/>
     <use x="69.699982" xlink:href="#FiraSans-Medium-32"/>
     <use x="120.399979" xlink:href="#FiraSans-Medium-37"/>
     <use x="166.099976" xlink:href="#FiraSans-Medium-25"/>
    </g>
   </g>
   <g id="text_25">
    <!-- 9.09% -->
    <defs>
     <path d="M 26.90625 68.5 
Q 38.296875 68.5 44.390625 61.453125 
Q 50.5 54.40625 50.5 42.40625 
Q 50.5 28.703125 46.390625 19.953125 
Q 42.296875 11.203125 33.796875 6 
Q 25.296875 0.796875 11.296875 -2.5 
L 8.59375 6.59375 
Q 21.796875 10.09375 28.640625 15.640625 
Q 35.5 21.203125 36.796875 30.796875 
Q 31.296875 23.796875 22.40625 23.796875 
Q 17.203125 23.796875 12.84375 26.4375 
Q 8.5 29.09375 6 34.09375 
Q 3.5 39.09375 3.5 45.703125 
Q 3.5 52.59375 6.59375 57.75 
Q 9.703125 62.90625 15.046875 65.703125 
Q 20.40625 68.5 26.90625 68.5 
z
M 25.90625 33.09375 
Q 32.703125 33.09375 37.40625 40 
Q 37.5 50.296875 35.046875 54.640625 
Q 32.59375 59 26.90625 59 
Q 21.90625 59 19.09375 55.59375 
Q 16.296875 52.203125 16.296875 45.90625 
Q 16.296875 39.296875 18.9375 36.1875 
Q 21.59375 33.09375 25.90625 33.09375 
z
" id="FiraSans-Medium-39"/>
     <path d="M 28.59375 68.5 
Q 40.40625 68.5 46.546875 59.5 
Q 52.703125 50.5 52.703125 33.59375 
Q 52.703125 16.59375 46.546875 7.546875 
Q 40.40625 -1.5 28.59375 -1.5 
Q 16.796875 -1.5 10.640625 7.546875 
Q 4.5 16.59375 4.5 33.59375 
Q 4.5 50.5 10.640625 59.5 
Q 16.796875 68.5 28.59375 68.5 
z
M 28.59375 58.796875 
Q 22.90625 58.796875 20.296875 53.046875 
Q 17.703125 47.296875 17.703125 33.59375 
Q 17.703125 19.796875 20.296875 14 
Q 22.90625 8.203125 28.59375 8.203125 
Q 34.296875 8.203125 36.890625 13.953125 
Q 39.5 19.703125 39.5 33.59375 
Q 39.5 47.40625 36.890625 53.09375 
Q 34.296875 58.796875 28.59375 58.796875 
z
" id="FiraSans-Medium-30"/>
    </defs>
    <g style="fill:#262626;" transform="translate(455.218049 263.988506)scale(0.14 -0.14)">
     <use xlink:href="#FiraSans-Medium-39"/>
     <use x="54.399994" xlink:href="#FiraSans-Medium-2e"/>
     <use x="78.399979" xlink:href="#FiraSans-Medium-30"/>
     <use x="135.699966" xlink:href="#FiraSans-Medium-39"/>
     <use x="190.09996" xlink:href="#FiraSans-Medium-25"/>
    </g>
   </g>
   <g id="text_26">
    <!-- 10.91% -->
    <defs>
     <path d="M 35.5 67.296875 
L 35.5 0 
L 22.90625 0 
L 22.90625 54.40625 
L 7.90625 45.296875 
L 2.296875 53.90625 
L 24.203125 67.296875 
z
" id="FiraSans-Medium-31"/>
    </defs>
    <g style="fill:#262626;" transform="translate(521.707508 214.570324)scale(0.14 -0.14)">
     <use xlink:href="#FiraSans-Medium-31"/>
     <use x="44.999985" xlink:href="#FiraSans-Medium-30"/>
     <use x="102.299973" xlink:href="#FiraSans-Medium-2e"/>
     <use x="126.299957" xlink:href="#FiraSans-Medium-39"/>
     <use x="180.699951" xlink:href="#FiraSans-Medium-31"/>
     <use x="225.699936" xlink:href="#FiraSans-Medium-25"/>
    </g>
   </g>
   <g id="text_27">
    <!-- 12.73% -->
    <g style="fill:#262626;" transform="translate(588.196967 165.152142)scale(0.14 -0.14)">
     <use xlink:href="#FiraSans-Medium-31"/>
     <use x="44.999985" xlink:href="#FiraSans-Medium-32"/>
     <use x="95.699982" xlink:href="#FiraSans-Medium-2e"/>
     <use x="119.699966" xlink:href="#FiraSans-Medium-37"/>
     <use x="165.399963" xlink:href="#FiraSans-Medium-33"/>
     <use x="216.399948" xlink:href="#FiraSans-Medium-25"/>
    </g>
   </g>
   <g id="text_28">
    <!-- 14.55% -->
    <g style="fill:#262626;" transform="translate(654.686426 115.73396)scale(0.14 -0.14)">
     <use xlink:href="#FiraSans-Medium-31"/>
     <use x="44.999985" xlink:href="#FiraSans-Medium-34"/>
     <use x="99.999969" xlink:href="#FiraSans-Medium-2e"/>
     <use x="123.999954" xlink:href="#FiraSans-Medium-35"/>
     <use x="175.999939" xlink:href="#FiraSans-Medium-35"/>
     <use x="227.999924" xlink:href="#FiraSans-Medium-25"/>
    </g>
   </g>
   <g id="text_29">
    <!-- 21.82% -->
    <defs>
     <path d="M 39.296875 36.09375 
Q 53.09375 29.90625 53.09375 18.09375 
Q 53.09375 12.59375 50 8.140625 
Q 46.90625 3.703125 41.25 1.09375 
Q 35.59375 -1.5 28.09375 -1.5 
Q 20.703125 -1.5 15.203125 1.046875 
Q 9.703125 3.59375 6.703125 8 
Q 3.703125 12.40625 3.703125 17.90625 
Q 3.703125 29.5 16.5 34.90625 
Q 6.40625 40.40625 6.40625 50.796875 
Q 6.40625 56.09375 9.34375 60.140625 
Q 12.296875 64.203125 17.34375 66.34375 
Q 22.40625 68.5 28.40625 68.5 
Q 34.5 68.5 39.5 66.5 
Q 44.5 64.5 47.453125 60.59375 
Q 50.40625 56.703125 50.40625 51.296875 
Q 50.40625 41.796875 39.296875 36.09375 
z
M 28.40625 59.5 
Q 23.90625 59.5 21.34375 57.203125 
Q 18.796875 54.90625 18.796875 50.59375 
Q 18.796875 46.59375 21.1875 44.25 
Q 23.59375 41.90625 28.90625 40 
L 30.796875 39.296875 
Q 34.703125 41.703125 36.34375 44.34375 
Q 38 47 38 50.703125 
Q 38 54.796875 35.5 57.140625 
Q 33 59.5 28.40625 59.5 
z
M 28.40625 8 
Q 33.90625 8 37 10.796875 
Q 40.09375 13.59375 40.09375 18.09375 
Q 40.09375 22.703125 37.390625 25.34375 
Q 34.703125 28 27.796875 30.5 
L 24.703125 31.59375 
Q 16.59375 27.296875 16.59375 18.296875 
Q 16.59375 13.5 19.796875 10.75 
Q 23 8 28.40625 8 
z
" id="FiraSans-Medium-38"/>
    </defs>
    <g style="fill:#262626;" transform="translate(920.278937 66.315778)scale(0.14 -0.14)">
     <use xlink:href="#FiraSans-Medium-32"/>
     <use x="50.699997" xlink:href="#FiraSans-Medium-31"/>
     <use x="95.699982" xlink:href="#FiraSans-Medium-2e"/>
     <use x="119.699966" xlink:href="#FiraSans-Medium-38"/>
     <use x="176.399963" xlink:href="#FiraSans-Medium-32"/>
     <use x="227.09996" xlink:href="#FiraSans-Medium-25"/>
    </g>
   </g>
   <g id="text_30">
    <!-- Codes in open questions -->
    <defs>
     <path d="M 34.5 70.59375 
Q 40.796875 70.59375 45.5 68.796875 
Q 50.203125 67 54.703125 63.296875 
L 48 55.5 
Q 41.90625 60.40625 35.203125 60.40625 
Q 27.5 60.40625 22.84375 54.203125 
Q 18.203125 48 18.203125 34.703125 
Q 18.203125 21.703125 22.796875 15.390625 
Q 27.40625 9.09375 35.203125 9.09375 
Q 39.296875 9.09375 42.5 10.546875 
Q 45.703125 12 49.296875 14.703125 
L 55.5 6.90625 
Q 52 3.296875 46.640625 0.890625 
Q 41.296875 -1.5 34.703125 -1.5 
Q 25.703125 -1.5 18.796875 2.703125 
Q 11.90625 6.90625 8.09375 15.046875 
Q 4.296875 23.203125 4.296875 34.703125 
Q 4.296875 46 8.25 54.09375 
Q 12.203125 62.203125 19.046875 66.390625 
Q 25.90625 70.59375 34.5 70.59375 
z
" id="FiraSans-Medium-43"/>
     <path d="M 29.296875 54.40625 
Q 41 54.40625 47.546875 46.953125 
Q 54.09375 39.5 54.09375 26.5 
Q 54.09375 18.203125 51.09375 11.84375 
Q 48.09375 5.5 42.5 2 
Q 36.90625 -1.5 29.203125 -1.5 
Q 17.5 -1.5 10.890625 5.953125 
Q 4.296875 13.40625 4.296875 26.5 
Q 4.296875 34.796875 7.296875 41.09375 
Q 10.296875 47.40625 15.9375 50.90625 
Q 21.59375 54.40625 29.296875 54.40625 
z
M 29.296875 44.703125 
Q 17.796875 44.703125 17.796875 26.5 
Q 17.796875 17.09375 20.640625 12.640625 
Q 23.5 8.203125 29.203125 8.203125 
Q 34.90625 8.203125 37.75 12.703125 
Q 40.59375 17.203125 40.59375 26.5 
Q 40.59375 35.796875 37.75 40.25 
Q 34.90625 44.703125 29.296875 44.703125 
z
" id="FiraSans-Medium-6f"/>
     <path d="M 52.203125 74.09375 
L 52.203125 0 
L 40.90625 0 
L 40 6.703125 
Q 37.5 2.90625 33.640625 0.703125 
Q 29.796875 -1.5 24.90625 -1.5 
Q 15.203125 -1.5 10 6 
Q 4.796875 13.5 4.796875 26.40625 
Q 4.796875 34.5 7.390625 40.84375 
Q 10 47.203125 14.84375 50.796875 
Q 19.703125 54.40625 26.09375 54.40625 
Q 33.703125 54.40625 39.40625 48.703125 
L 39.40625 75.5 
z
M 28.5 8.203125 
Q 31.90625 8.203125 34.5 9.84375 
Q 37.09375 11.5 39.40625 15 
L 39.40625 39.203125 
Q 37.09375 42 34.75 43.390625 
Q 32.40625 44.796875 29.296875 44.796875 
Q 24.203125 44.796875 21.25 40.25 
Q 18.296875 35.703125 18.296875 26.5 
Q 18.296875 16.703125 20.890625 12.453125 
Q 23.5 8.203125 28.5 8.203125 
z
" id="FiraSans-Medium-64"/>
     <path d="M 51.09375 27.703125 
Q 51.09375 26.703125 50.796875 22.5 
L 17.59375 22.5 
Q 18.203125 14.796875 21.59375 11.5 
Q 25 8.203125 30.59375 8.203125 
Q 34.09375 8.203125 37.1875 9.34375 
Q 40.296875 10.5 43.796875 12.90625 
L 49.09375 5.59375 
Q 40.296875 -1.5 29.5 -1.5 
Q 17.40625 -1.5 10.84375 5.890625 
Q 4.296875 13.296875 4.296875 26.09375 
Q 4.296875 34.203125 7.09375 40.640625 
Q 9.90625 47.09375 15.203125 50.75 
Q 20.5 54.40625 27.796875 54.40625 
Q 38.90625 54.40625 45 47.34375 
Q 51.09375 40.296875 51.09375 27.703125 
z
M 38.40625 31.40625 
Q 38.40625 45.296875 28.09375 45.296875 
Q 23.40625 45.296875 20.75 41.84375 
Q 18.09375 38.40625 17.59375 30.796875 
L 38.40625 30.796875 
z
" id="FiraSans-Medium-65"/>
     <path d="M 24.40625 54.40625 
Q 35.09375 54.40625 43.203125 48.09375 
L 38.203125 40.59375 
Q 31.40625 44.90625 24.90625 44.90625 
Q 21.09375 44.90625 19 43.453125 
Q 16.90625 42 16.90625 39.59375 
Q 16.90625 37.796875 17.796875 36.59375 
Q 18.703125 35.40625 21.046875 34.34375 
Q 23.40625 33.296875 28 32 
Q 36.59375 29.703125 40.75 25.890625 
Q 44.90625 22.09375 44.90625 15.296875 
Q 44.90625 7.40625 38.5 2.953125 
Q 32.09375 -1.5 22.59375 -1.5 
Q 16.09375 -1.5 10.75 0.5 
Q 5.40625 2.5 1.5 6 
L 7.90625 13.203125 
Q 14.796875 8 22.296875 8 
Q 26.59375 8 29.140625 9.703125 
Q 31.703125 11.40625 31.703125 14.40625 
Q 31.703125 16.703125 30.75 18.046875 
Q 29.796875 19.40625 27.34375 20.453125 
Q 24.90625 21.5 19.703125 23 
Q 11.59375 25.203125 7.796875 29.140625 
Q 4 33.09375 4 39 
Q 4 43.40625 6.546875 46.90625 
Q 9.09375 50.40625 13.75 52.40625 
Q 18.40625 54.40625 24.40625 54.40625 
z
" id="FiraSans-Medium-73"/>
     <path id="FiraSans-Medium-20"/>
     <path d="M 20.5 52.90625 
L 20.5 0 
L 7.703125 0 
L 7.703125 52.90625 
z
M 14 79.703125 
Q 17.59375 79.703125 19.84375 77.453125 
Q 22.09375 75.203125 22.09375 71.90625 
Q 22.09375 68.59375 19.84375 66.390625 
Q 17.59375 64.203125 14 64.203125 
Q 10.5 64.203125 8.25 66.390625 
Q 6 68.59375 6 71.90625 
Q 6 75.203125 8.25 77.453125 
Q 10.5 79.703125 14 79.703125 
z
" id="FiraSans-Medium-69"/>
     <path d="M 35.90625 54.40625 
Q 43 54.40625 46.953125 50.15625 
Q 50.90625 45.90625 50.90625 38.296875 
L 50.90625 0 
L 38.09375 0 
L 38.09375 36.296875 
Q 38.09375 41 36.4375 42.890625 
Q 34.796875 44.796875 31.59375 44.796875 
Q 28.296875 44.796875 25.640625 42.75 
Q 23 40.703125 20.5 36.796875 
L 20.5 0 
L 7.703125 0 
L 7.703125 52.90625 
L 18.796875 52.90625 
L 19.796875 46 
Q 26.296875 54.40625 35.90625 54.40625 
z
" id="FiraSans-Medium-6e"/>
     <path d="M 35.09375 54.40625 
Q 45.09375 54.40625 49.890625 47.09375 
Q 54.703125 39.796875 54.703125 26.59375 
Q 54.703125 18.40625 52.25 12.046875 
Q 49.796875 5.703125 45.046875 2.09375 
Q 40.296875 -1.5 33.796875 -1.5 
Q 25.40625 -1.5 20.5 4.296875 
L 20.5 -20.40625 
L 7.703125 -21.796875 
L 7.703125 52.90625 
L 18.90625 52.90625 
L 19.59375 46.40625 
Q 22.703125 50.40625 26.703125 52.40625 
Q 30.703125 54.40625 35.09375 54.40625 
z
M 30.203125 8.296875 
Q 41.296875 8.296875 41.296875 26.5 
Q 41.296875 36.203125 38.796875 40.5 
Q 36.296875 44.796875 31.296875 44.796875 
Q 28.09375 44.796875 25.296875 42.84375 
Q 22.5 40.90625 20.5 37.59375 
L 20.5 13.796875 
Q 24.203125 8.296875 30.203125 8.296875 
z
" id="FiraSans-Medium-70"/>
     <path d="M 52.203125 52.90625 
L 52.203125 -21.796875 
L 39.40625 -20.40625 
L 39.40625 6 
Q 33.90625 -1.5 24.90625 -1.5 
Q 15.203125 -1.5 10 6 
Q 4.796875 13.5 4.796875 26.40625 
Q 4.796875 34.5 7.390625 40.84375 
Q 10 47.203125 14.84375 50.796875 
Q 19.703125 54.40625 26.09375 54.40625 
Q 34.5 54.40625 40.40625 47.703125 
L 41.09375 52.90625 
z
M 28.5 8.203125 
Q 31.90625 8.203125 34.5 9.84375 
Q 37.09375 11.5 39.40625 15 
L 39.40625 39.203125 
Q 37.09375 42 34.75 43.390625 
Q 32.40625 44.796875 29.40625 44.796875 
Q 24.203125 44.796875 21.25 40.25 
Q 18.296875 35.703125 18.296875 26.5 
Q 18.296875 16.703125 20.890625 12.453125 
Q 23.5 8.203125 28.5 8.203125 
z
" id="FiraSans-Medium-71"/>
     <path d="M 50 0 
L 38.90625 0 
L 38.203125 7.40625 
Q 35.296875 2.90625 31.34375 0.703125 
Q 27.40625 -1.5 22 -1.5 
Q 14.90625 -1.5 11.046875 2.84375 
Q 7.203125 7.203125 7.203125 14.90625 
L 7.203125 52.90625 
L 20 52.90625 
L 20 16.5 
Q 20 12 21.546875 10.09375 
Q 23.09375 8.203125 26.5 8.203125 
Q 32.59375 8.203125 37.203125 15.703125 
L 37.203125 52.90625 
L 50 52.90625 
z
" id="FiraSans-Medium-75"/>
     <path d="M 38 2.5 
Q 35.203125 0.5 31.75 -0.5 
Q 28.296875 -1.5 24.703125 -1.5 
Q 16.90625 -1.40625 12.84375 2.9375 
Q 8.796875 7.296875 8.796875 15.796875 
L 8.796875 43.703125 
L 0.5 43.703125 
L 0.5 52.90625 
L 8.796875 52.90625 
L 8.796875 64.59375 
L 21.59375 66.09375 
L 21.59375 52.90625 
L 33.90625 52.90625 
L 32.59375 43.703125 
L 21.59375 43.703125 
L 21.59375 16.09375 
Q 21.59375 12.203125 22.9375 10.5 
Q 24.296875 8.796875 27.203125 8.796875 
Q 30.09375 8.796875 33.5 10.703125 
z
" id="FiraSans-Medium-74"/>
    </defs>
    <g style="fill:#262626;" transform="translate(414.803438 24.734687)scale(0.22 -0.22)">
     <use xlink:href="#FiraSans-Medium-43"/>
     <use x="56.799988" xlink:href="#FiraSans-Medium-6f"/>
     <use x="115.199982" xlink:href="#FiraSans-Medium-64"/>
     <use x="175.099976" xlink:href="#FiraSans-Medium-65"/>
     <use x="229.999969" xlink:href="#FiraSans-Medium-73"/>
     <use x="277.59996" xlink:href="#FiraSans-Medium-20"/>
     <use x="302.599945" xlink:href="#FiraSans-Medium-69"/>
     <use x="330.799942" xlink:href="#FiraSans-Medium-6e"/>
     <use x="388.899933" xlink:href="#FiraSans-Medium-20"/>
     <use x="413.899918" xlink:href="#FiraSans-Medium-6f"/>
     <use x="472.299911" xlink:href="#FiraSans-Medium-70"/>
     <use x="531.899902" xlink:href="#FiraSans-Medium-65"/>
     <use x="586.799896" xlink:href="#FiraSans-Medium-6e"/>
     <use x="644.899887" xlink:href="#FiraSans-Medium-20"/>
     <use x="669.899872" xlink:href="#FiraSans-Medium-71"/>
     <use x="729.799866" xlink:href="#FiraSans-Medium-75"/>
     <use x="787.499863" xlink:href="#FiraSans-Medium-65"/>
     <use x="842.399857" xlink:href="#FiraSans-Medium-73"/>
     <use x="889.999847" xlink:href="#FiraSans-Medium-74"/>
     <use x="927.499832" xlink:href="#FiraSans-Medium-69"/>
     <use x="955.699829" xlink:href="#FiraSans-Medium-6f"/>
     <use x="1014.099823" xlink:href="#FiraSans-Medium-6e"/>
     <use x="1072.199814" xlink:href="#FiraSans-Medium-73"/>
    </g>
   </g>
  </g>
 </g>
 <defs>
  <clipPath id="p534c82e3da">
   <rect height="543.6" width="837" x="119.482813" y="41.606687"/>
  </clipPath>
 </defs>
</svg>
