<?xml version="1.0" encoding="utf-8" standalone="no"?>
<!DOCTYPE svg PUBLIC "-//W3C//DTD SVG 1.1//EN"
  "http://www.w3.org/Graphics/SVG/1.1/DTD/svg11.dtd">
<!-- Created with matplotlib (http://matplotlib.org/) -->
<svg height="582pt" version="1.1" viewBox="0 0 1737 582" width="1737pt" xmlns="http://www.w3.org/2000/svg" xmlns:xlink="http://www.w3.org/1999/xlink">
 <defs>
  <style type="text/css">
*{stroke-linecap:butt;stroke-linejoin:round;}
  </style>
 </defs>
 <g id="figure_1">
  <g id="patch_1">
   <path d="M 0 582.551759 
L 1737.841875 582.551759 
L 1737.841875 0 
L 0 0 
z
" style="fill:#ffffff;"/>
  </g>
  <g id="axes_1">
   <g id="patch_2">
    <path d="M 51.841875 502.118906 
L 1725.841875 502.118906 
L 1725.841875 12.518906 
L 51.841875 12.518906 
z
" style="fill:#ffffff;"/>
   </g>
   <g id="matplotlib.axis_1">
    <g id="xtick_1">
     <g id="line2d_1">
      <path clip-path="url(#p608c03069a)" d="M 80.667578 502.118906 
L 80.667578 12.518906 
" style="fill:none;stroke:#cccccc;stroke-linecap:round;stroke-width:0.8;"/>
     </g>
     <g id="text_1">
      <!-- Mar 2013 -->
      <defs>
       <path d="M 4.203125 72.90625 
L 17.390625 72.90625 
L 29.984375 35.796875 
L 42.671875 72.90625 
L 55.90625 72.90625 
L 55.90625 0 
L 46.78125 0 
L 46.78125 64.40625 
L 33.796875 25.984375 
L 26.3125 25.984375 
L 13.28125 64.40625 
L 13.28125 0 
L 4.203125 0 
z
" id="Hack-Regular-4d"/>
       <path d="M 25.046875 -1.421875 
Q 16.546875 -1.421875 11.625 3.328125 
Q 9.28125 5.5625 7.953125 8.609375 
Q 6.640625 11.671875 6.640625 15.96875 
Q 6.640625 25 12.796875 29.78125 
Q 18.84375 34.515625 30.765625 34.515625 
L 42.828125 34.515625 
L 42.828125 35.9375 
Q 42.828125 39.0625 41.984375 41.5 
Q 41.15625 43.953125 39.5 45.453125 
Q 37.890625 46.921875 35.25 47.65625 
Q 32.625 48.390625 29.109375 48.390625 
Q 24.46875 48.390625 19.78125 47.078125 
Q 15.046875 45.75 10.640625 43.21875 
L 10.640625 52.203125 
Q 12.703125 52.984375 15.1875 53.765625 
Q 17.671875 54.546875 20.21875 55.078125 
Q 24.65625 56 29.15625 56 
Q 32.625 56 35.453125 55.484375 
Q 38.28125 54.984375 40.71875 53.953125 
Q 42.96875 52.984375 44.984375 51.484375 
Q 47.015625 50 48.4375 48.046875 
Q 49.46875 46.625 50.09375 45.0625 
Q 50.734375 43.5 51.078125 42 
Q 51.859375 38.421875 51.859375 31.203125 
L 51.859375 20.015625 
Q 51.953125 17.1875 52 15.03125 
Q 52.046875 12.890625 52.296875 11.03125 
Q 52.546875 8.984375 52.859375 7.171875 
Q 53.171875 5.375 53.421875 4.4375 
Q 53.765625 2.9375 54.203125 1.59375 
Q 54.640625 0.25 54.734375 0 
L 45.703125 0 
Q 45.453125 0.59375 45.09375 1.734375 
Q 44.734375 2.875 44.390625 4.25 
Q 44.140625 5.328125 43.921875 6.421875 
Q 43.703125 7.515625 43.609375 8.296875 
Q 42.1875 5.859375 39.96875 3.953125 
Q 37.75 2.046875 35.59375 0.921875 
Q 33.25 -0.296875 30.640625 -0.859375 
Q 28.03125 -1.421875 25.046875 -1.421875 
z
M 26.90625 6.109375 
Q 34.28125 6.109375 38.53125 11.28125 
Q 42.828125 16.546875 42.828125 25.484375 
L 42.828125 27.484375 
L 31.453125 27.484375 
Q 23.640625 27.484375 19.625 24.75 
Q 17.53125 23.34375 16.578125 21.265625 
Q 15.625 19.1875 15.625 16.453125 
Q 15.625 13.921875 16.40625 12.03125 
Q 17.1875 10.15625 18.609375 8.84375 
Q 20.015625 7.5625 22.046875 6.828125 
Q 24.078125 6.109375 26.90625 6.109375 
z
" id="Hack-Regular-61"/>
       <path d="M 14.75 54.6875 
L 22.90625 54.6875 
L 23.78125 44 
Q 26.078125 49.8125 30.71875 52.9375 
Q 35.296875 56 41.703125 56 
Q 45.015625 56 47.953125 55.171875 
Q 49.359375 54.78125 50.78125 54.125 
Q 52.203125 53.46875 53.46875 52.59375 
L 53.46875 43.40625 
Q 50.6875 45.65625 47.609375 46.6875 
Q 44.578125 47.703125 41.015625 47.703125 
Q 32.671875 47.703125 28.21875 42.4375 
Q 23.78125 37.203125 23.78125 27.203125 
L 23.78125 0 
L 14.75 0 
z
" id="Hack-Regular-72"/>
       <path id="Hack-Regular-20"/>
       <path d="M 7.421875 6.546875 
Q 7.421875 7.46875 7.6875 8.171875 
Q 7.953125 8.890625 8.640625 9.578125 
Q 11.421875 12.5 15.234375 16.53125 
Q 19.046875 20.5625 23.390625 25.296875 
Q 25.875 27.984375 27.390625 29.640625 
Q 28.90625 31.296875 29.875 32.375 
Q 30.859375 33.453125 31.46875 34.15625 
Q 32.078125 34.859375 32.765625 35.6875 
Q 34.078125 37.25 35.078125 38.546875 
Q 36.078125 39.84375 36.890625 40.984375 
Q 37.703125 42.140625 38.3125 43.203125 
Q 38.921875 44.28125 39.40625 45.359375 
Q 40.234375 47.21875 40.671875 49.0625 
Q 41.109375 50.921875 41.109375 52.984375 
Q 41.109375 55.90625 40.234375 58.328125 
Q 39.359375 60.75 37.546875 62.453125 
Q 33.9375 65.921875 27.640625 65.921875 
Q 23.25 65.921875 18.359375 64.3125 
Q 13.484375 62.703125 8.015625 59.421875 
L 8.015625 69.390625 
Q 10.546875 70.609375 13.0625 71.5 
Q 15.578125 72.40625 17.921875 73 
Q 20.359375 73.640625 22.75 73.921875 
Q 25.140625 74.21875 27.484375 74.21875 
Q 32.5625 74.21875 37 72.84375 
Q 41.453125 71.484375 44.78125 68.5625 
Q 47.703125 65.96875 49.453125 62.234375 
Q 51.21875 58.5 51.21875 53.8125 
Q 51.21875 51.3125 50.671875 48.9375 
Q 50.140625 46.578125 49.078125 44.1875 
Q 48.53125 42.96875 47.84375 41.796875 
Q 47.171875 40.625 46.3125 39.40625 
Q 45.453125 38.1875 44.375 36.84375 
Q 43.3125 35.5 42 33.9375 
Q 40.578125 32.28125 38.625 30.078125 
Q 36.671875 27.875 34.078125 25.09375 
Q 32.234375 23.09375 30.671875 21.5 
Q 29.109375 19.921875 27.3125 18.140625 
Q 25.53125 16.359375 23.265625 14.0625 
Q 21 11.765625 17.71875 8.296875 
L 51.703125 8.296875 
L 51.703125 0 
L 7.421875 0 
z
" id="Hack-Regular-32"/>
       <path d="M 30.078125 -1.421875 
Q 18.359375 -1.421875 12.453125 8.15625 
Q 6.5 17.78125 6.5 36.375 
Q 6.5 55.03125 12.453125 64.65625 
Q 18.359375 74.21875 30.078125 74.21875 
Q 35.84375 74.21875 40.28125 71.875 
Q 44.734375 69.53125 47.75 64.65625 
Q 50.6875 59.96875 52.203125 52.953125 
Q 53.71875 45.953125 53.71875 36.375 
Q 53.71875 26.8125 52.203125 19.828125 
Q 50.6875 12.84375 47.75 8.15625 
Q 41.75 -1.421875 30.078125 -1.421875 
z
M 30.078125 6.390625 
Q 33.640625 6.390625 36.203125 8.296875 
Q 38.765625 10.203125 40.4375 13.8125 
Q 43.796875 21.1875 43.796875 36.375 
Q 43.796875 51.609375 40.4375 58.9375 
Q 38.765625 62.59375 36.21875 64.5 
Q 33.6875 66.40625 30.078125 66.40625 
Q 23.1875 66.40625 19.828125 58.984375 
Q 18.109375 55.328125 17.25 49.78125 
Q 16.40625 44.234375 16.40625 36.375 
Q 16.40625 21.140625 19.828125 13.8125 
Q 21.578125 10.015625 24.140625 8.203125 
Q 26.703125 6.390625 30.078125 6.390625 
z
M 30.171875 19.34375 
Q 29.4375 19.34375 28.828125 19.890625 
Q 28.21875 20.453125 27.75 21.40625 
Q 27.296875 22.359375 26.953125 23.65625 
Q 26.609375 24.953125 26.3125 26.375 
Q 26.078125 27.546875 25.875 28.953125 
Q 25.6875 30.375 25.53125 31.8125 
Q 25.390625 33.25 25.296875 34.515625 
Q 25.203125 35.796875 25.203125 36.625 
Q 25.203125 37.203125 25.25 38.328125 
Q 25.296875 39.453125 25.40625 40.8125 
Q 25.53125 42.1875 25.703125 43.671875 
Q 25.875 45.171875 26.171875 46.53125 
Q 27.546875 53.515625 29.984375 53.515625 
Q 31.34375 53.515625 32.296875 51.65625 
Q 33.25 49.8125 33.9375 46.390625 
Q 34.1875 45.171875 34.375 43.75 
Q 34.578125 42.328125 34.71875 40.9375 
Q 34.859375 39.546875 34.9375 38.296875 
Q 35.015625 37.0625 35.015625 36.234375 
Q 35.015625 35.75 34.984375 34.71875 
Q 34.96875 33.6875 34.859375 32.34375 
Q 34.765625 31 34.59375 29.484375 
Q 34.421875 27.984375 34.1875 26.46875 
Q 33.546875 22.859375 32.5 21.09375 
Q 31.453125 19.34375 30.171875 19.34375 
z
" id="Hack-Regular-30"/>
       <path d="M 13.1875 8.296875 
L 28.515625 8.296875 
L 28.515625 64.015625 
L 12.015625 60.296875 
L 12.015625 69.28125 
L 28.421875 72.90625 
L 38.28125 72.90625 
L 38.28125 8.296875 
L 53.421875 8.296875 
L 53.421875 0 
L 13.1875 0 
z
" id="Hack-Regular-31"/>
       <path d="M 27.640625 -1.421875 
Q 25.296875 -1.421875 22.734375 -1.203125 
Q 20.171875 -0.984375 17.53125 -0.484375 
Q 15.28125 -0.09375 12.59375 0.578125 
Q 9.90625 1.265625 7.28125 2.203125 
L 7.28125 12.15625 
Q 9.765625 10.890625 12.15625 9.859375 
Q 14.546875 8.84375 17.09375 8.15625 
Q 19.53125 7.515625 21.890625 7.203125 
Q 24.265625 6.890625 26.703125 6.890625 
Q 34.8125 6.890625 39.15625 10.546875 
Q 41.359375 12.40625 42.421875 15.03125 
Q 43.5 17.671875 43.5 20.953125 
Q 43.5 27.484375 39.203125 31.203125 
Q 37.109375 33.015625 34.125 33.953125 
Q 31.15625 34.90625 27.390625 34.90625 
L 19.875 34.90625 
L 19.875 43.015625 
L 27.390625 43.015625 
Q 34.234375 43.015625 38.03125 46 
Q 41.796875 48.921875 41.796875 54.4375 
Q 41.796875 57.078125 40.921875 59.25 
Q 40.046875 61.421875 38.28125 62.9375 
Q 34.8125 65.921875 28.03125 65.921875 
Q 26.03125 65.921875 23.78125 65.671875 
Q 21.53125 65.4375 19.1875 64.9375 
Q 14.453125 63.96875 9.46875 62.015625 
L 9.46875 71.09375 
Q 15.375 72.609375 20.015625 73.4375 
Q 24.515625 74.21875 28.265625 74.21875 
Q 33.40625 74.21875 37.71875 72.890625 
Q 42.046875 71.578125 45.265625 68.890625 
Q 48.296875 66.359375 49.921875 62.796875 
Q 51.5625 59.234375 51.5625 54.78125 
Q 51.5625 51.609375 50.703125 49.109375 
Q 49.859375 46.625 48.25 44.671875 
Q 44.921875 40.71875 38.484375 39.015625 
Q 45.65625 37.109375 49.46875 32.28125 
Q 51.46875 29.734375 52.359375 26.65625 
Q 53.265625 23.578125 53.265625 20.0625 
Q 53.265625 15.1875 51.609375 11.203125 
Q 49.953125 7.234375 46.578125 4.34375 
Q 43.265625 1.515625 38.546875 0.046875 
Q 33.84375 -1.421875 27.640625 -1.421875 
z
" id="Hack-Regular-33"/>
      </defs>
      <g style="fill:#262626;" transform="translate(20.817869 553.345272)rotate(-30)scale(0.14 -0.14)">
       <use xlink:href="#Hack-Regular-4d"/>
       <use x="60.205078" xlink:href="#Hack-Regular-61"/>
       <use x="120.410156" xlink:href="#Hack-Regular-72"/>
       <use x="180.615234" xlink:href="#Hack-Regular-20"/>
       <use x="240.820312" xlink:href="#Hack-Regular-32"/>
       <use x="301.025391" xlink:href="#Hack-Regular-30"/>
       <use x="361.230469" xlink:href="#Hack-Regular-31"/>
       <use x="421.435547" xlink:href="#Hack-Regular-33"/>
      </g>
     </g>
    </g>
    <g id="xtick_2">
     <g id="line2d_2">
      <path clip-path="url(#p608c03069a)" d="M 166.441623 502.118906 
L 166.441623 12.518906 
" style="fill:none;stroke:#cccccc;stroke-linecap:round;stroke-width:0.8;"/>
     </g>
     <g id="text_2">
      <!-- Jul 2013 -->
      <defs>
       <path d="M 24.515625 -1.421875 
Q 19.484375 -1.421875 14.984375 -0.34375 
Q 10.25 0.78125 5.328125 2.984375 
L 5.328125 14.5 
Q 9.765625 10.546875 14.5 8.59375 
Q 19.34375 6.59375 24.359375 6.59375 
Q 27.640625 6.59375 30.15625 7.46875 
Q 32.671875 8.34375 34.078125 10.25 
Q 36.8125 13.875 36.8125 23.78125 
L 36.8125 64.59375 
L 18.21875 64.59375 
L 18.21875 72.90625 
L 46.6875 72.90625 
L 46.6875 23.78125 
Q 46.6875 16.75 45.4375 12.03125 
Q 44.1875 7.328125 41.5 4.34375 
Q 38.8125 1.375 34.640625 -0.015625 
Q 30.46875 -1.421875 24.515625 -1.421875 
z
" id="Hack-Regular-4a"/>
       <path d="M 26.078125 -1.421875 
Q 17.71875 -1.421875 13.625 4.109375 
Q 9.515625 9.578125 9.515625 20.703125 
L 9.515625 54.59375 
L 18.5 54.59375 
L 18.5 20.703125 
Q 18.5 13.28125 21.140625 9.859375 
Q 22.40625 8.203125 24.328125 7.296875 
Q 26.265625 6.390625 29.203125 6.390625 
Q 35.546875 6.390625 38.921875 10.890625 
Q 42.28125 15.328125 42.28125 23.6875 
L 42.28125 54.59375 
L 51.3125 54.59375 
L 51.3125 0 
L 43.171875 0 
L 42.28125 8.203125 
Q 39.84375 3.421875 35.796875 1.03125 
Q 31.640625 -1.421875 26.078125 -1.421875 
z
" id="Hack-Regular-75"/>
       <path d="M 40.09375 -0.390625 
Q 36.1875 -0.390625 33.078125 0.828125 
Q 29.984375 2.046875 27.640625 4.78125 
Q 23.1875 9.96875 23.1875 19.4375 
L 23.1875 68.953125 
L 8.796875 68.953125 
L 8.796875 75.984375 
L 32.171875 75.984375 
L 32.171875 19.4375 
Q 32.171875 13.328125 34.421875 10.296875 
Q 35.59375 8.6875 37.234375 7.953125 
Q 38.875 7.234375 40.96875 7.234375 
L 51.46875 7.234375 
L 51.46875 -0.390625 
L 40.09375 -0.390625 
z
" id="Hack-Regular-6c"/>
      </defs>
      <g style="fill:#262626;" transform="translate(106.591914 553.345272)rotate(-30)scale(0.14 -0.14)">
       <use xlink:href="#Hack-Regular-4a"/>
       <use x="60.205078" xlink:href="#Hack-Regular-75"/>
       <use x="120.410156" xlink:href="#Hack-Regular-6c"/>
       <use x="180.615234" xlink:href="#Hack-Regular-20"/>
       <use x="240.820312" xlink:href="#Hack-Regular-32"/>
       <use x="301.025391" xlink:href="#Hack-Regular-30"/>
       <use x="361.230469" xlink:href="#Hack-Regular-31"/>
       <use x="421.435547" xlink:href="#Hack-Regular-33"/>
      </g>
     </g>
    </g>
    <g id="xtick_3">
     <g id="line2d_3">
      <path clip-path="url(#p608c03069a)" d="M 252.918733 502.118906 
L 252.918733 12.518906 
" style="fill:none;stroke:#cccccc;stroke-linecap:round;stroke-width:0.8;"/>
     </g>
     <g id="text_3">
      <!-- Nov 2013 -->
      <defs>
       <path d="M 6.78125 72.90625 
L 19.28125 72.90625 
L 43.890625 12.890625 
L 43.890625 72.90625 
L 53.421875 72.90625 
L 53.421875 0 
L 40.921875 0 
L 16.3125 60.015625 
L 16.3125 0 
L 6.78125 0 
z
" id="Hack-Regular-4e"/>
       <path d="M 30.078125 -1.421875 
Q 24.46875 -1.421875 20.09375 0.40625 
Q 15.71875 2.25 12.703125 5.90625 
Q 9.625 9.71875 8.15625 15.109375 
Q 6.6875 20.515625 6.6875 27.34375 
Q 6.6875 41.21875 12.703125 48.640625 
Q 18.703125 56 30.078125 56 
Q 35.9375 56 40.25 54.125 
Q 44.578125 52.25 47.515625 48.640625 
Q 53.515625 41.21875 53.515625 27.390625 
Q 53.515625 20.40625 52.015625 14.984375 
Q 50.53125 9.578125 47.515625 5.90625 
Q 44.578125 2.296875 40.203125 0.4375 
Q 35.84375 -1.421875 30.078125 -1.421875 
z
M 30.078125 6.203125 
Q 36.96875 6.203125 40.484375 11.578125 
Q 44 16.890625 44 27.296875 
Q 44 37.703125 40.484375 43.0625 
Q 36.96875 48.390625 30.078125 48.390625 
Q 23.25 48.390625 19.734375 43.0625 
Q 16.21875 37.703125 16.21875 27.296875 
Q 16.21875 16.890625 19.734375 11.578125 
Q 23.25 6.203125 30.078125 6.203125 
z
" id="Hack-Regular-6f"/>
       <path d="M 4.890625 54.6875 
L 14.203125 54.6875 
L 30.078125 8.796875 
L 46 54.6875 
L 55.328125 54.6875 
L 35.890625 0 
L 24.3125 0 
z
" id="Hack-Regular-76"/>
      </defs>
      <g style="fill:#262626;" transform="translate(193.069024 553.345272)rotate(-30)scale(0.14 -0.14)">
       <use xlink:href="#Hack-Regular-4e"/>
       <use x="60.205078" xlink:href="#Hack-Regular-6f"/>
       <use x="120.410156" xlink:href="#Hack-Regular-76"/>
       <use x="180.615234" xlink:href="#Hack-Regular-20"/>
       <use x="240.820312" xlink:href="#Hack-Regular-32"/>
       <use x="301.025391" xlink:href="#Hack-Regular-30"/>
       <use x="361.230469" xlink:href="#Hack-Regular-31"/>
       <use x="421.435547" xlink:href="#Hack-Regular-33"/>
      </g>
     </g>
    </g>
    <g id="xtick_4">
     <g id="line2d_4">
      <path clip-path="url(#p608c03069a)" d="M 337.286646 502.118906 
L 337.286646 12.518906 
" style="fill:none;stroke:#cccccc;stroke-linecap:round;stroke-width:0.8;"/>
     </g>
     <g id="text_4">
      <!-- Mar 2014 -->
      <defs>
       <path d="M 35.890625 17.390625 
L 4.984375 17.390625 
L 4.984375 26.703125 
L 34.28125 72.90625 
L 45.703125 72.90625 
L 45.703125 25.390625 
L 55.421875 25.390625 
L 55.421875 17.390625 
L 45.703125 17.390625 
L 45.703125 0 
L 35.890625 0 
z
M 35.890625 25.390625 
L 35.890625 63.921875 
L 12.890625 25.390625 
z
" id="Hack-Regular-34"/>
      </defs>
      <g style="fill:#262626;" transform="translate(277.436937 553.345272)rotate(-30)scale(0.14 -0.14)">
       <use xlink:href="#Hack-Regular-4d"/>
       <use x="60.205078" xlink:href="#Hack-Regular-61"/>
       <use x="120.410156" xlink:href="#Hack-Regular-72"/>
       <use x="180.615234" xlink:href="#Hack-Regular-20"/>
       <use x="240.820312" xlink:href="#Hack-Regular-32"/>
       <use x="301.025391" xlink:href="#Hack-Regular-30"/>
       <use x="361.230469" xlink:href="#Hack-Regular-31"/>
       <use x="421.435547" xlink:href="#Hack-Regular-34"/>
      </g>
     </g>
    </g>
    <g id="xtick_5">
     <g id="line2d_5">
      <path clip-path="url(#p608c03069a)" d="M 423.060691 502.118906 
L 423.060691 12.518906 
" style="fill:none;stroke:#cccccc;stroke-linecap:round;stroke-width:0.8;"/>
     </g>
     <g id="text_5">
      <!-- Jul 2014 -->
      <g style="fill:#262626;" transform="translate(363.210981 553.345272)rotate(-30)scale(0.14 -0.14)">
       <use xlink:href="#Hack-Regular-4a"/>
       <use x="60.205078" xlink:href="#Hack-Regular-75"/>
       <use x="120.410156" xlink:href="#Hack-Regular-6c"/>
       <use x="180.615234" xlink:href="#Hack-Regular-20"/>
       <use x="240.820312" xlink:href="#Hack-Regular-32"/>
       <use x="301.025391" xlink:href="#Hack-Regular-30"/>
       <use x="361.230469" xlink:href="#Hack-Regular-31"/>
       <use x="421.435547" xlink:href="#Hack-Regular-34"/>
      </g>
     </g>
    </g>
    <g id="xtick_6">
     <g id="line2d_6">
      <path clip-path="url(#p608c03069a)" d="M 509.537801 502.118906 
L 509.537801 12.518906 
" style="fill:none;stroke:#cccccc;stroke-linecap:round;stroke-width:0.8;"/>
     </g>
     <g id="text_6">
      <!-- Nov 2014 -->
      <g style="fill:#262626;" transform="translate(449.688092 553.345272)rotate(-30)scale(0.14 -0.14)">
       <use xlink:href="#Hack-Regular-4e"/>
       <use x="60.205078" xlink:href="#Hack-Regular-6f"/>
       <use x="120.410156" xlink:href="#Hack-Regular-76"/>
       <use x="180.615234" xlink:href="#Hack-Regular-20"/>
       <use x="240.820312" xlink:href="#Hack-Regular-32"/>
       <use x="301.025391" xlink:href="#Hack-Regular-30"/>
       <use x="361.230469" xlink:href="#Hack-Regular-31"/>
       <use x="421.435547" xlink:href="#Hack-Regular-34"/>
      </g>
     </g>
    </g>
    <g id="xtick_7">
     <g id="line2d_7">
      <path clip-path="url(#p608c03069a)" d="M 593.905714 502.118906 
L 593.905714 12.518906 
" style="fill:none;stroke:#cccccc;stroke-linecap:round;stroke-width:0.8;"/>
     </g>
     <g id="text_7">
      <!-- Mar 2015 -->
      <defs>
       <path d="M 25.640625 -1.421875 
Q 23.4375 -1.421875 20.71875 -1.21875 
Q 18.015625 -1.03125 15.625 -0.640625 
Q 13.140625 -0.25 11.03125 0.328125 
Q 8.9375 0.921875 6.984375 1.703125 
L 6.984375 11.71875 
Q 11.53125 9.28125 16.015625 8.109375 
Q 20.609375 6.890625 25.046875 6.890625 
Q 33.546875 6.890625 37.890625 11.1875 
Q 42.28125 15.484375 42.28125 23.296875 
Q 42.28125 27.546875 41.0625 30.5625 
Q 39.84375 33.59375 37.75 35.59375 
Q 35.6875 37.546875 32.46875 38.71875 
Q 29.25 39.890625 24.8125 39.890625 
Q 23 39.890625 21.0625 39.671875 
Q 19.140625 39.453125 17.28125 39.015625 
Q 15.484375 38.578125 13.578125 37.84375 
Q 11.671875 37.109375 10.109375 36.28125 
L 10.109375 72.90625 
L 47.015625 72.90625 
L 47.015625 64.59375 
L 19.09375 64.59375 
L 19.09375 46.6875 
Q 21.1875 47.46875 23.34375 47.859375 
Q 25.34375 48.1875 27.640625 48.1875 
Q 33.546875 48.1875 38.03125 46.375 
Q 42.53125 44.578125 45.609375 41.5 
Q 48.921875 38.140625 50.5625 33.5625 
Q 52.203125 29 52.203125 23.484375 
Q 52.203125 17.71875 50.4375 13.078125 
Q 48.6875 8.453125 45.3125 5.171875 
Q 41.9375 1.953125 37.078125 0.265625 
Q 32.234375 -1.421875 25.640625 -1.421875 
z
" id="Hack-Regular-35"/>
      </defs>
      <g style="fill:#262626;" transform="translate(534.056005 553.345272)rotate(-30)scale(0.14 -0.14)">
       <use xlink:href="#Hack-Regular-4d"/>
       <use x="60.205078" xlink:href="#Hack-Regular-61"/>
       <use x="120.410156" xlink:href="#Hack-Regular-72"/>
       <use x="180.615234" xlink:href="#Hack-Regular-20"/>
       <use x="240.820312" xlink:href="#Hack-Regular-32"/>
       <use x="301.025391" xlink:href="#Hack-Regular-30"/>
       <use x="361.230469" xlink:href="#Hack-Regular-31"/>
       <use x="421.435547" xlink:href="#Hack-Regular-35"/>
      </g>
     </g>
    </g>
    <g id="xtick_8">
     <g id="line2d_8">
      <path clip-path="url(#p608c03069a)" d="M 679.679758 502.118906 
L 679.679758 12.518906 
" style="fill:none;stroke:#cccccc;stroke-linecap:round;stroke-width:0.8;"/>
     </g>
     <g id="text_8">
      <!-- Jul 2015 -->
      <g style="fill:#262626;" transform="translate(619.830049 553.345272)rotate(-30)scale(0.14 -0.14)">
       <use xlink:href="#Hack-Regular-4a"/>
       <use x="60.205078" xlink:href="#Hack-Regular-75"/>
       <use x="120.410156" xlink:href="#Hack-Regular-6c"/>
       <use x="180.615234" xlink:href="#Hack-Regular-20"/>
       <use x="240.820312" xlink:href="#Hack-Regular-32"/>
       <use x="301.025391" xlink:href="#Hack-Regular-30"/>
       <use x="361.230469" xlink:href="#Hack-Regular-31"/>
       <use x="421.435547" xlink:href="#Hack-Regular-35"/>
      </g>
     </g>
    </g>
    <g id="xtick_9">
     <g id="line2d_9">
      <path clip-path="url(#p608c03069a)" d="M 766.156869 502.118906 
L 766.156869 12.518906 
" style="fill:none;stroke:#cccccc;stroke-linecap:round;stroke-width:0.8;"/>
     </g>
     <g id="text_9">
      <!-- Nov 2015 -->
      <g style="fill:#262626;" transform="translate(706.30716 553.345272)rotate(-30)scale(0.14 -0.14)">
       <use xlink:href="#Hack-Regular-4e"/>
       <use x="60.205078" xlink:href="#Hack-Regular-6f"/>
       <use x="120.410156" xlink:href="#Hack-Regular-76"/>
       <use x="180.615234" xlink:href="#Hack-Regular-20"/>
       <use x="240.820312" xlink:href="#Hack-Regular-32"/>
       <use x="301.025391" xlink:href="#Hack-Regular-30"/>
       <use x="361.230469" xlink:href="#Hack-Regular-31"/>
       <use x="421.435547" xlink:href="#Hack-Regular-35"/>
      </g>
     </g>
    </g>
    <g id="xtick_10">
     <g id="line2d_10">
      <path clip-path="url(#p608c03069a)" d="M 851.227847 502.118906 
L 851.227847 12.518906 
" style="fill:none;stroke:#cccccc;stroke-linecap:round;stroke-width:0.8;"/>
     </g>
     <g id="text_10">
      <!-- Mar 2016 -->
      <defs>
       <path d="M 30.90625 -1.421875 
Q 24.21875 -1.421875 19.765625 0.953125 
Q 15.328125 3.328125 12.453125 7.765625 
Q 9.375 12.546875 7.9375 19.484375 
Q 6.5 26.421875 6.5 35.359375 
Q 6.5 45.40625 8.28125 52.578125 
Q 10.0625 59.765625 13.578125 64.546875 
Q 17.09375 69.34375 22.234375 71.78125 
Q 27.390625 74.21875 34.078125 74.21875 
Q 36.078125 74.21875 37.953125 74.015625 
Q 39.84375 73.828125 41.40625 73.484375 
Q 43.359375 73.09375 45.09375 72.5 
Q 46.828125 71.921875 48.390625 71.296875 
L 48.390625 62.203125 
Q 46.921875 63.09375 45.203125 63.8125 
Q 43.5 64.546875 41.84375 64.984375 
Q 40.140625 65.484375 38.28125 65.703125 
Q 36.421875 65.921875 34.71875 65.921875 
Q 25.203125 65.921875 20.40625 58.890625 
Q 15.578125 51.765625 15.578125 38.09375 
Q 17.921875 42.96875 22.078125 45.609375 
Q 24.265625 46.96875 26.65625 47.578125 
Q 29.046875 48.1875 31.984375 48.1875 
Q 36.859375 48.1875 40.9375 46.578125 
Q 45.015625 44.96875 47.953125 41.75 
Q 50.875 38.53125 52.296875 33.890625 
Q 53.71875 29.25 53.71875 23.484375 
Q 53.71875 17.53125 52.21875 12.90625 
Q 50.734375 8.296875 47.796875 5.078125 
Q 44.875 1.859375 40.640625 0.21875 
Q 36.421875 -1.421875 30.90625 -1.421875 
z
M 30.90625 6.296875 
Q 34.078125 6.296875 36.546875 7.375 
Q 39.015625 8.453125 40.671875 10.640625 
Q 44 14.984375 44 23.390625 
Q 44 31.84375 40.671875 36.1875 
Q 38.96875 38.421875 36.46875 39.453125 
Q 33.984375 40.484375 30.953125 40.484375 
Q 27.546875 40.484375 25.046875 39.28125 
Q 22.5625 38.09375 20.90625 35.984375 
Q 19.1875 33.84375 18.234375 30.6875 
Q 17.28125 27.546875 17.28125 23.390625 
Q 17.28125 19.234375 18.234375 16.078125 
Q 19.1875 12.9375 20.90625 10.796875 
Q 22.5625 8.6875 25.046875 7.484375 
Q 27.546875 6.296875 30.90625 6.296875 
z
" id="Hack-Regular-36"/>
      </defs>
      <g style="fill:#262626;" transform="translate(791.378138 553.345272)rotate(-30)scale(0.14 -0.14)">
       <use xlink:href="#Hack-Regular-4d"/>
       <use x="60.205078" xlink:href="#Hack-Regular-61"/>
       <use x="120.410156" xlink:href="#Hack-Regular-72"/>
       <use x="180.615234" xlink:href="#Hack-Regular-20"/>
       <use x="240.820312" xlink:href="#Hack-Regular-32"/>
       <use x="301.025391" xlink:href="#Hack-Regular-30"/>
       <use x="361.230469" xlink:href="#Hack-Regular-31"/>
       <use x="421.435547" xlink:href="#Hack-Regular-36"/>
      </g>
     </g>
    </g>
    <g id="xtick_11">
     <g id="line2d_11">
      <path clip-path="url(#p608c03069a)" d="M 937.001892 502.118906 
L 937.001892 12.518906 
" style="fill:none;stroke:#cccccc;stroke-linecap:round;stroke-width:0.8;"/>
     </g>
     <g id="text_11">
      <!-- Jul 2016 -->
      <g style="fill:#262626;" transform="translate(877.152183 553.345272)rotate(-30)scale(0.14 -0.14)">
       <use xlink:href="#Hack-Regular-4a"/>
       <use x="60.205078" xlink:href="#Hack-Regular-75"/>
       <use x="120.410156" xlink:href="#Hack-Regular-6c"/>
       <use x="180.615234" xlink:href="#Hack-Regular-20"/>
       <use x="240.820312" xlink:href="#Hack-Regular-32"/>
       <use x="301.025391" xlink:href="#Hack-Regular-30"/>
       <use x="361.230469" xlink:href="#Hack-Regular-31"/>
       <use x="421.435547" xlink:href="#Hack-Regular-36"/>
      </g>
     </g>
    </g>
    <g id="xtick_12">
     <g id="line2d_12">
      <path clip-path="url(#p608c03069a)" d="M 1023.479002 502.118906 
L 1023.479002 12.518906 
" style="fill:none;stroke:#cccccc;stroke-linecap:round;stroke-width:0.8;"/>
     </g>
     <g id="text_12">
      <!-- Nov 2016 -->
      <g style="fill:#262626;" transform="translate(963.629293 553.345272)rotate(-30)scale(0.14 -0.14)">
       <use xlink:href="#Hack-Regular-4e"/>
       <use x="60.205078" xlink:href="#Hack-Regular-6f"/>
       <use x="120.410156" xlink:href="#Hack-Regular-76"/>
       <use x="180.615234" xlink:href="#Hack-Regular-20"/>
       <use x="240.820312" xlink:href="#Hack-Regular-32"/>
       <use x="301.025391" xlink:href="#Hack-Regular-30"/>
       <use x="361.230469" xlink:href="#Hack-Regular-31"/>
       <use x="421.435547" xlink:href="#Hack-Regular-36"/>
      </g>
     </g>
    </g>
    <g id="xtick_13">
     <g id="line2d_13">
      <path clip-path="url(#p608c03069a)" d="M 1107.846915 502.118906 
L 1107.846915 12.518906 
" style="fill:none;stroke:#cccccc;stroke-linecap:round;stroke-width:0.8;"/>
     </g>
     <g id="text_13">
      <!-- Mar 2017 -->
      <defs>
       <path d="M 41.703125 64.59375 
L 6.78125 64.59375 
L 6.78125 72.90625 
L 52.6875 72.90625 
L 52.6875 68.703125 
L 26.609375 0 
L 16.3125 0 
z
" id="Hack-Regular-37"/>
      </defs>
      <g style="fill:#262626;" transform="translate(1047.997206 553.345272)rotate(-30)scale(0.14 -0.14)">
       <use xlink:href="#Hack-Regular-4d"/>
       <use x="60.205078" xlink:href="#Hack-Regular-61"/>
       <use x="120.410156" xlink:href="#Hack-Regular-72"/>
       <use x="180.615234" xlink:href="#Hack-Regular-20"/>
       <use x="240.820312" xlink:href="#Hack-Regular-32"/>
       <use x="301.025391" xlink:href="#Hack-Regular-30"/>
       <use x="361.230469" xlink:href="#Hack-Regular-31"/>
       <use x="421.435547" xlink:href="#Hack-Regular-37"/>
      </g>
     </g>
    </g>
    <g id="xtick_14">
     <g id="line2d_14">
      <path clip-path="url(#p608c03069a)" d="M 1193.620959 502.118906 
L 1193.620959 12.518906 
" style="fill:none;stroke:#cccccc;stroke-linecap:round;stroke-width:0.8;"/>
     </g>
     <g id="text_14">
      <!-- Jul 2017 -->
      <g style="fill:#262626;" transform="translate(1133.77125 553.345272)rotate(-30)scale(0.14 -0.14)">
       <use xlink:href="#Hack-Regular-4a"/>
       <use x="60.205078" xlink:href="#Hack-Regular-75"/>
       <use x="120.410156" xlink:href="#Hack-Regular-6c"/>
       <use x="180.615234" xlink:href="#Hack-Regular-20"/>
       <use x="240.820312" xlink:href="#Hack-Regular-32"/>
       <use x="301.025391" xlink:href="#Hack-Regular-30"/>
       <use x="361.230469" xlink:href="#Hack-Regular-31"/>
       <use x="421.435547" xlink:href="#Hack-Regular-37"/>
      </g>
     </g>
    </g>
    <g id="xtick_15">
     <g id="line2d_15">
      <path clip-path="url(#p608c03069a)" d="M 1280.09807 502.118906 
L 1280.09807 12.518906 
" style="fill:none;stroke:#cccccc;stroke-linecap:round;stroke-width:0.8;"/>
     </g>
     <g id="text_15">
      <!-- Nov 2017 -->
      <g style="fill:#262626;" transform="translate(1220.248361 553.345272)rotate(-30)scale(0.14 -0.14)">
       <use xlink:href="#Hack-Regular-4e"/>
       <use x="60.205078" xlink:href="#Hack-Regular-6f"/>
       <use x="120.410156" xlink:href="#Hack-Regular-76"/>
       <use x="180.615234" xlink:href="#Hack-Regular-20"/>
       <use x="240.820312" xlink:href="#Hack-Regular-32"/>
       <use x="301.025391" xlink:href="#Hack-Regular-30"/>
       <use x="361.230469" xlink:href="#Hack-Regular-31"/>
       <use x="421.435547" xlink:href="#Hack-Regular-37"/>
      </g>
     </g>
    </g>
    <g id="xtick_16">
     <g id="line2d_16">
      <path clip-path="url(#p608c03069a)" d="M 1364.465983 502.118906 
L 1364.465983 12.518906 
" style="fill:none;stroke:#cccccc;stroke-linecap:round;stroke-width:0.8;"/>
     </g>
     <g id="text_16">
      <!-- Mar 2018 -->
      <defs>
       <path d="M 30.03125 -1.421875 
Q 24.359375 -1.421875 20.03125 0.015625 
Q 15.71875 1.46875 12.703125 4.109375 
Q 9.671875 6.734375 8.03125 10.5625 
Q 6.390625 14.40625 6.390625 19.53125 
Q 6.390625 27.296875 10.296875 32.234375 
Q 14.15625 37.109375 21.484375 38.71875 
Q 18.5 39.453125 15.953125 40.96875 
Q 13.421875 42.484375 11.671875 44.671875 
Q 9.8125 46.96875 8.953125 49.703125 
Q 8.109375 52.4375 8.109375 55.515625 
Q 8.109375 59.671875 9.5625 63.109375 
Q 11.03125 66.546875 14.015625 69.140625 
Q 16.890625 71.625 20.875 72.921875 
Q 24.859375 74.21875 30.078125 74.21875 
Q 35.296875 74.21875 39.296875 72.921875 
Q 43.3125 71.625 46.1875 69.140625 
Q 49.125 66.65625 50.609375 63.203125 
Q 52.09375 59.765625 52.09375 55.46875 
Q 52.09375 52.15625 51.1875 49.515625 
Q 50.296875 46.875 48.578125 44.734375 
Q 46.875 42.578125 44.40625 41.0625 
Q 41.9375 39.546875 38.71875 38.71875 
Q 46.09375 37.109375 49.953125 32.234375 
Q 53.8125 27.34375 53.8125 19.625 
Q 53.8125 14.5 52.171875 10.609375 
Q 50.53125 6.734375 47.515625 4.109375 
Q 44.4375 1.421875 40.03125 0 
Q 35.640625 -1.421875 30.03125 -1.421875 
z
M 30.078125 42.390625 
Q 35.984375 42.390625 39.15625 45.453125 
Q 42.28125 48.53125 42.28125 54.390625 
Q 42.28125 60.296875 39.203125 63.484375 
Q 36.078125 66.609375 30.078125 66.609375 
Q 24.171875 66.609375 21.046875 63.484375 
Q 17.921875 60.359375 17.921875 54.390625 
Q 17.921875 48.53125 21.046875 45.453125 
Q 24.171875 42.390625 30.078125 42.390625 
z
M 30.21875 6.296875 
Q 33.453125 6.296875 35.984375 7.21875 
Q 38.53125 8.15625 40.328125 10.015625 
Q 42.140625 11.859375 43.015625 14.46875 
Q 43.890625 17.09375 43.890625 20.40625 
Q 43.890625 24.03125 42.9375 26.609375 
Q 42 29.203125 40.28125 30.90625 
Q 36.625 34.625 30.078125 34.625 
Q 23.484375 34.625 19.921875 30.953125 
Q 18.21875 29.203125 17.265625 26.578125 
Q 16.3125 23.96875 16.3125 20.5625 
Q 16.3125 17.234375 17.203125 14.578125 
Q 18.109375 11.921875 19.921875 10.0625 
Q 21.78125 8.15625 24.390625 7.21875 
Q 27 6.296875 30.21875 6.296875 
z
" id="Hack-Regular-38"/>
      </defs>
      <g style="fill:#262626;" transform="translate(1304.616273 553.345272)rotate(-30)scale(0.14 -0.14)">
       <use xlink:href="#Hack-Regular-4d"/>
       <use x="60.205078" xlink:href="#Hack-Regular-61"/>
       <use x="120.410156" xlink:href="#Hack-Regular-72"/>
       <use x="180.615234" xlink:href="#Hack-Regular-20"/>
       <use x="240.820312" xlink:href="#Hack-Regular-32"/>
       <use x="301.025391" xlink:href="#Hack-Regular-30"/>
       <use x="361.230469" xlink:href="#Hack-Regular-31"/>
       <use x="421.435547" xlink:href="#Hack-Regular-38"/>
      </g>
     </g>
    </g>
    <g id="xtick_17">
     <g id="line2d_17">
      <path clip-path="url(#p608c03069a)" d="M 1450.240027 502.118906 
L 1450.240027 12.518906 
" style="fill:none;stroke:#cccccc;stroke-linecap:round;stroke-width:0.8;"/>
     </g>
     <g id="text_17">
      <!-- Jul 2018 -->
      <g style="fill:#262626;" transform="translate(1390.390318 553.345272)rotate(-30)scale(0.14 -0.14)">
       <use xlink:href="#Hack-Regular-4a"/>
       <use x="60.205078" xlink:href="#Hack-Regular-75"/>
       <use x="120.410156" xlink:href="#Hack-Regular-6c"/>
       <use x="180.615234" xlink:href="#Hack-Regular-20"/>
       <use x="240.820312" xlink:href="#Hack-Regular-32"/>
       <use x="301.025391" xlink:href="#Hack-Regular-30"/>
       <use x="361.230469" xlink:href="#Hack-Regular-31"/>
       <use x="421.435547" xlink:href="#Hack-Regular-38"/>
      </g>
     </g>
    </g>
    <g id="xtick_18">
     <g id="line2d_18">
      <path clip-path="url(#p608c03069a)" d="M 1536.717137 502.118906 
L 1536.717137 12.518906 
" style="fill:none;stroke:#cccccc;stroke-linecap:round;stroke-width:0.8;"/>
     </g>
     <g id="text_18">
      <!-- Nov 2018 -->
      <g style="fill:#262626;" transform="translate(1476.867428 553.345272)rotate(-30)scale(0.14 -0.14)">
       <use xlink:href="#Hack-Regular-4e"/>
       <use x="60.205078" xlink:href="#Hack-Regular-6f"/>
       <use x="120.410156" xlink:href="#Hack-Regular-76"/>
       <use x="180.615234" xlink:href="#Hack-Regular-20"/>
       <use x="240.820312" xlink:href="#Hack-Regular-32"/>
       <use x="301.025391" xlink:href="#Hack-Regular-30"/>
       <use x="361.230469" xlink:href="#Hack-Regular-31"/>
       <use x="421.435547" xlink:href="#Hack-Regular-38"/>
      </g>
     </g>
    </g>
    <g id="xtick_19">
     <g id="line2d_19">
      <path clip-path="url(#p608c03069a)" d="M 1621.08505 502.118906 
L 1621.08505 12.518906 
" style="fill:none;stroke:#cccccc;stroke-linecap:round;stroke-width:0.8;"/>
     </g>
     <g id="text_19">
      <!-- Mar 2019 -->
      <defs>
       <path d="M 25.78125 -1.421875 
Q 23.96875 -1.421875 22.09375 -1.25 
Q 20.21875 -1.078125 18.5 -0.6875 
Q 16.9375 -0.34375 15.078125 0.234375 
Q 13.234375 0.828125 11.53125 1.515625 
L 11.53125 10.59375 
Q 13.09375 9.671875 14.765625 8.984375 
Q 16.453125 8.296875 18.0625 7.859375 
Q 21.578125 6.890625 25.25 6.890625 
Q 34.671875 6.890625 39.5 13.96875 
Q 44.28125 21.046875 44.28125 34.71875 
Q 43.171875 32.234375 41.453125 30.328125 
Q 39.75 28.421875 37.84375 27.203125 
Q 33.796875 24.609375 27.78125 24.609375 
Q 22.90625 24.609375 18.890625 26.234375 
Q 14.890625 27.875 12.015625 31.109375 
Q 6.203125 37.640625 6.203125 49.3125 
Q 6.203125 55.078125 7.640625 59.78125 
Q 9.078125 64.5 12.15625 67.828125 
Q 15.09375 71.046875 19.328125 72.625 
Q 23.578125 74.21875 29 74.21875 
Q 35.6875 74.21875 40.125 71.84375 
Q 44.578125 69.484375 47.46875 65.046875 
Q 50.59375 60.15625 52 53.171875 
Q 53.421875 46.1875 53.421875 37.40625 
Q 53.421875 27.734375 51.734375 20.453125 
Q 50.046875 13.1875 46.390625 8.25 
Q 42.78125 3.375 37.546875 0.96875 
Q 32.328125 -1.421875 25.78125 -1.421875 
z
M 28.953125 32.328125 
Q 32.375 32.328125 34.859375 33.515625 
Q 37.359375 34.71875 39.015625 36.8125 
Q 40.71875 38.96875 41.640625 42.109375 
Q 42.578125 45.265625 42.578125 49.421875 
Q 42.578125 53.5625 41.640625 56.703125 
Q 40.71875 59.859375 39.015625 62.015625 
Q 37.359375 64.109375 34.859375 65.296875 
Q 32.375 66.5 28.953125 66.5 
Q 25.921875 66.5 23.4375 65.46875 
Q 20.953125 64.453125 19.234375 62.203125 
Q 15.921875 57.859375 15.921875 49.421875 
Q 15.921875 40.96875 19.234375 36.625 
Q 20.90625 34.421875 23.359375 33.375 
Q 25.828125 32.328125 28.953125 32.328125 
z
" id="Hack-Regular-39"/>
      </defs>
      <g style="fill:#262626;" transform="translate(1561.235341 553.345272)rotate(-30)scale(0.14 -0.14)">
       <use xlink:href="#Hack-Regular-4d"/>
       <use x="60.205078" xlink:href="#Hack-Regular-61"/>
       <use x="120.410156" xlink:href="#Hack-Regular-72"/>
       <use x="180.615234" xlink:href="#Hack-Regular-20"/>
       <use x="240.820312" xlink:href="#Hack-Regular-32"/>
       <use x="301.025391" xlink:href="#Hack-Regular-30"/>
       <use x="361.230469" xlink:href="#Hack-Regular-31"/>
       <use x="421.435547" xlink:href="#Hack-Regular-39"/>
      </g>
     </g>
    </g>
    <g id="xtick_20">
     <g id="line2d_20">
      <path clip-path="url(#p608c03069a)" d="M 1706.859095 502.118906 
L 1706.859095 12.518906 
" style="fill:none;stroke:#cccccc;stroke-linecap:round;stroke-width:0.8;"/>
     </g>
     <g id="text_20">
      <!-- Jul 2019 -->
      <g style="fill:#262626;" transform="translate(1647.009385 553.345272)rotate(-30)scale(0.14 -0.14)">
       <use xlink:href="#Hack-Regular-4a"/>
       <use x="60.205078" xlink:href="#Hack-Regular-75"/>
       <use x="120.410156" xlink:href="#Hack-Regular-6c"/>
       <use x="180.615234" xlink:href="#Hack-Regular-20"/>
       <use x="240.820312" xlink:href="#Hack-Regular-32"/>
       <use x="301.025391" xlink:href="#Hack-Regular-30"/>
       <use x="361.230469" xlink:href="#Hack-Regular-31"/>
       <use x="421.435547" xlink:href="#Hack-Regular-39"/>
      </g>
     </g>
    </g>
    <g id="text_21">
     <!-- Time -->
     <defs>
      <path d="M 25.203125 64.59375 
L 2.296875 64.59375 
L 2.296875 72.90625 
L 57.90625 72.90625 
L 57.90625 64.59375 
L 35.109375 64.59375 
L 35.109375 0 
L 25.203125 0 
z
" id="Hack-Regular-54"/>
      <path d="M 25.53125 64.59375 
Q 24.078125 64.59375 24.078125 66.0625 
L 24.078125 74.515625 
Q 24.078125 75.984375 25.53125 75.984375 
L 32.5625 75.984375 
Q 34.03125 75.984375 34.03125 74.515625 
L 34.03125 66.0625 
Q 34.03125 64.59375 32.5625 64.59375 
z
M 41.9375 -0.390625 
Q 38.03125 -0.390625 34.9375 0.828125 
Q 31.84375 2.046875 29.5 4.78125 
Q 25.046875 9.96875 25.046875 19.4375 
L 25.046875 47.65625 
L 13.09375 47.65625 
L 13.09375 54.6875 
L 34.03125 54.6875 
L 34.03125 19.4375 
Q 34.03125 13.328125 36.28125 10.296875 
Q 37.453125 8.6875 39.078125 7.953125 
Q 40.71875 7.234375 42.828125 7.234375 
L 53.328125 7.234375 
L 53.328125 -0.390625 
z
" id="Hack-Regular-69"/>
      <path d="M 5.328125 54.6875 
L 12.703125 54.6875 
L 13.484375 50 
Q 15.09375 52.9375 17.53125 54.5 
Q 19.921875 56 23.046875 56 
Q 26.65625 56 29.203125 54.296875 
Q 31.59375 52.640625 33.015625 49.125 
Q 34.71875 52.6875 37.25 54.34375 
Q 39.796875 56 43.40625 56 
Q 46.78125 56 49.125 54.703125 
Q 51.46875 53.421875 52.734375 50.921875 
Q 55.421875 45.84375 55.421875 31.6875 
L 55.421875 0 
L 47.21875 0 
L 47.21875 31.296875 
Q 47.21875 34.421875 47.140625 36.765625 
Q 47.078125 39.109375 46.90625 40.84375 
Q 46.734375 42.578125 46.484375 43.765625 
Q 46.234375 44.96875 45.90625 45.703125 
Q 45.359375 46.96875 44.234375 47.71875 
Q 43.109375 48.484375 41.0625 48.484375 
Q 39.203125 48.484375 37.9375 47.78125 
Q 36.671875 47.078125 35.9375 45.515625 
Q 35.109375 43.796875 34.765625 40.453125 
Q 34.421875 37.109375 34.421875 31.296875 
L 34.421875 0 
L 26.21875 0 
L 26.21875 31.296875 
Q 26.21875 34.859375 26.125 37.328125 
Q 26.03125 39.796875 25.828125 41.453125 
Q 25.640625 43.109375 25.359375 44.109375 
Q 25.09375 45.125 24.8125 45.75 
Q 24.171875 47.015625 22.96875 47.75 
Q 21.78125 48.484375 19.875 48.484375 
Q 17.828125 48.484375 16.671875 47.671875 
Q 15.53125 46.875 14.9375 45.5625 
Q 14.59375 44.828125 14.328125 43.703125 
Q 14.0625 42.578125 13.859375 40.890625 
Q 13.671875 39.203125 13.578125 36.859375 
Q 13.484375 34.515625 13.484375 31.296875 
L 13.484375 0 
L 5.328125 0 
z
" id="Hack-Regular-6d"/>
      <path d="M 33.0625 -1.421875 
Q 26.765625 -1.421875 21.75 0.5 
Q 16.75 2.4375 13.234375 6.203125 
Q 9.71875 9.96875 7.890625 15.265625 
Q 6.0625 20.5625 6.0625 27.25 
Q 6.0625 34.125 7.90625 39.328125 
Q 9.765625 44.53125 13.03125 48.1875 
Q 16.609375 52.15625 21.390625 54.078125 
Q 26.171875 56 31.6875 56 
Q 37.15625 56 41.28125 54.1875 
Q 45.40625 52.390625 48.34375 48.96875 
Q 51.265625 45.5625 52.796875 40.703125 
Q 54.34375 35.84375 54.34375 29.59375 
L 54.34375 25.203125 
L 15.4375 25.203125 
L 15.4375 24.90625 
Q 15.4375 15.96875 20.125 11.078125 
Q 22.359375 8.734375 25.5625 7.46875 
Q 28.765625 6.203125 33.203125 6.203125 
Q 37.640625 6.203125 42.234375 7.5625 
Q 46.96875 8.984375 52.25 11.71875 
L 52.25 2.78125 
Q 49.65625 1.703125 47.21875 0.921875 
Q 44.78125 0.140625 42.390625 -0.390625 
Q 40.046875 -0.921875 37.703125 -1.171875 
Q 35.359375 -1.421875 33.0625 -1.421875 
z
M 45.359375 32.234375 
Q 45.265625 36.421875 44.265625 39.421875 
Q 43.265625 42.4375 41.65625 44.28125 
Q 39.890625 46.34375 37.296875 47.359375 
Q 34.71875 48.390625 31.5 48.390625 
Q 24.90625 48.390625 20.75 44.09375 
Q 16.546875 39.75 15.765625 32.171875 
z
" id="Hack-Regular-65"/>
     </defs>
     <g style="fill:#262626;" transform="translate(869.576875 572.024259)scale(0.16 -0.16)">
      <use xlink:href="#Hack-Regular-54"/>
      <use x="60.205078" xlink:href="#Hack-Regular-69"/>
      <use x="120.410156" xlink:href="#Hack-Regular-6d"/>
      <use x="180.615234" xlink:href="#Hack-Regular-65"/>
     </g>
    </g>
   </g>
   <g id="matplotlib.axis_2">
    <g id="ytick_1">
     <g id="line2d_21">
      <path clip-path="url(#p608c03069a)" d="M 51.841875 502.118906 
L 1725.841875 502.118906 
" style="fill:none;stroke:#cccccc;stroke-linecap:round;stroke-width:0.8;"/>
     </g>
     <g id="text_22">
      <!-- 0 -->
      <g style="fill:#262626;" transform="translate(35.113438 507.437813)scale(0.14 -0.14)">
       <use xlink:href="#Hack-Regular-30"/>
      </g>
     </g>
    </g>
    <g id="ytick_2">
     <g id="line2d_22">
      <path clip-path="url(#p608c03069a)" d="M 51.841875 440.918906 
L 1725.841875 440.918906 
" style="fill:none;stroke:#cccccc;stroke-linecap:round;stroke-width:0.8;"/>
     </g>
     <g id="text_23">
      <!-- 5 -->
      <g style="fill:#262626;" transform="translate(35.113438 446.237813)scale(0.14 -0.14)">
       <use xlink:href="#Hack-Regular-35"/>
      </g>
     </g>
    </g>
    <g id="ytick_3">
     <g id="line2d_23">
      <path clip-path="url(#p608c03069a)" d="M 51.841875 379.718906 
L 1725.841875 379.718906 
" style="fill:none;stroke:#cccccc;stroke-linecap:round;stroke-width:0.8;"/>
     </g>
     <g id="text_24">
      <!-- 10 -->
      <g style="fill:#262626;" transform="translate(26.685 385.037813)scale(0.14 -0.14)">
       <use xlink:href="#Hack-Regular-31"/>
       <use x="60.205078" xlink:href="#Hack-Regular-30"/>
      </g>
     </g>
    </g>
    <g id="ytick_4">
     <g id="line2d_24">
      <path clip-path="url(#p608c03069a)" d="M 51.841875 318.518906 
L 1725.841875 318.518906 
" style="fill:none;stroke:#cccccc;stroke-linecap:round;stroke-width:0.8;"/>
     </g>
     <g id="text_25">
      <!-- 15 -->
      <g style="fill:#262626;" transform="translate(26.685 323.837813)scale(0.14 -0.14)">
       <use xlink:href="#Hack-Regular-31"/>
       <use x="60.205078" xlink:href="#Hack-Regular-35"/>
      </g>
     </g>
    </g>
    <g id="ytick_5">
     <g id="line2d_25">
      <path clip-path="url(#p608c03069a)" d="M 51.841875 257.318906 
L 1725.841875 257.318906 
" style="fill:none;stroke:#cccccc;stroke-linecap:round;stroke-width:0.8;"/>
     </g>
     <g id="text_26">
      <!-- 20 -->
      <g style="fill:#262626;" transform="translate(26.685 262.637813)scale(0.14 -0.14)">
       <use xlink:href="#Hack-Regular-32"/>
       <use x="60.205078" xlink:href="#Hack-Regular-30"/>
      </g>
     </g>
    </g>
    <g id="ytick_6">
     <g id="line2d_26">
      <path clip-path="url(#p608c03069a)" d="M 51.841875 196.118906 
L 1725.841875 196.118906 
" style="fill:none;stroke:#cccccc;stroke-linecap:round;stroke-width:0.8;"/>
     </g>
     <g id="text_27">
      <!-- 25 -->
      <g style="fill:#262626;" transform="translate(26.685 201.437813)scale(0.14 -0.14)">
       <use xlink:href="#Hack-Regular-32"/>
       <use x="60.205078" xlink:href="#Hack-Regular-35"/>
      </g>
     </g>
    </g>
    <g id="ytick_7">
     <g id="line2d_27">
      <path clip-path="url(#p608c03069a)" d="M 51.841875 134.918906 
L 1725.841875 134.918906 
" style="fill:none;stroke:#cccccc;stroke-linecap:round;stroke-width:0.8;"/>
     </g>
     <g id="text_28">
      <!-- 30 -->
      <g style="fill:#262626;" transform="translate(26.685 140.237813)scale(0.14 -0.14)">
       <use xlink:href="#Hack-Regular-33"/>
       <use x="60.205078" xlink:href="#Hack-Regular-30"/>
      </g>
     </g>
    </g>
    <g id="ytick_8">
     <g id="line2d_28">
      <path clip-path="url(#p608c03069a)" d="M 51.841875 73.718906 
L 1725.841875 73.718906 
" style="fill:none;stroke:#cccccc;stroke-linecap:round;stroke-width:0.8;"/>
     </g>
     <g id="text_29">
      <!-- 35 -->
      <g style="fill:#262626;" transform="translate(26.685 79.037813)scale(0.14 -0.14)">
       <use xlink:href="#Hack-Regular-33"/>
       <use x="60.205078" xlink:href="#Hack-Regular-35"/>
      </g>
     </g>
    </g>
    <g id="ytick_9">
     <g id="line2d_29">
      <path clip-path="url(#p608c03069a)" d="M 51.841875 12.518906 
L 1725.841875 12.518906 
" style="fill:none;stroke:#cccccc;stroke-linecap:round;stroke-width:0.8;"/>
     </g>
     <g id="text_30">
      <!-- 40 -->
      <g style="fill:#262626;" transform="translate(26.685 17.837813)scale(0.14 -0.14)">
       <use xlink:href="#Hack-Regular-34"/>
       <use x="60.205078" xlink:href="#Hack-Regular-30"/>
      </g>
     </g>
    </g>
    <g id="text_31">
     <!-- Commits -->
     <defs>
      <path d="M 36.234375 -1.421875 
Q 29.390625 -1.421875 23.890625 1.015625 
Q 18.40625 3.46875 14.5 8.5 
Q 10.640625 13.484375 8.703125 20.484375 
Q 6.78125 27.484375 6.78125 36.328125 
Q 6.78125 45.171875 8.703125 52.203125 
Q 10.640625 59.234375 14.546875 64.265625 
Q 18.453125 69.28125 23.921875 71.75 
Q 29.390625 74.21875 36.234375 74.21875 
Q 38.578125 74.21875 40.75 73.953125 
Q 42.921875 73.6875 44.671875 73.25 
Q 46.4375 72.796875 48.53125 71.984375 
Q 50.640625 71.1875 52.390625 70.21875 
L 52.390625 60.109375 
Q 48.828125 63.09375 44.625 64.65625 
Q 42.53125 65.4375 40.453125 65.828125 
Q 38.375 66.21875 36.1875 66.21875 
Q 31.453125 66.21875 27.859375 64.359375 
Q 24.265625 62.5 21.875 58.796875 
Q 17.09375 51.375 17.09375 36.375 
Q 17.09375 21.4375 21.875 14.015625 
Q 26.65625 6.59375 36.28125 6.59375 
Q 38.484375 6.59375 40.546875 6.984375 
Q 42.625 7.375 44.734375 8.15625 
Q 48.78125 9.671875 52.390625 12.703125 
L 52.390625 2.59375 
Q 48.578125 0.59375 44.671875 -0.4375 
Q 42.78125 -0.921875 40.59375 -1.171875 
Q 38.421875 -1.421875 36.234375 -1.421875 
z
" id="Hack-Regular-43"/>
      <path d="M 39.40625 -0.203125 
Q 29.34375 -0.203125 25.140625 3.859375 
Q 21 7.859375 21 17.828125 
L 21 47.703125 
L 6.390625 47.703125 
L 6.390625 54.6875 
L 21 54.6875 
L 21 69 
L 29.984375 72.90625 
L 29.984375 54.6875 
L 50.390625 54.6875 
L 50.390625 47.703125 
L 29.984375 47.703125 
L 29.984375 17.828125 
Q 29.984375 11.8125 32.28125 9.375 
Q 34.515625 6.984375 40.28125 6.984375 
L 50.390625 6.984375 
L 50.390625 -0.203125 
L 39.40625 -0.203125 
z
" id="Hack-Regular-74"/>
      <path d="M 28.8125 -1.421875 
Q 26.65625 -1.421875 24.390625 -1.203125 
Q 22.125 -0.984375 20.015625 -0.59375 
Q 18.109375 -0.203125 15.546875 0.484375 
Q 12.984375 1.171875 10.40625 2 
L 10.40625 11.28125 
Q 13.53125 9.71875 15.71875 8.859375 
Q 17.921875 8.015625 20.015625 7.421875 
Q 22.265625 6.78125 24.359375 6.4375 
Q 26.46875 6.109375 28.71875 6.109375 
Q 34.625 6.109375 37.9375 8.546875 
Q 39.65625 9.8125 40.4375 11.515625 
Q 41.21875 13.234375 41.21875 14.984375 
Q 41.21875 18.40625 38.328125 20.53125 
Q 35.453125 22.65625 29.25 23.921875 
L 28.859375 24.03125 
L 25.484375 24.703125 
Q 21.828125 25.4375 18.96875 26.65625 
Q 16.109375 27.875 14.15625 29.828125 
Q 10.59375 33.40625 10.59375 39.65625 
Q 10.59375 43.609375 11.9375 46.625 
Q 13.28125 49.65625 15.921875 51.765625 
Q 18.703125 54 22.5625 55 
Q 26.421875 56 31.203125 56 
Q 33.296875 56 35.390625 55.796875 
Q 37.5 55.609375 39.546875 55.21875 
Q 41.40625 54.828125 43.421875 54.21875 
Q 45.453125 53.609375 47.515625 52.78125 
L 47.515625 44 
Q 43.609375 46.234375 39.75 47.359375 
Q 37.796875 47.90625 35.8125 48.1875 
Q 33.84375 48.484375 31.59375 48.484375 
Q 28.765625 48.484375 26.484375 48 
Q 24.21875 47.515625 22.703125 46.53125 
Q 19.671875 44.53125 19.671875 40.4375 
Q 19.671875 38.71875 20.234375 37.296875 
Q 20.796875 35.890625 21.921875 35.015625 
Q 23.046875 34.125 25.65625 33.265625 
Q 28.265625 32.421875 33.109375 31.5 
L 36.71875 30.8125 
Q 40.234375 30.125 42.71875 28.859375 
Q 45.21875 27.59375 46.875 25.734375 
Q 50.296875 21.96875 50.296875 15.765625 
Q 50.296875 11.578125 48.796875 8.46875 
Q 47.3125 5.375 44.53125 3.171875 
Q 41.546875 0.828125 37.5625 -0.296875 
Q 33.59375 -1.421875 28.8125 -1.421875 
z
" id="Hack-Regular-73"/>
     </defs>
     <g style="fill:#262626;" transform="translate(19.3575 291.032656)rotate(-90)scale(0.16 -0.16)">
      <use xlink:href="#Hack-Regular-43"/>
      <use x="60.205078" xlink:href="#Hack-Regular-6f"/>
      <use x="120.410156" xlink:href="#Hack-Regular-6d"/>
      <use x="180.615234" xlink:href="#Hack-Regular-6d"/>
      <use x="240.820312" xlink:href="#Hack-Regular-69"/>
      <use x="301.025391" xlink:href="#Hack-Regular-74"/>
      <use x="361.230469" xlink:href="#Hack-Regular-73"/>
     </g>
    </g>
   </g>
   <g id="line2d_30">
    <path clip-path="url(#p608c03069a)" d="M 1164.09219 440.918906 
L 1164.795256 391.958906 
L 1168.310586 404.198906 
L 1169.013652 453.158906 
L 1169.716718 489.878906 
L 1170.419783 465.398906 
L 1171.122849 453.158906 
L 1173.232047 489.878906 
L 1178.856575 465.398906 
L 1179.559641 61.478906 
L 1187.996432 355.238906 
L 1188.699498 489.878906 
L 1189.402564 440.918906 
L 1199.245487 489.878906 
L 1206.979212 465.398906 
L 1211.197608 489.878906 
L 1214.009872 428.678906 
L 1221.040531 477.638906 
L 1230.883454 404.198906 
L 1232.289586 428.678906 
L 1232.992652 465.398906 
L 1234.398784 477.638906 
L 1235.10185 489.878906 
L 1242.835575 489.878906 
L 1243.538641 477.638906 
L 1248.460103 453.158906 
L 1249.163169 440.918906 
L 1249.866235 477.638906 
M 1254.787696 477.638906 
L 1263.927553 489.878906 
L 1264.630619 440.918906 
L 1265.333685 477.638906 
L 1266.036751 440.918906 
L 1266.739817 489.878906 
L 1267.442883 453.158906 
L 1270.255147 489.878906 
L 1270.958213 489.878906 
L 1272.364345 465.398906 
L 1273.06741 489.878906 
L 1273.770476 440.918906 
M 1277.988872 477.638906 
L 1280.09807 342.998906 
L 1282.207268 465.398906 
L 1282.910334 416.438906 
L 1283.6134 489.878906 
L 1287.831795 489.878906 
L 1311.736037 404.198906 
L 1312.439103 477.638906 
L 1320.875894 342.998906 
L 1321.57896 342.998906 
L 1323.688158 489.878906 
L 1329.312686 489.878906 
L 1336.343345 440.918906 
L 1337.046411 428.678906 
L 1337.749477 453.158906 
L 1341.264807 220.598906 
L 1341.967872 489.878906 
L 1344.07707 453.158906 
M 1346.889334 416.438906 
L 1351.10773 477.638906 
L 1351.810796 477.638906 
L 1356.732257 257.318906 
L 1357.435323 465.398906 
L 1358.841455 477.638906 
L 1360.950653 477.638906 
L 1361.653719 416.438906 
L 1364.465983 489.878906 
L 1365.169048 355.238906 
L 1365.872114 391.958906 
L 1366.57518 379.718906 
L 1370.09051 489.878906 
L 1371.496642 465.398906 
L 1375.011972 477.638906 
L 1375.715038 367.478906 
L 1376.418103 489.878906 
L 1377.121169 428.678906 
L 1377.824235 489.878906 
L 1378.527301 453.158906 
L 1379.230367 404.198906 
L 1379.933433 404.198906 
L 1380.636499 306.278906 
L 1381.339565 355.238906 
L 1384.151829 489.878906 
L 1384.854895 342.998906 
L 1385.557961 453.158906 
L 1386.261027 477.638906 
L 1388.370224 465.398906 
L 1418.60206 428.678906 
L 1419.305126 465.398906 
L 1420.711258 453.158906 
L 1421.414324 465.398906 
L 1422.820455 477.638906 
L 1424.929653 465.398906 
L 1426.335785 453.158906 
L 1427.038851 416.438906 
L 1427.741917 465.398906 
L 1430.554181 391.958906 
L 1431.257247 477.638906 
L 1434.772576 404.198906 
L 1435.475642 379.718906 
L 1436.178708 477.638906 
L 1436.881774 477.638906 
L 1437.58484 440.918906 
L 1440.397104 489.878906 
L 1449.536961 465.398906 
L 1450.240027 379.718906 
L 1454.458423 404.198906 
L 1455.864555 428.678906 
L 1457.270686 416.438906 
L 1460.08295 477.638906 
L 1461.489082 489.878906 
L 1464.301346 489.878906 
L 1465.004412 416.438906 
L 1466.410544 489.878906 
L 1467.816676 489.878906 
L 1469.222807 404.198906 
L 1469.925873 294.038906 
L 1470.628939 465.398906 
L 1471.332005 416.438906 
L 1472.738137 440.918906 
L 1473.441203 489.878906 
L 1483.987192 489.878906 
L 1484.690258 379.718906 
L 1488.908654 404.198906 
L 1490.314786 489.878906 
L 1500.860775 428.678906 
L 1501.563841 489.878906 
L 1503.673038 440.918906 
L 1504.376104 379.718906 
L 1505.07917 489.878906 
L 1514.219027 416.438906 
L 1516.328225 477.638906 
L 1518.437423 453.158906 
L 1519.140489 294.038906 
L 1528.280346 489.878906 
L 1545.856995 477.638906 
L 1546.560061 477.638906 
L 1580.307226 489.878906 
L 1580.307226 489.878906 
" style="fill:none;opacity:0.75;stroke:#a6cee3;stroke-linecap:round;stroke-width:2;"/>
   </g>
   <g id="line2d_31">
    <path clip-path="url(#p608c03069a)" d="M 95.431963 440.918906 
L 96.135029 465.398906 
L 96.838095 477.638906 
L 97.541161 367.478906 
L 98.244227 489.878906 
L 98.947293 391.958906 
L 99.650359 416.438906 
L 100.353425 391.958906 
L 101.056491 416.438906 
L 101.759557 404.198906 
L 102.462623 355.238906 
L 103.165689 477.638906 
L 103.868754 428.678906 
L 105.274886 367.478906 
L 105.977952 477.638906 
L 106.681018 355.238906 
L 107.384084 404.198906 
L 108.08715 477.638906 
L 109.493282 489.878906 
L 111.60248 379.718906 
L 113.008612 453.158906 
L 114.414744 489.878906 
L 117.227007 391.958906 
M 129.882194 440.918906 
L 133.397524 477.638906 
L 134.10059 404.198906 
L 145.349645 465.398906 
L 146.052711 453.158906 
L 146.755777 428.678906 
L 147.458843 477.638906 
L 158.004832 453.158906 
L 158.707898 465.398906 
L 158.707898 465.398906 
" style="fill:none;opacity:0.75;stroke:#1f78b4;stroke-linecap:round;stroke-width:2;"/>
   </g>
   <g id="line2d_32">
    <path clip-path="url(#p608c03069a)" d="M 1581.010292 355.238906 
L 1582.416424 489.878906 
L 1725.841875 465.398906 
L 1725.841875 465.398906 
" style="fill:none;opacity:0.75;stroke:#b2df8a;stroke-linecap:round;stroke-width:2;"/>
   </g>
   <g id="line2d_33">
    <path clip-path="url(#p608c03069a)" d="M 51.841875 489.878906 
L 52.544941 453.158906 
L 53.951073 453.158906 
L 55.357205 391.958906 
L 56.060271 489.878906 
L 75.746117 416.438906 
L 76.449183 391.958906 
L 81.370644 477.638906 
L 82.07371 453.158906 
M 337.989712 477.638906 
L 358.378624 440.918906 
L 361.190888 489.878906 
L 361.190888 489.878906 
" style="fill:none;opacity:0.75;stroke:#33a02c;stroke-linecap:round;stroke-width:2;"/>
   </g>
   <g id="line2d_34">
    <path clip-path="url(#p608c03069a)" d="M 118.633139 465.398906 
L 119.336205 477.638906 
L 120.742337 477.638906 
L 120.742337 477.638906 
" style="fill:none;opacity:0.75;stroke:#fb9a99;stroke-linecap:round;stroke-width:2;"/>
   </g>
   <g id="line2d_35">
    <path clip-path="url(#p608c03069a)" d="M 774.59366 404.198906 
L 790.764177 428.678906 
L 905.363925 453.158906 
L 955.984672 489.878906 
L 957.390804 428.678906 
L 958.09387 465.398906 
L 960.906134 477.638906 
L 974.264387 489.878906 
L 975.670518 489.878906 
L 976.373584 465.398906 
L 978.482782 477.638906 
L 979.185848 489.878906 
L 986.216508 477.638906 
L 987.622639 477.638906 
L 988.325705 489.878906 
L 989.028771 465.398906 
L 1027.697398 489.878906 
L 1041.758717 465.398906 
L 1046.680178 489.878906 
L 1048.08631 440.918906 
L 1050.195508 489.878906 
L 1057.929233 465.398906 
L 1058.632299 477.638906 
L 1118.392904 477.638906 
M 1249.866235 477.638906 
L 1251.272366 391.958906 
L 1251.975432 440.918906 
M 1273.770476 453.158906 
L 1274.473542 489.878906 
M 1346.186268 489.878906 
" style="fill:none;opacity:0.75;stroke:#e31a1c;stroke-linecap:round;stroke-width:2;"/>
   </g>
   <g id="patch_3">
    <path d="M 51.841875 502.118906 
L 51.841875 12.518906 
" style="fill:none;stroke:#cccccc;stroke-linecap:square;stroke-linejoin:miter;"/>
   </g>
   <g id="patch_4">
    <path d="M 1725.841875 502.118906 
L 1725.841875 12.518906 
" style="fill:none;stroke:#cccccc;stroke-linecap:square;stroke-linejoin:miter;"/>
   </g>
   <g id="patch_5">
    <path d="M 51.841875 502.118906 
L 1725.841875 502.118906 
" style="fill:none;stroke:#cccccc;stroke-linecap:square;stroke-linejoin:miter;"/>
   </g>
   <g id="patch_6">
    <path d="M 51.841875 12.518906 
L 1725.841875 12.518906 
" style="fill:none;stroke:#cccccc;stroke-linecap:square;stroke-linejoin:miter;"/>
   </g>
   <g id="legend_1">
    <g id="patch_7">
     <path d="M 1483.98375 128.213906 
L 1717.441875 128.213906 
Q 1719.841875 128.213906 1719.841875 125.813906 
L 1719.841875 20.918906 
Q 1719.841875 18.518906 1717.441875 18.518906 
L 1483.98375 18.518906 
Q 1481.58375 18.518906 1481.58375 20.918906 
L 1481.58375 125.813906 
Q 1481.58375 128.213906 1483.98375 128.213906 
z
" style="fill:#ffffff;opacity:0.8;stroke:#cccccc;stroke-linejoin:miter;stroke-width:0.8;"/>
    </g>
    <g id="line2d_36">
     <path d="M 1486.38375 28.237031 
L 1510.38375 28.237031 
" style="fill:none;opacity:0.75;stroke:#a6cee3;stroke-linecap:round;stroke-width:2;"/>
    </g>
    <g id="line2d_37"/>
    <g id="text_32">
     <!-- OpenMetaDesign -->
     <defs>
      <path d="M 30.078125 -1.421875 
Q 17.71875 -1.421875 11.71875 7.90625 
Q 5.71875 17.1875 5.71875 36.375 
Q 5.71875 55.515625 11.765625 64.84375 
Q 14.796875 69.53125 19.3125 71.875 
Q 23.828125 74.21875 30.078125 74.21875 
Q 36.078125 74.21875 40.71875 71.96875 
Q 45.359375 69.734375 48.484375 64.84375 
Q 54.5 55.46875 54.5 36.375 
Q 54.5 17.328125 48.484375 7.953125 
Q 45.359375 3.078125 40.71875 0.828125 
Q 36.078125 -1.421875 30.078125 -1.421875 
z
M 30.078125 6.59375 
Q 37.59375 6.59375 40.921875 13.484375 
Q 44.1875 20.21875 44.1875 36.375 
Q 44.1875 52.484375 40.921875 59.328125 
Q 37.59375 66.21875 30.078125 66.21875 
Q 22.609375 66.21875 19.34375 59.328125 
Q 16.015625 52.390625 16.015625 36.375 
Q 16.015625 20.40625 19.34375 13.484375 
Q 22.609375 6.59375 30.078125 6.59375 
z
" id="Hack-Regular-4f"/>
      <path d="M 9.28125 54.6875 
L 17.4375 54.6875 
L 18.3125 47.703125 
Q 20.609375 51.8125 24.3125 53.90625 
Q 28.03125 56 32.953125 56 
Q 37.84375 56 41.75 54.09375 
Q 45.65625 52.203125 48.484375 48.34375 
Q 51.3125 44.484375 52.703125 39.1875 
Q 54.109375 33.890625 54.109375 27.203125 
Q 54.109375 13.765625 48.4375 6.203125 
Q 42.78125 -1.421875 32.90625 -1.421875 
Q 30.125 -1.421875 28.078125 -0.859375 
Q 26.03125 -0.296875 24.21875 0.734375 
Q 20.40625 2.9375 18.3125 6.890625 
L 18.3125 -20.796875 
L 9.28125 -20.796875 
z
M 31.59375 6.203125 
Q 38.140625 6.203125 41.40625 11.53125 
Q 44.671875 16.84375 44.671875 27.296875 
Q 44.671875 37.75 41.40625 43.0625 
Q 38.140625 48.390625 31.59375 48.390625 
Q 25.046875 48.390625 21.6875 43.0625 
Q 18.3125 37.703125 18.3125 27.296875 
Q 18.3125 16.890625 21.6875 11.578125 
Q 25.046875 6.203125 31.59375 6.203125 
z
" id="Hack-Regular-70"/>
      <path d="M 9.515625 54.6875 
L 17.625 54.6875 
L 18.5 46.484375 
Q 20.953125 51.21875 25 53.609375 
Q 29.046875 56 34.671875 56 
Q 39.0625 56 42.140625 54.578125 
Q 45.21875 53.171875 47.21875 50.53125 
Q 51.3125 45.015625 51.3125 33.890625 
L 51.3125 0 
L 42.28125 0 
L 42.28125 33.890625 
Q 42.28125 41.265625 39.703125 44.734375 
Q 37.109375 48.1875 31.546875 48.1875 
Q 28.328125 48.1875 25.953125 47.0625 
Q 23.578125 45.953125 21.921875 43.75 
Q 18.5 39.3125 18.5 30.90625 
L 18.5 0 
L 9.515625 0 
z
" id="Hack-Regular-6e"/>
      <path d="M 6.6875 72.90625 
L 21.484375 72.90625 
Q 38.1875 72.90625 46.09375 64.015625 
Q 54 55.125 54 36.375 
Q 54 17.71875 46.09375 8.890625 
Q 38.1875 0 21.484375 0 
L 6.6875 0 
z
M 21.296875 8.109375 
Q 33.734375 8.109375 38.671875 14.265625 
Q 41.15625 17.328125 42.375 22.796875 
Q 43.609375 28.265625 43.609375 36.46875 
Q 43.609375 44.53125 42.40625 50.0625 
Q 41.21875 55.609375 38.71875 58.6875 
Q 36.234375 61.8125 31.8125 63.296875 
Q 27.390625 64.796875 21.296875 64.796875 
L 16.609375 64.796875 
L 16.609375 8.109375 
z
" id="Hack-Regular-44"/>
      <path d="M 29.34375 -21.484375 
Q 27.4375 -21.484375 25.53125 -21.3125 
Q 23.640625 -21.140625 21.578125 -20.796875 
Q 19.578125 -20.453125 17.59375 -19.96875 
Q 15.625 -19.484375 13.484375 -18.796875 
L 13.484375 -9.90625 
Q 15.875 -11.03125 18.09375 -11.859375 
Q 20.3125 -12.703125 22.171875 -13.234375 
Q 25.984375 -14.3125 29.546875 -14.3125 
Q 33.15625 -14.3125 35.6875 -13.328125 
Q 38.234375 -12.359375 39.9375 -10.296875 
Q 43.265625 -6.390625 43.265625 2.203125 
L 43.265625 8.6875 
Q 41.15625 4.15625 37.40625 1.859375 
Q 33.6875 -0.390625 28.421875 -0.390625 
Q 18.796875 -0.390625 13.09375 7.28125 
Q 7.375 14.9375 7.375 27.78125 
Q 7.375 40.625 13.09375 48.34375 
Q 15.96875 52.203125 19.75 54.09375 
Q 23.53125 56 28.46875 56 
Q 31 56 33.21875 55.484375 
Q 35.453125 54.984375 37.3125 53.90625 
Q 41.015625 51.765625 43.265625 47.40625 
L 44.140625 54.5 
L 52.25 54.5 
L 52.25 3.515625 
Q 52.25 -8.734375 46.4375 -15.140625 
Q 40.671875 -21.484375 29.34375 -21.484375 
z
M 30.375 7.078125 
Q 36.71875 7.078125 39.984375 12.40625 
Q 43.265625 17.71875 43.265625 27.78125 
Q 43.265625 37.9375 39.984375 43.171875 
Q 38.28125 45.953125 35.8125 47.171875 
Q 33.34375 48.390625 30.328125 48.390625 
Q 23.78125 48.390625 20.3125 43.171875 
Q 16.84375 37.9375 16.84375 27.734375 
Q 16.84375 17.71875 20.359375 12.40625 
Q 23.875 7.078125 30.375 7.078125 
z
" id="Hack-Regular-67"/>
     </defs>
     <g style="fill:#262626;" transform="translate(1519.98375 32.437031)scale(0.12 -0.12)">
      <use xlink:href="#Hack-Regular-4f"/>
      <use x="60.205078" xlink:href="#Hack-Regular-70"/>
      <use x="120.410156" xlink:href="#Hack-Regular-65"/>
      <use x="180.615234" xlink:href="#Hack-Regular-6e"/>
      <use x="240.820312" xlink:href="#Hack-Regular-4d"/>
      <use x="301.025391" xlink:href="#Hack-Regular-65"/>
      <use x="361.230469" xlink:href="#Hack-Regular-74"/>
      <use x="421.435547" xlink:href="#Hack-Regular-61"/>
      <use x="481.640625" xlink:href="#Hack-Regular-44"/>
      <use x="541.845703" xlink:href="#Hack-Regular-65"/>
      <use x="602.050781" xlink:href="#Hack-Regular-73"/>
      <use x="662.255859" xlink:href="#Hack-Regular-69"/>
      <use x="722.460938" xlink:href="#Hack-Regular-67"/>
      <use x="782.666016" xlink:href="#Hack-Regular-6e"/>
     </g>
    </g>
    <g id="line2d_38">
     <path d="M 1486.38375 45.933281 
L 1510.38375 45.933281 
" style="fill:none;opacity:0.75;stroke:#1f78b4;stroke-linecap:round;stroke-width:2;"/>
    </g>
    <g id="line2d_39"/>
    <g id="text_33">
     <!-- OpenMetaDesignApp -->
     <defs>
      <path d="M 24.125 72.90625 
L 36.078125 72.90625 
L 58.40625 0 
L 48.1875 0 
L 42.828125 19 
L 17.28125 19 
L 12.015625 0 
L 1.8125 0 
z
M 40.484375 26.90625 
L 30.078125 64.203125 
L 19.671875 26.90625 
z
" id="Hack-Regular-41"/>
     </defs>
     <g style="fill:#262626;" transform="translate(1519.98375 50.133281)scale(0.12 -0.12)">
      <use xlink:href="#Hack-Regular-4f"/>
      <use x="60.205078" xlink:href="#Hack-Regular-70"/>
      <use x="120.410156" xlink:href="#Hack-Regular-65"/>
      <use x="180.615234" xlink:href="#Hack-Regular-6e"/>
      <use x="240.820312" xlink:href="#Hack-Regular-4d"/>
      <use x="301.025391" xlink:href="#Hack-Regular-65"/>
      <use x="361.230469" xlink:href="#Hack-Regular-74"/>
      <use x="421.435547" xlink:href="#Hack-Regular-61"/>
      <use x="481.640625" xlink:href="#Hack-Regular-44"/>
      <use x="541.845703" xlink:href="#Hack-Regular-65"/>
      <use x="602.050781" xlink:href="#Hack-Regular-73"/>
      <use x="662.255859" xlink:href="#Hack-Regular-69"/>
      <use x="722.460938" xlink:href="#Hack-Regular-67"/>
      <use x="782.666016" xlink:href="#Hack-Regular-6e"/>
      <use x="842.871094" xlink:href="#Hack-Regular-41"/>
      <use x="903.076172" xlink:href="#Hack-Regular-70"/>
      <use x="963.28125" xlink:href="#Hack-Regular-70"/>
     </g>
    </g>
    <g id="line2d_40">
     <path d="M 1486.38375 63.629531 
L 1510.38375 63.629531 
" style="fill:none;opacity:0.75;stroke:#b2df8a;stroke-linecap:round;stroke-width:2;"/>
    </g>
    <g id="line2d_41"/>
    <g id="text_34">
     <!-- OpenMetaDesignResearchStudy -->
     <defs>
      <path d="M 6.984375 72.90625 
L 27.296875 72.90625 
Q 39.3125 72.90625 45.703125 67.484375 
Q 48.921875 64.75 50.5 60.84375 
Q 52.09375 56.9375 52.09375 52 
Q 52.09375 48.140625 51.109375 45.234375 
Q 50.140625 42.328125 48.1875 40.046875 
Q 44.28125 35.453125 37.109375 34.421875 
Q 39.0625 33.9375 40.71875 32.984375 
Q 42.390625 32.03125 43.609375 30.765625 
Q 44.96875 29.34375 46.546875 26.78125 
Q 48.140625 24.21875 50.296875 19.921875 
L 60.203125 0 
L 49.609375 0 
L 40.921875 18.40625 
Q 39.015625 22.46875 37.328125 24.953125 
Q 35.640625 27.4375 34.1875 28.5625 
Q 32.671875 29.734375 30.640625 30.265625 
Q 28.609375 30.8125 26.3125 30.8125 
L 16.890625 30.8125 
L 16.890625 0 
L 6.984375 0 
z
M 27.6875 38.921875 
Q 34.765625 38.921875 38.234375 42.09375 
Q 39.9375 43.65625 40.8125 46.09375 
Q 41.703125 48.53125 41.703125 51.703125 
Q 41.703125 54.890625 40.796875 57.328125 
Q 39.890625 59.765625 38.03125 61.46875 
Q 36.28125 63.03125 33.609375 63.90625 
Q 30.953125 64.796875 27.296875 64.796875 
L 16.890625 64.796875 
L 16.890625 38.921875 
z
" id="Hack-Regular-52"/>
      <path d="M 34.765625 -1.421875 
Q 28.65625 -1.421875 23.65625 0.5 
Q 18.65625 2.4375 15.140625 6.203125 
Q 11.578125 10.015625 9.796875 15.3125 
Q 8.015625 20.609375 8.015625 27.296875 
Q 8.015625 34.28125 9.890625 39.546875 
Q 11.765625 44.828125 15.1875 48.4375 
Q 18.796875 52.25 23.75 54.125 
Q 28.71875 56 34.8125 56 
Q 37.0625 56 38.96875 55.75 
Q 40.875 55.515625 42.71875 54.984375 
Q 46.4375 53.953125 50.296875 51.8125 
L 50.296875 42.390625 
Q 48.484375 43.953125 46.71875 45.125 
Q 44.96875 46.296875 43.171875 46.96875 
Q 39.5 48.390625 35.0625 48.390625 
Q 26.5625 48.390625 22.015625 42.921875 
Q 17.484375 37.40625 17.484375 27.34375 
Q 17.484375 22.65625 18.53125 18.65625 
Q 19.578125 14.65625 22.015625 11.71875 
Q 26.609375 6.203125 35.203125 6.203125 
Q 37.640625 6.203125 39.671875 6.59375 
Q 41.703125 6.984375 43.40625 7.671875 
Q 45.609375 8.5 47.1875 9.59375 
Q 48.78125 10.6875 50.296875 12.109375 
L 50.296875 2.78125 
Q 48.640625 1.8125 46.6875 0.96875 
Q 44.734375 0.140625 42.875 -0.390625 
Q 41.15625 -0.875 39.125 -1.140625 
Q 37.109375 -1.421875 34.765625 -1.421875 
z
" id="Hack-Regular-63"/>
      <path d="M 9.515625 75.984375 
L 18.5 75.984375 
L 18.5 46.484375 
Q 20.953125 51.21875 25 53.609375 
Q 29.046875 56 34.671875 56 
Q 39.0625 56 42.140625 54.578125 
Q 45.21875 53.171875 47.21875 50.53125 
Q 51.3125 45.015625 51.3125 33.890625 
L 51.3125 0 
L 42.28125 0 
L 42.28125 33.890625 
Q 42.28125 41.265625 39.703125 44.734375 
Q 37.109375 48.1875 31.546875 48.1875 
Q 28.328125 48.1875 25.953125 47.0625 
Q 23.578125 45.953125 21.921875 43.75 
Q 18.5 39.3125 18.5 30.90625 
L 18.5 0 
L 9.515625 0 
z
" id="Hack-Regular-68"/>
      <path d="M 28.515625 -1.421875 
Q 25.921875 -1.421875 23.28125 -1.140625 
Q 20.65625 -0.875 18.109375 -0.34375 
Q 15.578125 0.203125 12.890625 1.078125 
Q 10.203125 1.953125 7.71875 2.984375 
L 7.71875 13.484375 
Q 10.546875 11.671875 13.1875 10.375 
Q 15.828125 9.078125 18.359375 8.25 
Q 23.34375 6.59375 28.375 6.59375 
Q 32.03125 6.59375 34.984375 7.421875 
Q 37.9375 8.25 40.046875 9.90625 
Q 42.1875 11.625 43.1875 14.015625 
Q 44.1875 16.40625 44.1875 19.53125 
Q 44.1875 22.265625 43.484375 24.21875 
Q 42.78125 26.171875 41.359375 27.59375 
Q 39.796875 29.203125 37.421875 30.21875 
Q 35.0625 31.25 31.390625 32.078125 
L 26.125 33.296875 
Q 21.1875 34.421875 17.5 36.078125 
Q 13.8125 37.75 11.375 40.234375 
Q 6.78125 44.828125 6.78125 52.6875 
Q 6.78125 57.671875 8.484375 61.625 
Q 10.203125 65.578125 13.375 68.40625 
Q 16.5 71.1875 20.875 72.703125 
Q 25.25 74.21875 30.8125 74.21875 
Q 32.90625 74.21875 35.109375 74 
Q 37.3125 73.78125 39.65625 73.296875 
Q 44.1875 72.359375 49.421875 70.40625 
L 49.421875 60.40625 
Q 47.078125 61.921875 44.84375 62.96875 
Q 42.625 64.015625 40.4375 64.75 
Q 35.890625 66.21875 31.34375 66.21875 
Q 28.03125 66.21875 25.140625 65.4375 
Q 22.265625 64.65625 20.21875 62.984375 
Q 18.171875 61.328125 17.1875 59.03125 
Q 16.21875 56.734375 16.21875 53.953125 
Q 16.21875 51.46875 16.921875 49.78125 
Q 17.625 48.09375 18.890625 46.875 
Q 20.40625 45.453125 22.765625 44.421875 
Q 25.140625 43.40625 28.8125 42.578125 
L 33.984375 41.40625 
Q 39.15625 40.234375 42.8125 38.34375 
Q 46.484375 36.46875 48.875 33.890625 
Q 53.609375 28.8125 53.609375 20.015625 
Q 53.609375 14.453125 51.90625 10.515625 
Q 50.203125 6.59375 47.21875 4.046875 
Q 44 1.3125 39.28125 -0.046875 
Q 34.578125 -1.421875 28.515625 -1.421875 
z
" id="Hack-Regular-53"/>
      <path d="M 27.296875 -1.421875 
Q 22.125 -1.421875 18.21875 0.625 
Q 14.3125 2.6875 11.671875 6.296875 
Q 8.84375 10.15625 7.421875 15.5 
Q 6 20.84375 6 27.4375 
Q 6 33.9375 7.390625 39.28125 
Q 8.796875 44.625 11.671875 48.4375 
Q 14.546875 52.25 18.546875 54.125 
Q 22.5625 56 27.296875 56 
Q 32.28125 56 35.984375 53.90625 
Q 39.75 51.765625 41.890625 47.703125 
L 41.890625 75.984375 
L 50.875 75.984375 
L 50.875 0 
L 42.78125 0 
L 41.890625 6.890625 
Q 40.765625 4.9375 39.34375 3.390625 
Q 37.9375 1.859375 35.9375 0.734375 
Q 32.234375 -1.421875 27.296875 -1.421875 
z
M 28.5625 6.203125 
Q 35.15625 6.203125 38.53125 11.578125 
Q 41.890625 16.890625 41.890625 27.296875 
Q 41.890625 37.703125 38.53125 43.0625 
Q 36.96875 45.5625 34.515625 46.96875 
Q 32.078125 48.390625 28.609375 48.390625 
Q 22.078125 48.390625 18.796875 43.0625 
Q 15.484375 37.703125 15.484375 27.296875 
Q 15.484375 16.890625 18.796875 11.53125 
Q 20.515625 8.734375 23 7.46875 
Q 25.484375 6.203125 28.5625 6.203125 
z
" id="Hack-Regular-64"/>
      <path d="M 8.984375 -13.28125 
L 14.3125 -13.28125 
Q 16.5 -13.28125 18.015625 -12.625 
Q 19.53125 -11.96875 20.515625 -10.984375 
Q 21.578125 -9.859375 22.9375 -7.125 
Q 24.3125 -4.390625 26.21875 0.875 
L 5.078125 54.6875 
L 14.59375 54.6875 
L 30.8125 11.921875 
L 46.78125 54.6875 
L 56.296875 54.6875 
L 41.890625 17.578125 
Q 40.71875 14.546875 40.0625 12.890625 
Q 39.40625 11.234375 39.03125 10.28125 
Q 38.671875 9.328125 38.46875 8.8125 
Q 38.28125 8.296875 38.03125 7.609375 
Q 37.796875 6.9375 37.375 5.8125 
Q 36.96875 4.6875 36.1875 2.546875 
Q 34.71875 -1.421875 33.671875 -4.09375 
Q 32.625 -6.78125 31.84375 -8.5625 
Q 31.0625 -10.359375 30.546875 -11.40625 
Q 30.03125 -12.453125 29.6875 -13.09375 
Q 28.609375 -14.9375 27.296875 -16.375 
Q 25.984375 -17.828125 24.078125 -18.890625 
Q 20.703125 -20.796875 16.21875 -20.796875 
L 8.984375 -20.796875 
z
" id="Hack-Regular-79"/>
     </defs>
     <g style="fill:#262626;" transform="translate(1519.98375 67.829531)scale(0.12 -0.12)">
      <use xlink:href="#Hack-Regular-4f"/>
      <use x="60.205078" xlink:href="#Hack-Regular-70"/>
      <use x="120.410156" xlink:href="#Hack-Regular-65"/>
      <use x="180.615234" xlink:href="#Hack-Regular-6e"/>
      <use x="240.820312" xlink:href="#Hack-Regular-4d"/>
      <use x="301.025391" xlink:href="#Hack-Regular-65"/>
      <use x="361.230469" xlink:href="#Hack-Regular-74"/>
      <use x="421.435547" xlink:href="#Hack-Regular-61"/>
      <use x="481.640625" xlink:href="#Hack-Regular-44"/>
      <use x="541.845703" xlink:href="#Hack-Regular-65"/>
      <use x="602.050781" xlink:href="#Hack-Regular-73"/>
      <use x="662.255859" xlink:href="#Hack-Regular-69"/>
      <use x="722.460938" xlink:href="#Hack-Regular-67"/>
      <use x="782.666016" xlink:href="#Hack-Regular-6e"/>
      <use x="842.871094" xlink:href="#Hack-Regular-52"/>
      <use x="903.076172" xlink:href="#Hack-Regular-65"/>
      <use x="963.28125" xlink:href="#Hack-Regular-73"/>
      <use x="1023.486328" xlink:href="#Hack-Regular-65"/>
      <use x="1083.691406" xlink:href="#Hack-Regular-61"/>
      <use x="1143.896484" xlink:href="#Hack-Regular-72"/>
      <use x="1204.101562" xlink:href="#Hack-Regular-63"/>
      <use x="1264.306641" xlink:href="#Hack-Regular-68"/>
      <use x="1324.511719" xlink:href="#Hack-Regular-53"/>
      <use x="1384.716797" xlink:href="#Hack-Regular-74"/>
      <use x="1444.921875" xlink:href="#Hack-Regular-75"/>
      <use x="1505.126953" xlink:href="#Hack-Regular-64"/>
      <use x="1565.332031" xlink:href="#Hack-Regular-79"/>
     </g>
    </g>
    <g id="line2d_42">
     <path d="M 1486.38375 81.325781 
L 1510.38375 81.325781 
" style="fill:none;opacity:0.75;stroke:#33a02c;stroke-linecap:round;stroke-width:2;"/>
    </g>
    <g id="line2d_43"/>
    <g id="text_35">
     <!-- OpenMetaDesignToolkit -->
     <defs>
      <path d="M 11.03125 75.984375 
L 20.3125 75.984375 
L 20.3125 31.984375 
L 43.890625 54.6875 
L 54.828125 54.6875 
L 33.296875 34.078125 
L 58.203125 0 
L 47.21875 0 
L 27 28.21875 
L 20.3125 21.921875 
L 20.3125 0 
L 11.03125 0 
z
" id="Hack-Regular-6b"/>
     </defs>
     <g style="fill:#262626;" transform="translate(1519.98375 85.525781)scale(0.12 -0.12)">
      <use xlink:href="#Hack-Regular-4f"/>
      <use x="60.205078" xlink:href="#Hack-Regular-70"/>
      <use x="120.410156" xlink:href="#Hack-Regular-65"/>
      <use x="180.615234" xlink:href="#Hack-Regular-6e"/>
      <use x="240.820312" xlink:href="#Hack-Regular-4d"/>
      <use x="301.025391" xlink:href="#Hack-Regular-65"/>
      <use x="361.230469" xlink:href="#Hack-Regular-74"/>
      <use x="421.435547" xlink:href="#Hack-Regular-61"/>
      <use x="481.640625" xlink:href="#Hack-Regular-44"/>
      <use x="541.845703" xlink:href="#Hack-Regular-65"/>
      <use x="602.050781" xlink:href="#Hack-Regular-73"/>
      <use x="662.255859" xlink:href="#Hack-Regular-69"/>
      <use x="722.460938" xlink:href="#Hack-Regular-67"/>
      <use x="782.666016" xlink:href="#Hack-Regular-6e"/>
      <use x="842.871094" xlink:href="#Hack-Regular-54"/>
      <use x="903.076172" xlink:href="#Hack-Regular-6f"/>
      <use x="963.28125" xlink:href="#Hack-Regular-6f"/>
      <use x="1023.486328" xlink:href="#Hack-Regular-6c"/>
      <use x="1083.691406" xlink:href="#Hack-Regular-6b"/>
      <use x="1143.896484" xlink:href="#Hack-Regular-69"/>
      <use x="1204.101562" xlink:href="#Hack-Regular-74"/>
     </g>
    </g>
    <g id="line2d_44">
     <path d="M 1486.38375 99.022031 
L 1510.38375 99.022031 
" style="fill:none;opacity:0.75;stroke:#fb9a99;stroke-linecap:round;stroke-width:2;"/>
    </g>
    <g id="line2d_45"/>
    <g id="text_36">
     <!-- ServiceDesignToolkit -->
     <g style="fill:#262626;" transform="translate(1519.98375 103.222031)scale(0.12 -0.12)">
      <use xlink:href="#Hack-Regular-53"/>
      <use x="60.205078" xlink:href="#Hack-Regular-65"/>
      <use x="120.410156" xlink:href="#Hack-Regular-72"/>
      <use x="180.615234" xlink:href="#Hack-Regular-76"/>
      <use x="240.820312" xlink:href="#Hack-Regular-69"/>
      <use x="301.025391" xlink:href="#Hack-Regular-63"/>
      <use x="361.230469" xlink:href="#Hack-Regular-65"/>
      <use x="421.435547" xlink:href="#Hack-Regular-44"/>
      <use x="481.640625" xlink:href="#Hack-Regular-65"/>
      <use x="541.845703" xlink:href="#Hack-Regular-73"/>
      <use x="602.050781" xlink:href="#Hack-Regular-69"/>
      <use x="662.255859" xlink:href="#Hack-Regular-67"/>
      <use x="722.460938" xlink:href="#Hack-Regular-6e"/>
      <use x="782.666016" xlink:href="#Hack-Regular-54"/>
      <use x="842.871094" xlink:href="#Hack-Regular-6f"/>
      <use x="903.076172" xlink:href="#Hack-Regular-6f"/>
      <use x="963.28125" xlink:href="#Hack-Regular-6c"/>
      <use x="1023.486328" xlink:href="#Hack-Regular-6b"/>
      <use x="1083.691406" xlink:href="#Hack-Regular-69"/>
      <use x="1143.896484" xlink:href="#Hack-Regular-74"/>
     </g>
    </g>
    <g id="line2d_46">
     <path d="M 1486.38375 116.718281 
L 1510.38375 116.718281 
" style="fill:none;opacity:0.75;stroke:#e31a1c;stroke-linecap:round;stroke-width:2;"/>
    </g>
    <g id="line2d_47"/>
    <g id="text_37">
     <!-- platform_analysis -->
     <defs>
      <path d="M 22.75 47.703125 
L 8.15625 47.703125 
L 8.15625 54.6875 
L 22.75 54.6875 
L 22.75 58.5 
Q 22.75 67.53125 26.90625 71.734375 
Q 31 75.984375 39.75 75.984375 
L 50.53125 75.984375 
L 50.53125 68.5 
L 40.328125 68.5 
Q 37.703125 68.5 36.109375 67.984375 
Q 34.515625 67.484375 33.640625 66.546875 
Q 31.734375 64.546875 31.734375 59.515625 
L 31.734375 54.6875 
L 50.53125 54.6875 
L 50.53125 47.703125 
L 31.734375 47.703125 
L 31.734375 0 
L 22.75 0 
z
" id="Hack-Regular-66"/>
      <path d="M 4.59375 -9.28125 
L 55.5625 -9.28125 
L 55.5625 -15.140625 
L 4.59375 -15.140625 
z
" id="Hack-Regular-5f"/>
     </defs>
     <g style="fill:#262626;" transform="translate(1519.98375 120.918281)scale(0.12 -0.12)">
      <use xlink:href="#Hack-Regular-70"/>
      <use x="60.205078" xlink:href="#Hack-Regular-6c"/>
      <use x="120.410156" xlink:href="#Hack-Regular-61"/>
      <use x="180.615234" xlink:href="#Hack-Regular-74"/>
      <use x="240.820312" xlink:href="#Hack-Regular-66"/>
      <use x="301.025391" xlink:href="#Hack-Regular-6f"/>
      <use x="361.230469" xlink:href="#Hack-Regular-72"/>
      <use x="421.435547" xlink:href="#Hack-Regular-6d"/>
      <use x="481.640625" xlink:href="#Hack-Regular-5f"/>
      <use x="541.845703" xlink:href="#Hack-Regular-61"/>
      <use x="602.050781" xlink:href="#Hack-Regular-6e"/>
      <use x="662.255859" xlink:href="#Hack-Regular-61"/>
      <use x="722.460938" xlink:href="#Hack-Regular-6c"/>
      <use x="782.666016" xlink:href="#Hack-Regular-79"/>
      <use x="842.871094" xlink:href="#Hack-Regular-73"/>
      <use x="903.076172" xlink:href="#Hack-Regular-69"/>
      <use x="963.28125" xlink:href="#Hack-Regular-73"/>
     </g>
    </g>
   </g>
  </g>
 </g>
 <defs>
  <clipPath id="p608c03069a">
   <rect height="489.6" width="1674" x="51.841875" y="12.518906"/>
  </clipPath>
 </defs>
</svg>
