<?xml version="1.0" encoding="utf-8" standalone="no"?>
<!DOCTYPE svg PUBLIC "-//W3C//DTD SVG 1.1//EN"
  "http://www.w3.org/Graphics/SVG/1.1/DTD/svg11.dtd">
<!-- Created with matplotlib (http://matplotlib.org/) -->
<svg height="659pt" version="1.1" viewBox="0 0 1067 659" width="1067pt" xmlns="http://www.w3.org/2000/svg" xmlns:xlink="http://www.w3.org/1999/xlink">
 <defs>
  <style type="text/css">
*{stroke-linecap:butt;stroke-linejoin:round;}
  </style>
 </defs>
 <g id="figure_1">
  <g id="patch_1">
   <path d="M 0 659.432687 
L 1067.74405 659.432687 
L 1067.74405 0 
L 0 0 
z
" style="fill:#ffffff;"/>
  </g>
  <g id="axes_1">
   <g id="patch_2">
    <path d="M 184.865938 611.043625 
L 1021.865937 611.043625 
L 1021.865937 67.443625 
L 184.865938 67.443625 
z
" style="fill:#eaeaf2;"/>
   </g>
   <g id="matplotlib.axis_1">
    <g id="xtick_1">
     <g id="line2d_1">
      <path clip-path="url(#p4418531a1c)" d="M 184.865938 611.043625 
L 184.865938 67.443625 
" style="fill:none;stroke:#ffffff;stroke-linecap:round;stroke-width:0.8;"/>
     </g>
     <g id="text_1">
      <!-- 0 -->
      <defs>
       <path d="M 27.90625 67.90625 
Q 39 67.90625 44.640625 59.046875 
Q 50.296875 50.203125 50.296875 33.40625 
Q 50.296875 16.59375 44.640625 7.6875 
Q 39 -1.203125 27.90625 -1.203125 
Q 16.796875 -1.203125 11.140625 7.6875 
Q 5.5 16.59375 5.5 33.40625 
Q 5.5 50.203125 11.140625 59.046875 
Q 16.796875 67.90625 27.90625 67.90625 
z
M 27.90625 60.59375 
Q 21.40625 60.59375 18.25 54.1875 
Q 15.09375 47.796875 15.09375 33.40625 
Q 15.09375 19 18.25 12.546875 
Q 21.40625 6.09375 27.90625 6.09375 
Q 34.296875 6.09375 37.5 12.546875 
Q 40.703125 19 40.703125 33.40625 
Q 40.703125 47.703125 37.5 54.140625 
Q 34.296875 60.59375 27.90625 60.59375 
z
" id="FiraSans-Regular-30"/>
      </defs>
      <g style="fill:#262626;" transform="translate(180.960156 629.843625)scale(0.14 -0.14)">
       <use xlink:href="#FiraSans-Regular-30"/>
      </g>
     </g>
    </g>
    <g id="xtick_2">
     <g id="line2d_2">
      <path clip-path="url(#p4418531a1c)" d="M 298.743489 611.043625 
L 298.743489 67.443625 
" style="fill:none;stroke:#ffffff;stroke-linecap:round;stroke-width:0.8;"/>
     </g>
     <g id="text_2">
      <!-- 1 -->
      <defs>
       <path d="M 32.296875 66.90625 
L 32.296875 0 
L 23.09375 0 
L 23.09375 57.09375 
L 7.5 47.59375 
L 3.5 54.09375 
L 24.203125 66.90625 
z
" id="FiraSans-Regular-31"/>
      </defs>
      <g style="fill:#262626;" transform="translate(295.712707 629.843625)scale(0.14 -0.14)">
       <use xlink:href="#FiraSans-Regular-31"/>
      </g>
     </g>
    </g>
    <g id="xtick_3">
     <g id="line2d_3">
      <path clip-path="url(#p4418531a1c)" d="M 412.62104 611.043625 
L 412.62104 67.443625 
" style="fill:none;stroke:#ffffff;stroke-linecap:round;stroke-width:0.8;"/>
     </g>
     <g id="text_3">
      <!-- 2 -->
      <defs>
       <path d="M 22.796875 67.90625 
Q 28.796875 67.90625 33.34375 65.5 
Q 37.90625 63.09375 40.40625 58.9375 
Q 42.90625 54.796875 42.90625 49.59375 
Q 42.90625 43.5 40.15625 37.890625 
Q 37.40625 32.296875 31.703125 25.796875 
Q 26 19.296875 14.40625 7.703125 
L 44.5 7.703125 
L 43.40625 0 
L 3.90625 0 
L 3.90625 7.296875 
Q 17.296875 21.203125 22.890625 27.640625 
Q 28.5 34.09375 30.890625 38.890625 
Q 33.296875 43.703125 33.296875 49.203125 
Q 33.296875 54.40625 30.296875 57.34375 
Q 27.296875 60.296875 22.296875 60.296875 
Q 18.203125 60.296875 15.09375 58.59375 
Q 12 56.90625 8.5 53 
L 2.5 57.796875 
Q 6.59375 62.90625 11.59375 65.40625 
Q 16.59375 67.90625 22.796875 67.90625 
z
" id="FiraSans-Regular-32"/>
      </defs>
      <g style="fill:#262626;" transform="translate(409.15604 629.843625)scale(0.14 -0.14)">
       <use xlink:href="#FiraSans-Regular-32"/>
      </g>
     </g>
    </g>
    <g id="xtick_4">
     <g id="line2d_4">
      <path clip-path="url(#p4418531a1c)" d="M 526.498591 611.043625 
L 526.498591 67.443625 
" style="fill:none;stroke:#ffffff;stroke-linecap:round;stroke-width:0.8;"/>
     </g>
     <g id="text_4">
      <!-- 3 -->
      <defs>
       <path d="M 22.5 67.90625 
Q 28.703125 67.90625 33.140625 65.59375 
Q 37.59375 63.296875 39.9375 59.390625 
Q 42.296875 55.5 42.296875 50.90625 
Q 42.296875 44.796875 38.75 40.84375 
Q 35.203125 36.90625 29.296875 35.5 
Q 36 34.90625 40.203125 30.703125 
Q 44.40625 26.5 44.40625 19.296875 
Q 44.40625 13.5 41.59375 8.796875 
Q 38.796875 4.09375 33.59375 1.4375 
Q 28.40625 -1.203125 21.59375 -1.203125 
Q 15.5 -1.203125 10.390625 1.046875 
Q 5.296875 3.296875 1.5 7.796875 
L 7 12.90625 
Q 10.296875 9.5 13.75 7.890625 
Q 17.203125 6.296875 21.296875 6.296875 
Q 27.59375 6.296875 31.1875 9.84375 
Q 34.796875 13.40625 34.796875 19.40625 
Q 34.796875 26 31.390625 28.703125 
Q 28 31.40625 21.5 31.40625 
L 16.5 31.40625 
L 17.59375 38.5 
L 21 38.5 
Q 26.203125 38.5 29.640625 41.59375 
Q 33.09375 44.703125 33.09375 50.296875 
Q 33.09375 55 30.09375 57.75 
Q 27.09375 60.5 22 60.5 
Q 18.09375 60.5 14.84375 59.09375 
Q 11.59375 57.703125 8.203125 54.5 
L 3.40625 60 
Q 11.90625 67.90625 22.5 67.90625 
z
" id="FiraSans-Regular-33"/>
      </defs>
      <g style="fill:#262626;" transform="translate(523.005153 629.843625)scale(0.14 -0.14)">
       <use xlink:href="#FiraSans-Regular-33"/>
      </g>
     </g>
    </g>
    <g id="xtick_5">
     <g id="line2d_5">
      <path clip-path="url(#p4418531a1c)" d="M 640.376142 611.043625 
L 640.376142 67.443625 
" style="fill:none;stroke:#ffffff;stroke-linecap:round;stroke-width:0.8;"/>
     </g>
     <g id="text_5">
      <!-- 4 -->
      <defs>
       <path d="M 50.203125 23.796875 
L 50.203125 16.5 
L 41.5 16.5 
L 41.5 0 
L 32.59375 0 
L 32.59375 16.5 
L 4 16.5 
L 4 23.09375 
L 24.09375 67.90625 
L 31.796875 64.703125 
L 13.703125 23.796875 
L 32.703125 23.796875 
L 33.5 41.796875 
L 41.5 41.796875 
L 41.5 23.796875 
z
" id="FiraSans-Regular-34"/>
      </defs>
      <g style="fill:#262626;" transform="translate(636.651923 629.843625)scale(0.14 -0.14)">
       <use xlink:href="#FiraSans-Regular-34"/>
      </g>
     </g>
    </g>
    <g id="xtick_6">
     <g id="line2d_6">
      <path clip-path="url(#p4418531a1c)" d="M 754.253693 611.043625 
L 754.253693 67.443625 
" style="fill:none;stroke:#ffffff;stroke-linecap:round;stroke-width:0.8;"/>
     </g>
     <g id="text_6">
      <!-- 5 -->
      <defs>
       <path d="M 42 59.703125 
L 15.90625 59.703125 
L 15.90625 40 
Q 21 42.59375 26.59375 42.59375 
Q 35.203125 42.59375 40.390625 36.9375 
Q 45.59375 31.296875 45.59375 21.40625 
Q 45.59375 14.796875 42.6875 9.640625 
Q 39.796875 4.5 34.546875 1.640625 
Q 29.296875 -1.203125 22.40625 -1.203125 
Q 16.296875 -1.203125 11.5 0.9375 
Q 6.703125 3.09375 2.59375 7.296875 
L 8 12.59375 
Q 11.203125 9.40625 14.59375 7.84375 
Q 18 6.296875 22.296875 6.296875 
Q 28.703125 6.296875 32.34375 10.296875 
Q 36 14.296875 36 21.59375 
Q 36 28.90625 32.703125 32.203125 
Q 29.40625 35.5 23.796875 35.5 
Q 21.203125 35.5 19 34.953125 
Q 16.796875 34.40625 14.296875 33.203125 
L 7.09375 33.203125 
L 7.09375 66.90625 
L 43.296875 66.90625 
z
" id="FiraSans-Regular-35"/>
      </defs>
      <g style="fill:#262626;" transform="translate(750.74713 629.843625)scale(0.14 -0.14)">
       <use xlink:href="#FiraSans-Regular-35"/>
      </g>
     </g>
    </g>
    <g id="xtick_7">
     <g id="line2d_7">
      <path clip-path="url(#p4418531a1c)" d="M 868.131244 611.043625 
L 868.131244 67.443625 
" style="fill:none;stroke:#ffffff;stroke-linecap:round;stroke-width:0.8;"/>
     </g>
     <g id="text_7">
      <!-- 6 -->
      <defs>
       <path d="M 30.796875 44 
Q 35.90625 44 40.09375 41.59375 
Q 44.296875 39.203125 46.796875 34.390625 
Q 49.296875 29.59375 49.296875 22.703125 
Q 49.296875 15.59375 46.4375 10.140625 
Q 43.59375 4.703125 38.75 1.75 
Q 33.90625 -1.203125 28 -1.203125 
Q 16.296875 -1.203125 10.890625 7.4375 
Q 5.5 16.09375 5.5 31.40625 
Q 5.5 42.296875 8.546875 50.546875 
Q 11.59375 58.796875 17.296875 63.34375 
Q 23 67.90625 30.796875 67.90625 
Q 38.40625 67.90625 44.59375 63.796875 
L 41 57.703125 
Q 36.296875 60.59375 30.703125 60.59375 
Q 23.5 60.59375 19.296875 53.6875 
Q 15.09375 46.796875 14.703125 35.203125 
Q 20.90625 44 30.796875 44 
z
M 28 6.09375 
Q 33.796875 6.09375 36.890625 10.5 
Q 40 14.90625 40 22.40625 
Q 40 36.703125 29.203125 36.703125 
Q 24.796875 36.703125 21.09375 34.25 
Q 17.40625 31.796875 14.796875 27.5 
Q 15.09375 16.5 18.25 11.296875 
Q 21.40625 6.09375 28 6.09375 
z
" id="FiraSans-Regular-36"/>
      </defs>
      <g style="fill:#262626;" transform="translate(864.400462 629.843625)scale(0.14 -0.14)">
       <use xlink:href="#FiraSans-Regular-36"/>
      </g>
     </g>
    </g>
    <g id="xtick_8">
     <g id="line2d_8">
      <path clip-path="url(#p4418531a1c)" d="M 982.008795 611.043625 
L 982.008795 67.443625 
" style="fill:none;stroke:#ffffff;stroke-linecap:round;stroke-width:0.8;"/>
     </g>
     <g id="text_8">
      <!-- 7 -->
      <defs>
       <path d="M 41.40625 66.90625 
L 41.40625 60 
L 16.40625 -1 
L 8 1.796875 
L 32.09375 59.40625 
L 2.5 59.40625 
L 2.5 66.90625 
z
" id="FiraSans-Regular-37"/>
      </defs>
      <g style="fill:#262626;" transform="translate(978.900357 629.843625)scale(0.14 -0.14)">
       <use xlink:href="#FiraSans-Regular-37"/>
      </g>
     </g>
    </g>
    <g id="text_9">
     <!-- Count -->
     <defs>
      <path d="M 34.09375 70.09375 
Q 40.296875 70.09375 44.546875 68.5 
Q 48.796875 66.90625 53.203125 63.296875 
L 48 57.203125 
Q 41.703125 62.296875 34.703125 62.296875 
Q 26.09375 62.296875 20.84375 55.6875 
Q 15.59375 49.09375 15.59375 34.5 
Q 15.59375 20.296875 20.796875 13.546875 
Q 26 6.796875 34.59375 6.796875 
Q 39 6.796875 42.296875 8.296875 
Q 45.59375 9.796875 49.296875 12.5 
L 54 6.5 
Q 50.796875 3.203125 45.796875 1 
Q 40.796875 -1.203125 34.296875 -1.203125 
Q 25.90625 -1.203125 19.34375 2.9375 
Q 12.796875 7.09375 9.140625 15.140625 
Q 5.5 23.203125 5.5 34.5 
Q 5.5 45.796875 9.296875 53.84375 
Q 13.09375 61.90625 19.59375 66 
Q 26.09375 70.09375 34.09375 70.09375 
z
" id="FiraSans-Regular-43"/>
      <path d="M 29.296875 53.90625 
Q 40.40625 53.90625 46.546875 46.5 
Q 52.703125 39.09375 52.703125 26.40625 
Q 52.703125 18.203125 49.890625 11.953125 
Q 47.09375 5.703125 41.796875 2.25 
Q 36.5 -1.203125 29.203125 -1.203125 
Q 18.09375 -1.203125 11.890625 6.1875 
Q 5.703125 13.59375 5.703125 26.296875 
Q 5.703125 34.5 8.5 40.75 
Q 11.296875 47 16.59375 50.453125 
Q 21.90625 53.90625 29.296875 53.90625 
z
M 29.296875 46.5 
Q 15.59375 46.5 15.59375 26.296875 
Q 15.59375 6.203125 29.203125 6.203125 
Q 42.796875 6.203125 42.796875 26.40625 
Q 42.796875 46.5 29.296875 46.5 
z
" id="FiraSans-Regular-6f"/>
      <path d="M 48.703125 0 
L 40.796875 0 
L 40.09375 8.203125 
Q 37.09375 3.296875 33.1875 1.046875 
Q 29.296875 -1.203125 23.703125 -1.203125 
Q 16.796875 -1.203125 12.890625 3 
Q 9 7.203125 9 14.90625 
L 9 52.703125 
L 18.203125 52.703125 
L 18.203125 15.90625 
Q 18.203125 10.5 20.09375 8.25 
Q 22 6 26.296875 6 
Q 34 6 39.5 15.09375 
L 39.5 52.703125 
L 48.703125 52.703125 
z
" id="FiraSans-Regular-75"/>
      <path d="M 34.296875 53.90625 
Q 41.5 53.90625 45.546875 49.59375 
Q 49.59375 45.296875 49.59375 37.796875 
L 49.59375 0 
L 40.40625 0 
L 40.40625 36.5 
Q 40.40625 42.09375 38.296875 44.390625 
Q 36.203125 46.703125 32.09375 46.703125 
Q 27.90625 46.703125 24.703125 44.296875 
Q 21.5 41.90625 18.703125 37.40625 
L 18.703125 0 
L 9.5 0 
L 9.5 52.703125 
L 17.40625 52.703125 
L 18.203125 44.90625 
Q 21 49.09375 25.140625 51.5 
Q 29.296875 53.90625 34.296875 53.90625 
z
" id="FiraSans-Regular-6e"/>
      <path d="M 36.09375 2.40625 
Q 30.90625 -1.203125 24.296875 -1.203125 
Q 17.59375 -1.203125 13.84375 2.640625 
Q 10.09375 6.5 10.09375 13.796875 
L 10.09375 45.59375 
L 0.90625 45.59375 
L 0.90625 52.703125 
L 10.09375 52.703125 
L 10.09375 64.59375 
L 19.296875 65.703125 
L 19.296875 52.703125 
L 31.796875 52.703125 
L 30.796875 45.59375 
L 19.296875 45.59375 
L 19.296875 14.203125 
Q 19.296875 10.09375 20.75 8.25 
Q 22.203125 6.40625 25.59375 6.40625 
Q 28.703125 6.40625 32.59375 8.5 
z
" id="FiraSans-Regular-74"/>
     </defs>
     <g style="fill:#262626;" transform="translate(581.982188 648.825187)scale(0.16 -0.16)">
      <use xlink:href="#FiraSans-Regular-43"/>
      <use x="55.999985" xlink:href="#FiraSans-Regular-6f"/>
      <use x="114.399979" xlink:href="#FiraSans-Regular-75"/>
      <use x="172.599976" xlink:href="#FiraSans-Regular-6e"/>
      <use x="231.199966" xlink:href="#FiraSans-Regular-74"/>
     </g>
    </g>
   </g>
   <g id="matplotlib.axis_2">
    <g id="ytick_1">
     <g id="line2d_9">
      <path clip-path="url(#p4418531a1c)" d="M 184.865938 556.683625 
L 1021.865937 556.683625 
" style="fill:none;stroke:#ffffff;stroke-linecap:round;stroke-width:0.8;"/>
     </g>
     <g id="text_10">
      <!-- Yes, to some projects -->
      <defs>
       <path d="M 54.5 68.90625 
L 32.296875 26.5 
L 32.296875 0 
L 22.703125 0 
L 22.703125 26.40625 
L 0.5 68.90625 
L 11 68.90625 
L 27.796875 34.796875 
L 44.59375 68.90625 
z
" id="FiraSans-Regular-59"/>
       <path d="M 49.296875 27.90625 
Q 49.296875 25.59375 49.09375 23.203125 
L 15.5 23.203125 
Q 16.09375 14.5 19.890625 10.390625 
Q 23.703125 6.296875 29.703125 6.296875 
Q 33.5 6.296875 36.703125 7.390625 
Q 39.90625 8.5 43.40625 10.90625 
L 47.40625 5.40625 
Q 39 -1.203125 29 -1.203125 
Q 18 -1.203125 11.84375 6 
Q 5.703125 13.203125 5.703125 25.796875 
Q 5.703125 34 8.34375 40.34375 
Q 11 46.703125 15.953125 50.296875 
Q 20.90625 53.90625 27.59375 53.90625 
Q 38.09375 53.90625 43.6875 47 
Q 49.296875 40.09375 49.296875 27.90625 
z
M 40.203125 30.59375 
Q 40.203125 38.40625 37.09375 42.5 
Q 34 46.59375 27.796875 46.59375 
Q 16.5 46.59375 15.5 30 
L 40.203125 30 
z
" id="FiraSans-Regular-65"/>
       <path d="M 23.796875 53.90625 
Q 29.203125 53.90625 33.5 52.40625 
Q 37.796875 50.90625 41.703125 47.90625 
L 37.796875 42.09375 
Q 34.203125 44.40625 30.953125 45.5 
Q 27.703125 46.59375 24.09375 46.59375 
Q 19.59375 46.59375 17 44.75 
Q 14.40625 42.90625 14.40625 39.703125 
Q 14.40625 36.5 16.84375 34.703125 
Q 19.296875 32.90625 25.703125 31.203125 
Q 34.5 29 38.84375 25.203125 
Q 43.203125 21.40625 43.203125 14.796875 
Q 43.203125 7 37.140625 2.890625 
Q 31.09375 -1.203125 22.40625 -1.203125 
Q 10.40625 -1.203125 2.5 5.703125 
L 7.40625 11.296875 
Q 14.09375 6.203125 22.203125 6.203125 
Q 27.40625 6.203125 30.453125 8.34375 
Q 33.5 10.5 33.5 14.203125 
Q 33.5 16.90625 32.390625 18.546875 
Q 31.296875 20.203125 28.59375 21.453125 
Q 25.90625 22.703125 20.703125 24.09375 
Q 12.296875 26.296875 8.546875 30 
Q 4.796875 33.703125 4.796875 39.40625 
Q 4.796875 43.5 7.25 46.84375 
Q 9.703125 50.203125 14.046875 52.046875 
Q 18.40625 53.90625 23.796875 53.90625 
z
" id="FiraSans-Regular-73"/>
       <path d="M 11.90625 12.703125 
Q 14.90625 12.703125 16.90625 10.703125 
Q 18.90625 8.703125 18.90625 5.796875 
Q 18.90625 2.703125 17.09375 -1.296875 
L 10.40625 -16.59375 
L 3.796875 -16.59375 
L 7.796875 0 
Q 6.5 1 5.75 2.5 
Q 5 4 5 5.796875 
Q 5 8.703125 7 10.703125 
Q 9 12.703125 11.90625 12.703125 
z
" id="FiraSans-Regular-2c"/>
       <path id="FiraSans-Regular-20"/>
       <path d="M 62.40625 53.90625 
Q 68.90625 53.90625 72.796875 49.546875 
Q 76.703125 45.203125 76.703125 37.796875 
L 76.703125 0 
L 67.5 0 
L 67.5 36.5 
Q 67.5 46.703125 60.09375 46.703125 
Q 56.203125 46.703125 53.5 44.453125 
Q 50.796875 42.203125 47.703125 37.40625 
L 47.703125 0 
L 38.5 0 
L 38.5 36.5 
Q 38.5 46.703125 31.09375 46.703125 
Q 27.09375 46.703125 24.390625 44.390625 
Q 21.703125 42.09375 18.703125 37.40625 
L 18.703125 0 
L 9.5 0 
L 9.5 52.703125 
L 17.40625 52.703125 
L 18.203125 45 
Q 24.09375 53.90625 33.40625 53.90625 
Q 38.296875 53.90625 41.75 51.40625 
Q 45.203125 48.90625 46.703125 44.40625 
Q 49.796875 49 53.546875 51.453125 
Q 57.296875 53.90625 62.40625 53.90625 
z
" id="FiraSans-Regular-6d"/>
       <path d="M 33.703125 53.90625 
Q 43.796875 53.90625 48.5 46.703125 
Q 53.203125 39.5 53.203125 26.40625 
Q 53.203125 14 47.796875 6.390625 
Q 42.40625 -1.203125 32.5 -1.203125 
Q 23.703125 -1.203125 18.703125 4.796875 
L 18.703125 -20.203125 
L 9.5 -21.296875 
L 9.5 52.703125 
L 17.40625 52.703125 
L 18.09375 45.59375 
Q 21 49.59375 25.09375 51.75 
Q 29.203125 53.90625 33.703125 53.90625 
z
M 30.296875 6.296875 
Q 43.296875 6.296875 43.296875 26.40625 
Q 43.296875 46.59375 31.40625 46.59375 
Q 27.5 46.59375 24.296875 44.296875 
Q 21.09375 42 18.703125 38.40625 
L 18.703125 12.703125 
Q 20.703125 9.59375 23.703125 7.9375 
Q 26.703125 6.296875 30.296875 6.296875 
z
" id="FiraSans-Regular-70"/>
       <path d="M 32.40625 53.90625 
Q 35.203125 53.90625 37.59375 53.296875 
L 35.90625 44.296875 
Q 33.5 44.90625 31.296875 44.90625 
Q 26.40625 44.90625 23.40625 41.296875 
Q 20.40625 37.703125 18.703125 30.09375 
L 18.703125 0 
L 9.5 0 
L 9.5 52.703125 
L 17.40625 52.703125 
L 18.296875 42 
Q 20.40625 47.90625 24 50.90625 
Q 27.59375 53.90625 32.40625 53.90625 
z
" id="FiraSans-Regular-72"/>
       <path d="M 18.5 3.203125 
Q 18.5 -4.09375 16.703125 -8.5 
Q 14.90625 -12.90625 11.453125 -15.65625 
Q 8 -18.40625 1.796875 -21.203125 
L -0.90625 -14.5 
Q 3 -12.703125 5.09375 -10.953125 
Q 7.203125 -9.203125 8.25 -6.046875 
Q 9.296875 -2.90625 9.296875 2.59375 
L 9.296875 52.703125 
L 18.5 52.703125 
z
M 13.90625 78 
Q 16.796875 78 18.59375 76.203125 
Q 20.40625 74.40625 20.40625 71.703125 
Q 20.40625 69 18.59375 67.25 
Q 16.796875 65.5 13.90625 65.5 
Q 11.09375 65.5 9.296875 67.25 
Q 7.5 69 7.5 71.703125 
Q 7.5 74.40625 9.296875 76.203125 
Q 11.09375 78 13.90625 78 
z
" id="FiraSans-Regular-6a"/>
       <path d="M 28.703125 53.90625 
Q 33.40625 53.90625 37.296875 52.546875 
Q 41.203125 51.203125 44.796875 48.203125 
L 40.40625 42.40625 
Q 37.59375 44.40625 34.9375 45.34375 
Q 32.296875 46.296875 29.09375 46.296875 
Q 22.703125 46.296875 19.140625 41.1875 
Q 15.59375 36.09375 15.59375 26.09375 
Q 15.59375 16.09375 19.09375 11.34375 
Q 22.59375 6.59375 29.09375 6.59375 
Q 32.203125 6.59375 34.796875 7.546875 
Q 37.40625 8.5 40.59375 10.59375 
L 44.796875 4.59375 
Q 37.59375 -1.203125 28.703125 -1.203125 
Q 18 -1.203125 11.84375 6 
Q 5.703125 13.203125 5.703125 25.90625 
Q 5.703125 34.296875 8.5 40.59375 
Q 11.296875 46.90625 16.4375 50.40625 
Q 21.59375 53.90625 28.703125 53.90625 
z
" id="FiraSans-Regular-63"/>
      </defs>
      <g style="fill:#262626;" transform="translate(40.90375 562.143625)scale(0.14 -0.14)">
       <use xlink:href="#FiraSans-Regular-59"/>
       <use x="54.999985" xlink:href="#FiraSans-Regular-65"/>
       <use x="109.499969" xlink:href="#FiraSans-Regular-73"/>
       <use x="156.199966" xlink:href="#FiraSans-Regular-2c"/>
       <use x="180.199951" xlink:href="#FiraSans-Regular-20"/>
       <use x="206.699936" xlink:href="#FiraSans-Regular-74"/>
       <use x="242.799927" xlink:href="#FiraSans-Regular-6f"/>
       <use x="301.199921" xlink:href="#FiraSans-Regular-20"/>
       <use x="327.699905" xlink:href="#FiraSans-Regular-73"/>
       <use x="374.399902" xlink:href="#FiraSans-Regular-6f"/>
       <use x="432.799896" xlink:href="#FiraSans-Regular-6d"/>
       <use x="518.499878" xlink:href="#FiraSans-Regular-65"/>
       <use x="572.999863" xlink:href="#FiraSans-Regular-20"/>
       <use x="599.499847" xlink:href="#FiraSans-Regular-70"/>
       <use x="658.899841" xlink:href="#FiraSans-Regular-72"/>
       <use x="697.499832" xlink:href="#FiraSans-Regular-6f"/>
       <use x="755.899826" xlink:href="#FiraSans-Regular-6a"/>
       <use x="783.899811" xlink:href="#FiraSans-Regular-65"/>
       <use x="838.399796" xlink:href="#FiraSans-Regular-63"/>
       <use x="886.199783" xlink:href="#FiraSans-Regular-74"/>
       <use x="922.299774" xlink:href="#FiraSans-Regular-73"/>
      </g>
     </g>
    </g>
    <g id="ytick_2">
     <g id="line2d_10">
      <path clip-path="url(#p4418531a1c)" d="M 184.865938 447.963625 
L 1021.865937 447.963625 
" style="fill:none;stroke:#ffffff;stroke-linecap:round;stroke-width:0.8;"/>
     </g>
     <g id="text_11">
      <!-- Yes, to all projects -->
      <defs>
       <path d="M 45 12.296875 
Q 45 9.09375 46.09375 7.546875 
Q 47.203125 6 49.40625 5.203125 
L 47.296875 -1.203125 
Q 43.203125 -0.703125 40.703125 1.09375 
Q 38.203125 2.90625 37 6.703125 
Q 31.703125 -1.203125 21.296875 -1.203125 
Q 13.5 -1.203125 9 3.1875 
Q 4.5 7.59375 4.5 14.703125 
Q 4.5 23.09375 10.546875 27.59375 
Q 16.59375 32.09375 27.703125 32.09375 
L 35.796875 32.09375 
L 35.796875 36 
Q 35.796875 41.59375 33.09375 44 
Q 30.40625 46.40625 24.796875 46.40625 
Q 19 46.40625 10.59375 43.59375 
L 8.296875 50.296875 
Q 18.09375 53.90625 26.5 53.90625 
Q 35.796875 53.90625 40.390625 49.34375 
Q 45 44.796875 45 36.40625 
L 45 12.296875 
z
M 23.40625 5.703125 
Q 31.296875 5.703125 35.796875 13.90625 
L 35.796875 26 
L 28.90625 26 
Q 14.296875 26 14.296875 15.203125 
Q 14.296875 10.5 16.59375 8.09375 
Q 18.90625 5.703125 23.40625 5.703125 
z
" id="FiraSans-Regular-61"/>
       <path d="M 20 -1.203125 
Q 14.90625 -1.203125 11.953125 1.84375 
Q 9 4.90625 9 10.40625 
L 9 73.90625 
L 18.203125 75 
L 18.203125 10.59375 
Q 18.203125 8.40625 18.953125 7.40625 
Q 19.703125 6.40625 21.5 6.40625 
Q 23.40625 6.40625 24.90625 7 
L 27.296875 0.59375 
Q 24 -1.203125 20 -1.203125 
z
" id="FiraSans-Regular-6c"/>
      </defs>
      <g style="fill:#262626;" transform="translate(59.4275 453.423625)scale(0.14 -0.14)">
       <use xlink:href="#FiraSans-Regular-59"/>
       <use x="54.999985" xlink:href="#FiraSans-Regular-65"/>
       <use x="109.499969" xlink:href="#FiraSans-Regular-73"/>
       <use x="156.199966" xlink:href="#FiraSans-Regular-2c"/>
       <use x="180.199951" xlink:href="#FiraSans-Regular-20"/>
       <use x="206.699936" xlink:href="#FiraSans-Regular-74"/>
       <use x="242.799927" xlink:href="#FiraSans-Regular-6f"/>
       <use x="301.199921" xlink:href="#FiraSans-Regular-20"/>
       <use x="327.699905" xlink:href="#FiraSans-Regular-61"/>
       <use x="382.099899" xlink:href="#FiraSans-Regular-6c"/>
       <use x="411.399887" xlink:href="#FiraSans-Regular-6c"/>
       <use x="440.699875" xlink:href="#FiraSans-Regular-20"/>
       <use x="467.19986" xlink:href="#FiraSans-Regular-70"/>
       <use x="526.599854" xlink:href="#FiraSans-Regular-72"/>
       <use x="565.199844" xlink:href="#FiraSans-Regular-6f"/>
       <use x="623.599838" xlink:href="#FiraSans-Regular-6a"/>
       <use x="651.599823" xlink:href="#FiraSans-Regular-65"/>
       <use x="706.099808" xlink:href="#FiraSans-Regular-63"/>
       <use x="753.899796" xlink:href="#FiraSans-Regular-74"/>
       <use x="789.999786" xlink:href="#FiraSans-Regular-73"/>
      </g>
     </g>
    </g>
    <g id="ytick_3">
     <g id="line2d_11">
      <path clip-path="url(#p4418531a1c)" d="M 184.865938 339.243625 
L 1021.865937 339.243625 
" style="fill:none;stroke:#ffffff;stroke-linecap:round;stroke-width:0.8;"/>
     </g>
     <g id="text_12">
      <!-- No, to no projects at all -->
      <defs>
       <path d="M 58.296875 0 
L 45.59375 0 
L 17.59375 58.5 
Q 18.203125 51.59375 18.546875 45.75 
Q 18.90625 39.90625 18.90625 31.59375 
L 18.90625 0 
L 10 0 
L 10 68.90625 
L 22.40625 68.90625 
L 50.703125 10.296875 
Q 50.40625 12.90625 49.90625 19.40625 
Q 49.40625 25.90625 49.40625 31.296875 
L 49.40625 68.90625 
L 58.296875 68.90625 
z
" id="FiraSans-Regular-4e"/>
      </defs>
      <g style="fill:#262626;" transform="translate(27.0875 344.703625)scale(0.14 -0.14)">
       <use xlink:href="#FiraSans-Regular-4e"/>
       <use x="68.299988" xlink:href="#FiraSans-Regular-6f"/>
       <use x="126.699982" xlink:href="#FiraSans-Regular-2c"/>
       <use x="150.699966" xlink:href="#FiraSans-Regular-20"/>
       <use x="177.199951" xlink:href="#FiraSans-Regular-74"/>
       <use x="213.299942" xlink:href="#FiraSans-Regular-6f"/>
       <use x="271.699936" xlink:href="#FiraSans-Regular-20"/>
       <use x="298.199921" xlink:href="#FiraSans-Regular-6e"/>
       <use x="356.799911" xlink:href="#FiraSans-Regular-6f"/>
       <use x="415.199905" xlink:href="#FiraSans-Regular-20"/>
       <use x="441.69989" xlink:href="#FiraSans-Regular-70"/>
       <use x="501.099884" xlink:href="#FiraSans-Regular-72"/>
       <use x="539.699875" xlink:href="#FiraSans-Regular-6f"/>
       <use x="598.099869" xlink:href="#FiraSans-Regular-6a"/>
       <use x="626.099854" xlink:href="#FiraSans-Regular-65"/>
       <use x="680.599838" xlink:href="#FiraSans-Regular-63"/>
       <use x="728.399826" xlink:href="#FiraSans-Regular-74"/>
       <use x="764.499817" xlink:href="#FiraSans-Regular-73"/>
       <use x="811.199814" xlink:href="#FiraSans-Regular-20"/>
       <use x="837.699799" xlink:href="#FiraSans-Regular-61"/>
       <use x="892.099792" xlink:href="#FiraSans-Regular-74"/>
       <use x="928.199783" xlink:href="#FiraSans-Regular-20"/>
       <use x="954.699768" xlink:href="#FiraSans-Regular-61"/>
       <use x="1009.099762" xlink:href="#FiraSans-Regular-6c"/>
       <use x="1038.39975" xlink:href="#FiraSans-Regular-6c"/>
      </g>
     </g>
    </g>
    <g id="ytick_4">
     <g id="line2d_12">
      <path clip-path="url(#p4418531a1c)" d="M 184.865938 230.523625 
L 1021.865937 230.523625 
" style="fill:none;stroke:#ffffff;stroke-linecap:round;stroke-width:0.8;"/>
     </g>
     <g id="text_13">
      <!-- I'm not sure -->
      <defs>
       <path d="M 19.5 68.90625 
L 19.5 0 
L 10 0 
L 10 68.90625 
z
" id="FiraSans-Regular-49"/>
       <path d="M 7.5 42.703125 
L 6 68.90625 
L 15.90625 68.90625 
L 14.40625 42.703125 
z
" id="FiraSans-Regular-27"/>
      </defs>
      <g style="fill:#262626;" transform="translate(100.7975 235.773625)scale(0.14 -0.14)">
       <use xlink:href="#FiraSans-Regular-49"/>
       <use x="29.499985" xlink:href="#FiraSans-Regular-27"/>
       <use x="51.399979" xlink:href="#FiraSans-Regular-6d"/>
       <use x="137.09996" xlink:href="#FiraSans-Regular-20"/>
       <use x="163.599945" xlink:href="#FiraSans-Regular-6e"/>
       <use x="222.199936" xlink:href="#FiraSans-Regular-6f"/>
       <use x="280.59993" xlink:href="#FiraSans-Regular-74"/>
       <use x="316.699921" xlink:href="#FiraSans-Regular-20"/>
       <use x="343.199905" xlink:href="#FiraSans-Regular-73"/>
       <use x="389.899902" xlink:href="#FiraSans-Regular-75"/>
       <use x="448.099899" xlink:href="#FiraSans-Regular-72"/>
       <use x="486.69989" xlink:href="#FiraSans-Regular-65"/>
      </g>
     </g>
    </g>
    <g id="ytick_5">
     <g id="line2d_13">
      <path clip-path="url(#p4418531a1c)" d="M 184.865938 121.803625 
L 1021.865937 121.803625 
" style="fill:none;stroke:#ffffff;stroke-linecap:round;stroke-width:0.8;"/>
     </g>
     <g id="text_14">
      <!-- No answer -->
      <defs>
       <path d="M 69.703125 52.703125 
L 57.703125 0 
L 45.203125 0 
L 36 44.40625 
L 26.5 0 
L 14.296875 0 
L 2 52.703125 
L 11.203125 52.703125 
L 20.703125 6.40625 
L 31.09375 52.703125 
L 41.40625 52.703125 
L 51.296875 6.40625 
L 60.90625 52.703125 
z
" id="FiraSans-Regular-77"/>
      </defs>
      <g style="fill:#262626;" transform="translate(109.6875 127.053625)scale(0.14 -0.14)">
       <use xlink:href="#FiraSans-Regular-4e"/>
       <use x="68.299988" xlink:href="#FiraSans-Regular-6f"/>
       <use x="126.699982" xlink:href="#FiraSans-Regular-20"/>
       <use x="153.199966" xlink:href="#FiraSans-Regular-61"/>
       <use x="207.59996" xlink:href="#FiraSans-Regular-6e"/>
       <use x="266.199951" xlink:href="#FiraSans-Regular-73"/>
       <use x="312.899948" xlink:href="#FiraSans-Regular-77"/>
       <use x="384.59993" xlink:href="#FiraSans-Regular-65"/>
       <use x="439.099915" xlink:href="#FiraSans-Regular-72"/>
      </g>
     </g>
    </g>
    <g id="text_15">
     <!-- Participants -->
     <defs>
      <path d="M 28.09375 68.90625 
Q 40.90625 68.90625 47.90625 63.546875 
Q 54.90625 58.203125 54.90625 47.59375 
Q 54.90625 36.296875 47.59375 30.796875 
Q 40.296875 25.296875 28.203125 25.296875 
L 19.5 25.296875 
L 19.5 0 
L 10 0 
L 10 68.90625 
L 28.09375 68.90625 
z
M 27.796875 32.796875 
Q 36.09375 32.796875 40.4375 36 
Q 44.796875 39.203125 44.796875 47.5 
Q 44.796875 54.90625 40.4375 58.203125 
Q 36.09375 61.5 28 61.5 
L 19.5 61.5 
L 19.5 32.796875 
L 27.796875 32.796875 
z
" id="FiraSans-Regular-50"/>
      <path d="M 18.703125 52.703125 
L 18.703125 0 
L 9.5 0 
L 9.5 52.703125 
z
M 14 78 
Q 16.90625 78 18.703125 76.203125 
Q 20.5 74.40625 20.5 71.703125 
Q 20.5 69 18.703125 67.25 
Q 16.90625 65.5 14 65.5 
Q 11.203125 65.5 9.390625 67.25 
Q 7.59375 69 7.59375 71.703125 
Q 7.59375 74.40625 9.390625 76.203125 
Q 11.203125 78 14 78 
z
" id="FiraSans-Regular-69"/>
     </defs>
     <g style="fill:#262626;" transform="translate(19.68 382.971125)rotate(-90)scale(0.16 -0.16)">
      <use xlink:href="#FiraSans-Regular-50"/>
      <use x="58.099991" xlink:href="#FiraSans-Regular-61"/>
      <use x="112.499985" xlink:href="#FiraSans-Regular-72"/>
      <use x="151.099976" xlink:href="#FiraSans-Regular-74"/>
      <use x="187.199966" xlink:href="#FiraSans-Regular-69"/>
      <use x="215.399963" xlink:href="#FiraSans-Regular-63"/>
      <use x="263.199951" xlink:href="#FiraSans-Regular-69"/>
      <use x="291.399948" xlink:href="#FiraSans-Regular-70"/>
      <use x="350.799942" xlink:href="#FiraSans-Regular-61"/>
      <use x="405.199936" xlink:href="#FiraSans-Regular-6e"/>
      <use x="463.799927" xlink:href="#FiraSans-Regular-74"/>
      <use x="499.899918" xlink:href="#FiraSans-Regular-73"/>
     </g>
    </g>
   </g>
   <g id="patch_3">
    <path clip-path="url(#p4418531a1c)" d="M 184.865938 583.863625 
L 982.008795 583.863625 
L 982.008795 529.503625 
L 184.865938 529.503625 
z
" style="fill:#f77189;opacity:0.75;stroke:#ffffff;stroke-linejoin:miter;stroke-width:0.8;"/>
   </g>
   <g id="patch_4">
    <path clip-path="url(#p4418531a1c)" d="M 184.865938 475.143625 
L 184.865938 475.143625 
L 184.865938 420.783625 
L 184.865938 420.783625 
z
" style="fill:#ae9d31;opacity:0.75;stroke:#ffffff;stroke-linejoin:miter;stroke-width:0.8;"/>
   </g>
   <g id="patch_5">
    <path clip-path="url(#p4418531a1c)" d="M 184.865938 366.423625 
L 184.865938 366.423625 
L 184.865938 312.063625 
L 184.865938 312.063625 
z
" style="fill:#33b07a;opacity:0.75;stroke:#ffffff;stroke-linejoin:miter;stroke-width:0.8;"/>
   </g>
   <g id="patch_6">
    <path clip-path="url(#p4418531a1c)" d="M 184.865938 257.703625 
L 298.743489 257.703625 
L 298.743489 203.343625 
L 184.865938 203.343625 
z
" style="fill:#38a9c5;opacity:0.75;stroke:#ffffff;stroke-linejoin:miter;stroke-width:0.8;"/>
   </g>
   <g id="patch_7">
    <path clip-path="url(#p4418531a1c)" d="M 184.865938 148.983625 
L 184.865938 148.983625 
L 184.865938 94.623625 
L 184.865938 94.623625 
z
" style="fill:#cc7af4;opacity:0.75;stroke:#ffffff;stroke-linejoin:miter;stroke-width:0.8;"/>
   </g>
   <g id="patch_8">
    <path d="M 184.865938 611.043625 
L 184.865938 67.443625 
" style="fill:none;stroke:#ffffff;stroke-linecap:square;stroke-linejoin:miter;"/>
   </g>
   <g id="patch_9">
    <path d="M 1021.865937 611.043625 
L 1021.865937 67.443625 
" style="fill:none;stroke:#ffffff;stroke-linecap:square;stroke-linejoin:miter;"/>
   </g>
   <g id="patch_10">
    <path d="M 184.865938 611.043625 
L 1021.865938 611.043625 
" style="fill:none;stroke:#ffffff;stroke-linecap:square;stroke-linejoin:miter;"/>
   </g>
   <g id="patch_11">
    <path d="M 184.865938 67.443625 
L 1021.865938 67.443625 
" style="fill:none;stroke:#ffffff;stroke-linecap:square;stroke-linejoin:miter;"/>
   </g>
   <g id="text_16">
    <!-- 7.0 (87.5%) -->
    <defs>
     <path d="M 43.40625 67.296875 
L 43.40625 58.296875 
L 18.5 -1.296875 
L 6.796875 2.5 
L 30.203125 57.40625 
L 1.796875 57.40625 
L 1.796875 67.296875 
z
" id="FiraSans-Medium-37"/>
     <path d="M 11.90625 14.703125 
Q 15.296875 14.703125 17.6875 12.34375 
Q 20.09375 10 20.09375 6.59375 
Q 20.09375 3.296875 17.6875 0.890625 
Q 15.296875 -1.5 11.90625 -1.5 
Q 8.59375 -1.5 6.25 0.890625 
Q 3.90625 3.296875 3.90625 6.59375 
Q 3.90625 10 6.203125 12.34375 
Q 8.5 14.703125 11.90625 14.703125 
z
" id="FiraSans-Medium-2e"/>
     <path d="M 28.59375 68.5 
Q 40.40625 68.5 46.546875 59.5 
Q 52.703125 50.5 52.703125 33.59375 
Q 52.703125 16.59375 46.546875 7.546875 
Q 40.40625 -1.5 28.59375 -1.5 
Q 16.796875 -1.5 10.640625 7.546875 
Q 4.5 16.59375 4.5 33.59375 
Q 4.5 50.5 10.640625 59.5 
Q 16.796875 68.5 28.59375 68.5 
z
M 28.59375 58.796875 
Q 22.90625 58.796875 20.296875 53.046875 
Q 17.703125 47.296875 17.703125 33.59375 
Q 17.703125 19.796875 20.296875 14 
Q 22.90625 8.203125 28.59375 8.203125 
Q 34.296875 8.203125 36.890625 13.953125 
Q 39.5 19.703125 39.5 33.59375 
Q 39.5 47.40625 36.890625 53.09375 
Q 34.296875 58.796875 28.59375 58.796875 
z
" id="FiraSans-Medium-30"/>
     <path id="FiraSans-Medium-20"/>
     <path d="M 30 79.703125 
Q 22.59375 69.09375 19.25 59.140625 
Q 15.90625 49.203125 15.90625 35 
Q 15.90625 20.90625 19.25 10.90625 
Q 22.59375 0.90625 30 -9.703125 
L 21.796875 -15.203125 
Q 15.296875 -6.09375 11.546875 0.25 
Q 7.796875 6.59375 5.296875 15.25 
Q 2.796875 23.90625 2.796875 35 
Q 2.796875 46.09375 5.296875 54.75 
Q 7.796875 63.40625 11.546875 69.75 
Q 15.296875 76.09375 21.796875 85.203125 
z
" id="FiraSans-Medium-28"/>
     <path d="M 39.296875 36.09375 
Q 53.09375 29.90625 53.09375 18.09375 
Q 53.09375 12.59375 50 8.140625 
Q 46.90625 3.703125 41.25 1.09375 
Q 35.59375 -1.5 28.09375 -1.5 
Q 20.703125 -1.5 15.203125 1.046875 
Q 9.703125 3.59375 6.703125 8 
Q 3.703125 12.40625 3.703125 17.90625 
Q 3.703125 29.5 16.5 34.90625 
Q 6.40625 40.40625 6.40625 50.796875 
Q 6.40625 56.09375 9.34375 60.140625 
Q 12.296875 64.203125 17.34375 66.34375 
Q 22.40625 68.5 28.40625 68.5 
Q 34.5 68.5 39.5 66.5 
Q 44.5 64.5 47.453125 60.59375 
Q 50.40625 56.703125 50.40625 51.296875 
Q 50.40625 41.796875 39.296875 36.09375 
z
M 28.40625 59.5 
Q 23.90625 59.5 21.34375 57.203125 
Q 18.796875 54.90625 18.796875 50.59375 
Q 18.796875 46.59375 21.1875 44.25 
Q 23.59375 41.90625 28.90625 40 
L 30.796875 39.296875 
Q 34.703125 41.703125 36.34375 44.34375 
Q 38 47 38 50.703125 
Q 38 54.796875 35.5 57.140625 
Q 33 59.5 28.40625 59.5 
z
M 28.40625 8 
Q 33.90625 8 37 10.796875 
Q 40.09375 13.59375 40.09375 18.09375 
Q 40.09375 22.703125 37.390625 25.34375 
Q 34.703125 28 27.796875 30.5 
L 24.703125 31.59375 
Q 16.59375 27.296875 16.59375 18.296875 
Q 16.59375 13.5 19.796875 10.75 
Q 23 8 28.40625 8 
z
" id="FiraSans-Medium-38"/>
     <path d="M 43.90625 57.796875 
L 18.703125 57.796875 
L 18.703125 41.09375 
Q 23.703125 43.59375 28.90625 43.59375 
Q 34.5 43.59375 38.890625 41 
Q 43.296875 38.40625 45.75 33.5 
Q 48.203125 28.59375 48.203125 21.90625 
Q 48.203125 15 45.09375 9.703125 
Q 42 4.40625 36.296875 1.453125 
Q 30.59375 -1.5 23.09375 -1.5 
Q 16.40625 -1.5 11.25 0.953125 
Q 6.09375 3.40625 1.90625 8 
L 9.203125 14.796875 
Q 15 8.40625 22.796875 8.40625 
Q 28.5 8.40625 31.75 11.90625 
Q 35 15.40625 35 21.90625 
Q 35 34.40625 24.203125 34.40625 
Q 21.90625 34.40625 19.90625 33.84375 
Q 17.90625 33.296875 15.5 32.09375 
L 6.40625 32.09375 
L 6.40625 67.296875 
L 45.40625 67.296875 
z
" id="FiraSans-Medium-35"/>
     <path d="M 61.296875 71.59375 
L 69.59375 66.296875 
L 23.203125 -3.59375 
L 15 1.703125 
z
M 20.703125 68.5 
Q 25.5 68.5 29.390625 66.34375 
Q 33.296875 64.203125 35.546875 60.203125 
Q 37.796875 56.203125 37.796875 51 
Q 37.796875 45.796875 35.546875 41.796875 
Q 33.296875 37.796875 29.390625 35.640625 
Q 25.5 33.5 20.703125 33.5 
Q 15.90625 33.5 12.046875 35.640625 
Q 8.203125 37.796875 5.953125 41.796875 
Q 3.703125 45.796875 3.703125 51 
Q 3.703125 56.203125 5.953125 60.203125 
Q 8.203125 64.203125 12.046875 66.34375 
Q 15.90625 68.5 20.703125 68.5 
z
M 20.703125 60.5 
Q 16.796875 60.5 15.140625 57.84375 
Q 13.5 55.203125 13.5 51 
Q 13.5 46.90625 15.140625 44.203125 
Q 16.796875 41.5 20.703125 41.5 
Q 27.90625 41.5 27.90625 51 
Q 27.90625 60.5 20.703125 60.5 
z
M 63.703125 33.5 
Q 68.5 33.5 72.390625 31.34375 
Q 76.296875 29.203125 78.5 25.203125 
Q 80.703125 21.203125 80.703125 16 
Q 80.703125 10.796875 78.5 6.796875 
Q 76.296875 2.796875 72.390625 0.640625 
Q 68.5 -1.5 63.703125 -1.5 
Q 58.90625 -1.5 55 0.640625 
Q 51.09375 2.796875 48.84375 6.796875 
Q 46.59375 10.796875 46.59375 16 
Q 46.59375 21.203125 48.84375 25.203125 
Q 51.09375 29.203125 55 31.34375 
Q 58.90625 33.5 63.703125 33.5 
z
M 63.703125 25.5 
Q 59.796875 25.5 58.140625 22.84375 
Q 56.5 20.203125 56.5 16 
Q 56.5 11.90625 58.140625 9.203125 
Q 59.796875 6.5 63.703125 6.5 
Q 70.90625 6.5 70.90625 16 
Q 70.90625 25.5 63.703125 25.5 
z
" id="FiraSans-Medium-25"/>
     <path d="M 10.59375 85.203125 
Q 17.09375 76.203125 20.84375 69.796875 
Q 24.59375 63.40625 27.09375 54.796875 
Q 29.59375 46.203125 29.59375 35 
Q 29.59375 23.796875 27.09375 15.1875 
Q 24.59375 6.59375 20.84375 0.1875 
Q 17.09375 -6.203125 10.59375 -15.203125 
L 2.5 -9.703125 
Q 9.796875 0.90625 13.1875 10.90625 
Q 16.59375 20.90625 16.59375 35 
Q 16.59375 49.09375 13.1875 59.046875 
Q 9.796875 69 2.5 79.703125 
L 10.59375 85.203125 
z
" id="FiraSans-Medium-29"/>
    </defs>
    <g style="fill:#262626;" transform="translate(993.39655 556.683625)scale(0.14 -0.14)">
     <use xlink:href="#FiraSans-Medium-37"/>
     <use x="45.699997" xlink:href="#FiraSans-Medium-2e"/>
     <use x="69.699982" xlink:href="#FiraSans-Medium-30"/>
     <use x="126.999969" xlink:href="#FiraSans-Medium-20"/>
     <use x="151.999954" xlink:href="#FiraSans-Medium-28"/>
     <use x="184.399948" xlink:href="#FiraSans-Medium-38"/>
     <use x="241.099945" xlink:href="#FiraSans-Medium-37"/>
     <use x="286.799942" xlink:href="#FiraSans-Medium-2e"/>
     <use x="310.799927" xlink:href="#FiraSans-Medium-35"/>
     <use x="362.799911" xlink:href="#FiraSans-Medium-25"/>
     <use x="447.199905" xlink:href="#FiraSans-Medium-29"/>
    </g>
   </g>
   <g id="text_17">
    <!-- 0.0 (0.0%) -->
    <g style="fill:#262626;" transform="translate(196.253693 447.963625)scale(0.14 -0.14)">
     <use xlink:href="#FiraSans-Medium-30"/>
     <use x="57.299988" xlink:href="#FiraSans-Medium-2e"/>
     <use x="81.299973" xlink:href="#FiraSans-Medium-30"/>
     <use x="138.59996" xlink:href="#FiraSans-Medium-20"/>
     <use x="163.599945" xlink:href="#FiraSans-Medium-28"/>
     <use x="195.999939" xlink:href="#FiraSans-Medium-30"/>
     <use x="253.299927" xlink:href="#FiraSans-Medium-2e"/>
     <use x="277.299911" xlink:href="#FiraSans-Medium-30"/>
     <use x="334.599899" xlink:href="#FiraSans-Medium-25"/>
     <use x="418.999893" xlink:href="#FiraSans-Medium-29"/>
    </g>
   </g>
   <g id="text_18">
    <!-- 0.0 (0.0%) -->
    <g style="fill:#262626;" transform="translate(196.253693 339.243625)scale(0.14 -0.14)">
     <use xlink:href="#FiraSans-Medium-30"/>
     <use x="57.299988" xlink:href="#FiraSans-Medium-2e"/>
     <use x="81.299973" xlink:href="#FiraSans-Medium-30"/>
     <use x="138.59996" xlink:href="#FiraSans-Medium-20"/>
     <use x="163.599945" xlink:href="#FiraSans-Medium-28"/>
     <use x="195.999939" xlink:href="#FiraSans-Medium-30"/>
     <use x="253.299927" xlink:href="#FiraSans-Medium-2e"/>
     <use x="277.299911" xlink:href="#FiraSans-Medium-30"/>
     <use x="334.599899" xlink:href="#FiraSans-Medium-25"/>
     <use x="418.999893" xlink:href="#FiraSans-Medium-29"/>
    </g>
   </g>
   <g id="text_19">
    <!-- 1.0 (12.5%) -->
    <defs>
     <path d="M 35.5 67.296875 
L 35.5 0 
L 22.90625 0 
L 22.90625 54.40625 
L 7.90625 45.296875 
L 2.296875 53.90625 
L 24.203125 67.296875 
z
" id="FiraSans-Medium-31"/>
     <path d="M 23.296875 68.5 
Q 30.09375 68.5 35.046875 66 
Q 40 63.5 42.59375 59.203125 
Q 45.203125 54.90625 45.203125 49.59375 
Q 45.203125 43.90625 42.75 38.65625 
Q 40.296875 33.40625 34.59375 27 
Q 28.90625 20.59375 17.90625 10.09375 
L 46.703125 10.09375 
L 45.296875 0 
L 3.40625 0 
L 3.40625 9.40625 
Q 16.203125 22.40625 21.75 28.65625 
Q 27.296875 34.90625 29.640625 39.34375 
Q 32 43.796875 32 48.59375 
Q 32 53.203125 29.34375 55.796875 
Q 26.703125 58.40625 22.296875 58.40625 
Q 18.40625 58.40625 15.453125 56.75 
Q 12.5 55.09375 9.296875 51.296875 
L 1.5 57.5 
Q 10 68.5 23.296875 68.5 
z
" id="FiraSans-Medium-32"/>
    </defs>
    <g style="fill:#262626;" transform="translate(310.131244 230.523625)scale(0.14 -0.14)">
     <use xlink:href="#FiraSans-Medium-31"/>
     <use x="44.999985" xlink:href="#FiraSans-Medium-2e"/>
     <use x="68.999969" xlink:href="#FiraSans-Medium-30"/>
     <use x="126.299957" xlink:href="#FiraSans-Medium-20"/>
     <use x="151.299942" xlink:href="#FiraSans-Medium-28"/>
     <use x="183.699936" xlink:href="#FiraSans-Medium-31"/>
     <use x="228.699921" xlink:href="#FiraSans-Medium-32"/>
     <use x="279.399918" xlink:href="#FiraSans-Medium-2e"/>
     <use x="303.399902" xlink:href="#FiraSans-Medium-35"/>
     <use x="355.399887" xlink:href="#FiraSans-Medium-25"/>
     <use x="439.799881" xlink:href="#FiraSans-Medium-29"/>
    </g>
   </g>
   <g id="text_20">
    <!-- 0.0 (0.0%) -->
    <g style="fill:#262626;" transform="translate(196.253693 121.803625)scale(0.14 -0.14)">
     <use xlink:href="#FiraSans-Medium-30"/>
     <use x="57.299988" xlink:href="#FiraSans-Medium-2e"/>
     <use x="81.299973" xlink:href="#FiraSans-Medium-30"/>
     <use x="138.59996" xlink:href="#FiraSans-Medium-20"/>
     <use x="163.599945" xlink:href="#FiraSans-Medium-28"/>
     <use x="195.999939" xlink:href="#FiraSans-Medium-30"/>
     <use x="253.299927" xlink:href="#FiraSans-Medium-2e"/>
     <use x="277.299911" xlink:href="#FiraSans-Medium-30"/>
     <use x="334.599899" xlink:href="#FiraSans-Medium-25"/>
     <use x="418.999893" xlink:href="#FiraSans-Medium-29"/>
    </g>
   </g>
   <g id="text_21">
    <!-- Q14. Are you interested in adopting Open Source software, hardware and -->
    <defs>
     <path d="M 48.703125 4.203125 
Q 54.796875 4.203125 59.5 2.59375 
Q 64.203125 1 68.40625 -2 
L 60.203125 -12.703125 
Q 54.40625 -6.796875 48.65625 -4 
Q 42.90625 -1.203125 33.90625 -1.203125 
Q 25 -1.203125 18.296875 2.9375 
Q 11.59375 7.09375 7.9375 15.09375 
Q 4.296875 23.09375 4.296875 34.5 
Q 4.296875 45.703125 8 53.84375 
Q 11.703125 62 18.546875 66.296875 
Q 25.40625 70.59375 34.59375 70.59375 
Q 43.90625 70.59375 50.703125 66.390625 
Q 57.5 62.203125 61.140625 54.09375 
Q 64.796875 46 64.796875 34.59375 
Q 64.796875 22.703125 60.546875 15.453125 
Q 56.296875 8.203125 48.703125 4.203125 
z
M 18.203125 34.5 
Q 18.203125 8.59375 34.59375 8.59375 
Q 42.59375 8.59375 46.75 14.796875 
Q 50.90625 21 50.90625 34.59375 
Q 50.90625 48.09375 46.75 54.296875 
Q 42.59375 60.5 34.59375 60.5 
Q 26.59375 60.5 22.390625 54.25 
Q 18.203125 48 18.203125 34.5 
z
" id="FiraSans-Medium-51"/>
     <path d="M 52.5 25.203125 
L 52.5 15.40625 
L 44.40625 15.40625 
L 44.40625 0 
L 31.90625 0 
L 31.90625 15.40625 
L 3.296875 15.40625 
L 3.296875 24.203125 
L 22.90625 68.59375 
L 33.796875 64.5 
L 16.59375 25.203125 
L 32 25.203125 
L 33.296875 42.09375 
L 44.40625 42.09375 
L 44.40625 25.203125 
z
" id="FiraSans-Medium-34"/>
     <path d="M 44.703125 0 
L 40.40625 16 
L 17.5 16 
L 13.203125 0 
L -0.5 0 
L 21 69.09375 
L 37.296875 69.09375 
L 58.703125 0 
z
M 20.09375 26 
L 37.703125 26 
L 28.90625 59 
z
" id="FiraSans-Medium-41"/>
     <path d="M 33.796875 54.296875 
Q 36.703125 54.296875 39.09375 53.59375 
L 36.90625 41.203125 
Q 34.5 41.796875 32.203125 41.796875 
Q 27.5 41.796875 24.796875 38.4375 
Q 22.09375 35.09375 20.5 28.203125 
L 20.5 0 
L 7.703125 0 
L 7.703125 52.90625 
L 18.796875 52.90625 
L 20 42.5 
Q 21.90625 48.203125 25.5 51.25 
Q 29.09375 54.296875 33.796875 54.296875 
z
" id="FiraSans-Medium-72"/>
     <path d="M 51.09375 27.703125 
Q 51.09375 26.703125 50.796875 22.5 
L 17.59375 22.5 
Q 18.203125 14.796875 21.59375 11.5 
Q 25 8.203125 30.59375 8.203125 
Q 34.09375 8.203125 37.1875 9.34375 
Q 40.296875 10.5 43.796875 12.90625 
L 49.09375 5.59375 
Q 40.296875 -1.5 29.5 -1.5 
Q 17.40625 -1.5 10.84375 5.890625 
Q 4.296875 13.296875 4.296875 26.09375 
Q 4.296875 34.203125 7.09375 40.640625 
Q 9.90625 47.09375 15.203125 50.75 
Q 20.5 54.40625 27.796875 54.40625 
Q 38.90625 54.40625 45 47.34375 
Q 51.09375 40.296875 51.09375 27.703125 
z
M 38.40625 31.40625 
Q 38.40625 45.296875 28.09375 45.296875 
Q 23.40625 45.296875 20.75 41.84375 
Q 18.09375 38.40625 17.59375 30.796875 
L 38.40625 30.796875 
z
" id="FiraSans-Medium-65"/>
     <path d="M 33.296875 -0.203125 
Q 30.09375 -10 23.59375 -15.453125 
Q 17.09375 -20.90625 5.796875 -21.796875 
L 4.5 -12.5 
Q 9.703125 -11.703125 12.84375 -10.25 
Q 16 -8.796875 17.890625 -6.390625 
Q 19.796875 -4 21.40625 0 
L 17 0 
L 0.203125 52.90625 
L 13.796875 52.90625 
L 25.296875 8.5 
L 37.296875 52.90625 
L 50.5 52.90625 
z
" id="FiraSans-Medium-79"/>
     <path d="M 29.296875 54.40625 
Q 41 54.40625 47.546875 46.953125 
Q 54.09375 39.5 54.09375 26.5 
Q 54.09375 18.203125 51.09375 11.84375 
Q 48.09375 5.5 42.5 2 
Q 36.90625 -1.5 29.203125 -1.5 
Q 17.5 -1.5 10.890625 5.953125 
Q 4.296875 13.40625 4.296875 26.5 
Q 4.296875 34.796875 7.296875 41.09375 
Q 10.296875 47.40625 15.9375 50.90625 
Q 21.59375 54.40625 29.296875 54.40625 
z
M 29.296875 44.703125 
Q 17.796875 44.703125 17.796875 26.5 
Q 17.796875 17.09375 20.640625 12.640625 
Q 23.5 8.203125 29.203125 8.203125 
Q 34.90625 8.203125 37.75 12.703125 
Q 40.59375 17.203125 40.59375 26.5 
Q 40.59375 35.796875 37.75 40.25 
Q 34.90625 44.703125 29.296875 44.703125 
z
" id="FiraSans-Medium-6f"/>
     <path d="M 50 0 
L 38.90625 0 
L 38.203125 7.40625 
Q 35.296875 2.90625 31.34375 0.703125 
Q 27.40625 -1.5 22 -1.5 
Q 14.90625 -1.5 11.046875 2.84375 
Q 7.203125 7.203125 7.203125 14.90625 
L 7.203125 52.90625 
L 20 52.90625 
L 20 16.5 
Q 20 12 21.546875 10.09375 
Q 23.09375 8.203125 26.5 8.203125 
Q 32.59375 8.203125 37.203125 15.703125 
L 37.203125 52.90625 
L 50 52.90625 
z
" id="FiraSans-Medium-75"/>
     <path d="M 20.5 52.90625 
L 20.5 0 
L 7.703125 0 
L 7.703125 52.90625 
z
M 14 79.703125 
Q 17.59375 79.703125 19.84375 77.453125 
Q 22.09375 75.203125 22.09375 71.90625 
Q 22.09375 68.59375 19.84375 66.390625 
Q 17.59375 64.203125 14 64.203125 
Q 10.5 64.203125 8.25 66.390625 
Q 6 68.59375 6 71.90625 
Q 6 75.203125 8.25 77.453125 
Q 10.5 79.703125 14 79.703125 
z
" id="FiraSans-Medium-69"/>
     <path d="M 35.90625 54.40625 
Q 43 54.40625 46.953125 50.15625 
Q 50.90625 45.90625 50.90625 38.296875 
L 50.90625 0 
L 38.09375 0 
L 38.09375 36.296875 
Q 38.09375 41 36.4375 42.890625 
Q 34.796875 44.796875 31.59375 44.796875 
Q 28.296875 44.796875 25.640625 42.75 
Q 23 40.703125 20.5 36.796875 
L 20.5 0 
L 7.703125 0 
L 7.703125 52.90625 
L 18.796875 52.90625 
L 19.796875 46 
Q 26.296875 54.40625 35.90625 54.40625 
z
" id="FiraSans-Medium-6e"/>
     <path d="M 38 2.5 
Q 35.203125 0.5 31.75 -0.5 
Q 28.296875 -1.5 24.703125 -1.5 
Q 16.90625 -1.40625 12.84375 2.9375 
Q 8.796875 7.296875 8.796875 15.796875 
L 8.796875 43.703125 
L 0.5 43.703125 
L 0.5 52.90625 
L 8.796875 52.90625 
L 8.796875 64.59375 
L 21.59375 66.09375 
L 21.59375 52.90625 
L 33.90625 52.90625 
L 32.59375 43.703125 
L 21.59375 43.703125 
L 21.59375 16.09375 
Q 21.59375 12.203125 22.9375 10.5 
Q 24.296875 8.796875 27.203125 8.796875 
Q 30.09375 8.796875 33.5 10.703125 
z
" id="FiraSans-Medium-74"/>
     <path d="M 24.40625 54.40625 
Q 35.09375 54.40625 43.203125 48.09375 
L 38.203125 40.59375 
Q 31.40625 44.90625 24.90625 44.90625 
Q 21.09375 44.90625 19 43.453125 
Q 16.90625 42 16.90625 39.59375 
Q 16.90625 37.796875 17.796875 36.59375 
Q 18.703125 35.40625 21.046875 34.34375 
Q 23.40625 33.296875 28 32 
Q 36.59375 29.703125 40.75 25.890625 
Q 44.90625 22.09375 44.90625 15.296875 
Q 44.90625 7.40625 38.5 2.953125 
Q 32.09375 -1.5 22.59375 -1.5 
Q 16.09375 -1.5 10.75 0.5 
Q 5.40625 2.5 1.5 6 
L 7.90625 13.203125 
Q 14.796875 8 22.296875 8 
Q 26.59375 8 29.140625 9.703125 
Q 31.703125 11.40625 31.703125 14.40625 
Q 31.703125 16.703125 30.75 18.046875 
Q 29.796875 19.40625 27.34375 20.453125 
Q 24.90625 21.5 19.703125 23 
Q 11.59375 25.203125 7.796875 29.140625 
Q 4 33.09375 4 39 
Q 4 43.40625 6.546875 46.90625 
Q 9.09375 50.40625 13.75 52.40625 
Q 18.40625 54.40625 24.40625 54.40625 
z
" id="FiraSans-Medium-73"/>
     <path d="M 52.203125 74.09375 
L 52.203125 0 
L 40.90625 0 
L 40 6.703125 
Q 37.5 2.90625 33.640625 0.703125 
Q 29.796875 -1.5 24.90625 -1.5 
Q 15.203125 -1.5 10 6 
Q 4.796875 13.5 4.796875 26.40625 
Q 4.796875 34.5 7.390625 40.84375 
Q 10 47.203125 14.84375 50.796875 
Q 19.703125 54.40625 26.09375 54.40625 
Q 33.703125 54.40625 39.40625 48.703125 
L 39.40625 75.5 
z
M 28.5 8.203125 
Q 31.90625 8.203125 34.5 9.84375 
Q 37.09375 11.5 39.40625 15 
L 39.40625 39.203125 
Q 37.09375 42 34.75 43.390625 
Q 32.40625 44.796875 29.296875 44.796875 
Q 24.203125 44.796875 21.25 40.25 
Q 18.296875 35.703125 18.296875 26.5 
Q 18.296875 16.703125 20.890625 12.453125 
Q 23.5 8.203125 28.5 8.203125 
z
" id="FiraSans-Medium-64"/>
     <path d="M 46.796875 14 
Q 46.796875 10.90625 47.75 9.453125 
Q 48.703125 8 50.796875 7.203125 
L 48.09375 -1.296875 
Q 43.59375 -0.90625 40.75 0.890625 
Q 37.90625 2.703125 36.40625 6.40625 
Q 33.703125 2.40625 29.640625 0.453125 
Q 25.59375 -1.5 20.59375 -1.5 
Q 12.703125 -1.5 8.09375 3 
Q 3.5 7.5 3.5 14.796875 
Q 3.5 23.40625 9.75 27.953125 
Q 16 32.5 27.59375 32.5 
L 34.203125 32.5 
L 34.203125 35.5 
Q 34.203125 40.59375 31.84375 42.640625 
Q 29.5 44.703125 24.296875 44.703125 
Q 18.5 44.703125 10.296875 41.90625 
L 7.296875 50.59375 
Q 17.203125 54.40625 26.5 54.40625 
Q 46.796875 54.40625 46.796875 36.203125 
L 46.796875 14 
z
M 24 7.796875 
Q 30.5 7.796875 34.203125 14.296875 
L 34.203125 25 
L 28.90625 25 
Q 16.5 25 16.5 15.796875 
Q 16.5 12 18.390625 9.890625 
Q 20.296875 7.796875 24 7.796875 
z
" id="FiraSans-Medium-61"/>
     <path d="M 35.09375 54.40625 
Q 45.09375 54.40625 49.890625 47.09375 
Q 54.703125 39.796875 54.703125 26.59375 
Q 54.703125 18.40625 52.25 12.046875 
Q 49.796875 5.703125 45.046875 2.09375 
Q 40.296875 -1.5 33.796875 -1.5 
Q 25.40625 -1.5 20.5 4.296875 
L 20.5 -20.40625 
L 7.703125 -21.796875 
L 7.703125 52.90625 
L 18.90625 52.90625 
L 19.59375 46.40625 
Q 22.703125 50.40625 26.703125 52.40625 
Q 30.703125 54.40625 35.09375 54.40625 
z
M 30.203125 8.296875 
Q 41.296875 8.296875 41.296875 26.5 
Q 41.296875 36.203125 38.796875 40.5 
Q 36.296875 44.796875 31.296875 44.796875 
Q 28.09375 44.796875 25.296875 42.84375 
Q 22.5 40.90625 20.5 37.59375 
L 20.5 13.796875 
Q 24.203125 8.296875 30.203125 8.296875 
z
" id="FiraSans-Medium-70"/>
     <path d="M 53.703125 50.09375 
Q 48.59375 48.296875 38.40625 48.296875 
Q 43.296875 46.09375 45.640625 42.84375 
Q 48 39.59375 48 34.703125 
Q 48 29.5 45.453125 25.5 
Q 42.90625 21.5 38.046875 19.203125 
Q 33.203125 16.90625 26.703125 16.90625 
Q 23.09375 16.90625 20.40625 17.703125 
Q 18.203125 16.203125 18.203125 13.796875 
Q 18.203125 10.09375 24.59375 10.09375 
L 32.703125 10.09375 
Q 38.5 10.09375 42.84375 8.1875 
Q 47.203125 6.296875 49.59375 2.84375 
Q 52 -0.59375 52 -4.90625 
Q 52 -12.90625 45.203125 -17.34375 
Q 38.40625 -21.796875 25.59375 -21.796875 
Q 16.40625 -21.796875 11.15625 -19.890625 
Q 5.90625 -18 3.703125 -14.390625 
Q 1.5 -10.796875 1.5 -5.203125 
L 13 -5.203125 
Q 13 -8 14.046875 -9.59375 
Q 15.09375 -11.203125 17.84375 -12 
Q 20.59375 -12.796875 25.796875 -12.796875 
Q 33.09375 -12.796875 36.09375 -11 
Q 39.09375 -9.203125 39.09375 -5.796875 
Q 39.09375 -2.796875 36.796875 -1.140625 
Q 34.5 0.5 30.09375 0.5 
L 22.09375 0.5 
Q 14.59375 0.5 10.796875 3.390625 
Q 7 6.296875 7 10.703125 
Q 7 13.5 8.640625 16.09375 
Q 10.296875 18.703125 13.203125 20.5 
Q 8.40625 23 6.15625 26.640625 
Q 3.90625 30.296875 3.90625 35.40625 
Q 3.90625 41.09375 6.703125 45.390625 
Q 9.5 49.703125 14.453125 52.046875 
Q 19.40625 54.40625 25.796875 54.40625 
Q 34.203125 54.203125 39.34375 55.640625 
Q 44.5 57.09375 50.5 60.296875 
z
M 26 45.703125 
Q 21.703125 45.703125 19.25 42.953125 
Q 16.796875 40.203125 16.796875 35.59375 
Q 16.796875 30.796875 19.296875 28 
Q 21.796875 25.203125 26.203125 25.203125 
Q 30.796875 25.203125 33.1875 27.953125 
Q 35.59375 30.703125 35.59375 35.703125 
Q 35.59375 45.703125 26 45.703125 
z
" id="FiraSans-Medium-67"/>
     <path d="M 34.59375 70.59375 
Q 43.90625 70.59375 50.703125 66.390625 
Q 57.5 62.203125 61.140625 54.09375 
Q 64.796875 46 64.796875 34.59375 
Q 64.796875 23.296875 61.09375 15.1875 
Q 57.40625 7.09375 50.59375 2.796875 
Q 43.796875 -1.5 34.59375 -1.5 
Q 25.296875 -1.5 18.5 2.703125 
Q 11.703125 6.90625 8 15 
Q 4.296875 23.09375 4.296875 34.5 
Q 4.296875 45.703125 8 53.84375 
Q 11.703125 62 18.546875 66.296875 
Q 25.40625 70.59375 34.59375 70.59375 
z
M 34.59375 60.5 
Q 26.59375 60.5 22.390625 54.25 
Q 18.203125 48 18.203125 34.5 
Q 18.203125 8.59375 34.59375 8.59375 
Q 42.59375 8.59375 46.75 14.796875 
Q 50.90625 21 50.90625 34.59375 
Q 50.90625 48.09375 46.75 54.296875 
Q 42.59375 60.5 34.59375 60.5 
z
" id="FiraSans-Medium-4f"/>
     <path d="M 28 70.59375 
Q 35.296875 70.59375 40.6875 68.5 
Q 46.09375 66.40625 50.796875 62.09375 
L 44.296875 54.59375 
Q 40.59375 57.703125 36.84375 59.09375 
Q 33.09375 60.5 28.796875 60.5 
Q 24 60.5 21.046875 58.34375 
Q 18.09375 56.203125 18.09375 52.296875 
Q 18.09375 49.703125 19.25 48 
Q 20.40625 46.296875 23.40625 44.796875 
Q 26.40625 43.296875 32.296875 41.5 
Q 42.5 38.296875 47.640625 33.546875 
Q 52.796875 28.796875 52.796875 19.703125 
Q 52.796875 13.5 49.640625 8.703125 
Q 46.5 3.90625 40.59375 1.203125 
Q 34.703125 -1.5 26.59375 -1.5 
Q 18.703125 -1.5 12.453125 1.046875 
Q 6.203125 3.59375 1.703125 8 
L 8.5 15.59375 
Q 12.5 12.203125 16.796875 10.453125 
Q 21.09375 8.703125 26.296875 8.703125 
Q 32 8.703125 35.5 11.390625 
Q 39 14.09375 39 19 
Q 39 22 37.796875 23.953125 
Q 36.59375 25.90625 33.6875 27.453125 
Q 30.796875 29 25.296875 30.703125 
Q 14.296875 34.09375 9.390625 38.890625 
Q 4.5 43.703125 4.5 51.5 
Q 4.5 57.203125 7.5 61.5 
Q 10.5 65.796875 15.84375 68.1875 
Q 21.203125 70.59375 28 70.59375 
z
" id="FiraSans-Medium-53"/>
     <path d="M 29 54.40625 
Q 34.203125 54.40625 38.34375 52.90625 
Q 42.5 51.40625 46.203125 48.203125 
L 40.5 40.5 
Q 37.796875 42.5 35.296875 43.390625 
Q 32.796875 44.296875 29.796875 44.296875 
Q 17.90625 44.296875 17.90625 26.203125 
Q 17.90625 17 21 12.953125 
Q 24.09375 8.90625 29.796875 8.90625 
Q 32.59375 8.90625 34.9375 9.796875 
Q 37.296875 10.703125 40.5 12.703125 
L 46.203125 4.59375 
Q 38.703125 -1.5 29.09375 -1.5 
Q 21.5 -1.5 15.890625 1.84375 
Q 10.296875 5.203125 7.296875 11.390625 
Q 4.296875 17.59375 4.296875 26 
Q 4.296875 34.40625 7.296875 40.84375 
Q 10.296875 47.296875 15.890625 50.84375 
Q 21.5 54.40625 29 54.40625 
z
" id="FiraSans-Medium-63"/>
     <path d="M 29.09375 65.796875 
Q 25.296875 65.796875 23.640625 64.046875 
Q 22 62.296875 22 58.5 
L 22 52.90625 
L 34.703125 52.90625 
L 33.296875 43.703125 
L 22 43.703125 
L 22 0 
L 9.203125 0 
L 9.203125 43.703125 
L 0.59375 43.703125 
L 0.59375 52.90625 
L 9.203125 52.90625 
L 9.203125 58.703125 
Q 9.203125 66.203125 14.046875 70.84375 
Q 18.90625 75.5 27.796875 75.5 
Q 34.796875 75.5 41.5 72.40625 
L 37.796875 63.796875 
Q 33.5 65.796875 29.09375 65.796875 
z
" id="FiraSans-Medium-66"/>
     <path d="M 72.296875 52.90625 
L 60.796875 0 
L 44.796875 0 
L 36.796875 41.5 
L 28.59375 0 
L 12.90625 0 
L 1.203125 52.90625 
L 14 52.90625 
L 21.40625 9.40625 
L 30.59375 52.90625 
L 43.703125 52.90625 
L 52.09375 9.40625 
L 60 52.90625 
z
" id="FiraSans-Medium-77"/>
     <path d="M 11.90625 14.703125 
Q 15.40625 14.703125 17.75 12.390625 
Q 20.09375 10.09375 20.09375 6.59375 
Q 20.09375 4.703125 19.5 2.703125 
Q 18.90625 0.703125 17.5 -2.40625 
L 11 -17.203125 
L 3.203125 -17.203125 
L 7.296875 0 
Q 3.90625 2.296875 3.90625 6.703125 
Q 3.90625 10.09375 6.203125 12.390625 
Q 8.5 14.703125 11.90625 14.703125 
z
" id="FiraSans-Medium-2c"/>
     <path d="M 35.90625 54.40625 
Q 42.90625 54.40625 46.90625 50.09375 
Q 50.90625 45.796875 50.90625 38.296875 
L 50.90625 0 
L 38.09375 0 
L 38.09375 36.296875 
Q 38.09375 41 36.4375 42.890625 
Q 34.796875 44.796875 31.59375 44.796875 
Q 28.40625 44.796875 25.703125 42.75 
Q 23 40.703125 20.5 36.90625 
L 20.5 0 
L 7.703125 0 
L 7.703125 74 
L 20.5 75.296875 
L 20.5 46.59375 
Q 26.90625 54.40625 35.90625 54.40625 
z
" id="FiraSans-Medium-68"/>
    </defs>
    <g style="fill:#262626;" transform="translate(238.281094 24.734687)scale(0.22 -0.22)">
     <use xlink:href="#FiraSans-Medium-51"/>
     <use x="69.099991" xlink:href="#FiraSans-Medium-31"/>
     <use x="114.099976" xlink:href="#FiraSans-Medium-34"/>
     <use x="169.09996" xlink:href="#FiraSans-Medium-2e"/>
     <use x="193.099945" xlink:href="#FiraSans-Medium-20"/>
     <use x="218.09993" xlink:href="#FiraSans-Medium-41"/>
     <use x="276.399918" xlink:href="#FiraSans-Medium-72"/>
     <use x="315.799911" xlink:href="#FiraSans-Medium-65"/>
     <use x="370.699905" xlink:href="#FiraSans-Medium-20"/>
     <use x="395.69989" xlink:href="#FiraSans-Medium-79"/>
     <use x="446.299881" xlink:href="#FiraSans-Medium-6f"/>
     <use x="504.699875" xlink:href="#FiraSans-Medium-75"/>
     <use x="562.399872" xlink:href="#FiraSans-Medium-20"/>
     <use x="587.399857" xlink:href="#FiraSans-Medium-69"/>
     <use x="615.599854" xlink:href="#FiraSans-Medium-6e"/>
     <use x="673.699844" xlink:href="#FiraSans-Medium-74"/>
     <use x="711.199829" xlink:href="#FiraSans-Medium-65"/>
     <use x="766.099823" xlink:href="#FiraSans-Medium-72"/>
     <use x="805.499817" xlink:href="#FiraSans-Medium-65"/>
     <use x="860.399811" xlink:href="#FiraSans-Medium-73"/>
     <use x="907.999802" xlink:href="#FiraSans-Medium-74"/>
     <use x="945.499786" xlink:href="#FiraSans-Medium-65"/>
     <use x="1000.39978" xlink:href="#FiraSans-Medium-64"/>
     <use x="1060.299774" xlink:href="#FiraSans-Medium-20"/>
     <use x="1085.299759" xlink:href="#FiraSans-Medium-69"/>
     <use x="1113.499756" xlink:href="#FiraSans-Medium-6e"/>
     <use x="1171.599747" xlink:href="#FiraSans-Medium-20"/>
     <use x="1196.599731" xlink:href="#FiraSans-Medium-61"/>
     <use x="1251.199722" xlink:href="#FiraSans-Medium-64"/>
     <use x="1311.099716" xlink:href="#FiraSans-Medium-6f"/>
     <use x="1369.49971" xlink:href="#FiraSans-Medium-70"/>
     <use x="1429.099701" xlink:href="#FiraSans-Medium-74"/>
     <use x="1466.599686" xlink:href="#FiraSans-Medium-69"/>
     <use x="1494.799683" xlink:href="#FiraSans-Medium-6e"/>
     <use x="1552.899673" xlink:href="#FiraSans-Medium-67"/>
     <use x="1606.59967" xlink:href="#FiraSans-Medium-20"/>
     <use x="1631.599655" xlink:href="#FiraSans-Medium-4f"/>
     <use x="1700.699646" xlink:href="#FiraSans-Medium-70"/>
     <use x="1760.299637" xlink:href="#FiraSans-Medium-65"/>
     <use x="1815.199631" xlink:href="#FiraSans-Medium-6e"/>
     <use x="1873.299622" xlink:href="#FiraSans-Medium-20"/>
     <use x="1898.299606" xlink:href="#FiraSans-Medium-53"/>
     <use x="1954.299591" xlink:href="#FiraSans-Medium-6f"/>
     <use x="2012.699585" xlink:href="#FiraSans-Medium-75"/>
     <use x="2070.399582" xlink:href="#FiraSans-Medium-72"/>
     <use x="2109.799576" xlink:href="#FiraSans-Medium-63"/>
     <use x="2157.599564" xlink:href="#FiraSans-Medium-65"/>
     <use x="2212.499557" xlink:href="#FiraSans-Medium-20"/>
     <use x="2237.499542" xlink:href="#FiraSans-Medium-73"/>
     <use x="2285.099533" xlink:href="#FiraSans-Medium-6f"/>
     <use x="2343.499527" xlink:href="#FiraSans-Medium-66"/>
     <use x="2378.199524" xlink:href="#FiraSans-Medium-74"/>
     <use x="2415.699509" xlink:href="#FiraSans-Medium-77"/>
     <use x="2489.099503" xlink:href="#FiraSans-Medium-61"/>
     <use x="2543.699493" xlink:href="#FiraSans-Medium-72"/>
     <use x="2583.099487" xlink:href="#FiraSans-Medium-65"/>
     <use x="2637.999481" xlink:href="#FiraSans-Medium-2c"/>
     <use x="2661.999466" xlink:href="#FiraSans-Medium-20"/>
     <use x="2686.999451" xlink:href="#FiraSans-Medium-68"/>
     <use x="2745.099442" xlink:href="#FiraSans-Medium-61"/>
     <use x="2799.699432" xlink:href="#FiraSans-Medium-72"/>
     <use x="2839.099426" xlink:href="#FiraSans-Medium-64"/>
     <use x="2898.99942" xlink:href="#FiraSans-Medium-77"/>
     <use x="2972.399414" xlink:href="#FiraSans-Medium-61"/>
     <use x="3026.999405" xlink:href="#FiraSans-Medium-72"/>
     <use x="3066.399399" xlink:href="#FiraSans-Medium-65"/>
     <use x="3121.299393" xlink:href="#FiraSans-Medium-20"/>
     <use x="3146.299377" xlink:href="#FiraSans-Medium-61"/>
     <use x="3200.899368" xlink:href="#FiraSans-Medium-6e"/>
     <use x="3258.999359" xlink:href="#FiraSans-Medium-64"/>
    </g>
    <!-- design for your future projects? -->
    <defs>
     <path d="M 20.40625 4.703125 
Q 20.40625 -3.09375 18.15625 -8.046875 
Q 15.90625 -13 11.796875 -16 
Q 7.703125 -19 1.09375 -21.703125 
L -3 -12.40625 
Q 0.90625 -10.59375 3.09375 -8.84375 
Q 5.296875 -7.09375 6.4375 -4.09375 
Q 7.59375 -1.09375 7.59375 3.90625 
L 7.59375 52.90625 
L 20.40625 52.90625 
z
M 13.90625 79.703125 
Q 17.5 79.703125 19.75 77.453125 
Q 22 75.203125 22 71.90625 
Q 22 68.59375 19.75 66.390625 
Q 17.5 64.203125 13.90625 64.203125 
Q 10.40625 64.203125 8.15625 66.390625 
Q 5.90625 68.59375 5.90625 71.90625 
Q 5.90625 75.203125 8.15625 77.453125 
Q 10.40625 79.703125 13.90625 79.703125 
z
" id="FiraSans-Medium-6a"/>
     <path d="M 24.296875 70.59375 
Q 30.90625 70.59375 35.546875 68.390625 
Q 40.203125 66.203125 42.59375 62.5 
Q 45 58.796875 45 54.40625 
Q 45 50.40625 43.59375 47.546875 
Q 42.203125 44.703125 40.203125 42.890625 
Q 38.203125 41.09375 35 38.90625 
Q 30.90625 36.203125 28.90625 33.890625 
Q 26.90625 31.59375 26.90625 27.796875 
L 26.90625 24.40625 
L 15 24.40625 
L 15 28.296875 
Q 15 32.796875 16.453125 35.9375 
Q 17.90625 39.09375 19.90625 40.9375 
Q 21.90625 42.796875 25.09375 45 
Q 28.5 47.296875 30.046875 49 
Q 31.59375 50.703125 31.59375 53.40625 
Q 31.59375 56.703125 29.34375 58.546875 
Q 27.09375 60.40625 23.203125 60.40625 
Q 16.09375 60.40625 10.5 53.796875 
L 2.203125 60.296875 
Q 10.90625 70.59375 24.296875 70.59375 
z
M 21.09375 14.703125 
Q 24.5 14.703125 26.890625 12.34375 
Q 29.296875 10 29.296875 6.59375 
Q 29.296875 3.296875 26.890625 0.890625 
Q 24.5 -1.5 21.09375 -1.5 
Q 17.796875 -1.5 15.4375 0.890625 
Q 13.09375 3.296875 13.09375 6.59375 
Q 13.09375 10 15.390625 12.34375 
Q 17.703125 14.703125 21.09375 14.703125 
z
" id="FiraSans-Medium-3f"/>
    </defs>
    <g style="fill:#262626;" transform="translate(444.598125 50.571625)scale(0.22 -0.22)">
     <use xlink:href="#FiraSans-Medium-64"/>
     <use x="59.899994" xlink:href="#FiraSans-Medium-65"/>
     <use x="114.799988" xlink:href="#FiraSans-Medium-73"/>
     <use x="162.399979" xlink:href="#FiraSans-Medium-69"/>
     <use x="190.599976" xlink:href="#FiraSans-Medium-67"/>
     <use x="244.299973" xlink:href="#FiraSans-Medium-6e"/>
     <use x="302.399963" xlink:href="#FiraSans-Medium-20"/>
     <use x="327.399948" xlink:href="#FiraSans-Medium-66"/>
     <use x="362.099945" xlink:href="#FiraSans-Medium-6f"/>
     <use x="420.499939" xlink:href="#FiraSans-Medium-72"/>
     <use x="459.899933" xlink:href="#FiraSans-Medium-20"/>
     <use x="484.899918" xlink:href="#FiraSans-Medium-79"/>
     <use x="535.499908" xlink:href="#FiraSans-Medium-6f"/>
     <use x="593.899902" xlink:href="#FiraSans-Medium-75"/>
     <use x="651.599899" xlink:href="#FiraSans-Medium-72"/>
     <use x="690.999893" xlink:href="#FiraSans-Medium-20"/>
     <use x="715.999878" xlink:href="#FiraSans-Medium-66"/>
     <use x="750.699875" xlink:href="#FiraSans-Medium-75"/>
     <use x="808.399872" xlink:href="#FiraSans-Medium-74"/>
     <use x="845.899857" xlink:href="#FiraSans-Medium-75"/>
     <use x="903.599854" xlink:href="#FiraSans-Medium-72"/>
     <use x="942.999847" xlink:href="#FiraSans-Medium-65"/>
     <use x="997.899841" xlink:href="#FiraSans-Medium-20"/>
     <use x="1022.899826" xlink:href="#FiraSans-Medium-70"/>
     <use x="1082.499817" xlink:href="#FiraSans-Medium-72"/>
     <use x="1121.899811" xlink:href="#FiraSans-Medium-6f"/>
     <use x="1180.299805" xlink:href="#FiraSans-Medium-6a"/>
     <use x="1208.399796" xlink:href="#FiraSans-Medium-65"/>
     <use x="1263.299789" xlink:href="#FiraSans-Medium-63"/>
     <use x="1311.099777" xlink:href="#FiraSans-Medium-74"/>
     <use x="1348.599762" xlink:href="#FiraSans-Medium-73"/>
     <use x="1396.199753" xlink:href="#FiraSans-Medium-3f"/>
    </g>
   </g>
  </g>
 </g>
 <defs>
  <clipPath id="p4418531a1c">
   <rect height="543.6" width="837" x="184.865938" y="67.443625"/>
  </clipPath>
 </defs>
</svg>
