<?xml version="1.0" encoding="utf-8" standalone="no"?>
<!DOCTYPE svg PUBLIC "-//W3C//DTD SVG 1.1//EN"
  "http://www.w3.org/Graphics/SVG/1.1/DTD/svg11.dtd">
<!-- Created with matplotlib (http://matplotlib.org/) -->
<svg height="633pt" version="1.1" viewBox="0 0 1102 633" width="1102pt" xmlns="http://www.w3.org/2000/svg" xmlns:xlink="http://www.w3.org/1999/xlink">
 <defs>
  <style type="text/css">
*{stroke-linecap:butt;stroke-linejoin:round;}
  </style>
 </defs>
 <g id="figure_1">
  <g id="patch_1">
   <path d="M 0 633.59575 
L 1102.634675 633.59575 
L 1102.634675 0 
L 0 0 
z
" style="fill:#ffffff;"/>
  </g>
  <g id="axes_1">
   <g id="patch_2">
    <path d="M 231.138125 585.206687 
L 1068.138125 585.206687 
L 1068.138125 41.606687 
L 231.138125 41.606687 
z
" style="fill:#eaeaf2;"/>
   </g>
   <g id="matplotlib.axis_1">
    <g id="xtick_1">
     <g id="line2d_1">
      <path clip-path="url(#pb26bb0b023)" d="M 231.138125 585.206687 
L 231.138125 41.606687 
" style="fill:none;stroke:#ffffff;stroke-linecap:round;stroke-width:0.8;"/>
     </g>
     <g id="text_1">
      <!-- 0 -->
      <defs>
       <path d="M 27.90625 67.90625 
Q 39 67.90625 44.640625 59.046875 
Q 50.296875 50.203125 50.296875 33.40625 
Q 50.296875 16.59375 44.640625 7.6875 
Q 39 -1.203125 27.90625 -1.203125 
Q 16.796875 -1.203125 11.140625 7.6875 
Q 5.5 16.59375 5.5 33.40625 
Q 5.5 50.203125 11.140625 59.046875 
Q 16.796875 67.90625 27.90625 67.90625 
z
M 27.90625 60.59375 
Q 21.40625 60.59375 18.25 54.1875 
Q 15.09375 47.796875 15.09375 33.40625 
Q 15.09375 19 18.25 12.546875 
Q 21.40625 6.09375 27.90625 6.09375 
Q 34.296875 6.09375 37.5 12.546875 
Q 40.703125 19 40.703125 33.40625 
Q 40.703125 47.703125 37.5 54.140625 
Q 34.296875 60.59375 27.90625 60.59375 
z
" id="FiraSans-Regular-30"/>
      </defs>
      <g style="fill:#262626;" transform="translate(227.232344 604.006687)scale(0.14 -0.14)">
       <use xlink:href="#FiraSans-Regular-30"/>
      </g>
     </g>
    </g>
    <g id="xtick_2">
     <g id="line2d_2">
      <path clip-path="url(#pb26bb0b023)" d="M 345.015676 585.206687 
L 345.015676 41.606687 
" style="fill:none;stroke:#ffffff;stroke-linecap:round;stroke-width:0.8;"/>
     </g>
     <g id="text_2">
      <!-- 1 -->
      <defs>
       <path d="M 32.296875 66.90625 
L 32.296875 0 
L 23.09375 0 
L 23.09375 57.09375 
L 7.5 47.59375 
L 3.5 54.09375 
L 24.203125 66.90625 
z
" id="FiraSans-Regular-31"/>
      </defs>
      <g style="fill:#262626;" transform="translate(341.984895 604.006687)scale(0.14 -0.14)">
       <use xlink:href="#FiraSans-Regular-31"/>
      </g>
     </g>
    </g>
    <g id="xtick_3">
     <g id="line2d_3">
      <path clip-path="url(#pb26bb0b023)" d="M 458.893227 585.206687 
L 458.893227 41.606687 
" style="fill:none;stroke:#ffffff;stroke-linecap:round;stroke-width:0.8;"/>
     </g>
     <g id="text_3">
      <!-- 2 -->
      <defs>
       <path d="M 22.796875 67.90625 
Q 28.796875 67.90625 33.34375 65.5 
Q 37.90625 63.09375 40.40625 58.9375 
Q 42.90625 54.796875 42.90625 49.59375 
Q 42.90625 43.5 40.15625 37.890625 
Q 37.40625 32.296875 31.703125 25.796875 
Q 26 19.296875 14.40625 7.703125 
L 44.5 7.703125 
L 43.40625 0 
L 3.90625 0 
L 3.90625 7.296875 
Q 17.296875 21.203125 22.890625 27.640625 
Q 28.5 34.09375 30.890625 38.890625 
Q 33.296875 43.703125 33.296875 49.203125 
Q 33.296875 54.40625 30.296875 57.34375 
Q 27.296875 60.296875 22.296875 60.296875 
Q 18.203125 60.296875 15.09375 58.59375 
Q 12 56.90625 8.5 53 
L 2.5 57.796875 
Q 6.59375 62.90625 11.59375 65.40625 
Q 16.59375 67.90625 22.796875 67.90625 
z
" id="FiraSans-Regular-32"/>
      </defs>
      <g style="fill:#262626;" transform="translate(455.428227 604.006687)scale(0.14 -0.14)">
       <use xlink:href="#FiraSans-Regular-32"/>
      </g>
     </g>
    </g>
    <g id="xtick_4">
     <g id="line2d_4">
      <path clip-path="url(#pb26bb0b023)" d="M 572.770778 585.206687 
L 572.770778 41.606687 
" style="fill:none;stroke:#ffffff;stroke-linecap:round;stroke-width:0.8;"/>
     </g>
     <g id="text_4">
      <!-- 3 -->
      <defs>
       <path d="M 22.5 67.90625 
Q 28.703125 67.90625 33.140625 65.59375 
Q 37.59375 63.296875 39.9375 59.390625 
Q 42.296875 55.5 42.296875 50.90625 
Q 42.296875 44.796875 38.75 40.84375 
Q 35.203125 36.90625 29.296875 35.5 
Q 36 34.90625 40.203125 30.703125 
Q 44.40625 26.5 44.40625 19.296875 
Q 44.40625 13.5 41.59375 8.796875 
Q 38.796875 4.09375 33.59375 1.4375 
Q 28.40625 -1.203125 21.59375 -1.203125 
Q 15.5 -1.203125 10.390625 1.046875 
Q 5.296875 3.296875 1.5 7.796875 
L 7 12.90625 
Q 10.296875 9.5 13.75 7.890625 
Q 17.203125 6.296875 21.296875 6.296875 
Q 27.59375 6.296875 31.1875 9.84375 
Q 34.796875 13.40625 34.796875 19.40625 
Q 34.796875 26 31.390625 28.703125 
Q 28 31.40625 21.5 31.40625 
L 16.5 31.40625 
L 17.59375 38.5 
L 21 38.5 
Q 26.203125 38.5 29.640625 41.59375 
Q 33.09375 44.703125 33.09375 50.296875 
Q 33.09375 55 30.09375 57.75 
Q 27.09375 60.5 22 60.5 
Q 18.09375 60.5 14.84375 59.09375 
Q 11.59375 57.703125 8.203125 54.5 
L 3.40625 60 
Q 11.90625 67.90625 22.5 67.90625 
z
" id="FiraSans-Regular-33"/>
      </defs>
      <g style="fill:#262626;" transform="translate(569.277341 604.006687)scale(0.14 -0.14)">
       <use xlink:href="#FiraSans-Regular-33"/>
      </g>
     </g>
    </g>
    <g id="xtick_5">
     <g id="line2d_5">
      <path clip-path="url(#pb26bb0b023)" d="M 686.648329 585.206687 
L 686.648329 41.606687 
" style="fill:none;stroke:#ffffff;stroke-linecap:round;stroke-width:0.8;"/>
     </g>
     <g id="text_5">
      <!-- 4 -->
      <defs>
       <path d="M 50.203125 23.796875 
L 50.203125 16.5 
L 41.5 16.5 
L 41.5 0 
L 32.59375 0 
L 32.59375 16.5 
L 4 16.5 
L 4 23.09375 
L 24.09375 67.90625 
L 31.796875 64.703125 
L 13.703125 23.796875 
L 32.703125 23.796875 
L 33.5 41.796875 
L 41.5 41.796875 
L 41.5 23.796875 
z
" id="FiraSans-Regular-34"/>
      </defs>
      <g style="fill:#262626;" transform="translate(682.92411 604.006687)scale(0.14 -0.14)">
       <use xlink:href="#FiraSans-Regular-34"/>
      </g>
     </g>
    </g>
    <g id="xtick_6">
     <g id="line2d_6">
      <path clip-path="url(#pb26bb0b023)" d="M 800.52588 585.206687 
L 800.52588 41.606687 
" style="fill:none;stroke:#ffffff;stroke-linecap:round;stroke-width:0.8;"/>
     </g>
     <g id="text_6">
      <!-- 5 -->
      <defs>
       <path d="M 42 59.703125 
L 15.90625 59.703125 
L 15.90625 40 
Q 21 42.59375 26.59375 42.59375 
Q 35.203125 42.59375 40.390625 36.9375 
Q 45.59375 31.296875 45.59375 21.40625 
Q 45.59375 14.796875 42.6875 9.640625 
Q 39.796875 4.5 34.546875 1.640625 
Q 29.296875 -1.203125 22.40625 -1.203125 
Q 16.296875 -1.203125 11.5 0.9375 
Q 6.703125 3.09375 2.59375 7.296875 
L 8 12.59375 
Q 11.203125 9.40625 14.59375 7.84375 
Q 18 6.296875 22.296875 6.296875 
Q 28.703125 6.296875 32.34375 10.296875 
Q 36 14.296875 36 21.59375 
Q 36 28.90625 32.703125 32.203125 
Q 29.40625 35.5 23.796875 35.5 
Q 21.203125 35.5 19 34.953125 
Q 16.796875 34.40625 14.296875 33.203125 
L 7.09375 33.203125 
L 7.09375 66.90625 
L 43.296875 66.90625 
z
" id="FiraSans-Regular-35"/>
      </defs>
      <g style="fill:#262626;" transform="translate(797.019318 604.006687)scale(0.14 -0.14)">
       <use xlink:href="#FiraSans-Regular-35"/>
      </g>
     </g>
    </g>
    <g id="xtick_7">
     <g id="line2d_7">
      <path clip-path="url(#pb26bb0b023)" d="M 914.403431 585.206687 
L 914.403431 41.606687 
" style="fill:none;stroke:#ffffff;stroke-linecap:round;stroke-width:0.8;"/>
     </g>
     <g id="text_7">
      <!-- 6 -->
      <defs>
       <path d="M 30.796875 44 
Q 35.90625 44 40.09375 41.59375 
Q 44.296875 39.203125 46.796875 34.390625 
Q 49.296875 29.59375 49.296875 22.703125 
Q 49.296875 15.59375 46.4375 10.140625 
Q 43.59375 4.703125 38.75 1.75 
Q 33.90625 -1.203125 28 -1.203125 
Q 16.296875 -1.203125 10.890625 7.4375 
Q 5.5 16.09375 5.5 31.40625 
Q 5.5 42.296875 8.546875 50.546875 
Q 11.59375 58.796875 17.296875 63.34375 
Q 23 67.90625 30.796875 67.90625 
Q 38.40625 67.90625 44.59375 63.796875 
L 41 57.703125 
Q 36.296875 60.59375 30.703125 60.59375 
Q 23.5 60.59375 19.296875 53.6875 
Q 15.09375 46.796875 14.703125 35.203125 
Q 20.90625 44 30.796875 44 
z
M 28 6.09375 
Q 33.796875 6.09375 36.890625 10.5 
Q 40 14.90625 40 22.40625 
Q 40 36.703125 29.203125 36.703125 
Q 24.796875 36.703125 21.09375 34.25 
Q 17.40625 31.796875 14.796875 27.5 
Q 15.09375 16.5 18.25 11.296875 
Q 21.40625 6.09375 28 6.09375 
z
" id="FiraSans-Regular-36"/>
      </defs>
      <g style="fill:#262626;" transform="translate(910.67265 604.006687)scale(0.14 -0.14)">
       <use xlink:href="#FiraSans-Regular-36"/>
      </g>
     </g>
    </g>
    <g id="xtick_8">
     <g id="line2d_8">
      <path clip-path="url(#pb26bb0b023)" d="M 1028.280982 585.206687 
L 1028.280982 41.606687 
" style="fill:none;stroke:#ffffff;stroke-linecap:round;stroke-width:0.8;"/>
     </g>
     <g id="text_8">
      <!-- 7 -->
      <defs>
       <path d="M 41.40625 66.90625 
L 41.40625 60 
L 16.40625 -1 
L 8 1.796875 
L 32.09375 59.40625 
L 2.5 59.40625 
L 2.5 66.90625 
z
" id="FiraSans-Regular-37"/>
      </defs>
      <g style="fill:#262626;" transform="translate(1025.172545 604.006687)scale(0.14 -0.14)">
       <use xlink:href="#FiraSans-Regular-37"/>
      </g>
     </g>
    </g>
    <g id="text_9">
     <!-- Count -->
     <defs>
      <path d="M 34.09375 70.09375 
Q 40.296875 70.09375 44.546875 68.5 
Q 48.796875 66.90625 53.203125 63.296875 
L 48 57.203125 
Q 41.703125 62.296875 34.703125 62.296875 
Q 26.09375 62.296875 20.84375 55.6875 
Q 15.59375 49.09375 15.59375 34.5 
Q 15.59375 20.296875 20.796875 13.546875 
Q 26 6.796875 34.59375 6.796875 
Q 39 6.796875 42.296875 8.296875 
Q 45.59375 9.796875 49.296875 12.5 
L 54 6.5 
Q 50.796875 3.203125 45.796875 1 
Q 40.796875 -1.203125 34.296875 -1.203125 
Q 25.90625 -1.203125 19.34375 2.9375 
Q 12.796875 7.09375 9.140625 15.140625 
Q 5.5 23.203125 5.5 34.5 
Q 5.5 45.796875 9.296875 53.84375 
Q 13.09375 61.90625 19.59375 66 
Q 26.09375 70.09375 34.09375 70.09375 
z
" id="FiraSans-Regular-43"/>
      <path d="M 29.296875 53.90625 
Q 40.40625 53.90625 46.546875 46.5 
Q 52.703125 39.09375 52.703125 26.40625 
Q 52.703125 18.203125 49.890625 11.953125 
Q 47.09375 5.703125 41.796875 2.25 
Q 36.5 -1.203125 29.203125 -1.203125 
Q 18.09375 -1.203125 11.890625 6.1875 
Q 5.703125 13.59375 5.703125 26.296875 
Q 5.703125 34.5 8.5 40.75 
Q 11.296875 47 16.59375 50.453125 
Q 21.90625 53.90625 29.296875 53.90625 
z
M 29.296875 46.5 
Q 15.59375 46.5 15.59375 26.296875 
Q 15.59375 6.203125 29.203125 6.203125 
Q 42.796875 6.203125 42.796875 26.40625 
Q 42.796875 46.5 29.296875 46.5 
z
" id="FiraSans-Regular-6f"/>
      <path d="M 48.703125 0 
L 40.796875 0 
L 40.09375 8.203125 
Q 37.09375 3.296875 33.1875 1.046875 
Q 29.296875 -1.203125 23.703125 -1.203125 
Q 16.796875 -1.203125 12.890625 3 
Q 9 7.203125 9 14.90625 
L 9 52.703125 
L 18.203125 52.703125 
L 18.203125 15.90625 
Q 18.203125 10.5 20.09375 8.25 
Q 22 6 26.296875 6 
Q 34 6 39.5 15.09375 
L 39.5 52.703125 
L 48.703125 52.703125 
z
" id="FiraSans-Regular-75"/>
      <path d="M 34.296875 53.90625 
Q 41.5 53.90625 45.546875 49.59375 
Q 49.59375 45.296875 49.59375 37.796875 
L 49.59375 0 
L 40.40625 0 
L 40.40625 36.5 
Q 40.40625 42.09375 38.296875 44.390625 
Q 36.203125 46.703125 32.09375 46.703125 
Q 27.90625 46.703125 24.703125 44.296875 
Q 21.5 41.90625 18.703125 37.40625 
L 18.703125 0 
L 9.5 0 
L 9.5 52.703125 
L 17.40625 52.703125 
L 18.203125 44.90625 
Q 21 49.09375 25.140625 51.5 
Q 29.296875 53.90625 34.296875 53.90625 
z
" id="FiraSans-Regular-6e"/>
      <path d="M 36.09375 2.40625 
Q 30.90625 -1.203125 24.296875 -1.203125 
Q 17.59375 -1.203125 13.84375 2.640625 
Q 10.09375 6.5 10.09375 13.796875 
L 10.09375 45.59375 
L 0.90625 45.59375 
L 0.90625 52.703125 
L 10.09375 52.703125 
L 10.09375 64.59375 
L 19.296875 65.703125 
L 19.296875 52.703125 
L 31.796875 52.703125 
L 30.796875 45.59375 
L 19.296875 45.59375 
L 19.296875 14.203125 
Q 19.296875 10.09375 20.75 8.25 
Q 22.203125 6.40625 25.59375 6.40625 
Q 28.703125 6.40625 32.59375 8.5 
z
" id="FiraSans-Regular-74"/>
     </defs>
     <g style="fill:#262626;" transform="translate(628.254375 622.98825)scale(0.16 -0.16)">
      <use xlink:href="#FiraSans-Regular-43"/>
      <use x="55.999985" xlink:href="#FiraSans-Regular-6f"/>
      <use x="114.399979" xlink:href="#FiraSans-Regular-75"/>
      <use x="172.599976" xlink:href="#FiraSans-Regular-6e"/>
      <use x="231.199966" xlink:href="#FiraSans-Regular-74"/>
     </g>
    </g>
   </g>
   <g id="matplotlib.axis_2">
    <g id="ytick_1">
     <g id="line2d_9">
      <path clip-path="url(#pb26bb0b023)" d="M 231.138125 546.378116 
L 1068.138125 546.378116 
" style="fill:none;stroke:#ffffff;stroke-linecap:round;stroke-width:0.8;"/>
     </g>
     <g id="text_10">
      <!-- Software -->
      <defs>
       <path d="M 27 70.09375 
Q 33.90625 70.09375 38.796875 68.140625 
Q 43.703125 66.203125 48.296875 62.09375 
L 43.09375 56.296875 
Q 39.203125 59.40625 35.453125 60.84375 
Q 31.703125 62.296875 27.40625 62.296875 
Q 22 62.296875 18.5 59.796875 
Q 15 57.296875 15 52.5 
Q 15 49.5 16.203125 47.453125 
Q 17.40625 45.40625 20.65625 43.703125 
Q 23.90625 42 30.09375 40.09375 
Q 36.59375 38.09375 40.890625 35.796875 
Q 45.203125 33.5 47.84375 29.453125 
Q 50.5 25.40625 50.5 19.203125 
Q 50.5 13.203125 47.546875 8.59375 
Q 44.59375 4 39.046875 1.390625 
Q 33.5 -1.203125 25.90625 -1.203125 
Q 11.59375 -1.203125 2.5 7.703125 
L 7.703125 13.5 
Q 11.90625 10.09375 16.203125 8.34375 
Q 20.5 6.59375 25.796875 6.59375 
Q 32.203125 6.59375 36.390625 9.75 
Q 40.59375 12.90625 40.59375 18.90625 
Q 40.59375 22.296875 39.296875 24.546875 
Q 38 26.796875 34.84375 28.59375 
Q 31.703125 30.40625 25.703125 32.203125 
Q 15.09375 35.40625 10.1875 39.90625 
Q 5.296875 44.40625 5.296875 52.09375 
Q 5.296875 57.296875 8.046875 61.390625 
Q 10.796875 65.5 15.75 67.796875 
Q 20.703125 70.09375 27 70.09375 
z
" id="FiraSans-Regular-53"/>
       <path d="M 27.40625 67.59375 
Q 23.203125 67.59375 21.390625 65.75 
Q 19.59375 63.90625 19.59375 60 
L 19.59375 52.703125 
L 32.40625 52.703125 
L 31.40625 45.59375 
L 19.59375 45.59375 
L 19.59375 0 
L 10.40625 0 
L 10.40625 45.59375 
L 1 45.59375 
L 1 52.703125 
L 10.40625 52.703125 
L 10.40625 59.90625 
Q 10.40625 66.703125 14.75 70.84375 
Q 19.09375 75 26.90625 75 
Q 30.5 75 33.34375 74.34375 
Q 36.203125 73.703125 39.5 72.296875 
L 36.59375 65.59375 
Q 32.09375 67.59375 27.40625 67.59375 
z
" id="FiraSans-Regular-66"/>
       <path d="M 69.703125 52.703125 
L 57.703125 0 
L 45.203125 0 
L 36 44.40625 
L 26.5 0 
L 14.296875 0 
L 2 52.703125 
L 11.203125 52.703125 
L 20.703125 6.40625 
L 31.09375 52.703125 
L 41.40625 52.703125 
L 51.296875 6.40625 
L 60.90625 52.703125 
z
" id="FiraSans-Regular-77"/>
       <path d="M 45 12.296875 
Q 45 9.09375 46.09375 7.546875 
Q 47.203125 6 49.40625 5.203125 
L 47.296875 -1.203125 
Q 43.203125 -0.703125 40.703125 1.09375 
Q 38.203125 2.90625 37 6.703125 
Q 31.703125 -1.203125 21.296875 -1.203125 
Q 13.5 -1.203125 9 3.1875 
Q 4.5 7.59375 4.5 14.703125 
Q 4.5 23.09375 10.546875 27.59375 
Q 16.59375 32.09375 27.703125 32.09375 
L 35.796875 32.09375 
L 35.796875 36 
Q 35.796875 41.59375 33.09375 44 
Q 30.40625 46.40625 24.796875 46.40625 
Q 19 46.40625 10.59375 43.59375 
L 8.296875 50.296875 
Q 18.09375 53.90625 26.5 53.90625 
Q 35.796875 53.90625 40.390625 49.34375 
Q 45 44.796875 45 36.40625 
L 45 12.296875 
z
M 23.40625 5.703125 
Q 31.296875 5.703125 35.796875 13.90625 
L 35.796875 26 
L 28.90625 26 
Q 14.296875 26 14.296875 15.203125 
Q 14.296875 10.5 16.59375 8.09375 
Q 18.90625 5.703125 23.40625 5.703125 
z
" id="FiraSans-Regular-61"/>
       <path d="M 32.40625 53.90625 
Q 35.203125 53.90625 37.59375 53.296875 
L 35.90625 44.296875 
Q 33.5 44.90625 31.296875 44.90625 
Q 26.40625 44.90625 23.40625 41.296875 
Q 20.40625 37.703125 18.703125 30.09375 
L 18.703125 0 
L 9.5 0 
L 9.5 52.703125 
L 17.40625 52.703125 
L 18.296875 42 
Q 20.40625 47.90625 24 50.90625 
Q 27.59375 53.90625 32.40625 53.90625 
z
" id="FiraSans-Regular-72"/>
       <path d="M 49.296875 27.90625 
Q 49.296875 25.59375 49.09375 23.203125 
L 15.5 23.203125 
Q 16.09375 14.5 19.890625 10.390625 
Q 23.703125 6.296875 29.703125 6.296875 
Q 33.5 6.296875 36.703125 7.390625 
Q 39.90625 8.5 43.40625 10.90625 
L 47.40625 5.40625 
Q 39 -1.203125 29 -1.203125 
Q 18 -1.203125 11.84375 6 
Q 5.703125 13.203125 5.703125 25.796875 
Q 5.703125 34 8.34375 40.34375 
Q 11 46.703125 15.953125 50.296875 
Q 20.90625 53.90625 27.59375 53.90625 
Q 38.09375 53.90625 43.6875 47 
Q 49.296875 40.09375 49.296875 27.90625 
z
M 40.203125 30.59375 
Q 40.203125 38.40625 37.09375 42.5 
Q 34 46.59375 27.796875 46.59375 
Q 16.5 46.59375 15.5 30 
L 40.203125 30 
z
" id="FiraSans-Regular-65"/>
      </defs>
      <g style="fill:#262626;" transform="translate(166.599687 551.628116)scale(0.14 -0.14)">
       <use xlink:href="#FiraSans-Regular-53"/>
       <use x="54.499985" xlink:href="#FiraSans-Regular-6f"/>
       <use x="112.899979" xlink:href="#FiraSans-Regular-66"/>
       <use x="146.399963" xlink:href="#FiraSans-Regular-74"/>
       <use x="182.499954" xlink:href="#FiraSans-Regular-77"/>
       <use x="254.199936" xlink:href="#FiraSans-Regular-61"/>
       <use x="308.59993" xlink:href="#FiraSans-Regular-72"/>
       <use x="347.199921" xlink:href="#FiraSans-Regular-65"/>
      </g>
     </g>
    </g>
    <g id="ytick_2">
     <g id="line2d_10">
      <path clip-path="url(#pb26bb0b023)" d="M 231.138125 468.720973 
L 1068.138125 468.720973 
" style="fill:none;stroke:#ffffff;stroke-linecap:round;stroke-width:0.8;"/>
     </g>
     <g id="text_11">
      <!-- Hardware -->
      <defs>
       <path d="M 48.5 0 
L 48.5 32.296875 
L 19.5 32.296875 
L 19.5 0 
L 10 0 
L 10 68.90625 
L 19.5 68.90625 
L 19.5 40.09375 
L 48.5 40.09375 
L 48.5 68.90625 
L 58 68.90625 
L 58 0 
z
" id="FiraSans-Regular-48"/>
       <path d="M 50.296875 73.90625 
L 50.296875 0 
L 42.203125 0 
L 41.296875 7.296875 
Q 38.703125 3.296875 34.796875 1.046875 
Q 30.90625 -1.203125 26.09375 -1.203125 
Q 16.703125 -1.203125 11.453125 6.1875 
Q 6.203125 13.59375 6.203125 26.09375 
Q 6.203125 34.203125 8.703125 40.5 
Q 11.203125 46.796875 15.890625 50.34375 
Q 20.59375 53.90625 26.90625 53.90625 
Q 35 53.90625 41.09375 47.40625 
L 41.09375 75 
z
M 28.09375 6.09375 
Q 32.296875 6.09375 35.296875 8.046875 
Q 38.296875 10 41.09375 13.90625 
L 41.09375 39.703125 
Q 38.5 43.09375 35.546875 44.84375 
Q 32.59375 46.59375 28.90625 46.59375 
Q 22.796875 46.59375 19.4375 41.5 
Q 16.09375 36.40625 16.09375 26.296875 
Q 16.09375 16.09375 19.1875 11.09375 
Q 22.296875 6.09375 28.09375 6.09375 
z
" id="FiraSans-Regular-64"/>
      </defs>
      <g style="fill:#262626;" transform="translate(161.238125 473.970973)scale(0.14 -0.14)">
       <use xlink:href="#FiraSans-Regular-48"/>
       <use x="67.999985" xlink:href="#FiraSans-Regular-61"/>
       <use x="122.399979" xlink:href="#FiraSans-Regular-72"/>
       <use x="160.999969" xlink:href="#FiraSans-Regular-64"/>
       <use x="220.799957" xlink:href="#FiraSans-Regular-77"/>
       <use x="292.499939" xlink:href="#FiraSans-Regular-61"/>
       <use x="346.899933" xlink:href="#FiraSans-Regular-72"/>
       <use x="385.499924" xlink:href="#FiraSans-Regular-65"/>
      </g>
     </g>
    </g>
    <g id="ytick_3">
     <g id="line2d_11">
      <path clip-path="url(#pb26bb0b023)" d="M 231.138125 391.06383 
L 1068.138125 391.06383 
" style="fill:none;stroke:#ffffff;stroke-linecap:round;stroke-width:0.8;"/>
     </g>
     <g id="text_12">
      <!-- Design -->
      <defs>
       <path d="M 24.40625 68.90625 
Q 40 68.90625 49.453125 61.65625 
Q 58.90625 54.40625 58.90625 34.796875 
Q 58.90625 15.703125 49.453125 7.84375 
Q 40 0 26.5 0 
L 10 0 
L 10 68.90625 
L 24.40625 68.90625 
z
M 19.5 61.296875 
L 19.5 7.5 
L 27.203125 7.5 
Q 36.796875 7.5 42.796875 13.390625 
Q 48.796875 19.296875 48.796875 34.796875 
Q 48.796875 45.703125 45.6875 51.546875 
Q 42.59375 57.40625 37.796875 59.34375 
Q 33 61.296875 26.5 61.296875 
z
" id="FiraSans-Regular-44"/>
       <path d="M 23.796875 53.90625 
Q 29.203125 53.90625 33.5 52.40625 
Q 37.796875 50.90625 41.703125 47.90625 
L 37.796875 42.09375 
Q 34.203125 44.40625 30.953125 45.5 
Q 27.703125 46.59375 24.09375 46.59375 
Q 19.59375 46.59375 17 44.75 
Q 14.40625 42.90625 14.40625 39.703125 
Q 14.40625 36.5 16.84375 34.703125 
Q 19.296875 32.90625 25.703125 31.203125 
Q 34.5 29 38.84375 25.203125 
Q 43.203125 21.40625 43.203125 14.796875 
Q 43.203125 7 37.140625 2.890625 
Q 31.09375 -1.203125 22.40625 -1.203125 
Q 10.40625 -1.203125 2.5 5.703125 
L 7.40625 11.296875 
Q 14.09375 6.203125 22.203125 6.203125 
Q 27.40625 6.203125 30.453125 8.34375 
Q 33.5 10.5 33.5 14.203125 
Q 33.5 16.90625 32.390625 18.546875 
Q 31.296875 20.203125 28.59375 21.453125 
Q 25.90625 22.703125 20.703125 24.09375 
Q 12.296875 26.296875 8.546875 30 
Q 4.796875 33.703125 4.796875 39.40625 
Q 4.796875 43.5 7.25 46.84375 
Q 9.703125 50.203125 14.046875 52.046875 
Q 18.40625 53.90625 23.796875 53.90625 
z
" id="FiraSans-Regular-73"/>
       <path d="M 18.703125 52.703125 
L 18.703125 0 
L 9.5 0 
L 9.5 52.703125 
z
M 14 78 
Q 16.90625 78 18.703125 76.203125 
Q 20.5 74.40625 20.5 71.703125 
Q 20.5 69 18.703125 67.25 
Q 16.90625 65.5 14 65.5 
Q 11.203125 65.5 9.390625 67.25 
Q 7.59375 69 7.59375 71.703125 
Q 7.59375 74.40625 9.390625 76.203125 
Q 11.203125 78 14 78 
z
" id="FiraSans-Regular-69"/>
       <path d="M 52 50.296875 
Q 49 49.296875 45.390625 49 
Q 41.796875 48.703125 36.59375 48.703125 
Q 45.90625 44.5 45.90625 35.40625 
Q 45.90625 27.5 40.5 22.5 
Q 35.09375 17.5 25.796875 17.5 
Q 22.203125 17.5 19.09375 18.5 
Q 17.90625 17.703125 17.203125 16.34375 
Q 16.5 15 16.5 13.59375 
Q 16.5 9.296875 23.40625 9.296875 
L 31.796875 9.296875 
Q 37.09375 9.296875 41.1875 7.390625 
Q 45.296875 5.5 47.546875 2.203125 
Q 49.796875 -1.09375 49.796875 -5.296875 
Q 49.796875 -13 43.5 -17.140625 
Q 37.203125 -21.296875 25.09375 -21.296875 
Q 16.59375 -21.296875 11.640625 -19.546875 
Q 6.703125 -17.796875 4.59375 -14.296875 
Q 2.5 -10.796875 2.5 -5.296875 
L 10.796875 -5.296875 
Q 10.796875 -8.5 12 -10.34375 
Q 13.203125 -12.203125 16.296875 -13.140625 
Q 19.40625 -14.09375 25.09375 -14.09375 
Q 33.40625 -14.09375 36.953125 -12.046875 
Q 40.5 -10 40.5 -5.90625 
Q 40.5 -2.203125 37.703125 -0.296875 
Q 34.90625 1.59375 29.90625 1.59375 
L 21.59375 1.59375 
Q 14.90625 1.59375 11.453125 4.4375 
Q 8 7.296875 8 11.59375 
Q 8 14.203125 9.5 16.59375 
Q 11 19 13.796875 20.90625 
Q 9.203125 23.296875 7.046875 26.84375 
Q 4.90625 30.40625 4.90625 35.5 
Q 4.90625 40.796875 7.546875 45 
Q 10.203125 49.203125 14.84375 51.546875 
Q 19.5 53.90625 25.203125 53.90625 
Q 31.40625 53.796875 35.59375 54.34375 
Q 39.796875 54.90625 42.546875 55.84375 
Q 45.296875 56.796875 49.296875 58.59375 
z
M 25.203125 47.296875 
Q 20 47.296875 17.140625 44.046875 
Q 14.296875 40.796875 14.296875 35.5 
Q 14.296875 30.09375 17.1875 26.84375 
Q 20.09375 23.59375 25.40625 23.59375 
Q 30.796875 23.59375 33.640625 26.75 
Q 36.5 29.90625 36.5 35.59375 
Q 36.5 47.296875 25.203125 47.296875 
z
" id="FiraSans-Regular-67"/>
      </defs>
      <g style="fill:#262626;" transform="translate(180.22125 396.52383)scale(0.14 -0.14)">
       <use xlink:href="#FiraSans-Regular-44"/>
       <use x="64.399994" xlink:href="#FiraSans-Regular-65"/>
       <use x="118.899979" xlink:href="#FiraSans-Regular-73"/>
       <use x="165.599976" xlink:href="#FiraSans-Regular-69"/>
       <use x="193.799973" xlink:href="#FiraSans-Regular-67"/>
       <use x="245.799957" xlink:href="#FiraSans-Regular-6e"/>
      </g>
     </g>
    </g>
    <g id="ytick_4">
     <g id="line2d_12">
      <path clip-path="url(#pb26bb0b023)" d="M 231.138125 313.406687 
L 1068.138125 313.406687 
" style="fill:none;stroke:#ffffff;stroke-linecap:round;stroke-width:0.8;"/>
     </g>
     <g id="text_13">
      <!-- Documentation of the -->
      <defs>
       <path d="M 28.703125 53.90625 
Q 33.40625 53.90625 37.296875 52.546875 
Q 41.203125 51.203125 44.796875 48.203125 
L 40.40625 42.40625 
Q 37.59375 44.40625 34.9375 45.34375 
Q 32.296875 46.296875 29.09375 46.296875 
Q 22.703125 46.296875 19.140625 41.1875 
Q 15.59375 36.09375 15.59375 26.09375 
Q 15.59375 16.09375 19.09375 11.34375 
Q 22.59375 6.59375 29.09375 6.59375 
Q 32.203125 6.59375 34.796875 7.546875 
Q 37.40625 8.5 40.59375 10.59375 
L 44.796875 4.59375 
Q 37.59375 -1.203125 28.703125 -1.203125 
Q 18 -1.203125 11.84375 6 
Q 5.703125 13.203125 5.703125 25.90625 
Q 5.703125 34.296875 8.5 40.59375 
Q 11.296875 46.90625 16.4375 50.40625 
Q 21.59375 53.90625 28.703125 53.90625 
z
" id="FiraSans-Regular-63"/>
       <path d="M 62.40625 53.90625 
Q 68.90625 53.90625 72.796875 49.546875 
Q 76.703125 45.203125 76.703125 37.796875 
L 76.703125 0 
L 67.5 0 
L 67.5 36.5 
Q 67.5 46.703125 60.09375 46.703125 
Q 56.203125 46.703125 53.5 44.453125 
Q 50.796875 42.203125 47.703125 37.40625 
L 47.703125 0 
L 38.5 0 
L 38.5 36.5 
Q 38.5 46.703125 31.09375 46.703125 
Q 27.09375 46.703125 24.390625 44.390625 
Q 21.703125 42.09375 18.703125 37.40625 
L 18.703125 0 
L 9.5 0 
L 9.5 52.703125 
L 17.40625 52.703125 
L 18.203125 45 
Q 24.09375 53.90625 33.40625 53.90625 
Q 38.296875 53.90625 41.75 51.40625 
Q 45.203125 48.90625 46.703125 44.40625 
Q 49.796875 49 53.546875 51.453125 
Q 57.296875 53.90625 62.40625 53.90625 
z
" id="FiraSans-Regular-6d"/>
       <path id="FiraSans-Regular-20"/>
       <path d="M 34.296875 53.90625 
Q 41.5 53.90625 45.546875 49.59375 
Q 49.59375 45.296875 49.59375 37.796875 
L 49.59375 0 
L 40.40625 0 
L 40.40625 36.5 
Q 40.40625 42.09375 38.25 44.390625 
Q 36.09375 46.703125 32 46.703125 
Q 27.90625 46.703125 24.703125 44.296875 
Q 21.5 41.90625 18.703125 37.5 
L 18.703125 0 
L 9.5 0 
L 9.5 73.796875 
L 18.703125 74.796875 
L 18.703125 45.40625 
Q 24.90625 53.90625 34.296875 53.90625 
z
" id="FiraSans-Regular-68"/>
      </defs>
      <g style="fill:#262626;" transform="translate(83.748125 302.386062)scale(0.14 -0.14)">
       <use xlink:href="#FiraSans-Regular-44"/>
       <use x="64.399994" xlink:href="#FiraSans-Regular-6f"/>
       <use x="122.799988" xlink:href="#FiraSans-Regular-63"/>
       <use x="170.599976" xlink:href="#FiraSans-Regular-75"/>
       <use x="228.799973" xlink:href="#FiraSans-Regular-6d"/>
       <use x="314.499954" xlink:href="#FiraSans-Regular-65"/>
       <use x="368.999939" xlink:href="#FiraSans-Regular-6e"/>
       <use x="427.59993" xlink:href="#FiraSans-Regular-74"/>
       <use x="463.699921" xlink:href="#FiraSans-Regular-61"/>
       <use x="518.099915" xlink:href="#FiraSans-Regular-74"/>
       <use x="554.199905" xlink:href="#FiraSans-Regular-69"/>
       <use x="582.399902" xlink:href="#FiraSans-Regular-6f"/>
       <use x="640.799896" xlink:href="#FiraSans-Regular-6e"/>
       <use x="699.399887" xlink:href="#FiraSans-Regular-20"/>
       <use x="725.899872" xlink:href="#FiraSans-Regular-6f"/>
       <use x="784.299866" xlink:href="#FiraSans-Regular-66"/>
       <use x="817.79985" xlink:href="#FiraSans-Regular-20"/>
       <use x="844.299835" xlink:href="#FiraSans-Regular-74"/>
       <use x="880.399826" xlink:href="#FiraSans-Regular-68"/>
       <use x="938.999817" xlink:href="#FiraSans-Regular-65"/>
      </g>
      <!-- process/manufacturing/use of -->
      <defs>
       <path d="M 33.703125 53.90625 
Q 43.796875 53.90625 48.5 46.703125 
Q 53.203125 39.5 53.203125 26.40625 
Q 53.203125 14 47.796875 6.390625 
Q 42.40625 -1.203125 32.5 -1.203125 
Q 23.703125 -1.203125 18.703125 4.796875 
L 18.703125 -20.203125 
L 9.5 -21.296875 
L 9.5 52.703125 
L 17.40625 52.703125 
L 18.09375 45.59375 
Q 21 49.59375 25.09375 51.75 
Q 29.203125 53.90625 33.703125 53.90625 
z
M 30.296875 6.296875 
Q 43.296875 6.296875 43.296875 26.40625 
Q 43.296875 46.59375 31.40625 46.59375 
Q 27.5 46.59375 24.296875 44.296875 
Q 21.09375 42 18.703125 38.40625 
L 18.703125 12.703125 
Q 20.703125 9.59375 23.703125 7.9375 
Q 26.703125 6.296875 30.296875 6.296875 
z
" id="FiraSans-Regular-70"/>
       <path d="M 33.703125 80.703125 
L 41.5 78.90625 
L 18.40625 -10.40625 
L 10.5 -8.5 
z
" id="FiraSans-Regular-2f"/>
      </defs>
      <g style="fill:#262626;" transform="translate(27.0875 318.92575)scale(0.14 -0.14)">
       <use xlink:href="#FiraSans-Regular-70"/>
       <use x="59.399994" xlink:href="#FiraSans-Regular-72"/>
       <use x="97.999985" xlink:href="#FiraSans-Regular-6f"/>
       <use x="156.399979" xlink:href="#FiraSans-Regular-63"/>
       <use x="204.199966" xlink:href="#FiraSans-Regular-65"/>
       <use x="258.699951" xlink:href="#FiraSans-Regular-73"/>
       <use x="305.399948" xlink:href="#FiraSans-Regular-73"/>
       <use x="352.099945" xlink:href="#FiraSans-Regular-2f"/>
       <use x="404.09993" xlink:href="#FiraSans-Regular-6d"/>
       <use x="489.799911" xlink:href="#FiraSans-Regular-61"/>
       <use x="544.199905" xlink:href="#FiraSans-Regular-6e"/>
       <use x="602.799896" xlink:href="#FiraSans-Regular-75"/>
       <use x="660.999893" xlink:href="#FiraSans-Regular-66"/>
       <use x="694.499878" xlink:href="#FiraSans-Regular-61"/>
       <use x="748.899872" xlink:href="#FiraSans-Regular-63"/>
       <use x="796.69986" xlink:href="#FiraSans-Regular-74"/>
       <use x="832.79985" xlink:href="#FiraSans-Regular-75"/>
       <use x="890.999847" xlink:href="#FiraSans-Regular-72"/>
       <use x="929.599838" xlink:href="#FiraSans-Regular-69"/>
       <use x="957.799835" xlink:href="#FiraSans-Regular-6e"/>
       <use x="1016.399826" xlink:href="#FiraSans-Regular-67"/>
       <use x="1068.399811" xlink:href="#FiraSans-Regular-2f"/>
       <use x="1120.399796" xlink:href="#FiraSans-Regular-75"/>
       <use x="1178.599792" xlink:href="#FiraSans-Regular-73"/>
       <use x="1225.299789" xlink:href="#FiraSans-Regular-65"/>
       <use x="1279.799774" xlink:href="#FiraSans-Regular-20"/>
       <use x="1306.299759" xlink:href="#FiraSans-Regular-6f"/>
       <use x="1364.699753" xlink:href="#FiraSans-Regular-66"/>
      </g>
      <!-- the project -->
      <defs>
       <path d="M 18.5 3.203125 
Q 18.5 -4.09375 16.703125 -8.5 
Q 14.90625 -12.90625 11.453125 -15.65625 
Q 8 -18.40625 1.796875 -21.203125 
L -0.90625 -14.5 
Q 3 -12.703125 5.09375 -10.953125 
Q 7.203125 -9.203125 8.25 -6.046875 
Q 9.296875 -2.90625 9.296875 2.59375 
L 9.296875 52.703125 
L 18.5 52.703125 
z
M 13.90625 78 
Q 16.796875 78 18.59375 76.203125 
Q 20.40625 74.40625 20.40625 71.703125 
Q 20.40625 69 18.59375 67.25 
Q 16.796875 65.5 13.90625 65.5 
Q 11.09375 65.5 9.296875 67.25 
Q 7.5 69 7.5 71.703125 
Q 7.5 74.40625 9.296875 76.203125 
Q 11.09375 78 13.90625 78 
z
" id="FiraSans-Regular-6a"/>
      </defs>
      <g style="fill:#262626;" transform="translate(153.050312 335.011312)scale(0.14 -0.14)">
       <use xlink:href="#FiraSans-Regular-74"/>
       <use x="36.099991" xlink:href="#FiraSans-Regular-68"/>
       <use x="94.699982" xlink:href="#FiraSans-Regular-65"/>
       <use x="149.199966" xlink:href="#FiraSans-Regular-20"/>
       <use x="175.699951" xlink:href="#FiraSans-Regular-70"/>
       <use x="235.099945" xlink:href="#FiraSans-Regular-72"/>
       <use x="273.699936" xlink:href="#FiraSans-Regular-6f"/>
       <use x="332.09993" xlink:href="#FiraSans-Regular-6a"/>
       <use x="360.099915" xlink:href="#FiraSans-Regular-65"/>
       <use x="414.599899" xlink:href="#FiraSans-Regular-63"/>
       <use x="462.399887" xlink:href="#FiraSans-Regular-74"/>
      </g>
     </g>
    </g>
    <g id="ytick_5">
     <g id="line2d_13">
      <path clip-path="url(#pb26bb0b023)" d="M 231.138125 235.749545 
L 1068.138125 235.749545 
" style="fill:none;stroke:#ffffff;stroke-linecap:round;stroke-width:0.8;"/>
     </g>
     <g id="text_14">
      <!-- Use of existing open source -->
      <defs>
       <path d="M 57.203125 22.09375 
Q 57.203125 15.203125 54.34375 9.953125 
Q 51.5 4.703125 46.046875 1.75 
Q 40.59375 -1.203125 33 -1.203125 
Q 21.5 -1.203125 15.25 5.140625 
Q 9 11.5 9 22.09375 
L 9 68.90625 
L 18.5 68.90625 
L 18.5 22.796875 
Q 18.5 14.796875 22.09375 10.796875 
Q 25.703125 6.796875 33 6.796875 
Q 40.40625 6.796875 44 10.75 
Q 47.59375 14.703125 47.59375 22.796875 
L 47.59375 68.90625 
L 57.203125 68.90625 
z
" id="FiraSans-Regular-55"/>
       <path d="M 29.703125 28.203125 
L 48 0 
L 36.90625 0 
L 24 22.296875 
L 10.90625 0 
L 0.5 0 
L 18.90625 27.796875 
L 2.59375 52.703125 
L 13.40625 52.703125 
L 24.40625 33.40625 
L 35.5 52.703125 
L 45.90625 52.703125 
z
" id="FiraSans-Regular-78"/>
      </defs>
      <g style="fill:#262626;" transform="translate(47.3875 233.166763)scale(0.14 -0.14)">
       <use xlink:href="#FiraSans-Regular-55"/>
       <use x="66.199997" xlink:href="#FiraSans-Regular-73"/>
       <use x="112.899994" xlink:href="#FiraSans-Regular-65"/>
       <use x="167.399979" xlink:href="#FiraSans-Regular-20"/>
       <use x="193.899963" xlink:href="#FiraSans-Regular-6f"/>
       <use x="252.299957" xlink:href="#FiraSans-Regular-66"/>
       <use x="285.799942" xlink:href="#FiraSans-Regular-20"/>
       <use x="312.299927" xlink:href="#FiraSans-Regular-65"/>
       <use x="366.799911" xlink:href="#FiraSans-Regular-78"/>
       <use x="415.299896" xlink:href="#FiraSans-Regular-69"/>
       <use x="443.499893" xlink:href="#FiraSans-Regular-73"/>
       <use x="490.19989" xlink:href="#FiraSans-Regular-74"/>
       <use x="526.299881" xlink:href="#FiraSans-Regular-69"/>
       <use x="554.499878" xlink:href="#FiraSans-Regular-6e"/>
       <use x="613.099869" xlink:href="#FiraSans-Regular-67"/>
       <use x="665.099854" xlink:href="#FiraSans-Regular-20"/>
       <use x="691.599838" xlink:href="#FiraSans-Regular-6f"/>
       <use x="749.999832" xlink:href="#FiraSans-Regular-70"/>
       <use x="809.399826" xlink:href="#FiraSans-Regular-65"/>
       <use x="863.899811" xlink:href="#FiraSans-Regular-6e"/>
       <use x="922.499802" xlink:href="#FiraSans-Regular-20"/>
       <use x="948.999786" xlink:href="#FiraSans-Regular-73"/>
       <use x="995.699783" xlink:href="#FiraSans-Regular-6f"/>
       <use x="1054.099777" xlink:href="#FiraSans-Regular-75"/>
       <use x="1112.299774" xlink:href="#FiraSans-Regular-72"/>
       <use x="1150.899765" xlink:href="#FiraSans-Regular-63"/>
       <use x="1198.699753" xlink:href="#FiraSans-Regular-65"/>
      </g>
      <!-- software in my work -->
      <defs>
       <path d="M 30.59375 -0.296875 
Q 27.5 -9.5 21.953125 -14.84375 
Q 16.40625 -20.203125 6.09375 -21.296875 
L 5.09375 -14.09375 
Q 10.296875 -13.203125 13.390625 -11.5 
Q 16.5 -9.796875 18.34375 -7.140625 
Q 20.203125 -4.5 21.796875 0 
L 18.703125 0 
L 1 52.703125 
L 10.796875 52.703125 
L 24.90625 6.703125 
L 38.703125 52.703125 
L 48.203125 52.703125 
z
" id="FiraSans-Regular-79"/>
       <path d="M 18.703125 75 
L 18.703125 0 
L 9.5 0 
L 9.5 73.90625 
z
M 49 52.703125 
L 29.59375 29.40625 
L 51.203125 0 
L 40.203125 0 
L 19.296875 28.796875 
L 38.703125 52.703125 
z
" id="FiraSans-Regular-6b"/>
      </defs>
      <g style="fill:#262626;" transform="translate(94.735937 249.252326)scale(0.14 -0.14)">
       <use xlink:href="#FiraSans-Regular-73"/>
       <use x="46.699997" xlink:href="#FiraSans-Regular-6f"/>
       <use x="105.099991" xlink:href="#FiraSans-Regular-66"/>
       <use x="138.599976" xlink:href="#FiraSans-Regular-74"/>
       <use x="174.699966" xlink:href="#FiraSans-Regular-77"/>
       <use x="246.399948" xlink:href="#FiraSans-Regular-61"/>
       <use x="300.799942" xlink:href="#FiraSans-Regular-72"/>
       <use x="339.399933" xlink:href="#FiraSans-Regular-65"/>
       <use x="393.899918" xlink:href="#FiraSans-Regular-20"/>
       <use x="420.399902" xlink:href="#FiraSans-Regular-69"/>
       <use x="448.599899" xlink:href="#FiraSans-Regular-6e"/>
       <use x="507.19989" xlink:href="#FiraSans-Regular-20"/>
       <use x="533.699875" xlink:href="#FiraSans-Regular-6d"/>
       <use x="619.399857" xlink:href="#FiraSans-Regular-79"/>
       <use x="668.599854" xlink:href="#FiraSans-Regular-20"/>
       <use x="695.099838" xlink:href="#FiraSans-Regular-77"/>
       <use x="766.79982" xlink:href="#FiraSans-Regular-6f"/>
       <use x="825.199814" xlink:href="#FiraSans-Regular-72"/>
       <use x="863.799805" xlink:href="#FiraSans-Regular-6b"/>
      </g>
     </g>
    </g>
    <g id="ytick_6">
     <g id="line2d_14">
      <path clip-path="url(#pb26bb0b023)" d="M 231.138125 158.092402 
L 1068.138125 158.092402 
" style="fill:none;stroke:#ffffff;stroke-linecap:round;stroke-width:0.8;"/>
     </g>
     <g id="text_15">
      <!-- Use of existing open source -->
      <g style="fill:#262626;" transform="translate(47.3875 155.509621)scale(0.14 -0.14)">
       <use xlink:href="#FiraSans-Regular-55"/>
       <use x="66.199997" xlink:href="#FiraSans-Regular-73"/>
       <use x="112.899994" xlink:href="#FiraSans-Regular-65"/>
       <use x="167.399979" xlink:href="#FiraSans-Regular-20"/>
       <use x="193.899963" xlink:href="#FiraSans-Regular-6f"/>
       <use x="252.299957" xlink:href="#FiraSans-Regular-66"/>
       <use x="285.799942" xlink:href="#FiraSans-Regular-20"/>
       <use x="312.299927" xlink:href="#FiraSans-Regular-65"/>
       <use x="366.799911" xlink:href="#FiraSans-Regular-78"/>
       <use x="415.299896" xlink:href="#FiraSans-Regular-69"/>
       <use x="443.499893" xlink:href="#FiraSans-Regular-73"/>
       <use x="490.19989" xlink:href="#FiraSans-Regular-74"/>
       <use x="526.299881" xlink:href="#FiraSans-Regular-69"/>
       <use x="554.499878" xlink:href="#FiraSans-Regular-6e"/>
       <use x="613.099869" xlink:href="#FiraSans-Regular-67"/>
       <use x="665.099854" xlink:href="#FiraSans-Regular-20"/>
       <use x="691.599838" xlink:href="#FiraSans-Regular-6f"/>
       <use x="749.999832" xlink:href="#FiraSans-Regular-70"/>
       <use x="809.399826" xlink:href="#FiraSans-Regular-65"/>
       <use x="863.899811" xlink:href="#FiraSans-Regular-6e"/>
       <use x="922.499802" xlink:href="#FiraSans-Regular-20"/>
       <use x="948.999786" xlink:href="#FiraSans-Regular-73"/>
       <use x="995.699783" xlink:href="#FiraSans-Regular-6f"/>
       <use x="1054.099777" xlink:href="#FiraSans-Regular-75"/>
       <use x="1112.299774" xlink:href="#FiraSans-Regular-72"/>
       <use x="1150.899765" xlink:href="#FiraSans-Regular-63"/>
       <use x="1198.699753" xlink:href="#FiraSans-Regular-65"/>
      </g>
      <!-- hardware in my work -->
      <g style="fill:#262626;" transform="translate(89.599687 171.595183)scale(0.14 -0.14)">
       <use xlink:href="#FiraSans-Regular-68"/>
       <use x="58.599991" xlink:href="#FiraSans-Regular-61"/>
       <use x="112.999985" xlink:href="#FiraSans-Regular-72"/>
       <use x="151.599976" xlink:href="#FiraSans-Regular-64"/>
       <use x="211.399963" xlink:href="#FiraSans-Regular-77"/>
       <use x="283.099945" xlink:href="#FiraSans-Regular-61"/>
       <use x="337.499939" xlink:href="#FiraSans-Regular-72"/>
       <use x="376.09993" xlink:href="#FiraSans-Regular-65"/>
       <use x="430.599915" xlink:href="#FiraSans-Regular-20"/>
       <use x="457.099899" xlink:href="#FiraSans-Regular-69"/>
       <use x="485.299896" xlink:href="#FiraSans-Regular-6e"/>
       <use x="543.899887" xlink:href="#FiraSans-Regular-20"/>
       <use x="570.399872" xlink:href="#FiraSans-Regular-6d"/>
       <use x="656.099854" xlink:href="#FiraSans-Regular-79"/>
       <use x="705.29985" xlink:href="#FiraSans-Regular-20"/>
       <use x="731.799835" xlink:href="#FiraSans-Regular-77"/>
       <use x="803.499817" xlink:href="#FiraSans-Regular-6f"/>
       <use x="861.899811" xlink:href="#FiraSans-Regular-72"/>
       <use x="900.499802" xlink:href="#FiraSans-Regular-6b"/>
      </g>
     </g>
    </g>
    <g id="ytick_7">
     <g id="line2d_15">
      <path clip-path="url(#pb26bb0b023)" d="M 231.138125 80.435259 
L 1068.138125 80.435259 
" style="fill:none;stroke:#ffffff;stroke-linecap:round;stroke-width:0.8;"/>
     </g>
     <g id="text_16">
      <!-- Use of existing open source -->
      <g style="fill:#262626;" transform="translate(47.3875 77.852478)scale(0.14 -0.14)">
       <use xlink:href="#FiraSans-Regular-55"/>
       <use x="66.199997" xlink:href="#FiraSans-Regular-73"/>
       <use x="112.899994" xlink:href="#FiraSans-Regular-65"/>
       <use x="167.399979" xlink:href="#FiraSans-Regular-20"/>
       <use x="193.899963" xlink:href="#FiraSans-Regular-6f"/>
       <use x="252.299957" xlink:href="#FiraSans-Regular-66"/>
       <use x="285.799942" xlink:href="#FiraSans-Regular-20"/>
       <use x="312.299927" xlink:href="#FiraSans-Regular-65"/>
       <use x="366.799911" xlink:href="#FiraSans-Regular-78"/>
       <use x="415.299896" xlink:href="#FiraSans-Regular-69"/>
       <use x="443.499893" xlink:href="#FiraSans-Regular-73"/>
       <use x="490.19989" xlink:href="#FiraSans-Regular-74"/>
       <use x="526.299881" xlink:href="#FiraSans-Regular-69"/>
       <use x="554.499878" xlink:href="#FiraSans-Regular-6e"/>
       <use x="613.099869" xlink:href="#FiraSans-Regular-67"/>
       <use x="665.099854" xlink:href="#FiraSans-Regular-20"/>
       <use x="691.599838" xlink:href="#FiraSans-Regular-6f"/>
       <use x="749.999832" xlink:href="#FiraSans-Regular-70"/>
       <use x="809.399826" xlink:href="#FiraSans-Regular-65"/>
       <use x="863.899811" xlink:href="#FiraSans-Regular-6e"/>
       <use x="922.499802" xlink:href="#FiraSans-Regular-20"/>
       <use x="948.999786" xlink:href="#FiraSans-Regular-73"/>
       <use x="995.699783" xlink:href="#FiraSans-Regular-6f"/>
       <use x="1054.099777" xlink:href="#FiraSans-Regular-75"/>
       <use x="1112.299774" xlink:href="#FiraSans-Regular-72"/>
       <use x="1150.899765" xlink:href="#FiraSans-Regular-63"/>
       <use x="1198.699753" xlink:href="#FiraSans-Regular-65"/>
      </g>
      <!-- design in my work -->
      <g style="fill:#262626;" transform="translate(107.91125 93.93804)scale(0.14 -0.14)">
       <use xlink:href="#FiraSans-Regular-64"/>
       <use x="59.799988" xlink:href="#FiraSans-Regular-65"/>
       <use x="114.299973" xlink:href="#FiraSans-Regular-73"/>
       <use x="160.999969" xlink:href="#FiraSans-Regular-69"/>
       <use x="189.199966" xlink:href="#FiraSans-Regular-67"/>
       <use x="241.199951" xlink:href="#FiraSans-Regular-6e"/>
       <use x="299.799942" xlink:href="#FiraSans-Regular-20"/>
       <use x="326.299927" xlink:href="#FiraSans-Regular-69"/>
       <use x="354.499924" xlink:href="#FiraSans-Regular-6e"/>
       <use x="413.099915" xlink:href="#FiraSans-Regular-20"/>
       <use x="439.599899" xlink:href="#FiraSans-Regular-6d"/>
       <use x="525.299881" xlink:href="#FiraSans-Regular-79"/>
       <use x="574.499878" xlink:href="#FiraSans-Regular-20"/>
       <use x="600.999863" xlink:href="#FiraSans-Regular-77"/>
       <use x="672.699844" xlink:href="#FiraSans-Regular-6f"/>
       <use x="731.099838" xlink:href="#FiraSans-Regular-72"/>
       <use x="769.699829" xlink:href="#FiraSans-Regular-6b"/>
      </g>
     </g>
    </g>
    <g id="text_17">
     <!-- Participants -->
     <defs>
      <path d="M 28.09375 68.90625 
Q 40.90625 68.90625 47.90625 63.546875 
Q 54.90625 58.203125 54.90625 47.59375 
Q 54.90625 36.296875 47.59375 30.796875 
Q 40.296875 25.296875 28.203125 25.296875 
L 19.5 25.296875 
L 19.5 0 
L 10 0 
L 10 68.90625 
L 28.09375 68.90625 
z
M 27.796875 32.796875 
Q 36.09375 32.796875 40.4375 36 
Q 44.796875 39.203125 44.796875 47.5 
Q 44.796875 54.90625 40.4375 58.203125 
Q 36.09375 61.5 28 61.5 
L 19.5 61.5 
L 19.5 32.796875 
L 27.796875 32.796875 
z
" id="FiraSans-Regular-50"/>
     </defs>
     <g style="fill:#262626;" transform="translate(19.68 357.134187)rotate(-90)scale(0.16 -0.16)">
      <use xlink:href="#FiraSans-Regular-50"/>
      <use x="58.099991" xlink:href="#FiraSans-Regular-61"/>
      <use x="112.499985" xlink:href="#FiraSans-Regular-72"/>
      <use x="151.099976" xlink:href="#FiraSans-Regular-74"/>
      <use x="187.199966" xlink:href="#FiraSans-Regular-69"/>
      <use x="215.399963" xlink:href="#FiraSans-Regular-63"/>
      <use x="263.199951" xlink:href="#FiraSans-Regular-69"/>
      <use x="291.399948" xlink:href="#FiraSans-Regular-70"/>
      <use x="350.799942" xlink:href="#FiraSans-Regular-61"/>
      <use x="405.199936" xlink:href="#FiraSans-Regular-6e"/>
      <use x="463.799927" xlink:href="#FiraSans-Regular-74"/>
      <use x="499.899918" xlink:href="#FiraSans-Regular-73"/>
     </g>
    </g>
   </g>
   <g id="patch_3">
    <path clip-path="url(#pb26bb0b023)" d="M 231.138125 565.792402 
L 686.648329 565.792402 
L 686.648329 546.378116 
L 231.138125 546.378116 
z
" style="fill:#4c72b0;opacity:0.75;stroke:#ffffff;stroke-linejoin:miter;stroke-width:0.8;"/>
   </g>
   <g id="patch_4">
    <path clip-path="url(#pb26bb0b023)" d="M 231.138125 488.135259 
L 1028.280982 488.135259 
L 1028.280982 468.720973 
L 231.138125 468.720973 
z
" style="fill:#4c72b0;opacity:0.75;stroke:#ffffff;stroke-linejoin:miter;stroke-width:0.8;"/>
   </g>
   <g id="patch_5">
    <path clip-path="url(#pb26bb0b023)" d="M 231.138125 410.478116 
L 572.770778 410.478116 
L 572.770778 391.06383 
L 231.138125 391.06383 
z
" style="fill:#4c72b0;opacity:0.75;stroke:#ffffff;stroke-linejoin:miter;stroke-width:0.8;"/>
   </g>
   <g id="patch_6">
    <path clip-path="url(#pb26bb0b023)" d="M 231.138125 332.820973 
L 572.770778 332.820973 
L 572.770778 313.406687 
L 231.138125 313.406687 
z
" style="fill:#4c72b0;opacity:0.75;stroke:#ffffff;stroke-linejoin:miter;stroke-width:0.8;"/>
   </g>
   <g id="patch_7">
    <path clip-path="url(#pb26bb0b023)" d="M 231.138125 255.16383 
L 914.403431 255.16383 
L 914.403431 235.749545 
L 231.138125 235.749545 
z
" style="fill:#4c72b0;opacity:0.75;stroke:#ffffff;stroke-linejoin:miter;stroke-width:0.8;"/>
   </g>
   <g id="patch_8">
    <path clip-path="url(#pb26bb0b023)" d="M 231.138125 177.506687 
L 1028.280982 177.506687 
L 1028.280982 158.092402 
L 231.138125 158.092402 
z
" style="fill:#4c72b0;opacity:0.75;stroke:#ffffff;stroke-linejoin:miter;stroke-width:0.8;"/>
   </g>
   <g id="patch_9">
    <path clip-path="url(#pb26bb0b023)" d="M 231.138125 99.849545 
L 914.403431 99.849545 
L 914.403431 80.435259 
L 231.138125 80.435259 
z
" style="fill:#4c72b0;opacity:0.75;stroke:#ffffff;stroke-linejoin:miter;stroke-width:0.8;"/>
   </g>
   <g id="patch_10">
    <path clip-path="url(#pb26bb0b023)" d="M 231.138125 546.378116 
L 686.648329 546.378116 
L 686.648329 526.96383 
L 231.138125 526.96383 
z
" style="fill:#dd8452;opacity:0.75;stroke:#ffffff;stroke-linejoin:miter;stroke-width:0.8;"/>
   </g>
   <g id="patch_11">
    <path clip-path="url(#pb26bb0b023)" d="M 231.138125 468.720973 
L 345.015676 468.720973 
L 345.015676 449.306687 
L 231.138125 449.306687 
z
" style="fill:#dd8452;opacity:0.75;stroke:#ffffff;stroke-linejoin:miter;stroke-width:0.8;"/>
   </g>
   <g id="patch_12">
    <path clip-path="url(#pb26bb0b023)" d="M 231.138125 391.06383 
L 800.52588 391.06383 
L 800.52588 371.649545 
L 231.138125 371.649545 
z
" style="fill:#dd8452;opacity:0.75;stroke:#ffffff;stroke-linejoin:miter;stroke-width:0.8;"/>
   </g>
   <g id="patch_13">
    <path clip-path="url(#pb26bb0b023)" d="M 231.138125 313.406687 
L 800.52588 313.406687 
L 800.52588 293.992402 
L 231.138125 293.992402 
z
" style="fill:#dd8452;opacity:0.75;stroke:#ffffff;stroke-linejoin:miter;stroke-width:0.8;"/>
   </g>
   <g id="patch_14">
    <path clip-path="url(#pb26bb0b023)" d="M 231.138125 235.749545 
L 458.893227 235.749545 
L 458.893227 216.335259 
L 231.138125 216.335259 
z
" style="fill:#dd8452;opacity:0.75;stroke:#ffffff;stroke-linejoin:miter;stroke-width:0.8;"/>
   </g>
   <g id="patch_15">
    <path clip-path="url(#pb26bb0b023)" d="M 231.138125 158.092402 
L 345.015676 158.092402 
L 345.015676 138.678116 
L 231.138125 138.678116 
z
" style="fill:#dd8452;opacity:0.75;stroke:#ffffff;stroke-linejoin:miter;stroke-width:0.8;"/>
   </g>
   <g id="patch_16">
    <path clip-path="url(#pb26bb0b023)" d="M 231.138125 80.435259 
L 458.893227 80.435259 
L 458.893227 61.020973 
L 231.138125 61.020973 
z
" style="fill:#dd8452;opacity:0.75;stroke:#ffffff;stroke-linejoin:miter;stroke-width:0.8;"/>
   </g>
   <g id="patch_17">
    <path d="M 231.138125 585.206687 
L 231.138125 41.606687 
" style="fill:none;stroke:#ffffff;stroke-linecap:square;stroke-linejoin:miter;"/>
   </g>
   <g id="patch_18">
    <path d="M 1068.138125 585.206687 
L 1068.138125 41.606687 
" style="fill:none;stroke:#ffffff;stroke-linecap:square;stroke-linejoin:miter;"/>
   </g>
   <g id="patch_19">
    <path d="M 231.138125 585.206687 
L 1068.138125 585.206687 
" style="fill:none;stroke:#ffffff;stroke-linecap:square;stroke-linejoin:miter;"/>
   </g>
   <g id="patch_20">
    <path d="M 231.138125 41.606687 
L 1068.138125 41.606687 
" style="fill:none;stroke:#ffffff;stroke-linecap:square;stroke-linejoin:miter;"/>
   </g>
   <g id="text_18">
    <!-- 4 (50.0%) -->
    <defs>
     <path d="M 52.5 25.203125 
L 52.5 15.40625 
L 44.40625 15.40625 
L 44.40625 0 
L 31.90625 0 
L 31.90625 15.40625 
L 3.296875 15.40625 
L 3.296875 24.203125 
L 22.90625 68.59375 
L 33.796875 64.5 
L 16.59375 25.203125 
L 32 25.203125 
L 33.296875 42.09375 
L 44.40625 42.09375 
L 44.40625 25.203125 
z
" id="FiraSans-Medium-34"/>
     <path id="FiraSans-Medium-20"/>
     <path d="M 30 79.703125 
Q 22.59375 69.09375 19.25 59.140625 
Q 15.90625 49.203125 15.90625 35 
Q 15.90625 20.90625 19.25 10.90625 
Q 22.59375 0.90625 30 -9.703125 
L 21.796875 -15.203125 
Q 15.296875 -6.09375 11.546875 0.25 
Q 7.796875 6.59375 5.296875 15.25 
Q 2.796875 23.90625 2.796875 35 
Q 2.796875 46.09375 5.296875 54.75 
Q 7.796875 63.40625 11.546875 69.75 
Q 15.296875 76.09375 21.796875 85.203125 
z
" id="FiraSans-Medium-28"/>
     <path d="M 43.90625 57.796875 
L 18.703125 57.796875 
L 18.703125 41.09375 
Q 23.703125 43.59375 28.90625 43.59375 
Q 34.5 43.59375 38.890625 41 
Q 43.296875 38.40625 45.75 33.5 
Q 48.203125 28.59375 48.203125 21.90625 
Q 48.203125 15 45.09375 9.703125 
Q 42 4.40625 36.296875 1.453125 
Q 30.59375 -1.5 23.09375 -1.5 
Q 16.40625 -1.5 11.25 0.953125 
Q 6.09375 3.40625 1.90625 8 
L 9.203125 14.796875 
Q 15 8.40625 22.796875 8.40625 
Q 28.5 8.40625 31.75 11.90625 
Q 35 15.40625 35 21.90625 
Q 35 34.40625 24.203125 34.40625 
Q 21.90625 34.40625 19.90625 33.84375 
Q 17.90625 33.296875 15.5 32.09375 
L 6.40625 32.09375 
L 6.40625 67.296875 
L 45.40625 67.296875 
z
" id="FiraSans-Medium-35"/>
     <path d="M 28.59375 68.5 
Q 40.40625 68.5 46.546875 59.5 
Q 52.703125 50.5 52.703125 33.59375 
Q 52.703125 16.59375 46.546875 7.546875 
Q 40.40625 -1.5 28.59375 -1.5 
Q 16.796875 -1.5 10.640625 7.546875 
Q 4.5 16.59375 4.5 33.59375 
Q 4.5 50.5 10.640625 59.5 
Q 16.796875 68.5 28.59375 68.5 
z
M 28.59375 58.796875 
Q 22.90625 58.796875 20.296875 53.046875 
Q 17.703125 47.296875 17.703125 33.59375 
Q 17.703125 19.796875 20.296875 14 
Q 22.90625 8.203125 28.59375 8.203125 
Q 34.296875 8.203125 36.890625 13.953125 
Q 39.5 19.703125 39.5 33.59375 
Q 39.5 47.40625 36.890625 53.09375 
Q 34.296875 58.796875 28.59375 58.796875 
z
" id="FiraSans-Medium-30"/>
     <path d="M 11.90625 14.703125 
Q 15.296875 14.703125 17.6875 12.34375 
Q 20.09375 10 20.09375 6.59375 
Q 20.09375 3.296875 17.6875 0.890625 
Q 15.296875 -1.5 11.90625 -1.5 
Q 8.59375 -1.5 6.25 0.890625 
Q 3.90625 3.296875 3.90625 6.59375 
Q 3.90625 10 6.203125 12.34375 
Q 8.5 14.703125 11.90625 14.703125 
z
" id="FiraSans-Medium-2e"/>
     <path d="M 61.296875 71.59375 
L 69.59375 66.296875 
L 23.203125 -3.59375 
L 15 1.703125 
z
M 20.703125 68.5 
Q 25.5 68.5 29.390625 66.34375 
Q 33.296875 64.203125 35.546875 60.203125 
Q 37.796875 56.203125 37.796875 51 
Q 37.796875 45.796875 35.546875 41.796875 
Q 33.296875 37.796875 29.390625 35.640625 
Q 25.5 33.5 20.703125 33.5 
Q 15.90625 33.5 12.046875 35.640625 
Q 8.203125 37.796875 5.953125 41.796875 
Q 3.703125 45.796875 3.703125 51 
Q 3.703125 56.203125 5.953125 60.203125 
Q 8.203125 64.203125 12.046875 66.34375 
Q 15.90625 68.5 20.703125 68.5 
z
M 20.703125 60.5 
Q 16.796875 60.5 15.140625 57.84375 
Q 13.5 55.203125 13.5 51 
Q 13.5 46.90625 15.140625 44.203125 
Q 16.796875 41.5 20.703125 41.5 
Q 27.90625 41.5 27.90625 51 
Q 27.90625 60.5 20.703125 60.5 
z
M 63.703125 33.5 
Q 68.5 33.5 72.390625 31.34375 
Q 76.296875 29.203125 78.5 25.203125 
Q 80.703125 21.203125 80.703125 16 
Q 80.703125 10.796875 78.5 6.796875 
Q 76.296875 2.796875 72.390625 0.640625 
Q 68.5 -1.5 63.703125 -1.5 
Q 58.90625 -1.5 55 0.640625 
Q 51.09375 2.796875 48.84375 6.796875 
Q 46.59375 10.796875 46.59375 16 
Q 46.59375 21.203125 48.84375 25.203125 
Q 51.09375 29.203125 55 31.34375 
Q 58.90625 33.5 63.703125 33.5 
z
M 63.703125 25.5 
Q 59.796875 25.5 58.140625 22.84375 
Q 56.5 20.203125 56.5 16 
Q 56.5 11.90625 58.140625 9.203125 
Q 59.796875 6.5 63.703125 6.5 
Q 70.90625 6.5 70.90625 16 
Q 70.90625 25.5 63.703125 25.5 
z
" id="FiraSans-Medium-25"/>
     <path d="M 10.59375 85.203125 
Q 17.09375 76.203125 20.84375 69.796875 
Q 24.59375 63.40625 27.09375 54.796875 
Q 29.59375 46.203125 29.59375 35 
Q 29.59375 23.796875 27.09375 15.1875 
Q 24.59375 6.59375 20.84375 0.1875 
Q 17.09375 -6.203125 10.59375 -15.203125 
L 2.5 -9.703125 
Q 9.796875 0.90625 13.1875 10.90625 
Q 16.59375 20.90625 16.59375 35 
Q 16.59375 49.09375 13.1875 59.046875 
Q 9.796875 69 2.5 79.703125 
L 10.59375 85.203125 
z
" id="FiraSans-Medium-29"/>
    </defs>
    <g style="fill:#262626;" transform="translate(698.036084 540.165545)scale(0.14 -0.14)">
     <use xlink:href="#FiraSans-Medium-34"/>
     <use x="54.999985" xlink:href="#FiraSans-Medium-20"/>
     <use x="79.999969" xlink:href="#FiraSans-Medium-28"/>
     <use x="112.399963" xlink:href="#FiraSans-Medium-35"/>
     <use x="164.399948" xlink:href="#FiraSans-Medium-30"/>
     <use x="221.699936" xlink:href="#FiraSans-Medium-2e"/>
     <use x="245.699921" xlink:href="#FiraSans-Medium-30"/>
     <use x="302.999908" xlink:href="#FiraSans-Medium-25"/>
     <use x="387.399902" xlink:href="#FiraSans-Medium-29"/>
    </g>
   </g>
   <g id="text_19">
    <!-- 4 (50.0%) -->
    <g style="fill:#262626;" transform="translate(698.036084 561.909545)scale(0.14 -0.14)">
     <use xlink:href="#FiraSans-Medium-34"/>
     <use x="54.999985" xlink:href="#FiraSans-Medium-20"/>
     <use x="79.999969" xlink:href="#FiraSans-Medium-28"/>
     <use x="112.399963" xlink:href="#FiraSans-Medium-35"/>
     <use x="164.399948" xlink:href="#FiraSans-Medium-30"/>
     <use x="221.699936" xlink:href="#FiraSans-Medium-2e"/>
     <use x="245.699921" xlink:href="#FiraSans-Medium-30"/>
     <use x="302.999908" xlink:href="#FiraSans-Medium-25"/>
     <use x="387.399902" xlink:href="#FiraSans-Medium-29"/>
    </g>
   </g>
   <g id="text_20">
    <!-- 1 (12.5%) -->
    <defs>
     <path d="M 35.5 67.296875 
L 35.5 0 
L 22.90625 0 
L 22.90625 54.40625 
L 7.90625 45.296875 
L 2.296875 53.90625 
L 24.203125 67.296875 
z
" id="FiraSans-Medium-31"/>
     <path d="M 23.296875 68.5 
Q 30.09375 68.5 35.046875 66 
Q 40 63.5 42.59375 59.203125 
Q 45.203125 54.90625 45.203125 49.59375 
Q 45.203125 43.90625 42.75 38.65625 
Q 40.296875 33.40625 34.59375 27 
Q 28.90625 20.59375 17.90625 10.09375 
L 46.703125 10.09375 
L 45.296875 0 
L 3.40625 0 
L 3.40625 9.40625 
Q 16.203125 22.40625 21.75 28.65625 
Q 27.296875 34.90625 29.640625 39.34375 
Q 32 43.796875 32 48.59375 
Q 32 53.203125 29.34375 55.796875 
Q 26.703125 58.40625 22.296875 58.40625 
Q 18.40625 58.40625 15.453125 56.75 
Q 12.5 55.09375 9.296875 51.296875 
L 1.5 57.5 
Q 10 68.5 23.296875 68.5 
z
" id="FiraSans-Medium-32"/>
    </defs>
    <g style="fill:#262626;" transform="translate(356.403431 462.508402)scale(0.14 -0.14)">
     <use xlink:href="#FiraSans-Medium-31"/>
     <use x="44.999985" xlink:href="#FiraSans-Medium-20"/>
     <use x="69.999969" xlink:href="#FiraSans-Medium-28"/>
     <use x="102.399963" xlink:href="#FiraSans-Medium-31"/>
     <use x="147.399948" xlink:href="#FiraSans-Medium-32"/>
     <use x="198.099945" xlink:href="#FiraSans-Medium-2e"/>
     <use x="222.09993" xlink:href="#FiraSans-Medium-35"/>
     <use x="274.099915" xlink:href="#FiraSans-Medium-25"/>
     <use x="358.499908" xlink:href="#FiraSans-Medium-29"/>
    </g>
   </g>
   <g id="text_21">
    <!-- 7 (87.5%) -->
    <defs>
     <path d="M 43.40625 67.296875 
L 43.40625 58.296875 
L 18.5 -1.296875 
L 6.796875 2.5 
L 30.203125 57.40625 
L 1.796875 57.40625 
L 1.796875 67.296875 
z
" id="FiraSans-Medium-37"/>
     <path d="M 39.296875 36.09375 
Q 53.09375 29.90625 53.09375 18.09375 
Q 53.09375 12.59375 50 8.140625 
Q 46.90625 3.703125 41.25 1.09375 
Q 35.59375 -1.5 28.09375 -1.5 
Q 20.703125 -1.5 15.203125 1.046875 
Q 9.703125 3.59375 6.703125 8 
Q 3.703125 12.40625 3.703125 17.90625 
Q 3.703125 29.5 16.5 34.90625 
Q 6.40625 40.40625 6.40625 50.796875 
Q 6.40625 56.09375 9.34375 60.140625 
Q 12.296875 64.203125 17.34375 66.34375 
Q 22.40625 68.5 28.40625 68.5 
Q 34.5 68.5 39.5 66.5 
Q 44.5 64.5 47.453125 60.59375 
Q 50.40625 56.703125 50.40625 51.296875 
Q 50.40625 41.796875 39.296875 36.09375 
z
M 28.40625 59.5 
Q 23.90625 59.5 21.34375 57.203125 
Q 18.796875 54.90625 18.796875 50.59375 
Q 18.796875 46.59375 21.1875 44.25 
Q 23.59375 41.90625 28.90625 40 
L 30.796875 39.296875 
Q 34.703125 41.703125 36.34375 44.34375 
Q 38 47 38 50.703125 
Q 38 54.796875 35.5 57.140625 
Q 33 59.5 28.40625 59.5 
z
M 28.40625 8 
Q 33.90625 8 37 10.796875 
Q 40.09375 13.59375 40.09375 18.09375 
Q 40.09375 22.703125 37.390625 25.34375 
Q 34.703125 28 27.796875 30.5 
L 24.703125 31.59375 
Q 16.59375 27.296875 16.59375 18.296875 
Q 16.59375 13.5 19.796875 10.75 
Q 23 8 28.40625 8 
z
" id="FiraSans-Medium-38"/>
    </defs>
    <g style="fill:#262626;" transform="translate(1039.668737 484.252402)scale(0.14 -0.14)">
     <use xlink:href="#FiraSans-Medium-37"/>
     <use x="45.699997" xlink:href="#FiraSans-Medium-20"/>
     <use x="70.699982" xlink:href="#FiraSans-Medium-28"/>
     <use x="103.099976" xlink:href="#FiraSans-Medium-38"/>
     <use x="159.799973" xlink:href="#FiraSans-Medium-37"/>
     <use x="205.499969" xlink:href="#FiraSans-Medium-2e"/>
     <use x="229.499954" xlink:href="#FiraSans-Medium-35"/>
     <use x="281.499939" xlink:href="#FiraSans-Medium-25"/>
     <use x="365.899933" xlink:href="#FiraSans-Medium-29"/>
    </g>
   </g>
   <g id="text_22">
    <!-- 5 (62.5%) -->
    <defs>
     <path d="M 32.796875 44.796875 
Q 38.09375 44.796875 42.4375 42.25 
Q 46.796875 39.703125 49.296875 34.75 
Q 51.796875 29.796875 51.796875 22.90625 
Q 51.796875 15.90625 48.890625 10.34375 
Q 46 4.796875 40.75 1.640625 
Q 35.5 -1.5 28.796875 -1.5 
Q 16.40625 -1.5 10.453125 7.203125 
Q 4.5 15.90625 4.5 31.09375 
Q 4.5 42.296875 7.84375 50.75 
Q 11.203125 59.203125 17.453125 63.84375 
Q 23.703125 68.5 32.09375 68.5 
Q 40.40625 68.5 46.796875 64.203125 
L 42 56.296875 
Q 37.40625 59 32.296875 59 
Q 25.90625 59 22.046875 53.25 
Q 18.203125 47.5 17.703125 37.40625 
Q 23.796875 44.796875 32.796875 44.796875 
z
M 28.796875 8 
Q 33.796875 8 36.34375 11.953125 
Q 38.90625 15.90625 38.90625 22.703125 
Q 38.90625 29.59375 36.546875 32.546875 
Q 34.203125 35.5 29.703125 35.5 
Q 26.296875 35.5 23.25 33.640625 
Q 20.203125 31.796875 17.796875 28.59375 
Q 18 17.703125 20.546875 12.84375 
Q 23.09375 8 28.796875 8 
z
" id="FiraSans-Medium-36"/>
    </defs>
    <g style="fill:#262626;" transform="translate(811.913635 384.851259)scale(0.14 -0.14)">
     <use xlink:href="#FiraSans-Medium-35"/>
     <use x="51.999985" xlink:href="#FiraSans-Medium-20"/>
     <use x="76.999969" xlink:href="#FiraSans-Medium-28"/>
     <use x="109.399963" xlink:href="#FiraSans-Medium-36"/>
     <use x="164.399948" xlink:href="#FiraSans-Medium-32"/>
     <use x="215.099945" xlink:href="#FiraSans-Medium-2e"/>
     <use x="239.09993" xlink:href="#FiraSans-Medium-35"/>
     <use x="291.099915" xlink:href="#FiraSans-Medium-25"/>
     <use x="375.499908" xlink:href="#FiraSans-Medium-29"/>
    </g>
   </g>
   <g id="text_23">
    <!-- 3 (37.5%) -->
    <defs>
     <path d="M 23.203125 68.5 
Q 29.90625 68.5 34.75 66.203125 
Q 39.59375 63.90625 42.046875 60 
Q 44.5 56.09375 44.5 51.40625 
Q 44.5 45.296875 41 41.25 
Q 37.5 37.203125 31.40625 35.59375 
Q 38.09375 35 42.390625 30.796875 
Q 46.703125 26.59375 46.703125 19.203125 
Q 46.703125 13.40625 43.75 8.703125 
Q 40.796875 4 35.296875 1.25 
Q 29.796875 -1.5 22.296875 -1.5 
Q 8.5 -1.5 0.5 8.203125 
L 7.59375 15 
Q 11 11.59375 14.296875 10.046875 
Q 17.59375 8.5 21.59375 8.5 
Q 27 8.5 30.25 11.546875 
Q 33.5 14.59375 33.5 19.796875 
Q 33.5 25.59375 30.453125 28.09375 
Q 27.40625 30.59375 21.40625 30.59375 
L 16.09375 30.59375 
L 17.59375 39.703125 
L 21.203125 39.703125 
Q 26.09375 39.703125 29.046875 42.390625 
Q 32 45.09375 32 49.90625 
Q 32 54 29.296875 56.34375 
Q 26.59375 58.703125 22.09375 58.703125 
Q 18.203125 58.703125 15 57.25 
Q 11.796875 55.796875 8.59375 52.796875 
L 2.09375 59.90625 
Q 11.203125 68.5 23.203125 68.5 
z
" id="FiraSans-Medium-33"/>
    </defs>
    <g style="fill:#262626;" transform="translate(584.158533 406.595259)scale(0.14 -0.14)">
     <use xlink:href="#FiraSans-Medium-33"/>
     <use x="50.999985" xlink:href="#FiraSans-Medium-20"/>
     <use x="75.999969" xlink:href="#FiraSans-Medium-28"/>
     <use x="108.399963" xlink:href="#FiraSans-Medium-33"/>
     <use x="159.399948" xlink:href="#FiraSans-Medium-37"/>
     <use x="205.099945" xlink:href="#FiraSans-Medium-2e"/>
     <use x="229.09993" xlink:href="#FiraSans-Medium-35"/>
     <use x="281.099915" xlink:href="#FiraSans-Medium-25"/>
     <use x="365.499908" xlink:href="#FiraSans-Medium-29"/>
    </g>
   </g>
   <g id="text_24">
    <!-- 5 (62.5%) -->
    <g style="fill:#262626;" transform="translate(811.913635 307.194116)scale(0.14 -0.14)">
     <use xlink:href="#FiraSans-Medium-35"/>
     <use x="51.999985" xlink:href="#FiraSans-Medium-20"/>
     <use x="76.999969" xlink:href="#FiraSans-Medium-28"/>
     <use x="109.399963" xlink:href="#FiraSans-Medium-36"/>
     <use x="164.399948" xlink:href="#FiraSans-Medium-32"/>
     <use x="215.099945" xlink:href="#FiraSans-Medium-2e"/>
     <use x="239.09993" xlink:href="#FiraSans-Medium-35"/>
     <use x="291.099915" xlink:href="#FiraSans-Medium-25"/>
     <use x="375.499908" xlink:href="#FiraSans-Medium-29"/>
    </g>
   </g>
   <g id="text_25">
    <!-- 3 (37.5%) -->
    <g style="fill:#262626;" transform="translate(584.158533 328.938116)scale(0.14 -0.14)">
     <use xlink:href="#FiraSans-Medium-33"/>
     <use x="50.999985" xlink:href="#FiraSans-Medium-20"/>
     <use x="75.999969" xlink:href="#FiraSans-Medium-28"/>
     <use x="108.399963" xlink:href="#FiraSans-Medium-33"/>
     <use x="159.399948" xlink:href="#FiraSans-Medium-37"/>
     <use x="205.099945" xlink:href="#FiraSans-Medium-2e"/>
     <use x="229.09993" xlink:href="#FiraSans-Medium-35"/>
     <use x="281.099915" xlink:href="#FiraSans-Medium-25"/>
     <use x="365.499908" xlink:href="#FiraSans-Medium-29"/>
    </g>
   </g>
   <g id="text_26">
    <!-- 2 (25.0%) -->
    <g style="fill:#262626;" transform="translate(470.280982 229.536973)scale(0.14 -0.14)">
     <use xlink:href="#FiraSans-Medium-32"/>
     <use x="50.699997" xlink:href="#FiraSans-Medium-20"/>
     <use x="75.699982" xlink:href="#FiraSans-Medium-28"/>
     <use x="108.099976" xlink:href="#FiraSans-Medium-32"/>
     <use x="158.799973" xlink:href="#FiraSans-Medium-35"/>
     <use x="210.799957" xlink:href="#FiraSans-Medium-2e"/>
     <use x="234.799942" xlink:href="#FiraSans-Medium-30"/>
     <use x="292.09993" xlink:href="#FiraSans-Medium-25"/>
     <use x="376.499924" xlink:href="#FiraSans-Medium-29"/>
    </g>
   </g>
   <g id="text_27">
    <!-- 6 (75.0%) -->
    <g style="fill:#262626;" transform="translate(925.791186 251.280973)scale(0.14 -0.14)">
     <use xlink:href="#FiraSans-Medium-36"/>
     <use x="54.999985" xlink:href="#FiraSans-Medium-20"/>
     <use x="79.999969" xlink:href="#FiraSans-Medium-28"/>
     <use x="112.399963" xlink:href="#FiraSans-Medium-37"/>
     <use x="158.09996" xlink:href="#FiraSans-Medium-35"/>
     <use x="210.099945" xlink:href="#FiraSans-Medium-2e"/>
     <use x="234.09993" xlink:href="#FiraSans-Medium-30"/>
     <use x="291.399918" xlink:href="#FiraSans-Medium-25"/>
     <use x="375.799911" xlink:href="#FiraSans-Medium-29"/>
    </g>
   </g>
   <g id="text_28">
    <!-- 1 (12.5%) -->
    <g style="fill:#262626;" transform="translate(356.403431 151.87983)scale(0.14 -0.14)">
     <use xlink:href="#FiraSans-Medium-31"/>
     <use x="44.999985" xlink:href="#FiraSans-Medium-20"/>
     <use x="69.999969" xlink:href="#FiraSans-Medium-28"/>
     <use x="102.399963" xlink:href="#FiraSans-Medium-31"/>
     <use x="147.399948" xlink:href="#FiraSans-Medium-32"/>
     <use x="198.099945" xlink:href="#FiraSans-Medium-2e"/>
     <use x="222.09993" xlink:href="#FiraSans-Medium-35"/>
     <use x="274.099915" xlink:href="#FiraSans-Medium-25"/>
     <use x="358.499908" xlink:href="#FiraSans-Medium-29"/>
    </g>
   </g>
   <g id="text_29">
    <!-- 7 (87.5%) -->
    <g style="fill:#262626;" transform="translate(1039.668737 173.62383)scale(0.14 -0.14)">
     <use xlink:href="#FiraSans-Medium-37"/>
     <use x="45.699997" xlink:href="#FiraSans-Medium-20"/>
     <use x="70.699982" xlink:href="#FiraSans-Medium-28"/>
     <use x="103.099976" xlink:href="#FiraSans-Medium-38"/>
     <use x="159.799973" xlink:href="#FiraSans-Medium-37"/>
     <use x="205.499969" xlink:href="#FiraSans-Medium-2e"/>
     <use x="229.499954" xlink:href="#FiraSans-Medium-35"/>
     <use x="281.499939" xlink:href="#FiraSans-Medium-25"/>
     <use x="365.899933" xlink:href="#FiraSans-Medium-29"/>
    </g>
   </g>
   <g id="text_30">
    <!-- 2 (25.0%) -->
    <g style="fill:#262626;" transform="translate(470.280982 74.222688)scale(0.14 -0.14)">
     <use xlink:href="#FiraSans-Medium-32"/>
     <use x="50.699997" xlink:href="#FiraSans-Medium-20"/>
     <use x="75.699982" xlink:href="#FiraSans-Medium-28"/>
     <use x="108.099976" xlink:href="#FiraSans-Medium-32"/>
     <use x="158.799973" xlink:href="#FiraSans-Medium-35"/>
     <use x="210.799957" xlink:href="#FiraSans-Medium-2e"/>
     <use x="234.799942" xlink:href="#FiraSans-Medium-30"/>
     <use x="292.09993" xlink:href="#FiraSans-Medium-25"/>
     <use x="376.499924" xlink:href="#FiraSans-Medium-29"/>
    </g>
   </g>
   <g id="text_31">
    <!-- 6 (75.0%) -->
    <g style="fill:#262626;" transform="translate(925.791186 95.966687)scale(0.14 -0.14)">
     <use xlink:href="#FiraSans-Medium-36"/>
     <use x="54.999985" xlink:href="#FiraSans-Medium-20"/>
     <use x="79.999969" xlink:href="#FiraSans-Medium-28"/>
     <use x="112.399963" xlink:href="#FiraSans-Medium-37"/>
     <use x="158.09996" xlink:href="#FiraSans-Medium-35"/>
     <use x="210.099945" xlink:href="#FiraSans-Medium-2e"/>
     <use x="234.09993" xlink:href="#FiraSans-Medium-30"/>
     <use x="291.399918" xlink:href="#FiraSans-Medium-25"/>
     <use x="375.799911" xlink:href="#FiraSans-Medium-29"/>
    </g>
   </g>
   <g id="text_32">
    <!-- Q15. What would you release openly in your future projects? -->
    <defs>
     <path d="M 48.703125 4.203125 
Q 54.796875 4.203125 59.5 2.59375 
Q 64.203125 1 68.40625 -2 
L 60.203125 -12.703125 
Q 54.40625 -6.796875 48.65625 -4 
Q 42.90625 -1.203125 33.90625 -1.203125 
Q 25 -1.203125 18.296875 2.9375 
Q 11.59375 7.09375 7.9375 15.09375 
Q 4.296875 23.09375 4.296875 34.5 
Q 4.296875 45.703125 8 53.84375 
Q 11.703125 62 18.546875 66.296875 
Q 25.40625 70.59375 34.59375 70.59375 
Q 43.90625 70.59375 50.703125 66.390625 
Q 57.5 62.203125 61.140625 54.09375 
Q 64.796875 46 64.796875 34.59375 
Q 64.796875 22.703125 60.546875 15.453125 
Q 56.296875 8.203125 48.703125 4.203125 
z
M 18.203125 34.5 
Q 18.203125 8.59375 34.59375 8.59375 
Q 42.59375 8.59375 46.75 14.796875 
Q 50.90625 21 50.90625 34.59375 
Q 50.90625 48.09375 46.75 54.296875 
Q 42.59375 60.5 34.59375 60.5 
Q 26.59375 60.5 22.390625 54.25 
Q 18.203125 48 18.203125 34.5 
z
" id="FiraSans-Medium-51"/>
     <path d="M 82.09375 69.09375 
L 69.40625 0 
L 52.203125 0 
L 41.703125 55.09375 
L 30.90625 0 
L 14.203125 0 
L 1.703125 69.09375 
L 14.796875 69.09375 
L 23.59375 10.5 
L 34.90625 69.09375 
L 48.90625 69.09375 
L 60 10.5 
L 69.59375 69.09375 
z
" id="FiraSans-Medium-57"/>
     <path d="M 35.90625 54.40625 
Q 42.90625 54.40625 46.90625 50.09375 
Q 50.90625 45.796875 50.90625 38.296875 
L 50.90625 0 
L 38.09375 0 
L 38.09375 36.296875 
Q 38.09375 41 36.4375 42.890625 
Q 34.796875 44.796875 31.59375 44.796875 
Q 28.40625 44.796875 25.703125 42.75 
Q 23 40.703125 20.5 36.90625 
L 20.5 0 
L 7.703125 0 
L 7.703125 74 
L 20.5 75.296875 
L 20.5 46.59375 
Q 26.90625 54.40625 35.90625 54.40625 
z
" id="FiraSans-Medium-68"/>
     <path d="M 46.796875 14 
Q 46.796875 10.90625 47.75 9.453125 
Q 48.703125 8 50.796875 7.203125 
L 48.09375 -1.296875 
Q 43.59375 -0.90625 40.75 0.890625 
Q 37.90625 2.703125 36.40625 6.40625 
Q 33.703125 2.40625 29.640625 0.453125 
Q 25.59375 -1.5 20.59375 -1.5 
Q 12.703125 -1.5 8.09375 3 
Q 3.5 7.5 3.5 14.796875 
Q 3.5 23.40625 9.75 27.953125 
Q 16 32.5 27.59375 32.5 
L 34.203125 32.5 
L 34.203125 35.5 
Q 34.203125 40.59375 31.84375 42.640625 
Q 29.5 44.703125 24.296875 44.703125 
Q 18.5 44.703125 10.296875 41.90625 
L 7.296875 50.59375 
Q 17.203125 54.40625 26.5 54.40625 
Q 46.796875 54.40625 46.796875 36.203125 
L 46.796875 14 
z
M 24 7.796875 
Q 30.5 7.796875 34.203125 14.296875 
L 34.203125 25 
L 28.90625 25 
Q 16.5 25 16.5 15.796875 
Q 16.5 12 18.390625 9.890625 
Q 20.296875 7.796875 24 7.796875 
z
" id="FiraSans-Medium-61"/>
     <path d="M 38 2.5 
Q 35.203125 0.5 31.75 -0.5 
Q 28.296875 -1.5 24.703125 -1.5 
Q 16.90625 -1.40625 12.84375 2.9375 
Q 8.796875 7.296875 8.796875 15.796875 
L 8.796875 43.703125 
L 0.5 43.703125 
L 0.5 52.90625 
L 8.796875 52.90625 
L 8.796875 64.59375 
L 21.59375 66.09375 
L 21.59375 52.90625 
L 33.90625 52.90625 
L 32.59375 43.703125 
L 21.59375 43.703125 
L 21.59375 16.09375 
Q 21.59375 12.203125 22.9375 10.5 
Q 24.296875 8.796875 27.203125 8.796875 
Q 30.09375 8.796875 33.5 10.703125 
z
" id="FiraSans-Medium-74"/>
     <path d="M 72.296875 52.90625 
L 60.796875 0 
L 44.796875 0 
L 36.796875 41.5 
L 28.59375 0 
L 12.90625 0 
L 1.203125 52.90625 
L 14 52.90625 
L 21.40625 9.40625 
L 30.59375 52.90625 
L 43.703125 52.90625 
L 52.09375 9.40625 
L 60 52.90625 
z
" id="FiraSans-Medium-77"/>
     <path d="M 29.296875 54.40625 
Q 41 54.40625 47.546875 46.953125 
Q 54.09375 39.5 54.09375 26.5 
Q 54.09375 18.203125 51.09375 11.84375 
Q 48.09375 5.5 42.5 2 
Q 36.90625 -1.5 29.203125 -1.5 
Q 17.5 -1.5 10.890625 5.953125 
Q 4.296875 13.40625 4.296875 26.5 
Q 4.296875 34.796875 7.296875 41.09375 
Q 10.296875 47.40625 15.9375 50.90625 
Q 21.59375 54.40625 29.296875 54.40625 
z
M 29.296875 44.703125 
Q 17.796875 44.703125 17.796875 26.5 
Q 17.796875 17.09375 20.640625 12.640625 
Q 23.5 8.203125 29.203125 8.203125 
Q 34.90625 8.203125 37.75 12.703125 
Q 40.59375 17.203125 40.59375 26.5 
Q 40.59375 35.796875 37.75 40.25 
Q 34.90625 44.703125 29.296875 44.703125 
z
" id="FiraSans-Medium-6f"/>
     <path d="M 50 0 
L 38.90625 0 
L 38.203125 7.40625 
Q 35.296875 2.90625 31.34375 0.703125 
Q 27.40625 -1.5 22 -1.5 
Q 14.90625 -1.5 11.046875 2.84375 
Q 7.203125 7.203125 7.203125 14.90625 
L 7.203125 52.90625 
L 20 52.90625 
L 20 16.5 
Q 20 12 21.546875 10.09375 
Q 23.09375 8.203125 26.5 8.203125 
Q 32.59375 8.203125 37.203125 15.703125 
L 37.203125 52.90625 
L 50 52.90625 
z
" id="FiraSans-Medium-75"/>
     <path d="M 20.203125 -1.5 
Q 14.09375 -1.5 10.640625 2.046875 
Q 7.203125 5.59375 7.203125 12.09375 
L 7.203125 74.09375 
L 20 75.5 
L 20 12.5 
Q 20 8.796875 23 8.796875 
Q 24.5 8.796875 26 9.296875 
L 28.703125 0.296875 
Q 24.703125 -1.5 20.203125 -1.5 
z
" id="FiraSans-Medium-6c"/>
     <path d="M 52.203125 74.09375 
L 52.203125 0 
L 40.90625 0 
L 40 6.703125 
Q 37.5 2.90625 33.640625 0.703125 
Q 29.796875 -1.5 24.90625 -1.5 
Q 15.203125 -1.5 10 6 
Q 4.796875 13.5 4.796875 26.40625 
Q 4.796875 34.5 7.390625 40.84375 
Q 10 47.203125 14.84375 50.796875 
Q 19.703125 54.40625 26.09375 54.40625 
Q 33.703125 54.40625 39.40625 48.703125 
L 39.40625 75.5 
z
M 28.5 8.203125 
Q 31.90625 8.203125 34.5 9.84375 
Q 37.09375 11.5 39.40625 15 
L 39.40625 39.203125 
Q 37.09375 42 34.75 43.390625 
Q 32.40625 44.796875 29.296875 44.796875 
Q 24.203125 44.796875 21.25 40.25 
Q 18.296875 35.703125 18.296875 26.5 
Q 18.296875 16.703125 20.890625 12.453125 
Q 23.5 8.203125 28.5 8.203125 
z
" id="FiraSans-Medium-64"/>
     <path d="M 33.296875 -0.203125 
Q 30.09375 -10 23.59375 -15.453125 
Q 17.09375 -20.90625 5.796875 -21.796875 
L 4.5 -12.5 
Q 9.703125 -11.703125 12.84375 -10.25 
Q 16 -8.796875 17.890625 -6.390625 
Q 19.796875 -4 21.40625 0 
L 17 0 
L 0.203125 52.90625 
L 13.796875 52.90625 
L 25.296875 8.5 
L 37.296875 52.90625 
L 50.5 52.90625 
z
" id="FiraSans-Medium-79"/>
     <path d="M 33.796875 54.296875 
Q 36.703125 54.296875 39.09375 53.59375 
L 36.90625 41.203125 
Q 34.5 41.796875 32.203125 41.796875 
Q 27.5 41.796875 24.796875 38.4375 
Q 22.09375 35.09375 20.5 28.203125 
L 20.5 0 
L 7.703125 0 
L 7.703125 52.90625 
L 18.796875 52.90625 
L 20 42.5 
Q 21.90625 48.203125 25.5 51.25 
Q 29.09375 54.296875 33.796875 54.296875 
z
" id="FiraSans-Medium-72"/>
     <path d="M 51.09375 27.703125 
Q 51.09375 26.703125 50.796875 22.5 
L 17.59375 22.5 
Q 18.203125 14.796875 21.59375 11.5 
Q 25 8.203125 30.59375 8.203125 
Q 34.09375 8.203125 37.1875 9.34375 
Q 40.296875 10.5 43.796875 12.90625 
L 49.09375 5.59375 
Q 40.296875 -1.5 29.5 -1.5 
Q 17.40625 -1.5 10.84375 5.890625 
Q 4.296875 13.296875 4.296875 26.09375 
Q 4.296875 34.203125 7.09375 40.640625 
Q 9.90625 47.09375 15.203125 50.75 
Q 20.5 54.40625 27.796875 54.40625 
Q 38.90625 54.40625 45 47.34375 
Q 51.09375 40.296875 51.09375 27.703125 
z
M 38.40625 31.40625 
Q 38.40625 45.296875 28.09375 45.296875 
Q 23.40625 45.296875 20.75 41.84375 
Q 18.09375 38.40625 17.59375 30.796875 
L 38.40625 30.796875 
z
" id="FiraSans-Medium-65"/>
     <path d="M 24.40625 54.40625 
Q 35.09375 54.40625 43.203125 48.09375 
L 38.203125 40.59375 
Q 31.40625 44.90625 24.90625 44.90625 
Q 21.09375 44.90625 19 43.453125 
Q 16.90625 42 16.90625 39.59375 
Q 16.90625 37.796875 17.796875 36.59375 
Q 18.703125 35.40625 21.046875 34.34375 
Q 23.40625 33.296875 28 32 
Q 36.59375 29.703125 40.75 25.890625 
Q 44.90625 22.09375 44.90625 15.296875 
Q 44.90625 7.40625 38.5 2.953125 
Q 32.09375 -1.5 22.59375 -1.5 
Q 16.09375 -1.5 10.75 0.5 
Q 5.40625 2.5 1.5 6 
L 7.90625 13.203125 
Q 14.796875 8 22.296875 8 
Q 26.59375 8 29.140625 9.703125 
Q 31.703125 11.40625 31.703125 14.40625 
Q 31.703125 16.703125 30.75 18.046875 
Q 29.796875 19.40625 27.34375 20.453125 
Q 24.90625 21.5 19.703125 23 
Q 11.59375 25.203125 7.796875 29.140625 
Q 4 33.09375 4 39 
Q 4 43.40625 6.546875 46.90625 
Q 9.09375 50.40625 13.75 52.40625 
Q 18.40625 54.40625 24.40625 54.40625 
z
" id="FiraSans-Medium-73"/>
     <path d="M 35.09375 54.40625 
Q 45.09375 54.40625 49.890625 47.09375 
Q 54.703125 39.796875 54.703125 26.59375 
Q 54.703125 18.40625 52.25 12.046875 
Q 49.796875 5.703125 45.046875 2.09375 
Q 40.296875 -1.5 33.796875 -1.5 
Q 25.40625 -1.5 20.5 4.296875 
L 20.5 -20.40625 
L 7.703125 -21.796875 
L 7.703125 52.90625 
L 18.90625 52.90625 
L 19.59375 46.40625 
Q 22.703125 50.40625 26.703125 52.40625 
Q 30.703125 54.40625 35.09375 54.40625 
z
M 30.203125 8.296875 
Q 41.296875 8.296875 41.296875 26.5 
Q 41.296875 36.203125 38.796875 40.5 
Q 36.296875 44.796875 31.296875 44.796875 
Q 28.09375 44.796875 25.296875 42.84375 
Q 22.5 40.90625 20.5 37.59375 
L 20.5 13.796875 
Q 24.203125 8.296875 30.203125 8.296875 
z
" id="FiraSans-Medium-70"/>
     <path d="M 35.90625 54.40625 
Q 43 54.40625 46.953125 50.15625 
Q 50.90625 45.90625 50.90625 38.296875 
L 50.90625 0 
L 38.09375 0 
L 38.09375 36.296875 
Q 38.09375 41 36.4375 42.890625 
Q 34.796875 44.796875 31.59375 44.796875 
Q 28.296875 44.796875 25.640625 42.75 
Q 23 40.703125 20.5 36.796875 
L 20.5 0 
L 7.703125 0 
L 7.703125 52.90625 
L 18.796875 52.90625 
L 19.796875 46 
Q 26.296875 54.40625 35.90625 54.40625 
z
" id="FiraSans-Medium-6e"/>
     <path d="M 20.5 52.90625 
L 20.5 0 
L 7.703125 0 
L 7.703125 52.90625 
z
M 14 79.703125 
Q 17.59375 79.703125 19.84375 77.453125 
Q 22.09375 75.203125 22.09375 71.90625 
Q 22.09375 68.59375 19.84375 66.390625 
Q 17.59375 64.203125 14 64.203125 
Q 10.5 64.203125 8.25 66.390625 
Q 6 68.59375 6 71.90625 
Q 6 75.203125 8.25 77.453125 
Q 10.5 79.703125 14 79.703125 
z
" id="FiraSans-Medium-69"/>
     <path d="M 29.09375 65.796875 
Q 25.296875 65.796875 23.640625 64.046875 
Q 22 62.296875 22 58.5 
L 22 52.90625 
L 34.703125 52.90625 
L 33.296875 43.703125 
L 22 43.703125 
L 22 0 
L 9.203125 0 
L 9.203125 43.703125 
L 0.59375 43.703125 
L 0.59375 52.90625 
L 9.203125 52.90625 
L 9.203125 58.703125 
Q 9.203125 66.203125 14.046875 70.84375 
Q 18.90625 75.5 27.796875 75.5 
Q 34.796875 75.5 41.5 72.40625 
L 37.796875 63.796875 
Q 33.5 65.796875 29.09375 65.796875 
z
" id="FiraSans-Medium-66"/>
     <path d="M 20.40625 4.703125 
Q 20.40625 -3.09375 18.15625 -8.046875 
Q 15.90625 -13 11.796875 -16 
Q 7.703125 -19 1.09375 -21.703125 
L -3 -12.40625 
Q 0.90625 -10.59375 3.09375 -8.84375 
Q 5.296875 -7.09375 6.4375 -4.09375 
Q 7.59375 -1.09375 7.59375 3.90625 
L 7.59375 52.90625 
L 20.40625 52.90625 
z
M 13.90625 79.703125 
Q 17.5 79.703125 19.75 77.453125 
Q 22 75.203125 22 71.90625 
Q 22 68.59375 19.75 66.390625 
Q 17.5 64.203125 13.90625 64.203125 
Q 10.40625 64.203125 8.15625 66.390625 
Q 5.90625 68.59375 5.90625 71.90625 
Q 5.90625 75.203125 8.15625 77.453125 
Q 10.40625 79.703125 13.90625 79.703125 
z
" id="FiraSans-Medium-6a"/>
     <path d="M 29 54.40625 
Q 34.203125 54.40625 38.34375 52.90625 
Q 42.5 51.40625 46.203125 48.203125 
L 40.5 40.5 
Q 37.796875 42.5 35.296875 43.390625 
Q 32.796875 44.296875 29.796875 44.296875 
Q 17.90625 44.296875 17.90625 26.203125 
Q 17.90625 17 21 12.953125 
Q 24.09375 8.90625 29.796875 8.90625 
Q 32.59375 8.90625 34.9375 9.796875 
Q 37.296875 10.703125 40.5 12.703125 
L 46.203125 4.59375 
Q 38.703125 -1.5 29.09375 -1.5 
Q 21.5 -1.5 15.890625 1.84375 
Q 10.296875 5.203125 7.296875 11.390625 
Q 4.296875 17.59375 4.296875 26 
Q 4.296875 34.40625 7.296875 40.84375 
Q 10.296875 47.296875 15.890625 50.84375 
Q 21.5 54.40625 29 54.40625 
z
" id="FiraSans-Medium-63"/>
     <path d="M 24.296875 70.59375 
Q 30.90625 70.59375 35.546875 68.390625 
Q 40.203125 66.203125 42.59375 62.5 
Q 45 58.796875 45 54.40625 
Q 45 50.40625 43.59375 47.546875 
Q 42.203125 44.703125 40.203125 42.890625 
Q 38.203125 41.09375 35 38.90625 
Q 30.90625 36.203125 28.90625 33.890625 
Q 26.90625 31.59375 26.90625 27.796875 
L 26.90625 24.40625 
L 15 24.40625 
L 15 28.296875 
Q 15 32.796875 16.453125 35.9375 
Q 17.90625 39.09375 19.90625 40.9375 
Q 21.90625 42.796875 25.09375 45 
Q 28.5 47.296875 30.046875 49 
Q 31.59375 50.703125 31.59375 53.40625 
Q 31.59375 56.703125 29.34375 58.546875 
Q 27.09375 60.40625 23.203125 60.40625 
Q 16.09375 60.40625 10.5 53.796875 
L 2.203125 60.296875 
Q 10.90625 70.59375 24.296875 70.59375 
z
M 21.09375 14.703125 
Q 24.5 14.703125 26.890625 12.34375 
Q 29.296875 10 29.296875 6.59375 
Q 29.296875 3.296875 26.890625 0.890625 
Q 24.5 -1.5 21.09375 -1.5 
Q 17.796875 -1.5 15.4375 0.890625 
Q 13.09375 3.296875 13.09375 6.59375 
Q 13.09375 10 15.390625 12.34375 
Q 17.703125 14.703125 21.09375 14.703125 
z
" id="FiraSans-Medium-3f"/>
    </defs>
    <g style="fill:#262626;" transform="translate(348.652344 24.734687)scale(0.22 -0.22)">
     <use xlink:href="#FiraSans-Medium-51"/>
     <use x="69.099991" xlink:href="#FiraSans-Medium-31"/>
     <use x="114.099976" xlink:href="#FiraSans-Medium-35"/>
     <use x="166.09996" xlink:href="#FiraSans-Medium-2e"/>
     <use x="190.099945" xlink:href="#FiraSans-Medium-20"/>
     <use x="215.09993" xlink:href="#FiraSans-Medium-57"/>
     <use x="298.799911" xlink:href="#FiraSans-Medium-68"/>
     <use x="356.899902" xlink:href="#FiraSans-Medium-61"/>
     <use x="411.499893" xlink:href="#FiraSans-Medium-74"/>
     <use x="448.999878" xlink:href="#FiraSans-Medium-20"/>
     <use x="473.999863" xlink:href="#FiraSans-Medium-77"/>
     <use x="547.399857" xlink:href="#FiraSans-Medium-6f"/>
     <use x="605.79985" xlink:href="#FiraSans-Medium-75"/>
     <use x="663.499847" xlink:href="#FiraSans-Medium-6c"/>
     <use x="692.999832" xlink:href="#FiraSans-Medium-64"/>
     <use x="752.899826" xlink:href="#FiraSans-Medium-20"/>
     <use x="777.899811" xlink:href="#FiraSans-Medium-79"/>
     <use x="828.499802" xlink:href="#FiraSans-Medium-6f"/>
     <use x="886.899796" xlink:href="#FiraSans-Medium-75"/>
     <use x="944.599792" xlink:href="#FiraSans-Medium-20"/>
     <use x="969.599777" xlink:href="#FiraSans-Medium-72"/>
     <use x="1008.999771" xlink:href="#FiraSans-Medium-65"/>
     <use x="1063.899765" xlink:href="#FiraSans-Medium-6c"/>
     <use x="1093.39975" xlink:href="#FiraSans-Medium-65"/>
     <use x="1148.299744" xlink:href="#FiraSans-Medium-61"/>
     <use x="1202.899734" xlink:href="#FiraSans-Medium-73"/>
     <use x="1250.499725" xlink:href="#FiraSans-Medium-65"/>
     <use x="1305.399719" xlink:href="#FiraSans-Medium-20"/>
     <use x="1330.399704" xlink:href="#FiraSans-Medium-6f"/>
     <use x="1388.799698" xlink:href="#FiraSans-Medium-70"/>
     <use x="1448.399689" xlink:href="#FiraSans-Medium-65"/>
     <use x="1503.299683" xlink:href="#FiraSans-Medium-6e"/>
     <use x="1561.399673" xlink:href="#FiraSans-Medium-6c"/>
     <use x="1590.899658" xlink:href="#FiraSans-Medium-79"/>
     <use x="1641.499649" xlink:href="#FiraSans-Medium-20"/>
     <use x="1666.499634" xlink:href="#FiraSans-Medium-69"/>
     <use x="1694.699631" xlink:href="#FiraSans-Medium-6e"/>
     <use x="1752.799622" xlink:href="#FiraSans-Medium-20"/>
     <use x="1777.799606" xlink:href="#FiraSans-Medium-79"/>
     <use x="1828.399597" xlink:href="#FiraSans-Medium-6f"/>
     <use x="1886.799591" xlink:href="#FiraSans-Medium-75"/>
     <use x="1944.499588" xlink:href="#FiraSans-Medium-72"/>
     <use x="1983.899582" xlink:href="#FiraSans-Medium-20"/>
     <use x="2008.899567" xlink:href="#FiraSans-Medium-66"/>
     <use x="2043.599564" xlink:href="#FiraSans-Medium-75"/>
     <use x="2101.299561" xlink:href="#FiraSans-Medium-74"/>
     <use x="2138.799545" xlink:href="#FiraSans-Medium-75"/>
     <use x="2196.499542" xlink:href="#FiraSans-Medium-72"/>
     <use x="2235.899536" xlink:href="#FiraSans-Medium-65"/>
     <use x="2290.79953" xlink:href="#FiraSans-Medium-20"/>
     <use x="2315.799515" xlink:href="#FiraSans-Medium-70"/>
     <use x="2375.399506" xlink:href="#FiraSans-Medium-72"/>
     <use x="2414.7995" xlink:href="#FiraSans-Medium-6f"/>
     <use x="2473.199493" xlink:href="#FiraSans-Medium-6a"/>
     <use x="2501.299484" xlink:href="#FiraSans-Medium-65"/>
     <use x="2556.199478" xlink:href="#FiraSans-Medium-63"/>
     <use x="2603.999466" xlink:href="#FiraSans-Medium-74"/>
     <use x="2641.499451" xlink:href="#FiraSans-Medium-73"/>
     <use x="2689.099442" xlink:href="#FiraSans-Medium-3f"/>
    </g>
   </g>
   <g id="legend_1">
    <g id="patch_21">
     <path d="M 1002.59375 86.317937 
L 1059.738125 86.317937 
Q 1062.138125 86.317937 1062.138125 83.917937 
L 1062.138125 50.006687 
Q 1062.138125 47.606688 1059.738125 47.606688 
L 1002.59375 47.606688 
Q 1000.19375 47.606688 1000.19375 50.006687 
L 1000.19375 83.917937 
Q 1000.19375 86.317937 1002.59375 86.317937 
z
" style="fill:#eaeaf2;opacity:0.8;stroke:#cccccc;stroke-linejoin:miter;stroke-width:0.8;"/>
    </g>
    <g id="patch_22">
     <path d="M 1004.99375 61.406687 
L 1028.99375 61.406687 
L 1028.99375 53.006687 
L 1004.99375 53.006687 
z
" style="fill:#4c72b0;opacity:0.75;stroke:#ffffff;stroke-linejoin:miter;stroke-width:0.8;"/>
    </g>
    <g id="text_33">
     <!-- No -->
     <defs>
      <path d="M 58.296875 0 
L 45.59375 0 
L 17.59375 58.5 
Q 18.203125 51.59375 18.546875 45.75 
Q 18.90625 39.90625 18.90625 31.59375 
L 18.90625 0 
L 10 0 
L 10 68.90625 
L 22.40625 68.90625 
L 50.703125 10.296875 
Q 50.40625 12.90625 49.90625 19.40625 
Q 49.40625 25.90625 49.40625 31.296875 
L 49.40625 68.90625 
L 58.296875 68.90625 
z
" id="FiraSans-Regular-4e"/>
     </defs>
     <g style="fill:#262626;" transform="translate(1038.59375 61.406687)scale(0.12 -0.12)">
      <use xlink:href="#FiraSans-Regular-4e"/>
      <use x="68.299988" xlink:href="#FiraSans-Regular-6f"/>
     </g>
    </g>
    <g id="patch_23">
     <path d="M 1004.99375 78.962312 
L 1028.99375 78.962312 
L 1028.99375 70.562312 
L 1004.99375 70.562312 
z
" style="fill:#dd8452;opacity:0.75;stroke:#ffffff;stroke-linejoin:miter;stroke-width:0.8;"/>
    </g>
    <g id="text_34">
     <!-- Yes -->
     <defs>
      <path d="M 54.5 68.90625 
L 32.296875 26.5 
L 32.296875 0 
L 22.703125 0 
L 22.703125 26.40625 
L 0.5 68.90625 
L 11 68.90625 
L 27.796875 34.796875 
L 44.59375 68.90625 
z
" id="FiraSans-Regular-59"/>
     </defs>
     <g style="fill:#262626;" transform="translate(1038.59375 78.962312)scale(0.12 -0.12)">
      <use xlink:href="#FiraSans-Regular-59"/>
      <use x="54.999985" xlink:href="#FiraSans-Regular-65"/>
      <use x="109.499969" xlink:href="#FiraSans-Regular-73"/>
     </g>
    </g>
   </g>
  </g>
 </g>
 <defs>
  <clipPath id="pb26bb0b023">
   <rect height="543.6" width="837" x="231.138125" y="41.606687"/>
  </clipPath>
 </defs>
</svg>
