<?xml version="1.0" encoding="utf-8" standalone="no"?>
<!DOCTYPE svg PUBLIC "-//W3C//DTD SVG 1.1//EN"
  "http://www.w3.org/Graphics/SVG/1.1/DTD/svg11.dtd">
<!-- Created with matplotlib (http://matplotlib.org/) -->
<svg height="327pt" version="1.1" viewBox="0 0 483 327" width="483pt" xmlns="http://www.w3.org/2000/svg" xmlns:xlink="http://www.w3.org/1999/xlink">
 <defs>
  <style type="text/css">
*{stroke-linecap:butt;stroke-linejoin:round;}
  </style>
 </defs>
 <g id="figure_1">
  <g id="patch_1">
   <path d="M 0 327.959844 
L 483.614687 327.959844 
L 483.614687 0 
L 0 0 
z
" style="fill:#ffffff;"/>
  </g>
  <g id="axes_1">
   <g id="patch_2">
    <path clip-path="url(#p243e8913de)" d="M 104.261271 126.237463 
Q 95.792003 124.264084 88.411601 122.544416 
" style="fill:none;stroke:#1a1a1a;stroke-linecap:round;"/>
    <path clip-path="url(#p243e8913de)" d="M 91.853397 125.399944 
L 88.411601 122.544416 
L 92.761101 121.504297 
L 91.853397 125.399944 
z
" style="fill:#1a1a1a;stroke:#1a1a1a;stroke-linecap:round;"/>
   </g>
   <g id="patch_3">
    <path clip-path="url(#p243e8913de)" d="M 282.979258 38.191736 
Q 289.2843 41.305392 294.586883 43.923998 
" style="fill:none;stroke:#1a1a1a;stroke-linecap:round;"/>
    <path clip-path="url(#p243e8913de)" d="M 291.885948 40.359597 
L 294.586883 43.923998 
L 290.114802 43.946105 
L 291.885948 40.359597 
z
" style="fill:#1a1a1a;stroke:#1a1a1a;stroke-linecap:round;"/>
   </g>
   <g id="patch_4">
    <path clip-path="url(#p243e8913de)" d="M 75.902291 119.629688 
Q 84.371559 121.603068 91.75196 123.322736 
" style="fill:none;stroke:#1a1a1a;stroke-linecap:round;"/>
    <path clip-path="url(#p243e8913de)" d="M 88.310165 120.467207 
L 91.75196 123.322736 
L 87.40246 124.362855 
L 88.310165 120.467207 
z
" style="fill:#1a1a1a;stroke:#1a1a1a;stroke-linecap:round;"/>
   </g>
   <g id="patch_5">
    <path clip-path="url(#p243e8913de)" d="M 405.710239 209.057361 
Q 413.682263 206.768405 420.579671 204.787997 
" style="fill:none;stroke:#1a1a1a;stroke-linecap:round;"/>
    <path clip-path="url(#p243e8913de)" d="M 416.183064 203.969559 
L 420.579671 204.787997 
L 417.286956 207.814221 
L 416.183064 203.969559 
z
" style="fill:#1a1a1a;stroke:#1a1a1a;stroke-linecap:round;"/>
   </g>
   <g id="patch_6">
    <path clip-path="url(#p243e8913de)" d="M 432.927084 201.242765 
Q 424.95506 203.53172 418.057652 205.512128 
" style="fill:none;stroke:#1a1a1a;stroke-linecap:round;"/>
    <path clip-path="url(#p243e8913de)" d="M 422.45426 206.330566 
L 418.057652 205.512128 
L 421.350367 202.485905 
L 422.45426 206.330566 
z
" style="fill:#1a1a1a;stroke:#1a1a1a;stroke-linecap:round;"/>
   </g>
   <g id="patch_7">
    <path clip-path="url(#p243e8913de)" d="M 135.839266 260.925127 
Q 139.191391 264.366258 141.763371 267.006531 
" style="fill:none;stroke:#1a1a1a;stroke-linecap:round;"/>
    <path clip-path="url(#p243e8913de)" d="M 140.404862 262.745726 
L 141.763371 267.006531 
L 137.539622 265.536855 
L 140.404862 262.745726 
z
" style="fill:#1a1a1a;stroke:#1a1a1a;stroke-linecap:round;"/>
   </g>
   <g id="patch_8">
    <path clip-path="url(#p243e8913de)" d="M 150.727098 276.208264 
Q 147.374973 272.767133 144.802993 270.126861 
" style="fill:none;stroke:#1a1a1a;stroke-linecap:round;"/>
    <path clip-path="url(#p243e8913de)" d="M 146.161502 274.387665 
L 144.802993 270.126861 
L 149.026742 271.596536 
L 146.161502 274.387665 
z
" style="fill:#1a1a1a;stroke:#1a1a1a;stroke-linecap:round;"/>
   </g>
   <g id="patch_9">
    <path clip-path="url(#p243e8913de)" d="M 306.104803 49.611961 
Q 299.799761 46.498305 294.497179 43.879699 
" style="fill:none;stroke:#1a1a1a;stroke-linecap:round;"/>
    <path clip-path="url(#p243e8913de)" d="M 297.198113 47.444099 
L 294.497179 43.879699 
L 298.96926 43.857591 
L 297.198113 47.444099 
z
" style="fill:#1a1a1a;stroke:#1a1a1a;stroke-linecap:round;"/>
   </g>
   <g id="PathCollection_1">
    <defs>
     <path d="M 0 11.726039 
C 3.109782 11.726039 6.092614 10.49051 8.291562 8.291562 
C 10.49051 6.092614 11.726039 3.109782 11.726039 0 
C 11.726039 -3.109782 10.49051 -6.092614 8.291562 -8.291562 
C 6.092614 -10.49051 3.109782 -11.726039 0 -11.726039 
C -3.109782 -11.726039 -6.092614 -10.49051 -8.291562 -8.291562 
C -10.49051 -6.092614 -11.726039 -3.109782 -11.726039 0 
C -11.726039 3.109782 -10.49051 6.092614 -8.291562 8.291562 
C -6.092614 10.49051 -3.109782 11.726039 0 11.726039 
z
" id="md3f986c913" style="stroke:#4c72b0;"/>
    </defs>
    <g clip-path="url(#p243e8913de)">
     <use style="fill:#4c72b0;stroke:#4c72b0;" x="104.261271" xlink:href="#md3f986c913" y="126.237463"/>
     <use style="fill:#4c72b0;stroke:#4c72b0;" x="282.979258" xlink:href="#md3f986c913" y="38.191736"/>
     <use style="fill:#4c72b0;stroke:#4c72b0;" x="75.902291" xlink:href="#md3f986c913" y="119.629688"/>
     <use style="fill:#4c72b0;stroke:#4c72b0;" x="405.710239" xlink:href="#md3f986c913" y="209.057361"/>
     <use style="fill:#4c72b0;stroke:#4c72b0;" x="432.927084" xlink:href="#md3f986c913" y="201.242765"/>
     <use style="fill:#4c72b0;stroke:#4c72b0;" x="135.839266" xlink:href="#md3f986c913" y="260.925127"/>
     <use style="fill:#4c72b0;stroke:#4c72b0;" x="150.727098" xlink:href="#md3f986c913" y="276.208264"/>
     <use style="fill:#4c72b0;stroke:#4c72b0;" x="306.104803" xlink:href="#md3f986c913" y="49.611961"/>
    </g>
   </g>
   <g id="text_1">
    <g clip-path="url(#p243e8913de)">
     <!-- 0 -->
     <defs>
      <path d="M 4.15625 35.296875 
Q 4.15625 48 6.765625 55.734375 
Q 9.375 63.484375 14.515625 67.671875 
Q 19.671875 71.875 27.484375 71.875 
Q 33.25 71.875 37.59375 69.546875 
Q 41.9375 67.234375 44.765625 62.859375 
Q 47.609375 58.5 49.21875 52.21875 
Q 50.828125 45.953125 50.828125 35.296875 
Q 50.828125 22.703125 48.234375 14.96875 
Q 45.65625 7.234375 40.5 3 
Q 35.359375 -1.21875 27.484375 -1.21875 
Q 17.140625 -1.21875 11.234375 6.203125 
Q 4.15625 15.140625 4.15625 35.296875 
z
M 13.1875 35.296875 
Q 13.1875 17.671875 17.3125 11.828125 
Q 21.4375 6 27.484375 6 
Q 33.546875 6 37.671875 11.859375 
Q 41.796875 17.71875 41.796875 35.296875 
Q 41.796875 52.984375 37.671875 58.78125 
Q 33.546875 64.59375 27.390625 64.59375 
Q 21.34375 64.59375 17.71875 59.46875 
Q 13.1875 52.9375 13.1875 35.296875 
z
" id="ArialMT-30"/>
     </defs>
     <g style="fill:#1a1a1a;" transform="translate(100.924709 129.339651)scale(0.12 -0.12)">
      <use xlink:href="#ArialMT-30"/>
     </g>
    </g>
   </g>
   <g id="text_2">
    <g clip-path="url(#p243e8913de)">
     <!-- 1 -->
     <defs>
      <path d="M 37.25 0 
L 28.46875 0 
L 28.46875 56 
Q 25.296875 52.984375 20.140625 49.953125 
Q 14.984375 46.921875 10.890625 45.40625 
L 10.890625 53.90625 
Q 18.265625 57.375 23.78125 62.296875 
Q 29.296875 67.234375 31.59375 71.875 
L 37.25 71.875 
z
" id="ArialMT-31"/>
     </defs>
     <g style="fill:#1a1a1a;" transform="translate(279.642696 41.293923)scale(0.12 -0.12)">
      <use xlink:href="#ArialMT-31"/>
     </g>
    </g>
   </g>
   <g id="text_3">
    <g clip-path="url(#p243e8913de)">
     <!-- 2 -->
     <defs>
      <path d="M 50.34375 8.453125 
L 50.34375 0 
L 3.03125 0 
Q 2.9375 3.171875 4.046875 6.109375 
Q 5.859375 10.9375 9.828125 15.625 
Q 13.8125 20.3125 21.34375 26.46875 
Q 33.015625 36.03125 37.109375 41.625 
Q 41.21875 47.21875 41.21875 52.203125 
Q 41.21875 57.421875 37.46875 61 
Q 33.734375 64.59375 27.734375 64.59375 
Q 21.390625 64.59375 17.578125 60.78125 
Q 13.765625 56.984375 13.71875 50.25 
L 4.6875 51.171875 
Q 5.609375 61.28125 11.65625 66.578125 
Q 17.71875 71.875 27.9375 71.875 
Q 38.234375 71.875 44.234375 66.15625 
Q 50.25 60.453125 50.25 52 
Q 50.25 47.703125 48.484375 43.546875 
Q 46.734375 39.40625 42.65625 34.8125 
Q 38.578125 30.21875 29.109375 22.21875 
Q 21.1875 15.578125 18.9375 13.203125 
Q 16.703125 10.84375 15.234375 8.453125 
z
" id="ArialMT-32"/>
     </defs>
     <g style="fill:#1a1a1a;" transform="translate(72.565728 122.731876)scale(0.12 -0.12)">
      <use xlink:href="#ArialMT-32"/>
     </g>
    </g>
   </g>
   <g id="text_4">
    <g clip-path="url(#p243e8913de)">
     <!-- 3 -->
     <defs>
      <path d="M 4.203125 18.890625 
L 12.984375 20.0625 
Q 14.5 12.59375 18.140625 9.296875 
Q 21.78125 6 27 6 
Q 33.203125 6 37.46875 10.296875 
Q 41.75 14.59375 41.75 20.953125 
Q 41.75 27 37.796875 30.921875 
Q 33.84375 34.859375 27.734375 34.859375 
Q 25.25 34.859375 21.53125 33.890625 
L 22.515625 41.609375 
Q 23.390625 41.5 23.921875 41.5 
Q 29.546875 41.5 34.03125 44.421875 
Q 38.53125 47.359375 38.53125 53.46875 
Q 38.53125 58.296875 35.25 61.46875 
Q 31.984375 64.65625 26.8125 64.65625 
Q 21.6875 64.65625 18.265625 61.421875 
Q 14.84375 58.203125 13.875 51.765625 
L 5.078125 53.328125 
Q 6.6875 62.15625 12.390625 67.015625 
Q 18.109375 71.875 26.609375 71.875 
Q 32.46875 71.875 37.390625 69.359375 
Q 42.328125 66.84375 44.9375 62.5 
Q 47.5625 58.15625 47.5625 53.265625 
Q 47.5625 48.640625 45.0625 44.828125 
Q 42.578125 41.015625 37.703125 38.765625 
Q 44.046875 37.3125 47.5625 32.6875 
Q 51.078125 28.078125 51.078125 21.140625 
Q 51.078125 11.765625 44.234375 5.25 
Q 37.40625 -1.265625 26.953125 -1.265625 
Q 17.53125 -1.265625 11.296875 4.34375 
Q 5.078125 9.96875 4.203125 18.890625 
z
" id="ArialMT-33"/>
     </defs>
     <g style="fill:#1a1a1a;" transform="translate(402.373677 212.159548)scale(0.12 -0.12)">
      <use xlink:href="#ArialMT-33"/>
     </g>
    </g>
   </g>
   <g id="text_5">
    <g clip-path="url(#p243e8913de)">
     <!-- 4 -->
     <defs>
      <path d="M 32.328125 0 
L 32.328125 17.140625 
L 1.265625 17.140625 
L 1.265625 25.203125 
L 33.9375 71.578125 
L 41.109375 71.578125 
L 41.109375 25.203125 
L 50.78125 25.203125 
L 50.78125 17.140625 
L 41.109375 17.140625 
L 41.109375 0 
z
M 32.328125 25.203125 
L 32.328125 57.46875 
L 9.90625 25.203125 
z
" id="ArialMT-34"/>
     </defs>
     <g style="fill:#1a1a1a;" transform="translate(429.590522 204.344952)scale(0.12 -0.12)">
      <use xlink:href="#ArialMT-34"/>
     </g>
    </g>
   </g>
   <g id="text_6">
    <g clip-path="url(#p243e8913de)">
     <!-- 5 -->
     <defs>
      <path d="M 4.15625 18.75 
L 13.375 19.53125 
Q 14.40625 12.796875 18.140625 9.390625 
Q 21.875 6 27.15625 6 
Q 33.5 6 37.890625 10.78125 
Q 42.28125 15.578125 42.28125 23.484375 
Q 42.28125 31 38.0625 35.34375 
Q 33.84375 39.703125 27 39.703125 
Q 22.75 39.703125 19.328125 37.765625 
Q 15.921875 35.84375 13.96875 32.765625 
L 5.71875 33.84375 
L 12.640625 70.609375 
L 48.25 70.609375 
L 48.25 62.203125 
L 19.671875 62.203125 
L 15.828125 42.96875 
Q 22.265625 47.46875 29.34375 47.46875 
Q 38.71875 47.46875 45.15625 40.96875 
Q 51.609375 34.46875 51.609375 24.265625 
Q 51.609375 14.546875 45.953125 7.46875 
Q 39.0625 -1.21875 27.15625 -1.21875 
Q 17.390625 -1.21875 11.203125 4.25 
Q 5.03125 9.71875 4.15625 18.75 
z
" id="ArialMT-35"/>
     </defs>
     <g style="fill:#1a1a1a;" transform="translate(132.502703 264.027314)scale(0.12 -0.12)">
      <use xlink:href="#ArialMT-35"/>
     </g>
    </g>
   </g>
   <g id="text_7">
    <g clip-path="url(#p243e8913de)">
     <!-- 6 -->
     <defs>
      <path d="M 49.75 54.046875 
L 41.015625 53.375 
Q 39.84375 58.546875 37.703125 60.890625 
Q 34.125 64.65625 28.90625 64.65625 
Q 24.703125 64.65625 21.53125 62.3125 
Q 17.390625 59.28125 14.984375 53.46875 
Q 12.59375 47.65625 12.5 36.921875 
Q 15.671875 41.75 20.265625 44.09375 
Q 24.859375 46.4375 29.890625 46.4375 
Q 38.671875 46.4375 44.84375 39.96875 
Q 51.03125 33.5 51.03125 23.25 
Q 51.03125 16.5 48.125 10.71875 
Q 45.21875 4.9375 40.140625 1.859375 
Q 35.0625 -1.21875 28.609375 -1.21875 
Q 17.625 -1.21875 10.6875 6.859375 
Q 3.765625 14.9375 3.765625 33.5 
Q 3.765625 54.25 11.421875 63.671875 
Q 18.109375 71.875 29.4375 71.875 
Q 37.890625 71.875 43.28125 67.140625 
Q 48.6875 62.40625 49.75 54.046875 
z
M 13.875 23.1875 
Q 13.875 18.65625 15.796875 14.5 
Q 17.71875 10.359375 21.1875 8.171875 
Q 24.65625 6 28.46875 6 
Q 34.03125 6 38.03125 10.484375 
Q 42.046875 14.984375 42.046875 22.703125 
Q 42.046875 30.125 38.078125 34.390625 
Q 34.125 38.671875 28.125 38.671875 
Q 22.171875 38.671875 18.015625 34.390625 
Q 13.875 30.125 13.875 23.1875 
z
" id="ArialMT-36"/>
     </defs>
     <g style="fill:#1a1a1a;" transform="translate(147.390536 279.310452)scale(0.12 -0.12)">
      <use xlink:href="#ArialMT-36"/>
     </g>
    </g>
   </g>
   <g id="text_8">
    <g clip-path="url(#p243e8913de)">
     <!-- 7 -->
     <defs>
      <path d="M 4.734375 62.203125 
L 4.734375 70.65625 
L 51.078125 70.65625 
L 51.078125 63.8125 
Q 44.234375 56.546875 37.515625 44.484375 
Q 30.8125 32.421875 27.15625 19.671875 
Q 24.515625 10.6875 23.78125 0 
L 14.75 0 
Q 14.890625 8.453125 18.0625 20.40625 
Q 21.234375 32.375 27.171875 43.484375 
Q 33.109375 54.59375 39.796875 62.203125 
z
" id="ArialMT-37"/>
     </defs>
     <g style="fill:#1a1a1a;" transform="translate(302.768241 52.714149)scale(0.12 -0.12)">
      <use xlink:href="#ArialMT-37"/>
     </g>
    </g>
   </g>
  </g>
 </g>
 <defs>
  <clipPath id="p243e8913de">
   <rect height="288" width="432" x="38.414687" y="13.2"/>
  </clipPath>
 </defs>
</svg>
