<?xml version="1.0" encoding="utf-8" standalone="no"?>
<!DOCTYPE svg PUBLIC "-//W3C//DTD SVG 1.1//EN"
  "http://www.w3.org/Graphics/SVG/1.1/DTD/svg11.dtd">
<!-- Created with matplotlib (http://matplotlib.org/) -->
<svg height="686pt" version="1.1" viewBox="0 0 1043 686" width="1043pt" xmlns="http://www.w3.org/2000/svg" xmlns:xlink="http://www.w3.org/1999/xlink">
 <defs>
  <style type="text/css">
*{stroke-linecap:butt;stroke-linejoin:round;}
  </style>
 </defs>
 <g id="figure_1">
  <g id="patch_1">
   <path d="M 0 686.721625 
L 1043.384286 686.721625 
L 1043.384286 0 
L 0 0 
z
" style="fill:#ffffff;"/>
  </g>
  <g id="axes_1">
   <g id="patch_2">
    <path d="M 155.179375 638.332562 
L 992.179375 638.332562 
L 992.179375 94.732562 
L 155.179375 94.732562 
z
" style="fill:#eaeaf2;"/>
   </g>
   <g id="matplotlib.axis_1">
    <g id="xtick_1">
     <g id="line2d_1">
      <path clip-path="url(#p26704763ae)" d="M 155.179375 638.332562 
L 155.179375 94.732562 
" style="fill:none;stroke:#ffffff;stroke-linecap:round;stroke-width:0.8;"/>
     </g>
     <g id="text_1">
      <!-- 0.0 -->
      <defs>
       <path d="M 27.90625 67.90625 
Q 39 67.90625 44.640625 59.046875 
Q 50.296875 50.203125 50.296875 33.40625 
Q 50.296875 16.59375 44.640625 7.6875 
Q 39 -1.203125 27.90625 -1.203125 
Q 16.796875 -1.203125 11.140625 7.6875 
Q 5.5 16.59375 5.5 33.40625 
Q 5.5 50.203125 11.140625 59.046875 
Q 16.796875 67.90625 27.90625 67.90625 
z
M 27.90625 60.59375 
Q 21.40625 60.59375 18.25 54.1875 
Q 15.09375 47.796875 15.09375 33.40625 
Q 15.09375 19 18.25 12.546875 
Q 21.40625 6.09375 27.90625 6.09375 
Q 34.296875 6.09375 37.5 12.546875 
Q 40.703125 19 40.703125 33.40625 
Q 40.703125 47.703125 37.5 54.140625 
Q 34.296875 60.59375 27.90625 60.59375 
z
" id="FiraSans-Regular-30"/>
       <path d="M 11.90625 12.703125 
Q 14.90625 12.703125 16.90625 10.703125 
Q 18.90625 8.703125 18.90625 5.796875 
Q 18.90625 2.90625 16.90625 0.84375 
Q 14.90625 -1.203125 11.90625 -1.203125 
Q 9 -1.203125 7 0.84375 
Q 5 2.90625 5 5.796875 
Q 5 8.703125 7 10.703125 
Q 9 12.703125 11.90625 12.703125 
z
" id="FiraSans-Regular-2e"/>
      </defs>
      <g style="fill:#262626;" transform="translate(145.687813 657.132562)scale(0.14 -0.14)">
       <use xlink:href="#FiraSans-Regular-30"/>
       <use x="55.799988" xlink:href="#FiraSans-Regular-2e"/>
       <use x="79.799973" xlink:href="#FiraSans-Regular-30"/>
      </g>
     </g>
    </g>
    <g id="xtick_2">
     <g id="line2d_2">
      <path clip-path="url(#p26704763ae)" d="M 288.036518 638.332562 
L 288.036518 94.732562 
" style="fill:none;stroke:#ffffff;stroke-linecap:round;stroke-width:0.8;"/>
     </g>
     <g id="text_2">
      <!-- 0.5 -->
      <defs>
       <path d="M 42 59.703125 
L 15.90625 59.703125 
L 15.90625 40 
Q 21 42.59375 26.59375 42.59375 
Q 35.203125 42.59375 40.390625 36.9375 
Q 45.59375 31.296875 45.59375 21.40625 
Q 45.59375 14.796875 42.6875 9.640625 
Q 39.796875 4.5 34.546875 1.640625 
Q 29.296875 -1.203125 22.40625 -1.203125 
Q 16.296875 -1.203125 11.5 0.9375 
Q 6.703125 3.09375 2.59375 7.296875 
L 8 12.59375 
Q 11.203125 9.40625 14.59375 7.84375 
Q 18 6.296875 22.296875 6.296875 
Q 28.703125 6.296875 32.34375 10.296875 
Q 36 14.296875 36 21.59375 
Q 36 28.90625 32.703125 32.203125 
Q 29.40625 35.5 23.796875 35.5 
Q 21.203125 35.5 19 34.953125 
Q 16.796875 34.40625 14.296875 33.203125 
L 7.09375 33.203125 
L 7.09375 66.90625 
L 43.296875 66.90625 
z
" id="FiraSans-Regular-35"/>
      </defs>
      <g style="fill:#262626;" transform="translate(278.944174 657.132562)scale(0.14 -0.14)">
       <use xlink:href="#FiraSans-Regular-30"/>
       <use x="55.799988" xlink:href="#FiraSans-Regular-2e"/>
       <use x="79.799973" xlink:href="#FiraSans-Regular-35"/>
      </g>
     </g>
    </g>
    <g id="xtick_3">
     <g id="line2d_3">
      <path clip-path="url(#p26704763ae)" d="M 420.893661 638.332562 
L 420.893661 94.732562 
" style="fill:none;stroke:#ffffff;stroke-linecap:round;stroke-width:0.8;"/>
     </g>
     <g id="text_3">
      <!-- 1.0 -->
      <defs>
       <path d="M 32.296875 66.90625 
L 32.296875 0 
L 23.09375 0 
L 23.09375 57.09375 
L 7.5 47.59375 
L 3.5 54.09375 
L 24.203125 66.90625 
z
" id="FiraSans-Regular-31"/>
      </defs>
      <g style="fill:#262626;" transform="translate(412.277098 657.132562)scale(0.14 -0.14)">
       <use xlink:href="#FiraSans-Regular-31"/>
       <use x="43.299988" xlink:href="#FiraSans-Regular-2e"/>
       <use x="67.299973" xlink:href="#FiraSans-Regular-30"/>
      </g>
     </g>
    </g>
    <g id="xtick_4">
     <g id="line2d_4">
      <path clip-path="url(#p26704763ae)" d="M 553.750804 638.332562 
L 553.750804 94.732562 
" style="fill:none;stroke:#ffffff;stroke-linecap:round;stroke-width:0.8;"/>
     </g>
     <g id="text_4">
      <!-- 1.5 -->
      <g style="fill:#262626;" transform="translate(545.53346 657.132562)scale(0.14 -0.14)">
       <use xlink:href="#FiraSans-Regular-31"/>
       <use x="43.299988" xlink:href="#FiraSans-Regular-2e"/>
       <use x="67.299973" xlink:href="#FiraSans-Regular-35"/>
      </g>
     </g>
    </g>
    <g id="xtick_5">
     <g id="line2d_5">
      <path clip-path="url(#p26704763ae)" d="M 686.607946 638.332562 
L 686.607946 94.732562 
" style="fill:none;stroke:#ffffff;stroke-linecap:round;stroke-width:0.8;"/>
     </g>
     <g id="text_5">
      <!-- 2.0 -->
      <defs>
       <path d="M 22.796875 67.90625 
Q 28.796875 67.90625 33.34375 65.5 
Q 37.90625 63.09375 40.40625 58.9375 
Q 42.90625 54.796875 42.90625 49.59375 
Q 42.90625 43.5 40.15625 37.890625 
Q 37.40625 32.296875 31.703125 25.796875 
Q 26 19.296875 14.40625 7.703125 
L 44.5 7.703125 
L 43.40625 0 
L 3.90625 0 
L 3.90625 7.296875 
Q 17.296875 21.203125 22.890625 27.640625 
Q 28.5 34.09375 30.890625 38.890625 
Q 33.296875 43.703125 33.296875 49.203125 
Q 33.296875 54.40625 30.296875 57.34375 
Q 27.296875 60.296875 22.296875 60.296875 
Q 18.203125 60.296875 15.09375 58.59375 
Q 12 56.90625 8.5 53 
L 2.5 57.796875 
Q 6.59375 62.90625 11.59375 65.40625 
Q 16.59375 67.90625 22.796875 67.90625 
z
" id="FiraSans-Regular-32"/>
      </defs>
      <g style="fill:#262626;" transform="translate(677.557165 657.132562)scale(0.14 -0.14)">
       <use xlink:href="#FiraSans-Regular-32"/>
       <use x="49.499985" xlink:href="#FiraSans-Regular-2e"/>
       <use x="73.499969" xlink:href="#FiraSans-Regular-30"/>
      </g>
     </g>
    </g>
    <g id="xtick_6">
     <g id="line2d_6">
      <path clip-path="url(#p26704763ae)" d="M 819.465089 638.332562 
L 819.465089 94.732562 
" style="fill:none;stroke:#ffffff;stroke-linecap:round;stroke-width:0.8;"/>
     </g>
     <g id="text_6">
      <!-- 2.5 -->
      <g style="fill:#262626;" transform="translate(810.813527 657.132562)scale(0.14 -0.14)">
       <use xlink:href="#FiraSans-Regular-32"/>
       <use x="49.499985" xlink:href="#FiraSans-Regular-2e"/>
       <use x="73.499969" xlink:href="#FiraSans-Regular-35"/>
      </g>
     </g>
    </g>
    <g id="xtick_7">
     <g id="line2d_7">
      <path clip-path="url(#p26704763ae)" d="M 952.322232 638.332562 
L 952.322232 94.732562 
" style="fill:none;stroke:#ffffff;stroke-linecap:round;stroke-width:0.8;"/>
     </g>
     <g id="text_7">
      <!-- 3.0 -->
      <defs>
       <path d="M 22.5 67.90625 
Q 28.703125 67.90625 33.140625 65.59375 
Q 37.59375 63.296875 39.9375 59.390625 
Q 42.296875 55.5 42.296875 50.90625 
Q 42.296875 44.796875 38.75 40.84375 
Q 35.203125 36.90625 29.296875 35.5 
Q 36 34.90625 40.203125 30.703125 
Q 44.40625 26.5 44.40625 19.296875 
Q 44.40625 13.5 41.59375 8.796875 
Q 38.796875 4.09375 33.59375 1.4375 
Q 28.40625 -1.203125 21.59375 -1.203125 
Q 15.5 -1.203125 10.390625 1.046875 
Q 5.296875 3.296875 1.5 7.796875 
L 7 12.90625 
Q 10.296875 9.5 13.75 7.890625 
Q 17.203125 6.296875 21.296875 6.296875 
Q 27.59375 6.296875 31.1875 9.84375 
Q 34.796875 13.40625 34.796875 19.40625 
Q 34.796875 26 31.390625 28.703125 
Q 28 31.40625 21.5 31.40625 
L 16.5 31.40625 
L 17.59375 38.5 
L 21 38.5 
Q 26.203125 38.5 29.640625 41.59375 
Q 33.09375 44.703125 33.09375 50.296875 
Q 33.09375 55 30.09375 57.75 
Q 27.09375 60.5 22 60.5 
Q 18.09375 60.5 14.84375 59.09375 
Q 11.59375 57.703125 8.203125 54.5 
L 3.40625 60 
Q 11.90625 67.90625 22.5 67.90625 
z
" id="FiraSans-Regular-33"/>
      </defs>
      <g style="fill:#262626;" transform="translate(943.243013 657.132562)scale(0.14 -0.14)">
       <use xlink:href="#FiraSans-Regular-33"/>
       <use x="49.899994" xlink:href="#FiraSans-Regular-2e"/>
       <use x="73.899979" xlink:href="#FiraSans-Regular-30"/>
      </g>
     </g>
    </g>
    <g id="text_8">
     <!-- Count -->
     <defs>
      <path d="M 34.09375 70.09375 
Q 40.296875 70.09375 44.546875 68.5 
Q 48.796875 66.90625 53.203125 63.296875 
L 48 57.203125 
Q 41.703125 62.296875 34.703125 62.296875 
Q 26.09375 62.296875 20.84375 55.6875 
Q 15.59375 49.09375 15.59375 34.5 
Q 15.59375 20.296875 20.796875 13.546875 
Q 26 6.796875 34.59375 6.796875 
Q 39 6.796875 42.296875 8.296875 
Q 45.59375 9.796875 49.296875 12.5 
L 54 6.5 
Q 50.796875 3.203125 45.796875 1 
Q 40.796875 -1.203125 34.296875 -1.203125 
Q 25.90625 -1.203125 19.34375 2.9375 
Q 12.796875 7.09375 9.140625 15.140625 
Q 5.5 23.203125 5.5 34.5 
Q 5.5 45.796875 9.296875 53.84375 
Q 13.09375 61.90625 19.59375 66 
Q 26.09375 70.09375 34.09375 70.09375 
z
" id="FiraSans-Regular-43"/>
      <path d="M 29.296875 53.90625 
Q 40.40625 53.90625 46.546875 46.5 
Q 52.703125 39.09375 52.703125 26.40625 
Q 52.703125 18.203125 49.890625 11.953125 
Q 47.09375 5.703125 41.796875 2.25 
Q 36.5 -1.203125 29.203125 -1.203125 
Q 18.09375 -1.203125 11.890625 6.1875 
Q 5.703125 13.59375 5.703125 26.296875 
Q 5.703125 34.5 8.5 40.75 
Q 11.296875 47 16.59375 50.453125 
Q 21.90625 53.90625 29.296875 53.90625 
z
M 29.296875 46.5 
Q 15.59375 46.5 15.59375 26.296875 
Q 15.59375 6.203125 29.203125 6.203125 
Q 42.796875 6.203125 42.796875 26.40625 
Q 42.796875 46.5 29.296875 46.5 
z
" id="FiraSans-Regular-6f"/>
      <path d="M 48.703125 0 
L 40.796875 0 
L 40.09375 8.203125 
Q 37.09375 3.296875 33.1875 1.046875 
Q 29.296875 -1.203125 23.703125 -1.203125 
Q 16.796875 -1.203125 12.890625 3 
Q 9 7.203125 9 14.90625 
L 9 52.703125 
L 18.203125 52.703125 
L 18.203125 15.90625 
Q 18.203125 10.5 20.09375 8.25 
Q 22 6 26.296875 6 
Q 34 6 39.5 15.09375 
L 39.5 52.703125 
L 48.703125 52.703125 
z
" id="FiraSans-Regular-75"/>
      <path d="M 34.296875 53.90625 
Q 41.5 53.90625 45.546875 49.59375 
Q 49.59375 45.296875 49.59375 37.796875 
L 49.59375 0 
L 40.40625 0 
L 40.40625 36.5 
Q 40.40625 42.09375 38.296875 44.390625 
Q 36.203125 46.703125 32.09375 46.703125 
Q 27.90625 46.703125 24.703125 44.296875 
Q 21.5 41.90625 18.703125 37.40625 
L 18.703125 0 
L 9.5 0 
L 9.5 52.703125 
L 17.40625 52.703125 
L 18.203125 44.90625 
Q 21 49.09375 25.140625 51.5 
Q 29.296875 53.90625 34.296875 53.90625 
z
" id="FiraSans-Regular-6e"/>
      <path d="M 36.09375 2.40625 
Q 30.90625 -1.203125 24.296875 -1.203125 
Q 17.59375 -1.203125 13.84375 2.640625 
Q 10.09375 6.5 10.09375 13.796875 
L 10.09375 45.59375 
L 0.90625 45.59375 
L 0.90625 52.703125 
L 10.09375 52.703125 
L 10.09375 64.59375 
L 19.296875 65.703125 
L 19.296875 52.703125 
L 31.796875 52.703125 
L 30.796875 45.59375 
L 19.296875 45.59375 
L 19.296875 14.203125 
Q 19.296875 10.09375 20.75 8.25 
Q 22.203125 6.40625 25.59375 6.40625 
Q 28.703125 6.40625 32.59375 8.5 
z
" id="FiraSans-Regular-74"/>
     </defs>
     <g style="fill:#262626;" transform="translate(552.295625 676.114125)scale(0.16 -0.16)">
      <use xlink:href="#FiraSans-Regular-43"/>
      <use x="55.999985" xlink:href="#FiraSans-Regular-6f"/>
      <use x="114.399979" xlink:href="#FiraSans-Regular-75"/>
      <use x="172.599976" xlink:href="#FiraSans-Regular-6e"/>
      <use x="231.199966" xlink:href="#FiraSans-Regular-74"/>
     </g>
    </g>
   </g>
   <g id="matplotlib.axis_2">
    <g id="ytick_1">
     <g id="line2d_8">
      <path clip-path="url(#p26704763ae)" d="M 155.179375 570.382562 
L 992.179375 570.382562 
" style="fill:none;stroke:#ffffff;stroke-linecap:round;stroke-width:0.8;"/>
     </g>
     <g id="text_9">
      <!-- 4 - Frequently -->
      <defs>
       <path d="M 50.203125 23.796875 
L 50.203125 16.5 
L 41.5 16.5 
L 41.5 0 
L 32.59375 0 
L 32.59375 16.5 
L 4 16.5 
L 4 23.09375 
L 24.09375 67.90625 
L 31.796875 64.703125 
L 13.703125 23.796875 
L 32.703125 23.796875 
L 33.5 41.796875 
L 41.5 41.796875 
L 41.5 23.796875 
z
" id="FiraSans-Regular-34"/>
       <path id="FiraSans-Regular-20"/>
       <path d="M 6 27.40625 
L 6 35.203125 
L 34.296875 35.203125 
L 34.296875 27.40625 
z
" id="FiraSans-Regular-2d"/>
       <path d="M 10 0 
L 10 68.90625 
L 46.59375 68.90625 
L 45.5 61.296875 
L 19.5 61.296875 
L 19.5 37.796875 
L 42 37.796875 
L 42 30.296875 
L 19.5 30.296875 
L 19.5 0 
z
" id="FiraSans-Regular-46"/>
       <path d="M 32.40625 53.90625 
Q 35.203125 53.90625 37.59375 53.296875 
L 35.90625 44.296875 
Q 33.5 44.90625 31.296875 44.90625 
Q 26.40625 44.90625 23.40625 41.296875 
Q 20.40625 37.703125 18.703125 30.09375 
L 18.703125 0 
L 9.5 0 
L 9.5 52.703125 
L 17.40625 52.703125 
L 18.296875 42 
Q 20.40625 47.90625 24 50.90625 
Q 27.59375 53.90625 32.40625 53.90625 
z
" id="FiraSans-Regular-72"/>
       <path d="M 49.296875 27.90625 
Q 49.296875 25.59375 49.09375 23.203125 
L 15.5 23.203125 
Q 16.09375 14.5 19.890625 10.390625 
Q 23.703125 6.296875 29.703125 6.296875 
Q 33.5 6.296875 36.703125 7.390625 
Q 39.90625 8.5 43.40625 10.90625 
L 47.40625 5.40625 
Q 39 -1.203125 29 -1.203125 
Q 18 -1.203125 11.84375 6 
Q 5.703125 13.203125 5.703125 25.796875 
Q 5.703125 34 8.34375 40.34375 
Q 11 46.703125 15.953125 50.296875 
Q 20.90625 53.90625 27.59375 53.90625 
Q 38.09375 53.90625 43.6875 47 
Q 49.296875 40.09375 49.296875 27.90625 
z
M 40.203125 30.59375 
Q 40.203125 38.40625 37.09375 42.5 
Q 34 46.59375 27.796875 46.59375 
Q 16.5 46.59375 15.5 30 
L 40.203125 30 
z
" id="FiraSans-Regular-65"/>
       <path d="M 50.296875 52.703125 
L 50.296875 -21.296875 
L 41.09375 -20.203125 
L 41.09375 7 
Q 38.5 3.09375 34.640625 0.9375 
Q 30.796875 -1.203125 26.09375 -1.203125 
Q 16.703125 -1.203125 11.453125 6.1875 
Q 6.203125 13.59375 6.203125 26.09375 
Q 6.203125 34.203125 8.703125 40.5 
Q 11.203125 46.796875 15.890625 50.34375 
Q 20.59375 53.90625 26.90625 53.90625 
Q 35.296875 53.90625 41.703125 46.796875 
L 42.40625 52.703125 
z
M 28.09375 6.09375 
Q 32.296875 6.09375 35.296875 8.046875 
Q 38.296875 10 41.09375 13.90625 
L 41.09375 39.703125 
Q 38.5 43.09375 35.546875 44.84375 
Q 32.59375 46.59375 28.90625 46.59375 
Q 22.796875 46.59375 19.4375 41.5 
Q 16.09375 36.40625 16.09375 26.296875 
Q 16.09375 16.09375 19.1875 11.09375 
Q 22.296875 6.09375 28.09375 6.09375 
z
" id="FiraSans-Regular-71"/>
       <path d="M 20 -1.203125 
Q 14.90625 -1.203125 11.953125 1.84375 
Q 9 4.90625 9 10.40625 
L 9 73.90625 
L 18.203125 75 
L 18.203125 10.59375 
Q 18.203125 8.40625 18.953125 7.40625 
Q 19.703125 6.40625 21.5 6.40625 
Q 23.40625 6.40625 24.90625 7 
L 27.296875 0.59375 
Q 24 -1.203125 20 -1.203125 
z
" id="FiraSans-Regular-6c"/>
       <path d="M 30.59375 -0.296875 
Q 27.5 -9.5 21.953125 -14.84375 
Q 16.40625 -20.203125 6.09375 -21.296875 
L 5.09375 -14.09375 
Q 10.296875 -13.203125 13.390625 -11.5 
Q 16.5 -9.796875 18.34375 -7.140625 
Q 20.203125 -4.5 21.796875 0 
L 18.703125 0 
L 1 52.703125 
L 10.796875 52.703125 
L 24.90625 6.703125 
L 38.703125 52.703125 
L 48.203125 52.703125 
z
" id="FiraSans-Regular-79"/>
      </defs>
      <g style="fill:#262626;" transform="translate(58.066875 575.632562)scale(0.14 -0.14)">
       <use xlink:href="#FiraSans-Regular-34"/>
       <use x="53.199997" xlink:href="#FiraSans-Regular-20"/>
       <use x="79.699982" xlink:href="#FiraSans-Regular-2d"/>
       <use x="119.999969" xlink:href="#FiraSans-Regular-20"/>
       <use x="146.499954" xlink:href="#FiraSans-Regular-46"/>
       <use x="195.599945" xlink:href="#FiraSans-Regular-72"/>
       <use x="234.199936" xlink:href="#FiraSans-Regular-65"/>
       <use x="288.699921" xlink:href="#FiraSans-Regular-71"/>
       <use x="348.499908" xlink:href="#FiraSans-Regular-75"/>
       <use x="406.699905" xlink:href="#FiraSans-Regular-65"/>
       <use x="461.19989" xlink:href="#FiraSans-Regular-6e"/>
       <use x="519.799881" xlink:href="#FiraSans-Regular-74"/>
       <use x="555.899872" xlink:href="#FiraSans-Regular-6c"/>
       <use x="585.19986" xlink:href="#FiraSans-Regular-79"/>
      </g>
     </g>
    </g>
    <g id="ytick_2">
     <g id="line2d_9">
      <path clip-path="url(#p26704763ae)" d="M 155.179375 434.482562 
L 992.179375 434.482562 
" style="fill:none;stroke:#ffffff;stroke-linecap:round;stroke-width:0.8;"/>
     </g>
     <g id="text_10">
      <!-- 2 - Rarely -->
      <defs>
       <path d="M 30.203125 29.203125 
L 19.5 29.203125 
L 19.5 0 
L 10 0 
L 10 68.90625 
L 28.09375 68.90625 
Q 41 68.90625 47.640625 64 
Q 54.296875 59.09375 54.296875 49.40625 
Q 54.296875 42.203125 50.59375 37.703125 
Q 46.90625 33.203125 39.40625 30.90625 
L 58 0 
L 46.703125 0 
z
M 29.09375 36.5 
Q 36.59375 36.5 40.390625 39.546875 
Q 44.203125 42.59375 44.203125 49.40625 
Q 44.203125 55.796875 40.34375 58.640625 
Q 36.5 61.5 28 61.5 
L 19.5 61.5 
L 19.5 36.5 
z
" id="FiraSans-Regular-52"/>
       <path d="M 45 12.296875 
Q 45 9.09375 46.09375 7.546875 
Q 47.203125 6 49.40625 5.203125 
L 47.296875 -1.203125 
Q 43.203125 -0.703125 40.703125 1.09375 
Q 38.203125 2.90625 37 6.703125 
Q 31.703125 -1.203125 21.296875 -1.203125 
Q 13.5 -1.203125 9 3.1875 
Q 4.5 7.59375 4.5 14.703125 
Q 4.5 23.09375 10.546875 27.59375 
Q 16.59375 32.09375 27.703125 32.09375 
L 35.796875 32.09375 
L 35.796875 36 
Q 35.796875 41.59375 33.09375 44 
Q 30.40625 46.40625 24.796875 46.40625 
Q 19 46.40625 10.59375 43.59375 
L 8.296875 50.296875 
Q 18.09375 53.90625 26.5 53.90625 
Q 35.796875 53.90625 40.390625 49.34375 
Q 45 44.796875 45 36.40625 
L 45 12.296875 
z
M 23.40625 5.703125 
Q 31.296875 5.703125 35.796875 13.90625 
L 35.796875 26 
L 28.90625 26 
Q 14.296875 26 14.296875 15.203125 
Q 14.296875 10.5 16.59375 8.09375 
Q 18.90625 5.703125 23.40625 5.703125 
z
" id="FiraSans-Regular-61"/>
      </defs>
      <g style="fill:#262626;" transform="translate(86.777812 439.732562)scale(0.14 -0.14)">
       <use xlink:href="#FiraSans-Regular-32"/>
       <use x="49.499985" xlink:href="#FiraSans-Regular-20"/>
       <use x="75.999969" xlink:href="#FiraSans-Regular-2d"/>
       <use x="116.299957" xlink:href="#FiraSans-Regular-20"/>
       <use x="142.799942" xlink:href="#FiraSans-Regular-52"/>
       <use x="203.299927" xlink:href="#FiraSans-Regular-61"/>
       <use x="257.699921" xlink:href="#FiraSans-Regular-72"/>
       <use x="296.299911" xlink:href="#FiraSans-Regular-65"/>
       <use x="350.799896" xlink:href="#FiraSans-Regular-6c"/>
       <use x="380.099884" xlink:href="#FiraSans-Regular-79"/>
      </g>
     </g>
    </g>
    <g id="ytick_3">
     <g id="line2d_10">
      <path clip-path="url(#p26704763ae)" d="M 155.179375 298.582562 
L 992.179375 298.582562 
" style="fill:none;stroke:#ffffff;stroke-linecap:round;stroke-width:0.8;"/>
     </g>
     <g id="text_11">
      <!-- 3 - Occasionally -->
      <defs>
       <path d="M 34.59375 70.09375 
Q 43.296875 70.09375 49.84375 65.9375 
Q 56.40625 61.796875 60.046875 53.796875 
Q 63.703125 45.796875 63.703125 34.40625 
Q 63.703125 23.203125 60.046875 15.203125 
Q 56.40625 7.203125 49.84375 3 
Q 43.296875 -1.203125 34.59375 -1.203125 
Q 25.90625 -1.203125 19.34375 2.890625 
Q 12.796875 7 9.140625 15 
Q 5.5 23 5.5 34.296875 
Q 5.5 45.40625 9.140625 53.5 
Q 12.796875 61.59375 19.390625 65.84375 
Q 26 70.09375 34.59375 70.09375 
z
M 34.59375 62.296875 
Q 25.59375 62.296875 20.59375 55.5 
Q 15.59375 48.703125 15.59375 34.296875 
Q 15.59375 20 20.640625 13.296875 
Q 25.703125 6.59375 34.59375 6.59375 
Q 53.59375 6.59375 53.59375 34.40625 
Q 53.59375 62.296875 34.59375 62.296875 
z
" id="FiraSans-Regular-4f"/>
       <path d="M 28.703125 53.90625 
Q 33.40625 53.90625 37.296875 52.546875 
Q 41.203125 51.203125 44.796875 48.203125 
L 40.40625 42.40625 
Q 37.59375 44.40625 34.9375 45.34375 
Q 32.296875 46.296875 29.09375 46.296875 
Q 22.703125 46.296875 19.140625 41.1875 
Q 15.59375 36.09375 15.59375 26.09375 
Q 15.59375 16.09375 19.09375 11.34375 
Q 22.59375 6.59375 29.09375 6.59375 
Q 32.203125 6.59375 34.796875 7.546875 
Q 37.40625 8.5 40.59375 10.59375 
L 44.796875 4.59375 
Q 37.59375 -1.203125 28.703125 -1.203125 
Q 18 -1.203125 11.84375 6 
Q 5.703125 13.203125 5.703125 25.90625 
Q 5.703125 34.296875 8.5 40.59375 
Q 11.296875 46.90625 16.4375 50.40625 
Q 21.59375 53.90625 28.703125 53.90625 
z
" id="FiraSans-Regular-63"/>
       <path d="M 23.796875 53.90625 
Q 29.203125 53.90625 33.5 52.40625 
Q 37.796875 50.90625 41.703125 47.90625 
L 37.796875 42.09375 
Q 34.203125 44.40625 30.953125 45.5 
Q 27.703125 46.59375 24.09375 46.59375 
Q 19.59375 46.59375 17 44.75 
Q 14.40625 42.90625 14.40625 39.703125 
Q 14.40625 36.5 16.84375 34.703125 
Q 19.296875 32.90625 25.703125 31.203125 
Q 34.5 29 38.84375 25.203125 
Q 43.203125 21.40625 43.203125 14.796875 
Q 43.203125 7 37.140625 2.890625 
Q 31.09375 -1.203125 22.40625 -1.203125 
Q 10.40625 -1.203125 2.5 5.703125 
L 7.40625 11.296875 
Q 14.09375 6.203125 22.203125 6.203125 
Q 27.40625 6.203125 30.453125 8.34375 
Q 33.5 10.5 33.5 14.203125 
Q 33.5 16.90625 32.390625 18.546875 
Q 31.296875 20.203125 28.59375 21.453125 
Q 25.90625 22.703125 20.703125 24.09375 
Q 12.296875 26.296875 8.546875 30 
Q 4.796875 33.703125 4.796875 39.40625 
Q 4.796875 43.5 7.25 46.84375 
Q 9.703125 50.203125 14.046875 52.046875 
Q 18.40625 53.90625 23.796875 53.90625 
z
" id="FiraSans-Regular-73"/>
       <path d="M 18.703125 52.703125 
L 18.703125 0 
L 9.5 0 
L 9.5 52.703125 
z
M 14 78 
Q 16.90625 78 18.703125 76.203125 
Q 20.5 74.40625 20.5 71.703125 
Q 20.5 69 18.703125 67.25 
Q 16.90625 65.5 14 65.5 
Q 11.203125 65.5 9.390625 67.25 
Q 7.59375 69 7.59375 71.703125 
Q 7.59375 74.40625 9.390625 76.203125 
Q 11.203125 78 14 78 
z
" id="FiraSans-Regular-69"/>
      </defs>
      <g style="fill:#262626;" transform="translate(46.567187 304.042562)scale(0.14 -0.14)">
       <use xlink:href="#FiraSans-Regular-33"/>
       <use x="49.899994" xlink:href="#FiraSans-Regular-20"/>
       <use x="76.399979" xlink:href="#FiraSans-Regular-2d"/>
       <use x="116.699966" xlink:href="#FiraSans-Regular-20"/>
       <use x="143.199951" xlink:href="#FiraSans-Regular-4f"/>
       <use x="212.399933" xlink:href="#FiraSans-Regular-63"/>
       <use x="260.199921" xlink:href="#FiraSans-Regular-63"/>
       <use x="307.999908" xlink:href="#FiraSans-Regular-61"/>
       <use x="362.399902" xlink:href="#FiraSans-Regular-73"/>
       <use x="409.099899" xlink:href="#FiraSans-Regular-69"/>
       <use x="437.299896" xlink:href="#FiraSans-Regular-6f"/>
       <use x="495.69989" xlink:href="#FiraSans-Regular-6e"/>
       <use x="554.299881" xlink:href="#FiraSans-Regular-61"/>
       <use x="608.699875" xlink:href="#FiraSans-Regular-6c"/>
       <use x="637.999863" xlink:href="#FiraSans-Regular-6c"/>
       <use x="667.29985" xlink:href="#FiraSans-Regular-79"/>
      </g>
     </g>
    </g>
    <g id="ytick_4">
     <g id="line2d_11">
      <path clip-path="url(#p26704763ae)" d="M 155.179375 162.682562 
L 992.179375 162.682562 
" style="fill:none;stroke:#ffffff;stroke-linecap:round;stroke-width:0.8;"/>
     </g>
     <g id="text_12">
      <!-- 5 - Very Frequently -->
      <defs>
       <path d="M 55 68.90625 
L 33 0 
L 22.796875 0 
L 0.59375 68.90625 
L 10.796875 68.90625 
L 28.09375 10.296875 
L 45.40625 68.90625 
z
" id="FiraSans-Regular-56"/>
      </defs>
      <g style="fill:#262626;" transform="translate(27.0875 167.932562)scale(0.14 -0.14)">
       <use xlink:href="#FiraSans-Regular-35"/>
       <use x="50.099991" xlink:href="#FiraSans-Regular-20"/>
       <use x="76.599976" xlink:href="#FiraSans-Regular-2d"/>
       <use x="116.899963" xlink:href="#FiraSans-Regular-20"/>
       <use x="143.399948" xlink:href="#FiraSans-Regular-56"/>
       <use x="198.999939" xlink:href="#FiraSans-Regular-65"/>
       <use x="253.499924" xlink:href="#FiraSans-Regular-72"/>
       <use x="292.099915" xlink:href="#FiraSans-Regular-79"/>
       <use x="341.299911" xlink:href="#FiraSans-Regular-20"/>
       <use x="367.799896" xlink:href="#FiraSans-Regular-46"/>
       <use x="416.899887" xlink:href="#FiraSans-Regular-72"/>
       <use x="455.499878" xlink:href="#FiraSans-Regular-65"/>
       <use x="509.999863" xlink:href="#FiraSans-Regular-71"/>
       <use x="569.79985" xlink:href="#FiraSans-Regular-75"/>
       <use x="627.999847" xlink:href="#FiraSans-Regular-65"/>
       <use x="682.499832" xlink:href="#FiraSans-Regular-6e"/>
       <use x="741.099823" xlink:href="#FiraSans-Regular-74"/>
       <use x="777.199814" xlink:href="#FiraSans-Regular-6c"/>
       <use x="806.499802" xlink:href="#FiraSans-Regular-79"/>
      </g>
     </g>
    </g>
    <g id="text_13">
     <!-- Frequency of collaboration -->
     <defs>
      <path d="M 27.40625 67.59375 
Q 23.203125 67.59375 21.390625 65.75 
Q 19.59375 63.90625 19.59375 60 
L 19.59375 52.703125 
L 32.40625 52.703125 
L 31.40625 45.59375 
L 19.59375 45.59375 
L 19.59375 0 
L 10.40625 0 
L 10.40625 45.59375 
L 1 45.59375 
L 1 52.703125 
L 10.40625 52.703125 
L 10.40625 59.90625 
Q 10.40625 66.703125 14.75 70.84375 
Q 19.09375 75 26.90625 75 
Q 30.5 75 33.34375 74.34375 
Q 36.203125 73.703125 39.5 72.296875 
L 36.59375 65.59375 
Q 32.09375 67.59375 27.40625 67.59375 
z
" id="FiraSans-Regular-66"/>
      <path d="M 33.59375 53.90625 
Q 42.59375 53.90625 47.890625 46.65625 
Q 53.203125 39.40625 53.203125 26.40625 
Q 53.203125 18.203125 50.703125 11.953125 
Q 48.203125 5.703125 43.5 2.25 
Q 38.796875 -1.203125 32.5 -1.203125 
Q 24.203125 -1.203125 18.5 5.796875 
L 17.59375 0 
L 9.5 0 
L 9.5 73.90625 
L 18.703125 75 
L 18.703125 46.09375 
Q 24.40625 53.90625 33.59375 53.90625 
z
M 30.296875 6.09375 
Q 36.40625 6.09375 39.84375 11.046875 
Q 43.296875 16 43.296875 26.40625 
Q 43.296875 37.09375 40.09375 41.84375 
Q 36.90625 46.59375 31 46.59375 
Q 24 46.59375 18.703125 38.40625 
L 18.703125 13.203125 
Q 20.796875 9.90625 23.84375 8 
Q 26.90625 6.09375 30.296875 6.09375 
z
" id="FiraSans-Regular-62"/>
     </defs>
     <g style="fill:#262626;" transform="translate(19.68 464.652562)rotate(-90)scale(0.16 -0.16)">
      <use xlink:href="#FiraSans-Regular-46"/>
      <use x="49.099991" xlink:href="#FiraSans-Regular-72"/>
      <use x="87.699982" xlink:href="#FiraSans-Regular-65"/>
      <use x="142.199966" xlink:href="#FiraSans-Regular-71"/>
      <use x="201.999954" xlink:href="#FiraSans-Regular-75"/>
      <use x="260.199951" xlink:href="#FiraSans-Regular-65"/>
      <use x="314.699936" xlink:href="#FiraSans-Regular-6e"/>
      <use x="373.299927" xlink:href="#FiraSans-Regular-63"/>
      <use x="421.099915" xlink:href="#FiraSans-Regular-79"/>
      <use x="470.299911" xlink:href="#FiraSans-Regular-20"/>
      <use x="496.799896" xlink:href="#FiraSans-Regular-6f"/>
      <use x="555.19989" xlink:href="#FiraSans-Regular-66"/>
      <use x="588.699875" xlink:href="#FiraSans-Regular-20"/>
      <use x="615.19986" xlink:href="#FiraSans-Regular-63"/>
      <use x="662.999847" xlink:href="#FiraSans-Regular-6f"/>
      <use x="721.399841" xlink:href="#FiraSans-Regular-6c"/>
      <use x="750.699829" xlink:href="#FiraSans-Regular-6c"/>
      <use x="779.999817" xlink:href="#FiraSans-Regular-61"/>
      <use x="834.399811" xlink:href="#FiraSans-Regular-62"/>
      <use x="893.799805" xlink:href="#FiraSans-Regular-6f"/>
      <use x="952.199799" xlink:href="#FiraSans-Regular-72"/>
      <use x="990.799789" xlink:href="#FiraSans-Regular-61"/>
      <use x="1045.199783" xlink:href="#FiraSans-Regular-74"/>
      <use x="1081.299774" xlink:href="#FiraSans-Regular-69"/>
      <use x="1109.499771" xlink:href="#FiraSans-Regular-6f"/>
      <use x="1167.899765" xlink:href="#FiraSans-Regular-6e"/>
     </g>
    </g>
   </g>
   <g id="patch_3">
    <path clip-path="url(#p26704763ae)" d="M 155.179375 604.357562 
L 952.322232 604.357562 
L 952.322232 536.407562 
L 155.179375 536.407562 
z
" style="fill:#4c72b0;opacity:0.75;stroke:#ffffff;stroke-linejoin:miter;stroke-width:0.8;"/>
   </g>
   <g id="patch_4">
    <path clip-path="url(#p26704763ae)" d="M 155.179375 468.457562 
L 686.607946 468.457562 
L 686.607946 400.507562 
L 155.179375 400.507562 
z
" style="fill:#dd8452;opacity:0.75;stroke:#ffffff;stroke-linejoin:miter;stroke-width:0.8;"/>
   </g>
   <g id="patch_5">
    <path clip-path="url(#p26704763ae)" d="M 155.179375 332.557562 
L 686.607946 332.557562 
L 686.607946 264.607562 
L 155.179375 264.607562 
z
" style="fill:#55a868;opacity:0.75;stroke:#ffffff;stroke-linejoin:miter;stroke-width:0.8;"/>
   </g>
   <g id="patch_6">
    <path clip-path="url(#p26704763ae)" d="M 155.179375 196.657562 
L 420.893661 196.657562 
L 420.893661 128.707562 
L 155.179375 128.707562 
z
" style="fill:#c44e52;opacity:0.75;stroke:#ffffff;stroke-linejoin:miter;stroke-width:0.8;"/>
   </g>
   <g id="patch_7">
    <path d="M 155.179375 638.332562 
L 155.179375 94.732562 
" style="fill:none;stroke:#ffffff;stroke-linecap:square;stroke-linejoin:miter;"/>
   </g>
   <g id="patch_8">
    <path d="M 992.179375 638.332562 
L 992.179375 94.732562 
" style="fill:none;stroke:#ffffff;stroke-linecap:square;stroke-linejoin:miter;"/>
   </g>
   <g id="patch_9">
    <path d="M 155.179375 638.332562 
L 992.179375 638.332562 
" style="fill:none;stroke:#ffffff;stroke-linecap:square;stroke-linejoin:miter;"/>
   </g>
   <g id="patch_10">
    <path d="M 155.179375 94.732562 
L 992.179375 94.732562 
" style="fill:none;stroke:#ffffff;stroke-linecap:square;stroke-linejoin:miter;"/>
   </g>
   <g id="text_14">
    <!-- 3 (25.0%) -->
    <defs>
     <path d="M 23.203125 68.5 
Q 29.90625 68.5 34.75 66.203125 
Q 39.59375 63.90625 42.046875 60 
Q 44.5 56.09375 44.5 51.40625 
Q 44.5 45.296875 41 41.25 
Q 37.5 37.203125 31.40625 35.59375 
Q 38.09375 35 42.390625 30.796875 
Q 46.703125 26.59375 46.703125 19.203125 
Q 46.703125 13.40625 43.75 8.703125 
Q 40.796875 4 35.296875 1.25 
Q 29.796875 -1.5 22.296875 -1.5 
Q 8.5 -1.5 0.5 8.203125 
L 7.59375 15 
Q 11 11.59375 14.296875 10.046875 
Q 17.59375 8.5 21.59375 8.5 
Q 27 8.5 30.25 11.546875 
Q 33.5 14.59375 33.5 19.796875 
Q 33.5 25.59375 30.453125 28.09375 
Q 27.40625 30.59375 21.40625 30.59375 
L 16.09375 30.59375 
L 17.59375 39.703125 
L 21.203125 39.703125 
Q 26.09375 39.703125 29.046875 42.390625 
Q 32 45.09375 32 49.90625 
Q 32 54 29.296875 56.34375 
Q 26.59375 58.703125 22.09375 58.703125 
Q 18.203125 58.703125 15 57.25 
Q 11.796875 55.796875 8.59375 52.796875 
L 2.09375 59.90625 
Q 11.203125 68.5 23.203125 68.5 
z
" id="FiraSans-Medium-33"/>
     <path id="FiraSans-Medium-20"/>
     <path d="M 30 79.703125 
Q 22.59375 69.09375 19.25 59.140625 
Q 15.90625 49.203125 15.90625 35 
Q 15.90625 20.90625 19.25 10.90625 
Q 22.59375 0.90625 30 -9.703125 
L 21.796875 -15.203125 
Q 15.296875 -6.09375 11.546875 0.25 
Q 7.796875 6.59375 5.296875 15.25 
Q 2.796875 23.90625 2.796875 35 
Q 2.796875 46.09375 5.296875 54.75 
Q 7.796875 63.40625 11.546875 69.75 
Q 15.296875 76.09375 21.796875 85.203125 
z
" id="FiraSans-Medium-28"/>
     <path d="M 23.296875 68.5 
Q 30.09375 68.5 35.046875 66 
Q 40 63.5 42.59375 59.203125 
Q 45.203125 54.90625 45.203125 49.59375 
Q 45.203125 43.90625 42.75 38.65625 
Q 40.296875 33.40625 34.59375 27 
Q 28.90625 20.59375 17.90625 10.09375 
L 46.703125 10.09375 
L 45.296875 0 
L 3.40625 0 
L 3.40625 9.40625 
Q 16.203125 22.40625 21.75 28.65625 
Q 27.296875 34.90625 29.640625 39.34375 
Q 32 43.796875 32 48.59375 
Q 32 53.203125 29.34375 55.796875 
Q 26.703125 58.40625 22.296875 58.40625 
Q 18.40625 58.40625 15.453125 56.75 
Q 12.5 55.09375 9.296875 51.296875 
L 1.5 57.5 
Q 10 68.5 23.296875 68.5 
z
" id="FiraSans-Medium-32"/>
     <path d="M 43.90625 57.796875 
L 18.703125 57.796875 
L 18.703125 41.09375 
Q 23.703125 43.59375 28.90625 43.59375 
Q 34.5 43.59375 38.890625 41 
Q 43.296875 38.40625 45.75 33.5 
Q 48.203125 28.59375 48.203125 21.90625 
Q 48.203125 15 45.09375 9.703125 
Q 42 4.40625 36.296875 1.453125 
Q 30.59375 -1.5 23.09375 -1.5 
Q 16.40625 -1.5 11.25 0.953125 
Q 6.09375 3.40625 1.90625 8 
L 9.203125 14.796875 
Q 15 8.40625 22.796875 8.40625 
Q 28.5 8.40625 31.75 11.90625 
Q 35 15.40625 35 21.90625 
Q 35 34.40625 24.203125 34.40625 
Q 21.90625 34.40625 19.90625 33.84375 
Q 17.90625 33.296875 15.5 32.09375 
L 6.40625 32.09375 
L 6.40625 67.296875 
L 45.40625 67.296875 
z
" id="FiraSans-Medium-35"/>
     <path d="M 11.90625 14.703125 
Q 15.296875 14.703125 17.6875 12.34375 
Q 20.09375 10 20.09375 6.59375 
Q 20.09375 3.296875 17.6875 0.890625 
Q 15.296875 -1.5 11.90625 -1.5 
Q 8.59375 -1.5 6.25 0.890625 
Q 3.90625 3.296875 3.90625 6.59375 
Q 3.90625 10 6.203125 12.34375 
Q 8.5 14.703125 11.90625 14.703125 
z
" id="FiraSans-Medium-2e"/>
     <path d="M 28.59375 68.5 
Q 40.40625 68.5 46.546875 59.5 
Q 52.703125 50.5 52.703125 33.59375 
Q 52.703125 16.59375 46.546875 7.546875 
Q 40.40625 -1.5 28.59375 -1.5 
Q 16.796875 -1.5 10.640625 7.546875 
Q 4.5 16.59375 4.5 33.59375 
Q 4.5 50.5 10.640625 59.5 
Q 16.796875 68.5 28.59375 68.5 
z
M 28.59375 58.796875 
Q 22.90625 58.796875 20.296875 53.046875 
Q 17.703125 47.296875 17.703125 33.59375 
Q 17.703125 19.796875 20.296875 14 
Q 22.90625 8.203125 28.59375 8.203125 
Q 34.296875 8.203125 36.890625 13.953125 
Q 39.5 19.703125 39.5 33.59375 
Q 39.5 47.40625 36.890625 53.09375 
Q 34.296875 58.796875 28.59375 58.796875 
z
" id="FiraSans-Medium-30"/>
     <path d="M 61.296875 71.59375 
L 69.59375 66.296875 
L 23.203125 -3.59375 
L 15 1.703125 
z
M 20.703125 68.5 
Q 25.5 68.5 29.390625 66.34375 
Q 33.296875 64.203125 35.546875 60.203125 
Q 37.796875 56.203125 37.796875 51 
Q 37.796875 45.796875 35.546875 41.796875 
Q 33.296875 37.796875 29.390625 35.640625 
Q 25.5 33.5 20.703125 33.5 
Q 15.90625 33.5 12.046875 35.640625 
Q 8.203125 37.796875 5.953125 41.796875 
Q 3.703125 45.796875 3.703125 51 
Q 3.703125 56.203125 5.953125 60.203125 
Q 8.203125 64.203125 12.046875 66.34375 
Q 15.90625 68.5 20.703125 68.5 
z
M 20.703125 60.5 
Q 16.796875 60.5 15.140625 57.84375 
Q 13.5 55.203125 13.5 51 
Q 13.5 46.90625 15.140625 44.203125 
Q 16.796875 41.5 20.703125 41.5 
Q 27.90625 41.5 27.90625 51 
Q 27.90625 60.5 20.703125 60.5 
z
M 63.703125 33.5 
Q 68.5 33.5 72.390625 31.34375 
Q 76.296875 29.203125 78.5 25.203125 
Q 80.703125 21.203125 80.703125 16 
Q 80.703125 10.796875 78.5 6.796875 
Q 76.296875 2.796875 72.390625 0.640625 
Q 68.5 -1.5 63.703125 -1.5 
Q 58.90625 -1.5 55 0.640625 
Q 51.09375 2.796875 48.84375 6.796875 
Q 46.59375 10.796875 46.59375 16 
Q 46.59375 21.203125 48.84375 25.203125 
Q 51.09375 29.203125 55 31.34375 
Q 58.90625 33.5 63.703125 33.5 
z
M 63.703125 25.5 
Q 59.796875 25.5 58.140625 22.84375 
Q 56.5 20.203125 56.5 16 
Q 56.5 11.90625 58.140625 9.203125 
Q 59.796875 6.5 63.703125 6.5 
Q 70.90625 6.5 70.90625 16 
Q 70.90625 25.5 63.703125 25.5 
z
" id="FiraSans-Medium-25"/>
     <path d="M 10.59375 85.203125 
Q 17.09375 76.203125 20.84375 69.796875 
Q 24.59375 63.40625 27.09375 54.796875 
Q 29.59375 46.203125 29.59375 35 
Q 29.59375 23.796875 27.09375 15.1875 
Q 24.59375 6.59375 20.84375 0.1875 
Q 17.09375 -6.203125 10.59375 -15.203125 
L 2.5 -9.703125 
Q 9.796875 0.90625 13.1875 10.90625 
Q 16.59375 20.90625 16.59375 35 
Q 16.59375 49.09375 13.1875 59.046875 
Q 9.796875 69 2.5 79.703125 
L 10.59375 85.203125 
z
" id="FiraSans-Medium-29"/>
    </defs>
    <g style="fill:#262626;" transform="translate(978.893661 570.382562)scale(0.14 -0.14)">
     <use xlink:href="#FiraSans-Medium-33"/>
     <use x="50.999985" xlink:href="#FiraSans-Medium-20"/>
     <use x="75.999969" xlink:href="#FiraSans-Medium-28"/>
     <use x="108.399963" xlink:href="#FiraSans-Medium-32"/>
     <use x="159.09996" xlink:href="#FiraSans-Medium-35"/>
     <use x="211.099945" xlink:href="#FiraSans-Medium-2e"/>
     <use x="235.09993" xlink:href="#FiraSans-Medium-30"/>
     <use x="292.399918" xlink:href="#FiraSans-Medium-25"/>
     <use x="376.799911" xlink:href="#FiraSans-Medium-29"/>
    </g>
   </g>
   <g id="text_15">
    <!-- 2 (50.0%) -->
    <g style="fill:#262626;" transform="translate(713.179375 434.482562)scale(0.14 -0.14)">
     <use xlink:href="#FiraSans-Medium-32"/>
     <use x="50.699997" xlink:href="#FiraSans-Medium-20"/>
     <use x="75.699982" xlink:href="#FiraSans-Medium-28"/>
     <use x="108.099976" xlink:href="#FiraSans-Medium-35"/>
     <use x="160.09996" xlink:href="#FiraSans-Medium-30"/>
     <use x="217.399948" xlink:href="#FiraSans-Medium-2e"/>
     <use x="241.399933" xlink:href="#FiraSans-Medium-30"/>
     <use x="298.699921" xlink:href="#FiraSans-Medium-25"/>
     <use x="383.099915" xlink:href="#FiraSans-Medium-29"/>
    </g>
   </g>
   <g id="text_16">
    <!-- 2 (50.0%) -->
    <g style="fill:#262626;" transform="translate(713.179375 298.582562)scale(0.14 -0.14)">
     <use xlink:href="#FiraSans-Medium-32"/>
     <use x="50.699997" xlink:href="#FiraSans-Medium-20"/>
     <use x="75.699982" xlink:href="#FiraSans-Medium-28"/>
     <use x="108.099976" xlink:href="#FiraSans-Medium-35"/>
     <use x="160.09996" xlink:href="#FiraSans-Medium-30"/>
     <use x="217.399948" xlink:href="#FiraSans-Medium-2e"/>
     <use x="241.399933" xlink:href="#FiraSans-Medium-30"/>
     <use x="298.699921" xlink:href="#FiraSans-Medium-25"/>
     <use x="383.099915" xlink:href="#FiraSans-Medium-29"/>
    </g>
   </g>
   <g id="text_17">
    <!-- 1 (25.0%) -->
    <defs>
     <path d="M 35.5 67.296875 
L 35.5 0 
L 22.90625 0 
L 22.90625 54.40625 
L 7.90625 45.296875 
L 2.296875 53.90625 
L 24.203125 67.296875 
z
" id="FiraSans-Medium-31"/>
    </defs>
    <g style="fill:#262626;" transform="translate(447.465089 162.682562)scale(0.14 -0.14)">
     <use xlink:href="#FiraSans-Medium-31"/>
     <use x="44.999985" xlink:href="#FiraSans-Medium-20"/>
     <use x="69.999969" xlink:href="#FiraSans-Medium-28"/>
     <use x="102.399963" xlink:href="#FiraSans-Medium-32"/>
     <use x="153.09996" xlink:href="#FiraSans-Medium-35"/>
     <use x="205.099945" xlink:href="#FiraSans-Medium-2e"/>
     <use x="229.09993" xlink:href="#FiraSans-Medium-30"/>
     <use x="286.399918" xlink:href="#FiraSans-Medium-25"/>
     <use x="370.799911" xlink:href="#FiraSans-Medium-29"/>
    </g>
   </g>
   <g id="text_18">
    <!-- Q35. How often have you interacted (worked, discussed, ...) with the -->
    <defs>
     <path d="M 48.703125 4.203125 
Q 54.796875 4.203125 59.5 2.59375 
Q 64.203125 1 68.40625 -2 
L 60.203125 -12.703125 
Q 54.40625 -6.796875 48.65625 -4 
Q 42.90625 -1.203125 33.90625 -1.203125 
Q 25 -1.203125 18.296875 2.9375 
Q 11.59375 7.09375 7.9375 15.09375 
Q 4.296875 23.09375 4.296875 34.5 
Q 4.296875 45.703125 8 53.84375 
Q 11.703125 62 18.546875 66.296875 
Q 25.40625 70.59375 34.59375 70.59375 
Q 43.90625 70.59375 50.703125 66.390625 
Q 57.5 62.203125 61.140625 54.09375 
Q 64.796875 46 64.796875 34.59375 
Q 64.796875 22.703125 60.546875 15.453125 
Q 56.296875 8.203125 48.703125 4.203125 
z
M 18.203125 34.5 
Q 18.203125 8.59375 34.59375 8.59375 
Q 42.59375 8.59375 46.75 14.796875 
Q 50.90625 21 50.90625 34.59375 
Q 50.90625 48.09375 46.75 54.296875 
Q 42.59375 60.5 34.59375 60.5 
Q 26.59375 60.5 22.390625 54.25 
Q 18.203125 48 18.203125 34.5 
z
" id="FiraSans-Medium-51"/>
     <path d="M 45.90625 0 
L 45.90625 30.90625 
L 21.296875 30.90625 
L 21.296875 0 
L 8.09375 0 
L 8.09375 69.09375 
L 21.296875 69.09375 
L 21.296875 41.40625 
L 45.90625 41.40625 
L 45.90625 69.09375 
L 59.203125 69.09375 
L 59.203125 0 
z
" id="FiraSans-Medium-48"/>
     <path d="M 29.296875 54.40625 
Q 41 54.40625 47.546875 46.953125 
Q 54.09375 39.5 54.09375 26.5 
Q 54.09375 18.203125 51.09375 11.84375 
Q 48.09375 5.5 42.5 2 
Q 36.90625 -1.5 29.203125 -1.5 
Q 17.5 -1.5 10.890625 5.953125 
Q 4.296875 13.40625 4.296875 26.5 
Q 4.296875 34.796875 7.296875 41.09375 
Q 10.296875 47.40625 15.9375 50.90625 
Q 21.59375 54.40625 29.296875 54.40625 
z
M 29.296875 44.703125 
Q 17.796875 44.703125 17.796875 26.5 
Q 17.796875 17.09375 20.640625 12.640625 
Q 23.5 8.203125 29.203125 8.203125 
Q 34.90625 8.203125 37.75 12.703125 
Q 40.59375 17.203125 40.59375 26.5 
Q 40.59375 35.796875 37.75 40.25 
Q 34.90625 44.703125 29.296875 44.703125 
z
" id="FiraSans-Medium-6f"/>
     <path d="M 72.296875 52.90625 
L 60.796875 0 
L 44.796875 0 
L 36.796875 41.5 
L 28.59375 0 
L 12.90625 0 
L 1.203125 52.90625 
L 14 52.90625 
L 21.40625 9.40625 
L 30.59375 52.90625 
L 43.703125 52.90625 
L 52.09375 9.40625 
L 60 52.90625 
z
" id="FiraSans-Medium-77"/>
     <path d="M 29.09375 65.796875 
Q 25.296875 65.796875 23.640625 64.046875 
Q 22 62.296875 22 58.5 
L 22 52.90625 
L 34.703125 52.90625 
L 33.296875 43.703125 
L 22 43.703125 
L 22 0 
L 9.203125 0 
L 9.203125 43.703125 
L 0.59375 43.703125 
L 0.59375 52.90625 
L 9.203125 52.90625 
L 9.203125 58.703125 
Q 9.203125 66.203125 14.046875 70.84375 
Q 18.90625 75.5 27.796875 75.5 
Q 34.796875 75.5 41.5 72.40625 
L 37.796875 63.796875 
Q 33.5 65.796875 29.09375 65.796875 
z
" id="FiraSans-Medium-66"/>
     <path d="M 38 2.5 
Q 35.203125 0.5 31.75 -0.5 
Q 28.296875 -1.5 24.703125 -1.5 
Q 16.90625 -1.40625 12.84375 2.9375 
Q 8.796875 7.296875 8.796875 15.796875 
L 8.796875 43.703125 
L 0.5 43.703125 
L 0.5 52.90625 
L 8.796875 52.90625 
L 8.796875 64.59375 
L 21.59375 66.09375 
L 21.59375 52.90625 
L 33.90625 52.90625 
L 32.59375 43.703125 
L 21.59375 43.703125 
L 21.59375 16.09375 
Q 21.59375 12.203125 22.9375 10.5 
Q 24.296875 8.796875 27.203125 8.796875 
Q 30.09375 8.796875 33.5 10.703125 
z
" id="FiraSans-Medium-74"/>
     <path d="M 51.09375 27.703125 
Q 51.09375 26.703125 50.796875 22.5 
L 17.59375 22.5 
Q 18.203125 14.796875 21.59375 11.5 
Q 25 8.203125 30.59375 8.203125 
Q 34.09375 8.203125 37.1875 9.34375 
Q 40.296875 10.5 43.796875 12.90625 
L 49.09375 5.59375 
Q 40.296875 -1.5 29.5 -1.5 
Q 17.40625 -1.5 10.84375 5.890625 
Q 4.296875 13.296875 4.296875 26.09375 
Q 4.296875 34.203125 7.09375 40.640625 
Q 9.90625 47.09375 15.203125 50.75 
Q 20.5 54.40625 27.796875 54.40625 
Q 38.90625 54.40625 45 47.34375 
Q 51.09375 40.296875 51.09375 27.703125 
z
M 38.40625 31.40625 
Q 38.40625 45.296875 28.09375 45.296875 
Q 23.40625 45.296875 20.75 41.84375 
Q 18.09375 38.40625 17.59375 30.796875 
L 38.40625 30.796875 
z
" id="FiraSans-Medium-65"/>
     <path d="M 35.90625 54.40625 
Q 43 54.40625 46.953125 50.15625 
Q 50.90625 45.90625 50.90625 38.296875 
L 50.90625 0 
L 38.09375 0 
L 38.09375 36.296875 
Q 38.09375 41 36.4375 42.890625 
Q 34.796875 44.796875 31.59375 44.796875 
Q 28.296875 44.796875 25.640625 42.75 
Q 23 40.703125 20.5 36.796875 
L 20.5 0 
L 7.703125 0 
L 7.703125 52.90625 
L 18.796875 52.90625 
L 19.796875 46 
Q 26.296875 54.40625 35.90625 54.40625 
z
" id="FiraSans-Medium-6e"/>
     <path d="M 35.90625 54.40625 
Q 42.90625 54.40625 46.90625 50.09375 
Q 50.90625 45.796875 50.90625 38.296875 
L 50.90625 0 
L 38.09375 0 
L 38.09375 36.296875 
Q 38.09375 41 36.4375 42.890625 
Q 34.796875 44.796875 31.59375 44.796875 
Q 28.40625 44.796875 25.703125 42.75 
Q 23 40.703125 20.5 36.90625 
L 20.5 0 
L 7.703125 0 
L 7.703125 74 
L 20.5 75.296875 
L 20.5 46.59375 
Q 26.90625 54.40625 35.90625 54.40625 
z
" id="FiraSans-Medium-68"/>
     <path d="M 46.796875 14 
Q 46.796875 10.90625 47.75 9.453125 
Q 48.703125 8 50.796875 7.203125 
L 48.09375 -1.296875 
Q 43.59375 -0.90625 40.75 0.890625 
Q 37.90625 2.703125 36.40625 6.40625 
Q 33.703125 2.40625 29.640625 0.453125 
Q 25.59375 -1.5 20.59375 -1.5 
Q 12.703125 -1.5 8.09375 3 
Q 3.5 7.5 3.5 14.796875 
Q 3.5 23.40625 9.75 27.953125 
Q 16 32.5 27.59375 32.5 
L 34.203125 32.5 
L 34.203125 35.5 
Q 34.203125 40.59375 31.84375 42.640625 
Q 29.5 44.703125 24.296875 44.703125 
Q 18.5 44.703125 10.296875 41.90625 
L 7.296875 50.59375 
Q 17.203125 54.40625 26.5 54.40625 
Q 46.796875 54.40625 46.796875 36.203125 
L 46.796875 14 
z
M 24 7.796875 
Q 30.5 7.796875 34.203125 14.296875 
L 34.203125 25 
L 28.90625 25 
Q 16.5 25 16.5 15.796875 
Q 16.5 12 18.390625 9.890625 
Q 20.296875 7.796875 24 7.796875 
z
" id="FiraSans-Medium-61"/>
     <path d="M 50.203125 52.90625 
L 33 0 
L 17.703125 0 
L 0.203125 52.90625 
L 14.09375 52.90625 
L 25.40625 10.296875 
L 37 52.90625 
z
" id="FiraSans-Medium-76"/>
     <path d="M 33.296875 -0.203125 
Q 30.09375 -10 23.59375 -15.453125 
Q 17.09375 -20.90625 5.796875 -21.796875 
L 4.5 -12.5 
Q 9.703125 -11.703125 12.84375 -10.25 
Q 16 -8.796875 17.890625 -6.390625 
Q 19.796875 -4 21.40625 0 
L 17 0 
L 0.203125 52.90625 
L 13.796875 52.90625 
L 25.296875 8.5 
L 37.296875 52.90625 
L 50.5 52.90625 
z
" id="FiraSans-Medium-79"/>
     <path d="M 50 0 
L 38.90625 0 
L 38.203125 7.40625 
Q 35.296875 2.90625 31.34375 0.703125 
Q 27.40625 -1.5 22 -1.5 
Q 14.90625 -1.5 11.046875 2.84375 
Q 7.203125 7.203125 7.203125 14.90625 
L 7.203125 52.90625 
L 20 52.90625 
L 20 16.5 
Q 20 12 21.546875 10.09375 
Q 23.09375 8.203125 26.5 8.203125 
Q 32.59375 8.203125 37.203125 15.703125 
L 37.203125 52.90625 
L 50 52.90625 
z
" id="FiraSans-Medium-75"/>
     <path d="M 20.5 52.90625 
L 20.5 0 
L 7.703125 0 
L 7.703125 52.90625 
z
M 14 79.703125 
Q 17.59375 79.703125 19.84375 77.453125 
Q 22.09375 75.203125 22.09375 71.90625 
Q 22.09375 68.59375 19.84375 66.390625 
Q 17.59375 64.203125 14 64.203125 
Q 10.5 64.203125 8.25 66.390625 
Q 6 68.59375 6 71.90625 
Q 6 75.203125 8.25 77.453125 
Q 10.5 79.703125 14 79.703125 
z
" id="FiraSans-Medium-69"/>
     <path d="M 33.796875 54.296875 
Q 36.703125 54.296875 39.09375 53.59375 
L 36.90625 41.203125 
Q 34.5 41.796875 32.203125 41.796875 
Q 27.5 41.796875 24.796875 38.4375 
Q 22.09375 35.09375 20.5 28.203125 
L 20.5 0 
L 7.703125 0 
L 7.703125 52.90625 
L 18.796875 52.90625 
L 20 42.5 
Q 21.90625 48.203125 25.5 51.25 
Q 29.09375 54.296875 33.796875 54.296875 
z
" id="FiraSans-Medium-72"/>
     <path d="M 29 54.40625 
Q 34.203125 54.40625 38.34375 52.90625 
Q 42.5 51.40625 46.203125 48.203125 
L 40.5 40.5 
Q 37.796875 42.5 35.296875 43.390625 
Q 32.796875 44.296875 29.796875 44.296875 
Q 17.90625 44.296875 17.90625 26.203125 
Q 17.90625 17 21 12.953125 
Q 24.09375 8.90625 29.796875 8.90625 
Q 32.59375 8.90625 34.9375 9.796875 
Q 37.296875 10.703125 40.5 12.703125 
L 46.203125 4.59375 
Q 38.703125 -1.5 29.09375 -1.5 
Q 21.5 -1.5 15.890625 1.84375 
Q 10.296875 5.203125 7.296875 11.390625 
Q 4.296875 17.59375 4.296875 26 
Q 4.296875 34.40625 7.296875 40.84375 
Q 10.296875 47.296875 15.890625 50.84375 
Q 21.5 54.40625 29 54.40625 
z
" id="FiraSans-Medium-63"/>
     <path d="M 52.203125 74.09375 
L 52.203125 0 
L 40.90625 0 
L 40 6.703125 
Q 37.5 2.90625 33.640625 0.703125 
Q 29.796875 -1.5 24.90625 -1.5 
Q 15.203125 -1.5 10 6 
Q 4.796875 13.5 4.796875 26.40625 
Q 4.796875 34.5 7.390625 40.84375 
Q 10 47.203125 14.84375 50.796875 
Q 19.703125 54.40625 26.09375 54.40625 
Q 33.703125 54.40625 39.40625 48.703125 
L 39.40625 75.5 
z
M 28.5 8.203125 
Q 31.90625 8.203125 34.5 9.84375 
Q 37.09375 11.5 39.40625 15 
L 39.40625 39.203125 
Q 37.09375 42 34.75 43.390625 
Q 32.40625 44.796875 29.296875 44.796875 
Q 24.203125 44.796875 21.25 40.25 
Q 18.296875 35.703125 18.296875 26.5 
Q 18.296875 16.703125 20.890625 12.453125 
Q 23.5 8.203125 28.5 8.203125 
z
" id="FiraSans-Medium-64"/>
     <path d="M 20.5 75.5 
L 20.5 0 
L 7.703125 0 
L 7.703125 74.09375 
z
M 52.203125 52.90625 
L 34.59375 29.59375 
L 53.90625 0 
L 39.203125 0 
L 21 28.90625 
L 38.703125 52.90625 
z
" id="FiraSans-Medium-6b"/>
     <path d="M 11.90625 14.703125 
Q 15.40625 14.703125 17.75 12.390625 
Q 20.09375 10.09375 20.09375 6.59375 
Q 20.09375 4.703125 19.5 2.703125 
Q 18.90625 0.703125 17.5 -2.40625 
L 11 -17.203125 
L 3.203125 -17.203125 
L 7.296875 0 
Q 3.90625 2.296875 3.90625 6.703125 
Q 3.90625 10.09375 6.203125 12.390625 
Q 8.5 14.703125 11.90625 14.703125 
z
" id="FiraSans-Medium-2c"/>
     <path d="M 24.40625 54.40625 
Q 35.09375 54.40625 43.203125 48.09375 
L 38.203125 40.59375 
Q 31.40625 44.90625 24.90625 44.90625 
Q 21.09375 44.90625 19 43.453125 
Q 16.90625 42 16.90625 39.59375 
Q 16.90625 37.796875 17.796875 36.59375 
Q 18.703125 35.40625 21.046875 34.34375 
Q 23.40625 33.296875 28 32 
Q 36.59375 29.703125 40.75 25.890625 
Q 44.90625 22.09375 44.90625 15.296875 
Q 44.90625 7.40625 38.5 2.953125 
Q 32.09375 -1.5 22.59375 -1.5 
Q 16.09375 -1.5 10.75 0.5 
Q 5.40625 2.5 1.5 6 
L 7.90625 13.203125 
Q 14.796875 8 22.296875 8 
Q 26.59375 8 29.140625 9.703125 
Q 31.703125 11.40625 31.703125 14.40625 
Q 31.703125 16.703125 30.75 18.046875 
Q 29.796875 19.40625 27.34375 20.453125 
Q 24.90625 21.5 19.703125 23 
Q 11.59375 25.203125 7.796875 29.140625 
Q 4 33.09375 4 39 
Q 4 43.40625 6.546875 46.90625 
Q 9.09375 50.40625 13.75 52.40625 
Q 18.40625 54.40625 24.40625 54.40625 
z
" id="FiraSans-Medium-73"/>
    </defs>
    <g style="fill:#262626;" transform="translate(236.046406 25.944687)scale(0.22 -0.22)">
     <use xlink:href="#FiraSans-Medium-51"/>
     <use x="69.099991" xlink:href="#FiraSans-Medium-33"/>
     <use x="120.099976" xlink:href="#FiraSans-Medium-35"/>
     <use x="172.09996" xlink:href="#FiraSans-Medium-2e"/>
     <use x="196.099945" xlink:href="#FiraSans-Medium-20"/>
     <use x="221.09993" xlink:href="#FiraSans-Medium-48"/>
     <use x="288.299927" xlink:href="#FiraSans-Medium-6f"/>
     <use x="346.699921" xlink:href="#FiraSans-Medium-77"/>
     <use x="420.099915" xlink:href="#FiraSans-Medium-20"/>
     <use x="445.099899" xlink:href="#FiraSans-Medium-6f"/>
     <use x="503.499893" xlink:href="#FiraSans-Medium-66"/>
     <use x="538.19989" xlink:href="#FiraSans-Medium-74"/>
     <use x="575.699875" xlink:href="#FiraSans-Medium-65"/>
     <use x="630.599869" xlink:href="#FiraSans-Medium-6e"/>
     <use x="688.69986" xlink:href="#FiraSans-Medium-20"/>
     <use x="713.699844" xlink:href="#FiraSans-Medium-68"/>
     <use x="771.799835" xlink:href="#FiraSans-Medium-61"/>
     <use x="826.399826" xlink:href="#FiraSans-Medium-76"/>
     <use x="876.79982" xlink:href="#FiraSans-Medium-65"/>
     <use x="931.699814" xlink:href="#FiraSans-Medium-20"/>
     <use x="956.699799" xlink:href="#FiraSans-Medium-79"/>
     <use x="1007.299789" xlink:href="#FiraSans-Medium-6f"/>
     <use x="1065.699783" xlink:href="#FiraSans-Medium-75"/>
     <use x="1123.39978" xlink:href="#FiraSans-Medium-20"/>
     <use x="1148.399765" xlink:href="#FiraSans-Medium-69"/>
     <use x="1176.599762" xlink:href="#FiraSans-Medium-6e"/>
     <use x="1234.699753" xlink:href="#FiraSans-Medium-74"/>
     <use x="1272.199738" xlink:href="#FiraSans-Medium-65"/>
     <use x="1327.099731" xlink:href="#FiraSans-Medium-72"/>
     <use x="1366.499725" xlink:href="#FiraSans-Medium-61"/>
     <use x="1421.099716" xlink:href="#FiraSans-Medium-63"/>
     <use x="1468.899704" xlink:href="#FiraSans-Medium-74"/>
     <use x="1506.399689" xlink:href="#FiraSans-Medium-65"/>
     <use x="1561.299683" xlink:href="#FiraSans-Medium-64"/>
     <use x="1621.199677" xlink:href="#FiraSans-Medium-20"/>
     <use x="1646.199661" xlink:href="#FiraSans-Medium-28"/>
     <use x="1678.599655" xlink:href="#FiraSans-Medium-77"/>
     <use x="1751.999649" xlink:href="#FiraSans-Medium-6f"/>
     <use x="1810.399643" xlink:href="#FiraSans-Medium-72"/>
     <use x="1849.799637" xlink:href="#FiraSans-Medium-6b"/>
     <use x="1903.199631" xlink:href="#FiraSans-Medium-65"/>
     <use x="1958.099625" xlink:href="#FiraSans-Medium-64"/>
     <use x="2017.999619" xlink:href="#FiraSans-Medium-2c"/>
     <use x="2041.999603" xlink:href="#FiraSans-Medium-20"/>
     <use x="2066.999588" xlink:href="#FiraSans-Medium-64"/>
     <use x="2126.899582" xlink:href="#FiraSans-Medium-69"/>
     <use x="2155.099579" xlink:href="#FiraSans-Medium-73"/>
     <use x="2202.69957" xlink:href="#FiraSans-Medium-63"/>
     <use x="2250.499557" xlink:href="#FiraSans-Medium-75"/>
     <use x="2308.199554" xlink:href="#FiraSans-Medium-73"/>
     <use x="2355.799545" xlink:href="#FiraSans-Medium-73"/>
     <use x="2403.399536" xlink:href="#FiraSans-Medium-65"/>
     <use x="2458.29953" xlink:href="#FiraSans-Medium-64"/>
     <use x="2518.199524" xlink:href="#FiraSans-Medium-2c"/>
     <use x="2542.199509" xlink:href="#FiraSans-Medium-20"/>
     <use x="2567.199493" xlink:href="#FiraSans-Medium-2e"/>
     <use x="2591.199478" xlink:href="#FiraSans-Medium-2e"/>
     <use x="2615.199463" xlink:href="#FiraSans-Medium-2e"/>
     <use x="2639.199448" xlink:href="#FiraSans-Medium-29"/>
     <use x="2671.599442" xlink:href="#FiraSans-Medium-20"/>
     <use x="2696.599426" xlink:href="#FiraSans-Medium-77"/>
     <use x="2769.99942" xlink:href="#FiraSans-Medium-69"/>
     <use x="2798.199417" xlink:href="#FiraSans-Medium-74"/>
     <use x="2835.699402" xlink:href="#FiraSans-Medium-68"/>
     <use x="2893.799393" xlink:href="#FiraSans-Medium-20"/>
     <use x="2918.799377" xlink:href="#FiraSans-Medium-74"/>
     <use x="2956.299362" xlink:href="#FiraSans-Medium-68"/>
     <use x="3014.399353" xlink:href="#FiraSans-Medium-65"/>
    </g>
    <!-- other participants in the development of making and open source -->
    <defs>
     <path d="M 35.09375 54.40625 
Q 45.09375 54.40625 49.890625 47.09375 
Q 54.703125 39.796875 54.703125 26.59375 
Q 54.703125 18.40625 52.25 12.046875 
Q 49.796875 5.703125 45.046875 2.09375 
Q 40.296875 -1.5 33.796875 -1.5 
Q 25.40625 -1.5 20.5 4.296875 
L 20.5 -20.40625 
L 7.703125 -21.796875 
L 7.703125 52.90625 
L 18.90625 52.90625 
L 19.59375 46.40625 
Q 22.703125 50.40625 26.703125 52.40625 
Q 30.703125 54.40625 35.09375 54.40625 
z
M 30.203125 8.296875 
Q 41.296875 8.296875 41.296875 26.5 
Q 41.296875 36.203125 38.796875 40.5 
Q 36.296875 44.796875 31.296875 44.796875 
Q 28.09375 44.796875 25.296875 42.84375 
Q 22.5 40.90625 20.5 37.59375 
L 20.5 13.796875 
Q 24.203125 8.296875 30.203125 8.296875 
z
" id="FiraSans-Medium-70"/>
     <path d="M 20.203125 -1.5 
Q 14.09375 -1.5 10.640625 2.046875 
Q 7.203125 5.59375 7.203125 12.09375 
L 7.203125 74.09375 
L 20 75.5 
L 20 12.5 
Q 20 8.796875 23 8.796875 
Q 24.5 8.796875 26 9.296875 
L 28.703125 0.296875 
Q 24.703125 -1.5 20.203125 -1.5 
z
" id="FiraSans-Medium-6c"/>
     <path d="M 63.796875 54.40625 
Q 70.203125 54.40625 74 50.046875 
Q 77.796875 45.703125 77.796875 38.296875 
L 77.796875 0 
L 65 0 
L 65 36.296875 
Q 65 44.796875 59.203125 44.796875 
Q 56.09375 44.796875 53.84375 42.84375 
Q 51.59375 40.90625 49.203125 36.796875 
L 49.203125 0 
L 36.40625 0 
L 36.40625 36.296875 
Q 36.40625 44.796875 30.59375 44.796875 
Q 27.40625 44.796875 25.15625 42.84375 
Q 22.90625 40.90625 20.5 36.796875 
L 20.5 0 
L 7.703125 0 
L 7.703125 52.90625 
L 18.796875 52.90625 
L 19.796875 46 
Q 25.796875 54.40625 35.09375 54.40625 
Q 39.703125 54.40625 43.046875 52.046875 
Q 46.40625 49.703125 47.90625 45.5 
Q 51.09375 49.796875 54.9375 52.09375 
Q 58.796875 54.40625 63.796875 54.40625 
z
" id="FiraSans-Medium-6d"/>
     <path d="M 53.703125 50.09375 
Q 48.59375 48.296875 38.40625 48.296875 
Q 43.296875 46.09375 45.640625 42.84375 
Q 48 39.59375 48 34.703125 
Q 48 29.5 45.453125 25.5 
Q 42.90625 21.5 38.046875 19.203125 
Q 33.203125 16.90625 26.703125 16.90625 
Q 23.09375 16.90625 20.40625 17.703125 
Q 18.203125 16.203125 18.203125 13.796875 
Q 18.203125 10.09375 24.59375 10.09375 
L 32.703125 10.09375 
Q 38.5 10.09375 42.84375 8.1875 
Q 47.203125 6.296875 49.59375 2.84375 
Q 52 -0.59375 52 -4.90625 
Q 52 -12.90625 45.203125 -17.34375 
Q 38.40625 -21.796875 25.59375 -21.796875 
Q 16.40625 -21.796875 11.15625 -19.890625 
Q 5.90625 -18 3.703125 -14.390625 
Q 1.5 -10.796875 1.5 -5.203125 
L 13 -5.203125 
Q 13 -8 14.046875 -9.59375 
Q 15.09375 -11.203125 17.84375 -12 
Q 20.59375 -12.796875 25.796875 -12.796875 
Q 33.09375 -12.796875 36.09375 -11 
Q 39.09375 -9.203125 39.09375 -5.796875 
Q 39.09375 -2.796875 36.796875 -1.140625 
Q 34.5 0.5 30.09375 0.5 
L 22.09375 0.5 
Q 14.59375 0.5 10.796875 3.390625 
Q 7 6.296875 7 10.703125 
Q 7 13.5 8.640625 16.09375 
Q 10.296875 18.703125 13.203125 20.5 
Q 8.40625 23 6.15625 26.640625 
Q 3.90625 30.296875 3.90625 35.40625 
Q 3.90625 41.09375 6.703125 45.390625 
Q 9.5 49.703125 14.453125 52.046875 
Q 19.40625 54.40625 25.796875 54.40625 
Q 34.203125 54.203125 39.34375 55.640625 
Q 44.5 57.09375 50.5 60.296875 
z
M 26 45.703125 
Q 21.703125 45.703125 19.25 42.953125 
Q 16.796875 40.203125 16.796875 35.59375 
Q 16.796875 30.796875 19.296875 28 
Q 21.796875 25.203125 26.203125 25.203125 
Q 30.796875 25.203125 33.1875 27.953125 
Q 35.59375 30.703125 35.59375 35.703125 
Q 35.59375 45.703125 26 45.703125 
z
" id="FiraSans-Medium-67"/>
    </defs>
    <g style="fill:#262626;" transform="translate(243.522969 51.781625)scale(0.22 -0.22)">
     <use xlink:href="#FiraSans-Medium-6f"/>
     <use x="58.399994" xlink:href="#FiraSans-Medium-74"/>
     <use x="95.899979" xlink:href="#FiraSans-Medium-68"/>
     <use x="153.999969" xlink:href="#FiraSans-Medium-65"/>
     <use x="208.899963" xlink:href="#FiraSans-Medium-72"/>
     <use x="248.299957" xlink:href="#FiraSans-Medium-20"/>
     <use x="273.299942" xlink:href="#FiraSans-Medium-70"/>
     <use x="332.899933" xlink:href="#FiraSans-Medium-61"/>
     <use x="387.499924" xlink:href="#FiraSans-Medium-72"/>
     <use x="426.899918" xlink:href="#FiraSans-Medium-74"/>
     <use x="464.399902" xlink:href="#FiraSans-Medium-69"/>
     <use x="492.599899" xlink:href="#FiraSans-Medium-63"/>
     <use x="540.399887" xlink:href="#FiraSans-Medium-69"/>
     <use x="568.599884" xlink:href="#FiraSans-Medium-70"/>
     <use x="628.199875" xlink:href="#FiraSans-Medium-61"/>
     <use x="682.799866" xlink:href="#FiraSans-Medium-6e"/>
     <use x="740.899857" xlink:href="#FiraSans-Medium-74"/>
     <use x="778.399841" xlink:href="#FiraSans-Medium-73"/>
     <use x="825.999832" xlink:href="#FiraSans-Medium-20"/>
     <use x="850.999817" xlink:href="#FiraSans-Medium-69"/>
     <use x="879.199814" xlink:href="#FiraSans-Medium-6e"/>
     <use x="937.299805" xlink:href="#FiraSans-Medium-20"/>
     <use x="962.299789" xlink:href="#FiraSans-Medium-74"/>
     <use x="999.799774" xlink:href="#FiraSans-Medium-68"/>
     <use x="1057.899765" xlink:href="#FiraSans-Medium-65"/>
     <use x="1112.799759" xlink:href="#FiraSans-Medium-20"/>
     <use x="1137.799744" xlink:href="#FiraSans-Medium-64"/>
     <use x="1197.699738" xlink:href="#FiraSans-Medium-65"/>
     <use x="1252.599731" xlink:href="#FiraSans-Medium-76"/>
     <use x="1302.999725" xlink:href="#FiraSans-Medium-65"/>
     <use x="1357.899719" xlink:href="#FiraSans-Medium-6c"/>
     <use x="1387.399704" xlink:href="#FiraSans-Medium-6f"/>
     <use x="1445.799698" xlink:href="#FiraSans-Medium-70"/>
     <use x="1505.399689" xlink:href="#FiraSans-Medium-6d"/>
     <use x="1590.399673" xlink:href="#FiraSans-Medium-65"/>
     <use x="1645.299667" xlink:href="#FiraSans-Medium-6e"/>
     <use x="1703.399658" xlink:href="#FiraSans-Medium-74"/>
     <use x="1740.899643" xlink:href="#FiraSans-Medium-20"/>
     <use x="1765.899628" xlink:href="#FiraSans-Medium-6f"/>
     <use x="1824.299622" xlink:href="#FiraSans-Medium-66"/>
     <use x="1858.999619" xlink:href="#FiraSans-Medium-20"/>
     <use x="1883.999603" xlink:href="#FiraSans-Medium-6d"/>
     <use x="1968.999588" xlink:href="#FiraSans-Medium-61"/>
     <use x="2023.599579" xlink:href="#FiraSans-Medium-6b"/>
     <use x="2076.999573" xlink:href="#FiraSans-Medium-69"/>
     <use x="2105.19957" xlink:href="#FiraSans-Medium-6e"/>
     <use x="2163.299561" xlink:href="#FiraSans-Medium-67"/>
     <use x="2216.999557" xlink:href="#FiraSans-Medium-20"/>
     <use x="2241.999542" xlink:href="#FiraSans-Medium-61"/>
     <use x="2296.599533" xlink:href="#FiraSans-Medium-6e"/>
     <use x="2354.699524" xlink:href="#FiraSans-Medium-64"/>
     <use x="2414.599518" xlink:href="#FiraSans-Medium-20"/>
     <use x="2439.599503" xlink:href="#FiraSans-Medium-6f"/>
     <use x="2497.999496" xlink:href="#FiraSans-Medium-70"/>
     <use x="2557.599487" xlink:href="#FiraSans-Medium-65"/>
     <use x="2612.499481" xlink:href="#FiraSans-Medium-6e"/>
     <use x="2670.599472" xlink:href="#FiraSans-Medium-20"/>
     <use x="2695.599457" xlink:href="#FiraSans-Medium-73"/>
     <use x="2743.199448" xlink:href="#FiraSans-Medium-6f"/>
     <use x="2801.599442" xlink:href="#FiraSans-Medium-75"/>
     <use x="2859.299438" xlink:href="#FiraSans-Medium-72"/>
     <use x="2898.699432" xlink:href="#FiraSans-Medium-63"/>
     <use x="2946.49942" xlink:href="#FiraSans-Medium-65"/>
    </g>
    <!-- initiative before this research study? -->
    <defs>
     <path d="M 35.09375 54.40625 
Q 44.296875 54.40625 49.5 47.046875 
Q 54.703125 39.703125 54.703125 26.5 
Q 54.703125 18.296875 52.140625 11.9375 
Q 49.59375 5.59375 44.890625 2.046875 
Q 40.203125 -1.5 33.796875 -1.5 
Q 29.5 -1.5 25.953125 0.296875 
Q 22.40625 2.09375 19.796875 5.40625 
L 19 0 
L 7.703125 0 
L 7.703125 74.09375 
L 20.5 75.5 
L 20.5 46.90625 
Q 23.09375 50.5 26.84375 52.453125 
Q 30.59375 54.40625 35.09375 54.40625 
z
M 30.296875 8.09375 
Q 35.5 8.09375 38.390625 12.546875 
Q 41.296875 17 41.296875 26.5 
Q 41.296875 36.5 38.59375 40.640625 
Q 35.90625 44.796875 31 44.796875 
Q 24.90625 44.796875 20.5 37.59375 
L 20.5 14.203125 
Q 22.203125 11.296875 24.75 9.6875 
Q 27.296875 8.09375 30.296875 8.09375 
z
" id="FiraSans-Medium-62"/>
     <path d="M 24.296875 70.59375 
Q 30.90625 70.59375 35.546875 68.390625 
Q 40.203125 66.203125 42.59375 62.5 
Q 45 58.796875 45 54.40625 
Q 45 50.40625 43.59375 47.546875 
Q 42.203125 44.703125 40.203125 42.890625 
Q 38.203125 41.09375 35 38.90625 
Q 30.90625 36.203125 28.90625 33.890625 
Q 26.90625 31.59375 26.90625 27.796875 
L 26.90625 24.40625 
L 15 24.40625 
L 15 28.296875 
Q 15 32.796875 16.453125 35.9375 
Q 17.90625 39.09375 19.90625 40.9375 
Q 21.90625 42.796875 25.09375 45 
Q 28.5 47.296875 30.046875 49 
Q 31.59375 50.703125 31.59375 53.40625 
Q 31.59375 56.703125 29.34375 58.546875 
Q 27.09375 60.40625 23.203125 60.40625 
Q 16.09375 60.40625 10.5 53.796875 
L 2.203125 60.296875 
Q 10.90625 70.59375 24.296875 70.59375 
z
M 21.09375 14.703125 
Q 24.5 14.703125 26.890625 12.34375 
Q 29.296875 10 29.296875 6.59375 
Q 29.296875 3.296875 26.890625 0.890625 
Q 24.5 -1.5 21.09375 -1.5 
Q 17.796875 -1.5 15.4375 0.890625 
Q 13.09375 3.296875 13.09375 6.59375 
Q 13.09375 10 15.390625 12.34375 
Q 17.703125 14.703125 21.09375 14.703125 
z
" id="FiraSans-Medium-3f"/>
    </defs>
    <g style="fill:#262626;" transform="translate(389.295312 77.618562)scale(0.22 -0.22)">
     <use xlink:href="#FiraSans-Medium-69"/>
     <use x="28.199997" xlink:href="#FiraSans-Medium-6e"/>
     <use x="86.299988" xlink:href="#FiraSans-Medium-69"/>
     <use x="114.499985" xlink:href="#FiraSans-Medium-74"/>
     <use x="151.999969" xlink:href="#FiraSans-Medium-69"/>
     <use x="180.199966" xlink:href="#FiraSans-Medium-61"/>
     <use x="234.799957" xlink:href="#FiraSans-Medium-74"/>
     <use x="272.299942" xlink:href="#FiraSans-Medium-69"/>
     <use x="300.499939" xlink:href="#FiraSans-Medium-76"/>
     <use x="350.899933" xlink:href="#FiraSans-Medium-65"/>
     <use x="405.799927" xlink:href="#FiraSans-Medium-20"/>
     <use x="430.799911" xlink:href="#FiraSans-Medium-62"/>
     <use x="490.399902" xlink:href="#FiraSans-Medium-65"/>
     <use x="545.299896" xlink:href="#FiraSans-Medium-66"/>
     <use x="579.999893" xlink:href="#FiraSans-Medium-6f"/>
     <use x="638.399887" xlink:href="#FiraSans-Medium-72"/>
     <use x="677.799881" xlink:href="#FiraSans-Medium-65"/>
     <use x="732.699875" xlink:href="#FiraSans-Medium-20"/>
     <use x="757.69986" xlink:href="#FiraSans-Medium-74"/>
     <use x="795.199844" xlink:href="#FiraSans-Medium-68"/>
     <use x="853.299835" xlink:href="#FiraSans-Medium-69"/>
     <use x="881.499832" xlink:href="#FiraSans-Medium-73"/>
     <use x="929.099823" xlink:href="#FiraSans-Medium-20"/>
     <use x="954.099808" xlink:href="#FiraSans-Medium-72"/>
     <use x="993.499802" xlink:href="#FiraSans-Medium-65"/>
     <use x="1048.399796" xlink:href="#FiraSans-Medium-73"/>
     <use x="1095.999786" xlink:href="#FiraSans-Medium-65"/>
     <use x="1150.89978" xlink:href="#FiraSans-Medium-61"/>
     <use x="1205.499771" xlink:href="#FiraSans-Medium-72"/>
     <use x="1244.899765" xlink:href="#FiraSans-Medium-63"/>
     <use x="1292.699753" xlink:href="#FiraSans-Medium-68"/>
     <use x="1350.799744" xlink:href="#FiraSans-Medium-20"/>
     <use x="1375.799728" xlink:href="#FiraSans-Medium-73"/>
     <use x="1423.399719" xlink:href="#FiraSans-Medium-74"/>
     <use x="1460.899704" xlink:href="#FiraSans-Medium-75"/>
     <use x="1518.599701" xlink:href="#FiraSans-Medium-64"/>
     <use x="1578.499695" xlink:href="#FiraSans-Medium-79"/>
     <use x="1629.099686" xlink:href="#FiraSans-Medium-3f"/>
    </g>
   </g>
  </g>
 </g>
 <defs>
  <clipPath id="p26704763ae">
   <rect height="543.6" width="837" x="155.179375" y="94.732562"/>
  </clipPath>
 </defs>
</svg>
